<svg xmlns="http://www.w3.org/2000/svg" xmlns:xlink="http://www.w3.org/1999/xlink" width="500" zoomAndPan="magnify" viewBox="0 0 375 374.999991" height="500" preserveAspectRatio="xMidYMid meet" version="1.0"><rect x="-37.5" width="450" fill="#ffffff" y="-37.499999" height="449.999989" fill-opacity="1"/><rect x="-37.5" width="450" fill="#ffffff" y="-37.499999" height="449.999989" fill-opacity="1"/><path fill="#e8e8e8" d="M 364.742188 108.519531 C 361.605469 102.296875 355.5625 97.054688 347.71875 93.769531 C 331.515625 86.976562 256.542969 75.550781 253.359375 75.066406 C 253.21875 75.046875 253.082031 75.046875 252.949219 75.0625 C 252.046875 72.832031 250.855469 70.804688 249.367188 69.078125 C 243.757812 62.582031 234.523438 60.683594 227.785156 59.296875 L 203.449219 54.289062 C 198.632812 53.300781 193.65625 52.269531 188.535156 52.722656 C 182.6875 53.230469 176.960938 56.335938 172.792969 61.023438 C 166.152344 60.183594 159.171875 59.15625 152.40625 58.15625 C 149.539062 57.730469 146.628906 57.300781 143.722656 56.882812 C 143.375 56.695312 142.96875 56.628906 142.570312 56.714844 C 138.679688 56.160156 134.804688 55.625 131.039062 55.15625 C 128.464844 54.835938 125.714844 54.335938 122.800781 53.804688 C 113.542969 52.121094 103.050781 50.207031 94.582031 53.734375 C 89.542969 55.832031 84.515625 58.160156 79.640625 60.648438 C 75.414062 62.804688 71.25 65.121094 67.164062 67.5625 C 66.675781 67.605469 66.210938 67.832031 65.917969 68.269531 C 65.90625 68.285156 65.90625 68.304688 65.894531 68.324219 C 60.988281 71.300781 56.203125 74.46875 51.574219 77.8125 C 50.753906 78.410156 49.375 79.617188 48.046875 80.789062 C 47.113281 81.609375 46.21875 82.394531 45.589844 82.898438 C 43.839844 84.15625 42.136719 85.71875 40.484375 87.664062 C 33.664062 95.6875 32.578125 104.652344 31.425781 114.144531 C 31.296875 115.234375 31.160156 116.335938 31.015625 117.441406 C 29.976562 125.472656 28.195312 133.664062 26.476562 141.585938 C 25.5625 145.785156 24.621094 150.125 23.800781 154.382812 L 8.78125 232.324219 C 7.347656 239.738281 5.730469 248.144531 8.007812 256.15625 C 10.609375 265.304688 18.230469 273.171875 28.917969 277.734375 C 37.109375 281.238281 45.773438 282.316406 54.148438 283.359375 C 57.691406 283.800781 61.359375 284.253906 64.921875 284.886719 L 64.96875 284.894531 C 64.96875 284.894531 64.96875 284.894531 64.96875 284.898438 C 64.972656 284.898438 64.972656 284.898438 64.972656 284.898438 L 73.351562 286.386719 C 85.089844 288.464844 85.089844 288.464844 102.511719 291.851562 L 106.257812 292.578125 C 127 296.609375 148.03125 300.953125 168.367188 305.152344 C 192.285156 310.089844 216.847656 315.152344 241.390625 319.8125 C 241.414062 319.816406 241.433594 319.828125 241.457031 319.832031 C 241.480469 319.835938 241.503906 319.832031 241.523438 319.835938 C 248.105469 321.085938 254.6875 322.3125 261.253906 323.488281 C 265.238281 324.214844 269.308594 324.851562 273.242188 324.851562 C 277.589844 324.851562 281.769531 324.066406 285.46875 321.773438 C 285.671875 321.859375 285.886719 321.917969 286.109375 321.917969 C 286.386719 321.917969 286.664062 321.847656 286.921875 321.703125 L 332.015625 296.347656 C 336.972656 293.5625 341.988281 290.339844 344.074219 284.339844 C 345.671875 279.742188 346.277344 274.648438 346.863281 269.71875 C 347.097656 267.738281 347.328125 265.773438 347.621094 263.886719 L 354.285156 221.074219 C 358.714844 192.582031 362.878906 164.347656 366.652344 137.152344 C 367.851562 128.46875 369.351562 117.667969 364.742188 108.519531 Z M 359.257812 106.144531 C 348.832031 110.082031 338.710938 114.789062 329.015625 120.261719 C 317.289062 114.128906 302.445312 114.128906 290.726562 120.277344 C 290.082031 120.132812 289.445312 119.992188 288.824219 119.855469 C 285.726562 119.191406 282.613281 118.542969 279.511719 117.886719 C 292.753906 106.386719 305.136719 96.410156 319.433594 89.9375 C 331.417969 92.386719 341.628906 94.835938 346.429688 96.847656 C 351.800781 99.101562 356.21875 102.324219 359.257812 106.144531 Z M 328.035156 152.328125 C 326.253906 155.269531 323.546875 157.199219 320 158.113281 C 320.503906 153.292969 320.761719 142.210938 314.410156 133.332031 C 318.867188 130.265625 323.441406 127.378906 328.109375 124.65625 C 331.097656 133.898438 332.160156 145.527344 328.035156 152.328125 Z M 302.335938 308.402344 C 302.261719 308.675781 302.265625 308.953125 302.328125 309.214844 L 289.210938 316.589844 C 291.605469 311.546875 294.117188 303.332031 296.628906 293.214844 C 298.136719 292.691406 300.125 293.167969 301.453125 294.460938 C 302.894531 295.871094 303.726562 298.167969 303.726562 300.769531 C 303.726562 303.3125 303.019531 305.898438 302.335938 308.402344 Z M 266.863281 296.113281 C 258.886719 301.109375 252.753906 309.046875 249.890625 318.015625 C 247.824219 317.632812 245.757812 317.238281 243.691406 316.847656 C 246.910156 298.992188 249.898438 280.945312 252.785156 263.476562 C 255.761719 245.480469 258.839844 226.878906 262.167969 208.515625 L 278.039062 120.984375 C 281.394531 121.699219 284.765625 122.398438 288.117188 123.117188 C 288.363281 123.171875 288.613281 123.226562 288.859375 123.28125 C 286.050781 130.164062 285.472656 136.578125 287.261719 141.886719 C 289.082031 147.292969 293.84375 154.371094 299.429688 157.4375 C 303.589844 159.722656 312.429688 161.132812 316.148438 161.644531 C 310.554688 202.644531 301.796875 257.296875 294 290.261719 C 284.8125 289.023438 274.773438 291.164062 266.863281 296.113281 Z M 217.085938 311.679688 L 250.859375 115.3125 C 258.746094 116.929688 266.617188 118.570312 274.472656 120.230469 C 274.554688 120.316406 274.644531 120.386719 274.742188 120.449219 L 258.882812 207.921875 C 255.550781 226.308594 252.472656 244.925781 249.496094 262.929688 C 246.609375 280.382812 243.625 298.40625 240.410156 316.226562 C 232.628906 314.746094 224.847656 313.226562 217.085938 311.679688 Z M 292.859375 84.941406 C 299.875 86.175781 307.128906 87.503906 314.003906 88.851562 C 300.339844 95.800781 288.328125 105.753906 275.421875 117.019531 C 268.378906 115.53125 261.328125 114.058594 254.261719 112.605469 C 260.109375 108.648438 265.976562 104.273438 271.683594 100.011719 C 278.621094 94.832031 285.792969 89.476562 292.832031 84.964844 C 292.84375 84.957031 292.847656 84.945312 292.859375 84.941406 Z M 316.636719 158.339844 C 313.125 157.855469 304.695312 156.523438 301.039062 154.515625 C 296.253906 151.886719 292 145.5 290.425781 140.824219 C 288.472656 135.011719 290.195312 128.609375 292.136719 124.03125 C 296.242188 125.039062 300.375 126.34375 304.125 128.484375 C 318.25 136.550781 317.332031 153.054688 316.636719 158.339844 Z M 305.78125 125.585938 C 302.636719 123.792969 299.226562 122.542969 295.863281 121.582031 C 305.308594 117.886719 316.324219 118.117188 325.570312 122.273438 C 321.046875 124.9375 316.613281 127.75 312.289062 130.734375 C 310.523438 128.828125 308.386719 127.074219 305.78125 125.585938 Z M 188.828125 56.046875 C 193.441406 55.644531 198.195312 56.617188 202.773438 57.558594 L 227.109375 62.566406 C 235.242188 64.238281 242.339844 66.046875 246.84375 71.261719 C 249.886719 74.792969 251.605469 80.050781 251.554688 85.6875 C 251.527344 88.371094 251.097656 91.066406 250.3125 93.484375 C 249.457031 96.125 247.933594 98.136719 246.035156 99.15625 C 243.839844 100.335938 240.832031 100.378906 236.824219 99.292969 C 235.382812 98.902344 233.394531 98.226562 232.757812 96.851562 C 232.28125 95.832031 232.523438 94.453125 232.777344 92.988281 L 232.90625 92.234375 C 233.445312 88.914062 233.8125 82.554688 232.648438 78.648438 C 231.203125 73.820312 225.164062 72.703125 222.261719 72.167969 L 203.71875 68.730469 C 201.808594 68.375 199.695312 67.980469 197.585938 67.980469 C 194.6875 67.980469 191.785156 68.722656 189.371094 71.3125 C 187.421875 73.410156 186.628906 76.089844 185.863281 78.679688 C 185.109375 81.242188 184.394531 83.660156 182.632812 85.085938 C 179.257812 87.800781 171.863281 86.5 168.039062 84.367188 C 167.859375 84.269531 167.378906 84 167.234375 83.761719 C 166.128906 81.9375 168.863281 74.054688 172.113281 67.835938 C 175.492188 61.359375 182.207031 56.621094 188.828125 56.046875 Z M 169.152344 66.289062 C 167.882812 68.71875 161.691406 81.0625 164.378906 85.488281 C 164.910156 86.367188 165.707031 86.890625 166.414062 87.285156 C 170.898438 89.785156 179.824219 91.640625 184.726562 87.683594 C 187.300781 85.605469 188.199219 82.566406 189.066406 79.625 C 189.753906 77.300781 190.398438 75.109375 191.816406 73.585938 C 194.730469 70.453125 198.804688 71.210938 203.109375 72.015625 L 221.65625 75.449219 C 225.257812 76.117188 228.691406 77.082031 229.449219 79.605469 C 230.308594 82.480469 230.207031 88.015625 229.613281 91.703125 L 229.492188 92.417969 C 229.175781 94.234375 228.816406 96.289062 229.726562 98.257812 C 230.953125 100.894531 233.867188 101.949219 235.949219 102.515625 C 238.152344 103.113281 240.136719 103.410156 241.929688 103.410156 C 244.097656 103.410156 245.980469 102.972656 247.613281 102.097656 C 250.277344 100.667969 252.359375 97.980469 253.484375 94.515625 C 254.375 91.785156 254.859375 88.738281 254.890625 85.71875 C 254.914062 83.21875 254.636719 80.8125 254.085938 78.554688 C 258.316406 79.203125 272.171875 81.355469 288.0625 84.105469 C 281.898438 88.226562 275.707031 92.84375 269.691406 97.339844 C 263.117188 102.246094 256.332031 107.304688 249.648438 111.660156 C 209.84375 103.519531 169.742188 95.9375 129.675781 89.019531 C 141.453125 79.375 153.335938 71.214844 166.699219 63.589844 C 167.960938 63.761719 169.210938 63.925781 170.460938 64.089844 C 169.992188 64.800781 169.550781 65.53125 169.152344 66.289062 Z M 161.355469 62.839844 C 148.484375 70.429688 136.894531 78.621094 125.328125 88.28125 C 117.492188 86.9375 109.65625 85.609375 101.824219 84.316406 C 114.660156 74.851562 128.484375 66.726562 143.003906 60.152344 C 145.988281 60.582031 148.972656 61.019531 151.917969 61.457031 C 155.035156 61.917969 158.199219 62.382812 161.355469 62.839844 Z M 81.15625 63.617188 C 85.957031 61.171875 90.90625 58.878906 95.863281 56.8125 C 103.421875 53.664062 113.394531 55.484375 122.203125 57.085938 C 125.164062 57.625 127.960938 58.136719 130.625 58.46875 C 132.699219 58.726562 134.8125 59.007812 136.9375 59.296875 C 122.933594 66.023438 109.597656 74.167969 97.222656 83.566406 C 90.945312 82.535156 84.667969 81.5 78.398438 80.503906 C 77.34375 80.335938 76.296875 80.160156 75.257812 79.984375 C 74.957031 76.054688 73.160156 72.289062 70.332031 69.554688 C 73.886719 67.46875 77.5 65.488281 81.15625 63.617188 Z M 67.351562 71.339844 C 69.78125 73.363281 71.417969 76.296875 71.863281 79.429688 C 66.421875 78.5625 61.136719 77.949219 56.105469 78.695312 C 59.765625 76.132812 63.519531 73.675781 67.351562 71.339844 Z M 43.027344 89.824219 C 44.402344 88.203125 45.820312 86.878906 47.28125 85.808594 C 47.296875 85.796875 47.308594 85.796875 47.324219 85.785156 C 47.339844 85.769531 47.367188 85.75 47.386719 85.734375 C 54.476562 80.59375 62.554688 81.320312 71.59375 82.769531 C 69.953125 89.9375 64.742188 97.769531 58.066406 102.867188 C 51.738281 107.699219 43.347656 110.035156 35.425781 109.242188 C 36.441406 102.234375 38.085938 95.636719 43.027344 89.824219 Z M 11.21875 255.242188 C 10.027344 251.050781 10.042969 246.609375 10.527344 242.25 C 17.714844 243.085938 24.4375 247.582031 29.164062 254.78125 C 33.671875 261.648438 34.347656 268.199219 35.140625 276.445312 C 33.492188 275.933594 31.855469 275.359375 30.230469 274.667969 C 20.472656 270.496094 13.542969 263.417969 11.21875 255.242188 Z M 38.570312 277.40625 C 38.570312 277.34375 38.578125 277.28125 38.570312 277.214844 L 38.492188 276.402344 C 37.640625 267.566406 36.96875 260.585938 31.957031 252.949219 C 26.691406 244.933594 19.128906 239.914062 10.976562 238.945312 C 11.300781 236.898438 11.683594 234.890625 12.058594 232.953125 L 27.078125 155.015625 C 27.890625 150.792969 28.828125 146.472656 29.738281 142.292969 C 31.472656 134.300781 33.269531 126.039062 34.328125 117.867188 C 34.472656 116.753906 34.605469 115.644531 34.738281 114.546875 C 34.820312 113.875 34.902344 113.203125 34.984375 112.535156 C 36.195312 112.664062 37.410156 112.746094 38.621094 112.746094 C 46.316406 112.746094 53.9375 110.21875 60.089844 105.519531 C 66.246094 100.820312 72.914062 92.332031 74.894531 83.308594 C 75.882812 83.476562 76.875 83.640625 77.871094 83.800781 C 83.789062 84.742188 89.714844 85.71875 95.640625 86.6875 C 93.960938 97.660156 86.710938 141.636719 79.695312 184.238281 C 72.769531 226.246094 65.628906 269.585938 63.820312 281.324219 C 60.71875 280.820312 57.597656 280.421875 54.5625 280.042969 C 49.050781 279.359375 43.738281 278.6875 38.570312 277.40625 Z M 67.109375 281.886719 C 68.894531 270.289062 76.050781 226.867188 82.988281 184.78125 C 90 142.222656 97.238281 98.292969 98.933594 87.226562 C 107.058594 88.5625 115.191406 89.933594 123.324219 91.324219 C 122.621094 113.605469 97.355469 263.140625 92.542969 286.515625 C 84.90625 285.042969 82.632812 284.640625 73.933594 283.097656 Z M 106.894531 289.300781 L 103.148438 288.574219 C 100.273438 288.015625 97.878906 287.550781 95.820312 287.152344 C 100.648438 263.644531 125.574219 116.027344 126.644531 91.890625 C 167.027344 98.835938 207.460938 106.453125 247.589844 114.644531 L 213.808594 311.027344 C 198.75 308.011719 183.773438 304.921875 169.042969 301.882812 C 148.699219 297.679688 127.65625 293.335938 106.894531 289.300781 Z M 283.835938 318.863281 C 277.789062 322.695312 269.664062 321.628906 261.851562 320.203125 C 258.96875 319.6875 256.082031 319.15625 253.199219 318.625 C 255.878906 310.566406 261.441406 303.449219 268.632812 298.945312 C 275.804688 294.457031 284.882812 292.46875 293.214844 293.523438 C 289.742188 307.660156 286.492188 317.183594 283.835938 318.863281 Z M 363.34375 136.695312 C 359.574219 163.867188 355.417969 192.085938 350.988281 220.5625 L 344.328125 263.371094 C 344.027344 265.300781 343.789062 267.300781 343.550781 269.324219 C 342.988281 274.074219 342.40625 278.988281 340.925781 283.246094 C 339.222656 288.140625 334.785156 290.964844 330.382812 293.441406 L 306.144531 307.070312 C 306.65625 305.042969 307.066406 302.957031 307.066406 300.769531 C 307.066406 297.21875 305.898438 294.128906 303.78125 292.070312 C 302.058594 290.394531 299.703125 289.582031 297.484375 289.707031 C 307.644531 247.066406 317.582031 175.820312 319.515625 161.636719 C 324.574219 160.683594 328.410156 158.152344 330.890625 154.058594 C 335.972656 145.675781 334.246094 132.394531 331.0625 122.945312 C 340.714844 117.527344 350.785156 112.859375 361.167969 108.984375 C 361.367188 109.328125 361.585938 109.667969 361.761719 110.019531 C 365.589844 117.621094 364.742188 126.597656 363.34375 136.695312 Z M 363.34375 136.695312 " fill-opacity="1" fill-rule="nonzero"/><path fill="#e8e8e8" d="M 196.824219 183.984375 C 197.296875 183.925781 197.722656 183.671875 197.992188 183.285156 C 198.261719 182.894531 198.359375 182.410156 198.25 181.945312 C 196.289062 173.550781 194.359375 165.042969 192.425781 156.539062 C 190.492188 148.023438 188.558594 139.511719 186.597656 131.109375 C 186.429688 130.390625 185.804688 129.863281 185.066406 129.824219 C 169.976562 128.980469 154.246094 131.222656 135.5625 136.894531 C 134.746094 137.144531 134.246094 137.96875 134.40625 138.808594 L 143.941406 188.476562 C 144.09375 189.269531 144.789062 189.828125 145.578125 189.828125 C 145.644531 189.828125 145.710938 189.824219 145.777344 189.820312 C 154.117188 188.820312 162.703125 187.859375 171.289062 186.902344 C 179.882812 185.941406 188.476562 184.980469 196.824219 183.984375 Z M 146.925781 186.320312 L 137.96875 139.660156 C 155.128906 134.574219 169.734375 132.488281 183.632812 133.09375 C 185.496094 141.09375 187.332031 149.183594 189.171875 157.277344 C 190.96875 165.179688 192.761719 173.078125 194.578125 180.890625 C 186.824219 181.808594 178.871094 182.695312 170.917969 183.585938 C 162.851562 184.488281 154.785156 185.386719 146.925781 186.320312 Z M 146.925781 186.320312 " fill-opacity="1" fill-rule="nonzero"/><path fill="#e8e8e8" d="M 182.574219 156.832031 C 181.394531 151.6875 180.171875 146.363281 178.679688 141.617188 C 178.433594 140.84375 177.65625 140.351562 176.867188 140.464844 C 171.875 141.128906 167.265625 141.71875 162.652344 142.3125 C 158.085938 142.894531 153.511719 143.480469 148.566406 144.140625 C 148.117188 144.199219 147.707031 144.441406 147.441406 144.808594 C 147.171875 145.175781 147.066406 145.640625 147.144531 146.085938 C 148.925781 156.0625 150.730469 166.707031 151.886719 176.945312 C 151.9375 177.410156 152.1875 177.835938 152.570312 178.113281 C 152.855469 178.316406 153.195312 178.425781 153.542969 178.425781 C 153.660156 178.425781 153.777344 178.414062 153.894531 178.390625 C 158.835938 177.339844 164.183594 176.753906 169.355469 176.183594 C 174.609375 175.605469 180.042969 175.011719 185.152344 173.925781 C 185.609375 173.828125 186.007812 173.539062 186.246094 173.136719 C 186.480469 172.726562 186.539062 172.242188 186.398438 171.792969 C 184.945312 167.167969 183.738281 161.914062 182.574219 156.832031 Z M 168.992188 172.863281 C 164.351562 173.375 159.570312 173.898438 154.996094 174.765625 C 153.894531 165.585938 152.324219 156.160156 150.738281 147.21875 C 155.023438 146.652344 159.050781 146.136719 163.078125 145.621094 C 167.261719 145.085938 171.441406 144.550781 175.90625 143.957031 C 177.175781 148.242188 178.261719 152.980469 179.320312 157.578125 C 180.355469 162.089844 181.417969 166.738281 182.675781 171.015625 C 178.242188 171.851562 173.546875 172.363281 168.992188 172.863281 Z M 168.992188 172.863281 " fill-opacity="1" fill-rule="nonzero"/><path fill="#e8e8e8" d="M 214.097656 229.351562 C 215.367188 225.585938 216.679688 221.691406 218.136719 217.746094 C 218.453125 216.882812 218.011719 215.921875 217.148438 215.601562 C 210.761719 213.246094 204.835938 211.042969 198.910156 208.84375 C 192.984375 206.640625 187.054688 204.4375 180.667969 202.078125 C 180.246094 201.925781 179.78125 201.945312 179.371094 202.140625 C 178.960938 202.335938 178.652344 202.683594 178.507812 203.109375 L 171.3125 224.339844 C 171.019531 225.203125 171.46875 226.136719 172.320312 226.445312 C 185.347656 231.1875 196.992188 235.625 207.617188 241.890625 C 207.878906 242.046875 208.171875 242.125 208.464844 242.125 C 208.65625 242.125 208.84375 242.09375 209.027344 242.027344 C 209.492188 241.863281 209.859375 241.496094 210.03125 241.035156 C 211.503906 237.046875 212.820312 233.136719 214.097656 229.351562 Z M 207.578125 238.015625 C 197.617188 232.367188 186.871094 228.210938 174.996094 223.871094 L 181.117188 205.808594 C 186.898438 207.941406 192.324219 209.957031 197.746094 211.972656 C 203.1875 213.996094 208.628906 216.015625 214.429688 218.15625 C 213.1875 221.605469 212.042969 224.992188 210.933594 228.285156 C 209.867188 231.453125 208.765625 234.710938 207.578125 238.015625 Z M 207.578125 238.015625 " fill-opacity="1" fill-rule="nonzero"/><path fill="#e8e8e8" d="M 155.285156 256.570312 L 147.074219 252.054688 L 149.214844 239.375 C 149.332031 238.699219 149.019531 238.019531 148.429688 237.667969 C 147.839844 237.3125 147.09375 237.355469 146.550781 237.777344 L 137.863281 244.488281 L 126.238281 238.902344 C 125.714844 238.652344 125.109375 238.691406 124.625 238.992188 C 124.140625 239.300781 123.847656 239.835938 123.847656 240.410156 L 123.867188 251.453125 C 121.023438 251.597656 115.152344 251.863281 113.105469 251.734375 C 112.316406 251.707031 111.671875 252.144531 111.421875 252.847656 C 111.175781 253.554688 111.429688 254.335938 112.042969 254.765625 L 119.636719 260.078125 L 110.097656 264.636719 C 109.425781 264.957031 109.050781 265.679688 109.167969 266.410156 C 109.289062 267.140625 109.871094 267.707031 110.605469 267.800781 L 120.96875 269.117188 L 119.710938 277.378906 C 119.613281 278.003906 119.882812 278.636719 120.40625 279 C 120.929688 279.359375 121.617188 279.394531 122.171875 279.085938 L 129.582031 274.957031 L 134.808594 284.953125 C 135.097656 285.503906 135.667969 285.847656 136.285156 285.847656 C 136.320312 285.847656 136.355469 285.847656 136.386719 285.84375 C 137.046875 285.804688 137.617188 285.378906 137.847656 284.765625 L 142.261719 273.003906 L 151.796875 272.636719 C 152.398438 272.617188 152.941406 272.269531 153.21875 271.734375 C 153.496094 271.203125 153.460938 270.558594 153.128906 270.058594 L 149.007812 263.773438 L 155.421875 259.410156 C 155.898438 259.082031 156.175781 258.527344 156.148438 257.953125 C 156.125 257.375 155.792969 256.851562 155.285156 256.570312 Z M 145.773438 261.9375 C 145.023438 262.453125 144.820312 263.472656 145.320312 264.234375 L 148.71875 269.417969 L 141.03125 269.714844 C 140.359375 269.738281 139.769531 270.164062 139.53125 270.792969 L 136.039062 280.101562 L 131.75 271.894531 C 131.539062 271.496094 131.179688 271.199219 130.746094 271.066406 C 130.589844 271.023438 130.429688 271 130.269531 271 C 129.988281 271 129.710938 271.070312 129.457031 271.210938 L 123.523438 274.515625 L 124.527344 267.929688 C 124.59375 267.488281 124.480469 267.035156 124.210938 266.675781 C 123.9375 266.316406 123.535156 266.082031 123.089844 266.023438 L 116.652344 265.203125 L 123.660156 261.855469 C 124.195312 261.597656 124.554688 261.078125 124.601562 260.488281 C 124.652344 259.894531 124.382812 259.324219 123.894531 258.984375 L 118.25 255.035156 C 121.714844 254.921875 125.386719 254.714844 125.632812 254.699219 C 126.519531 254.652344 127.210938 253.917969 127.207031 253.03125 L 127.191406 243.0625 L 137.347656 247.941406 C 137.917969 248.21875 138.597656 248.148438 139.09375 247.761719 L 145.214844 243.03125 L 143.585938 252.667969 C 143.46875 253.367188 143.804688 254.066406 144.429688 254.410156 L 151.292969 258.183594 Z M 145.773438 261.9375 " fill-opacity="1" fill-rule="nonzero"/></svg>