<svg xmlns="http://www.w3.org/2000/svg" xmlns:xlink="http://www.w3.org/1999/xlink" width="500" zoomAndPan="magnify" viewBox="0 0 375 374.999991" height="500" preserveAspectRatio="xMidYMid meet" version="1.0"><defs><clipPath id="dadefe5084"><path d="M 6 51 L 368 51 L 368 325.222656 L 6 325.222656 Z M 6 51 " clip-rule="nonzero"/></clipPath></defs><g clip-path="url(#dadefe5084)"><path fill="#000000" d="M 364.84375 108.5625 C 361.710938 102.332031 355.664062 97.089844 347.820312 93.800781 C 331.613281 87.003906 256.613281 75.566406 253.429688 75.085938 C 253.289062 75.0625 253.15625 75.066406 253.023438 75.078125 C 252.121094 72.847656 250.929688 70.820312 249.4375 69.09375 C 243.828125 62.589844 234.589844 60.691406 227.847656 59.300781 L 203.503906 54.292969 C 198.6875 53.300781 193.710938 52.269531 188.589844 52.722656 C 182.738281 53.234375 177.011719 56.339844 172.84375 61.035156 C 166.199219 60.191406 159.21875 59.164062 152.449219 58.160156 C 149.578125 57.738281 146.667969 57.308594 143.761719 56.886719 C 143.414062 56.699219 143.007812 56.632812 142.609375 56.71875 C 138.71875 56.164062 134.839844 55.628906 131.078125 55.160156 C 128.5 54.839844 125.75 54.339844 122.835938 53.808594 C 113.574219 52.121094 103.078125 50.207031 94.609375 53.734375 C 89.570312 55.839844 84.539062 58.164062 79.664062 60.65625 C 75.433594 62.816406 71.269531 65.132812 67.179688 67.578125 C 66.695312 67.617188 66.226562 67.847656 65.933594 68.28125 C 65.921875 68.296875 65.921875 68.320312 65.914062 68.335938 C 61.007812 71.316406 56.21875 74.484375 51.589844 77.832031 C 50.765625 78.429688 49.390625 79.640625 48.058594 80.808594 C 47.125 81.632812 46.230469 82.417969 45.601562 82.925781 C 43.851562 84.179688 42.148438 85.746094 40.496094 87.6875 C 33.671875 95.722656 32.585938 104.695312 31.433594 114.191406 C 31.300781 115.285156 31.167969 116.382812 31.023438 117.488281 C 29.984375 125.527344 28.203125 133.726562 26.480469 141.652344 C 25.570312 145.851562 24.625 150.199219 23.804688 154.460938 L 8.78125 232.457031 C 7.351562 239.875 5.730469 248.285156 8.007812 256.304688 C 10.609375 265.460938 18.234375 273.332031 28.925781 277.898438 C 37.121094 281.40625 45.785156 282.484375 54.164062 283.527344 C 57.707031 283.96875 61.375 284.425781 64.941406 285.058594 L 64.984375 285.066406 C 64.984375 285.066406 64.988281 285.066406 64.988281 285.066406 L 73.371094 286.558594 C 85.113281 288.636719 85.113281 288.636719 102.539062 292.027344 L 106.285156 292.753906 C 127.035156 296.789062 148.070312 301.132812 168.414062 305.335938 C 192.339844 310.277344 216.910156 315.347656 241.457031 320.007812 C 241.480469 320.011719 241.503906 320.023438 241.527344 320.027344 C 241.550781 320.03125 241.570312 320.027344 241.59375 320.03125 C 248.175781 321.28125 254.757812 322.507812 261.328125 323.6875 C 265.316406 324.414062 269.386719 325.050781 273.316406 325.050781 C 277.667969 325.050781 281.847656 324.265625 285.546875 321.96875 C 285.753906 322.054688 285.96875 322.113281 286.191406 322.113281 C 286.464844 322.113281 286.746094 322.042969 287.003906 321.898438 L 332.109375 296.527344 C 337.070312 293.738281 342.085938 290.515625 344.171875 284.507812 C 345.773438 279.910156 346.375 274.8125 346.960938 269.875 C 347.195312 267.894531 347.425781 265.929688 347.722656 264.039062 L 354.382812 221.199219 C 358.820312 192.683594 362.980469 164.429688 366.753906 137.214844 C 367.957031 128.527344 369.457031 117.71875 364.84375 108.5625 Z M 359.359375 106.183594 C 348.929688 110.125 338.808594 114.835938 329.109375 120.3125 C 317.378906 114.175781 302.53125 114.175781 290.808594 120.328125 C 290.164062 120.183594 289.527344 120.042969 288.90625 119.90625 C 285.808594 119.242188 282.691406 118.59375 279.589844 117.933594 C 292.835938 106.425781 305.226562 96.445312 319.527344 89.96875 C 331.511719 92.417969 341.726562 94.867188 346.527344 96.882812 C 351.902344 99.136719 356.320312 102.363281 359.359375 106.183594 Z M 328.128906 152.402344 C 326.34375 155.347656 323.640625 157.277344 320.09375 158.195312 C 320.59375 153.367188 320.851562 142.277344 314.5 133.394531 C 318.960938 130.324219 323.53125 127.433594 328.203125 124.710938 C 331.191406 133.957031 332.253906 145.597656 328.128906 152.402344 Z M 302.421875 308.585938 C 302.347656 308.863281 302.351562 309.140625 302.414062 309.402344 L 289.296875 316.785156 C 291.6875 311.738281 294.199219 303.515625 296.710938 293.390625 C 298.222656 292.867188 300.210938 293.34375 301.539062 294.636719 C 302.980469 296.046875 303.8125 298.347656 303.8125 300.953125 C 303.8125 303.496094 303.105469 306.082031 302.421875 308.585938 Z M 266.941406 296.292969 C 258.957031 301.292969 252.828125 309.234375 249.960938 318.210938 C 247.894531 317.828125 245.828125 317.429688 243.757812 317.039062 C 246.980469 299.171875 249.96875 281.113281 252.859375 263.628906 C 255.835938 245.625 258.910156 227.007812 262.242188 208.632812 L 278.117188 121.035156 C 281.476562 121.75 284.847656 122.449219 288.199219 123.171875 C 288.445312 123.222656 288.695312 123.28125 288.941406 123.335938 C 286.128906 130.222656 285.554688 136.640625 287.34375 141.953125 C 289.164062 147.363281 293.925781 154.445312 299.515625 157.515625 C 303.675781 159.800781 312.519531 161.210938 316.238281 161.722656 C 310.644531 202.753906 301.882812 257.449219 294.082031 290.4375 C 284.894531 289.199219 274.851562 291.335938 266.941406 296.292969 Z M 217.144531 311.867188 L 250.929688 115.359375 C 258.820312 116.980469 266.691406 118.621094 274.550781 120.28125 C 274.632812 120.367188 274.722656 120.4375 274.820312 120.5 L 258.957031 208.035156 C 255.621094 226.433594 252.542969 245.066406 249.566406 263.085938 C 246.679688 280.550781 243.691406 298.585938 240.476562 316.421875 C 232.695312 314.9375 224.910156 313.414062 217.144531 311.867188 Z M 292.941406 84.964844 C 299.960938 86.199219 307.214844 87.53125 314.09375 88.882812 C 300.425781 95.835938 288.410156 105.792969 275.5 117.070312 C 268.457031 115.578125 261.402344 114.105469 254.332031 112.648438 C 260.183594 108.6875 266.050781 104.3125 271.761719 100.046875 C 278.699219 94.867188 285.875 89.507812 292.917969 84.992188 C 292.925781 84.980469 292.933594 84.972656 292.941406 84.964844 Z M 316.726562 158.417969 C 313.214844 157.933594 304.78125 156.597656 301.125 154.589844 C 296.335938 151.957031 292.082031 145.566406 290.507812 140.890625 C 288.554688 135.074219 290.277344 128.664062 292.21875 124.085938 C 296.324219 125.09375 300.460938 126.398438 304.214844 128.542969 C 318.339844 136.613281 317.425781 153.128906 316.726562 158.417969 Z M 305.871094 125.640625 C 302.722656 123.847656 299.3125 122.597656 295.945312 121.632812 C 305.398438 117.933594 316.414062 118.167969 325.664062 122.328125 C 321.136719 124.992188 316.703125 127.808594 312.378906 130.792969 C 310.609375 128.886719 308.476562 127.128906 305.871094 125.640625 Z M 188.878906 56.050781 C 193.496094 55.648438 198.25 56.621094 202.832031 57.566406 L 227.175781 62.574219 C 235.308594 64.25 242.410156 66.058594 246.914062 71.277344 C 249.960938 74.8125 251.675781 80.074219 251.625 85.714844 C 251.597656 88.398438 251.167969 91.097656 250.382812 93.515625 C 249.527344 96.15625 248.003906 98.171875 246.105469 99.191406 C 243.910156 100.371094 240.898438 100.414062 236.890625 99.332031 C 235.449219 98.9375 233.460938 98.257812 232.820312 96.886719 C 232.347656 95.867188 232.589844 94.484375 232.84375 93.019531 L 232.972656 92.265625 C 233.507812 88.941406 233.878906 82.578125 232.710938 78.667969 C 231.269531 73.839844 225.226562 72.71875 222.324219 72.183594 L 203.777344 68.746094 C 201.863281 68.386719 199.753906 67.996094 197.640625 67.996094 C 194.742188 67.996094 191.835938 68.734375 189.425781 71.328125 C 187.472656 73.425781 186.683594 76.105469 185.917969 78.699219 C 185.160156 81.265625 184.445312 83.683594 182.683594 85.109375 C 179.308594 87.828125 171.910156 86.527344 168.085938 84.394531 C 167.90625 84.292969 167.425781 84.027344 167.28125 83.785156 C 166.175781 81.960938 168.910156 74.074219 172.160156 67.847656 C 175.539062 61.367188 182.257812 56.628906 188.878906 56.050781 Z M 169.199219 66.304688 C 167.929688 68.734375 161.738281 81.085938 164.425781 85.515625 C 164.957031 86.394531 165.753906 86.917969 166.460938 87.3125 C 170.945312 89.8125 179.875 91.671875 184.777344 87.710938 C 187.355469 85.628906 188.25 82.589844 189.117188 79.644531 C 189.804688 77.320312 190.453125 75.125 191.867188 73.605469 C 194.785156 70.464844 198.859375 71.226562 203.164062 72.03125 L 221.71875 75.46875 C 225.320312 76.132812 228.757812 77.101562 229.515625 79.628906 C 230.375 82.503906 230.273438 88.042969 229.675781 91.734375 L 229.554688 92.449219 C 229.238281 94.265625 228.878906 96.324219 229.792969 98.292969 C 231.015625 100.929688 233.933594 101.988281 236.019531 102.554688 C 238.21875 103.152344 240.207031 103.449219 241.996094 103.449219 C 244.167969 103.449219 246.050781 103.011719 247.683594 102.136719 C 250.347656 100.707031 252.429688 98.011719 253.558594 94.550781 C 254.449219 91.8125 254.933594 88.765625 254.964844 85.746094 C 254.964844 85.746094 254.964844 85.746094 254.964844 85.742188 C 254.988281 83.242188 254.707031 80.832031 254.160156 78.578125 C 258.390625 79.226562 272.25 81.378906 288.144531 84.128906 C 281.980469 88.253906 275.785156 92.875 269.765625 97.371094 C 263.191406 102.285156 256.402344 107.34375 249.71875 111.707031 C 209.902344 103.558594 169.789062 95.972656 129.710938 89.046875 C 141.496094 79.398438 153.378906 71.230469 166.746094 63.597656 C 168.007812 63.773438 169.261719 63.9375 170.507812 64.101562 C 170.039062 64.8125 169.597656 65.542969 169.199219 66.304688 Z M 161.402344 62.847656 C 148.527344 70.445312 136.933594 78.640625 125.363281 88.308594 C 117.523438 86.964844 109.6875 85.636719 101.851562 84.339844 C 114.691406 74.871094 128.519531 66.738281 143.042969 60.160156 C 146.027344 60.589844 149.015625 61.027344 151.960938 61.464844 C 155.078125 61.925781 158.246094 62.394531 161.402344 62.847656 Z M 81.179688 63.628906 C 85.980469 61.179688 90.929688 58.886719 95.890625 56.816406 C 103.449219 53.667969 113.425781 55.488281 122.234375 57.09375 C 125.199219 57.632812 127.996094 58.140625 130.664062 58.472656 C 132.734375 58.730469 134.847656 59.011719 136.976562 59.304688 C 122.96875 66.035156 109.628906 74.183594 97.25 83.589844 C 90.96875 82.558594 84.691406 81.523438 78.417969 80.523438 C 77.363281 80.355469 76.316406 80.183594 75.277344 80.007812 C 74.980469 76.074219 73.179688 72.308594 70.351562 69.570312 C 73.90625 67.480469 77.519531 65.5 81.179688 63.628906 Z M 67.367188 71.355469 C 69.796875 73.378906 71.4375 76.316406 71.882812 79.449219 C 66.441406 78.585938 61.152344 77.96875 56.117188 78.71875 C 59.78125 76.148438 63.535156 73.691406 67.367188 71.355469 Z M 43.035156 89.851562 C 44.414062 88.230469 45.832031 86.90625 47.292969 85.832031 C 47.308594 85.824219 47.320312 85.820312 47.335938 85.8125 C 47.355469 85.796875 47.378906 85.773438 47.398438 85.761719 C 54.488281 80.617188 62.570312 81.34375 71.613281 82.792969 C 69.972656 89.964844 64.757812 97.804688 58.082031 102.90625 C 51.75 107.738281 43.359375 110.078125 35.433594 109.285156 C 36.453125 102.269531 38.09375 95.667969 43.035156 89.851562 Z M 11.222656 255.390625 C 10.03125 251.195312 10.046875 246.753906 10.53125 242.386719 C 17.71875 243.226562 24.445312 247.726562 29.171875 254.929688 C 33.679688 261.804688 34.355469 268.359375 35.148438 276.609375 C 33.5 276.097656 31.863281 275.523438 30.238281 274.828125 C 20.476562 270.65625 13.542969 263.570312 11.222656 255.390625 Z M 38.578125 277.570312 C 38.578125 277.507812 38.585938 277.445312 38.578125 277.378906 L 38.5 276.566406 C 37.648438 267.722656 36.976562 260.738281 31.964844 253.09375 C 26.699219 245.074219 19.132812 240.050781 10.980469 239.082031 C 11.300781 237.035156 11.6875 235.023438 12.058594 233.085938 L 27.082031 155.089844 C 27.894531 150.867188 28.835938 146.542969 29.742188 142.359375 C 31.480469 134.363281 33.277344 126.09375 34.335938 117.917969 C 34.480469 116.800781 34.613281 115.691406 34.746094 114.59375 C 34.828125 113.917969 34.910156 113.25 34.992188 112.582031 C 36.207031 112.710938 37.417969 112.792969 38.632812 112.792969 C 46.332031 112.792969 53.949219 110.261719 60.105469 105.558594 C 66.265625 100.855469 72.933594 92.363281 74.914062 83.332031 C 75.902344 83.5 76.894531 83.664062 77.894531 83.824219 C 83.8125 84.765625 89.738281 85.742188 95.664062 86.714844 C 93.984375 97.695312 86.734375 141.703125 79.714844 184.335938 C 72.789062 226.371094 65.648438 269.746094 63.835938 281.488281 C 60.734375 280.984375 57.613281 280.589844 54.578125 280.210938 C 49.0625 279.523438 43.746094 278.851562 38.578125 277.570312 Z M 67.128906 282.054688 C 68.914062 270.449219 76.070312 226.996094 83.007812 184.878906 C 90.023438 142.289062 97.265625 98.328125 98.960938 87.253906 C 107.089844 88.59375 115.222656 89.960938 123.355469 91.355469 C 122.65625 113.652344 97.382812 263.296875 92.566406 286.6875 C 84.929688 285.214844 82.652344 284.808594 73.953125 283.265625 Z M 106.921875 289.476562 L 103.175781 288.746094 C 100.300781 288.1875 97.90625 287.722656 95.84375 287.324219 C 100.679688 263.796875 125.609375 116.074219 126.679688 91.917969 C 167.074219 98.875 207.519531 106.492188 247.660156 114.691406 L 213.871094 311.214844 C 198.804688 308.199219 183.824219 305.105469 169.089844 302.066406 C 148.738281 297.859375 127.691406 293.511719 106.921875 289.476562 Z M 283.917969 319.058594 C 277.867188 322.890625 269.742188 321.824219 261.925781 320.402344 C 259.042969 319.882812 256.15625 319.351562 253.269531 318.816406 C 255.949219 310.753906 261.515625 303.632812 268.710938 299.125 C 275.882812 294.632812 284.964844 292.644531 293.296875 293.699219 C 289.824219 307.847656 286.574219 317.375 283.917969 319.058594 Z M 363.449219 136.757812 C 359.679688 163.953125 355.519531 192.1875 351.085938 220.683594 L 344.425781 263.527344 C 344.125 265.457031 343.890625 267.460938 343.648438 269.484375 C 343.085938 274.238281 342.503906 279.15625 341.023438 283.414062 C 339.320312 288.3125 334.878906 291.140625 330.476562 293.617188 L 306.230469 307.253906 C 306.742188 305.230469 307.152344 303.140625 307.152344 300.953125 C 307.152344 297.398438 305.984375 294.308594 303.867188 292.246094 C 302.144531 290.570312 299.789062 289.757812 297.566406 289.878906 C 307.730469 247.210938 317.671875 175.910156 319.605469 161.714844 C 324.667969 160.761719 328.503906 158.230469 330.984375 154.132812 C 336.070312 145.746094 334.339844 132.453125 331.15625 123 C 340.8125 117.578125 350.882812 112.90625 361.269531 109.027344 C 361.46875 109.371094 361.6875 109.710938 361.863281 110.0625 C 365.695312 117.671875 364.847656 126.652344 363.449219 136.757812 Z M 363.449219 136.757812 " fill-opacity="1" fill-rule="nonzero"/></g><path fill="#000000" d="M 196.878906 184.082031 C 197.351562 184.023438 197.777344 183.769531 198.046875 183.382812 C 198.320312 182.992188 198.414062 182.503906 198.308594 182.042969 C 196.347656 173.640625 194.414062 165.128906 192.480469 156.613281 C 190.546875 148.097656 188.613281 139.578125 186.652344 131.167969 C 186.484375 130.445312 185.859375 129.921875 185.121094 129.878906 C 170.027344 129.039062 154.289062 131.28125 135.597656 136.960938 C 134.78125 137.207031 134.285156 138.035156 134.445312 138.871094 L 143.980469 188.578125 C 144.132812 189.371094 144.828125 189.929688 145.617188 189.929688 C 145.683594 189.929688 145.75 189.925781 145.816406 189.917969 C 154.160156 188.921875 162.75 187.960938 171.335938 187 C 179.933594 186.039062 188.53125 185.082031 196.878906 184.082031 Z M 146.964844 186.421875 L 138.007812 139.726562 C 155.171875 134.636719 169.78125 132.546875 183.683594 133.15625 C 185.546875 141.15625 187.386719 149.257812 189.226562 157.355469 C 191.019531 165.261719 192.816406 173.167969 194.632812 180.984375 C 186.875 181.902344 178.921875 182.792969 170.964844 183.683594 C 162.898438 184.585938 154.828125 185.484375 146.964844 186.421875 Z M 146.964844 186.421875 " fill-opacity="1" fill-rule="nonzero"/><path fill="#000000" d="M 182.625 156.910156 C 181.445312 151.757812 180.222656 146.433594 178.730469 141.683594 C 178.484375 140.90625 177.703125 140.414062 176.917969 140.527344 C 171.921875 141.195312 167.3125 141.785156 162.699219 142.378906 C 158.128906 142.964844 153.554688 143.546875 148.609375 144.207031 C 148.15625 144.269531 147.75 144.511719 147.480469 144.878906 C 147.210938 145.246094 147.105469 145.707031 147.1875 146.15625 C 148.964844 156.140625 150.773438 166.789062 151.929688 177.035156 C 151.980469 177.503906 152.230469 177.929688 152.613281 178.203125 C 152.898438 178.410156 153.238281 178.519531 153.585938 178.519531 C 153.703125 178.519531 153.820312 178.507812 153.9375 178.484375 C 158.882812 177.433594 164.230469 176.84375 169.402344 176.277344 C 174.660156 175.695312 180.09375 175.101562 185.203125 174.015625 C 185.664062 173.917969 186.0625 173.628906 186.296875 173.222656 C 186.535156 172.816406 186.589844 172.332031 186.449219 171.882812 C 184.996094 167.253906 183.792969 161.996094 182.625 156.910156 Z M 169.042969 172.953125 C 164.394531 173.464844 159.613281 173.988281 155.039062 174.855469 C 153.9375 165.667969 152.363281 156.238281 150.78125 147.289062 C 155.066406 146.722656 159.09375 146.207031 163.121094 145.691406 C 167.308594 145.15625 171.488281 144.617188 175.957031 144.027344 C 177.226562 148.3125 178.3125 153.054688 179.371094 157.65625 C 180.40625 162.171875 181.472656 166.820312 182.726562 171.105469 C 178.292969 171.9375 173.597656 172.453125 169.042969 172.953125 Z M 169.042969 172.953125 " fill-opacity="1" fill-rule="nonzero"/><path fill="#000000" d="M 214.15625 229.484375 C 215.425781 225.714844 216.742188 221.816406 218.199219 217.867188 C 218.515625 217.003906 218.074219 216.042969 217.207031 215.722656 C 210.820312 213.367188 204.894531 211.160156 198.96875 208.957031 C 193.039062 206.753906 187.109375 204.550781 180.71875 202.191406 C 180.296875 202.039062 179.832031 202.054688 179.417969 202.25 C 179.011719 202.445312 178.703125 202.796875 178.558594 203.222656 L 171.359375 224.46875 C 171.070312 225.328125 171.515625 226.265625 172.367188 226.574219 C 185.398438 231.320312 197.046875 235.757812 207.675781 242.03125 C 207.9375 242.1875 208.230469 242.265625 208.523438 242.265625 C 208.714844 242.265625 208.902344 242.230469 209.085938 242.167969 C 209.550781 242 209.917969 241.636719 210.09375 241.171875 C 211.5625 237.183594 212.882812 233.269531 214.15625 229.484375 Z M 207.636719 238.152344 C 197.671875 232.5 186.921875 228.339844 175.042969 223.996094 L 181.167969 205.921875 C 186.949219 208.054688 192.378906 210.070312 197.800781 212.089844 C 203.246094 214.113281 208.6875 216.136719 214.492188 218.28125 C 213.246094 221.730469 212.101562 225.121094 210.992188 228.414062 C 209.925781 231.585938 208.824219 234.847656 207.636719 238.152344 Z M 207.636719 238.152344 " fill-opacity="1" fill-rule="nonzero"/><path fill="#000000" d="M 155.328125 256.71875 L 147.113281 252.199219 L 149.257812 239.515625 C 149.371094 238.835938 149.058594 238.15625 148.46875 237.804688 C 147.882812 237.449219 147.132812 237.492188 146.589844 237.914062 L 137.902344 244.628906 L 126.273438 239.039062 C 125.75 238.789062 125.144531 238.828125 124.660156 239.128906 C 124.171875 239.4375 123.878906 239.972656 123.878906 240.546875 L 123.898438 251.597656 C 121.058594 251.742188 115.1875 252.007812 113.136719 251.878906 C 112.347656 251.855469 111.703125 252.289062 111.453125 252.992188 C 111.207031 253.699219 111.460938 254.484375 112.074219 254.914062 L 119.667969 260.230469 L 110.128906 264.792969 C 109.457031 265.113281 109.082031 265.835938 109.199219 266.566406 C 109.316406 267.296875 109.902344 267.863281 110.636719 267.957031 L 121 269.277344 L 119.742188 277.542969 C 119.648438 278.171875 119.917969 278.800781 120.441406 279.164062 C 120.964844 279.527344 121.652344 279.558594 122.207031 279.25 L 129.617188 275.121094 L 134.847656 285.121094 C 135.136719 285.675781 135.703125 286.019531 136.324219 286.019531 C 136.359375 286.019531 136.390625 286.019531 136.425781 286.015625 C 137.085938 285.976562 137.65625 285.550781 137.886719 284.9375 L 142.304688 273.164062 L 151.839844 272.800781 C 152.441406 272.777344 152.984375 272.433594 153.261719 271.898438 C 153.539062 271.363281 153.503906 270.71875 153.171875 270.214844 L 149.050781 263.925781 L 155.464844 259.5625 C 155.945312 259.234375 156.21875 258.679688 156.191406 258.101562 C 156.167969 257.523438 155.839844 257 155.328125 256.71875 Z M 145.816406 262.09375 C 145.0625 262.605469 144.859375 263.628906 145.359375 264.390625 L 148.761719 269.578125 L 141.070312 269.875 C 140.398438 269.898438 139.808594 270.324219 139.570312 270.953125 L 136.074219 280.269531 L 131.785156 272.054688 C 131.578125 271.65625 131.214844 271.359375 130.785156 271.226562 C 130.628906 271.183594 130.464844 271.160156 130.304688 271.160156 C 130.023438 271.160156 129.746094 271.230469 129.492188 271.371094 L 123.558594 274.675781 L 124.5625 268.089844 C 124.628906 267.644531 124.515625 267.191406 124.246094 266.832031 C 123.972656 266.472656 123.570312 266.238281 123.121094 266.179688 L 116.6875 265.359375 L 123.691406 262.011719 C 124.230469 261.753906 124.589844 261.230469 124.636719 260.640625 C 124.6875 260.046875 124.417969 259.472656 123.929688 259.136719 L 118.28125 255.183594 C 121.746094 255.070312 125.421875 254.863281 125.667969 254.847656 C 126.554688 254.800781 127.246094 254.0625 127.242188 253.179688 L 127.226562 243.203125 L 137.386719 248.085938 C 137.957031 248.363281 138.636719 248.289062 139.132812 247.902344 L 145.253906 243.167969 L 143.628906 252.8125 C 143.507812 253.515625 143.847656 254.214844 144.46875 254.554688 L 151.335938 258.335938 Z M 145.816406 262.09375 " fill-opacity="1" fill-rule="nonzero"/></svg>