<svg xmlns="http://www.w3.org/2000/svg" xmlns:xlink="http://www.w3.org/1999/xlink" width="500" zoomAndPan="magnify" viewBox="0 0 375 374.999991" height="500" preserveAspectRatio="xMidYMid meet" version="1.2"><defs><clipPath id="8f4210d040"><path d="M 9.394531 10 L 372.394531 10 L 372.394531 299 L 9.394531 299 Z M 9.394531 10 "/></clipPath></defs><g id="61eef42f96"><g clip-rule="nonzero" clip-path="url(#8f4210d040)"><path style=" stroke:none;fill-rule:evenodd;fill:#e8e8e8;fill-opacity:1;" d="M 336.671875 193.136719 L 370.351562 202.945312 C 371.347656 203.234375 372.097656 204.046875 372.328125 205.054688 C 372.546875 206.070312 372.203125 207.121094 371.425781 207.800781 L 268.65625 297.605469 C 267.925781 298.242188 266.925781 298.464844 265.996094 298.195312 L 11.4375 224.042969 C 10.441406 223.753906 9.683594 222.945312 9.457031 221.9375 C 9.238281 220.921875 9.582031 219.871094 10.363281 219.1875 L 48.773438 185.621094 L 23.667969 172.953125 C 22.714844 172.472656 22.109375 171.492188 22.113281 170.421875 C 22.113281 169.351562 22.714844 168.371094 23.667969 167.890625 L 169.007812 94.566406 C 169.804688 94.160156 170.761719 94.160156 171.5625 94.5625 L 203.714844 110.785156 L 214.664062 91.820312 C 215.128906 91.011719 215.734375 90.332031 216.433594 89.796875 C 215.660156 87.925781 215.734375 85.722656 216.828125 83.832031 L 257.496094 13.402344 C 259.359375 10.167969 263.5 9.054688 266.742188 10.925781 L 279.125 18.074219 C 282.363281 19.945312 283.472656 24.085938 281.601562 27.324219 L 278.257812 33.117188 L 279.355469 33.75 C 281.527344 35 283.105469 37.066406 283.75 39.484375 C 284.398438 41.902344 284.0625 44.480469 282.808594 46.648438 L 254.316406 96 C 253.539062 97.355469 251.800781 97.820312 250.449219 97.035156 C 249.089844 96.253906 248.625 94.515625 249.40625 93.164062 L 277.898438 43.8125 C 278.394531 42.949219 278.535156 41.917969 278.277344 40.949219 C 278.019531 39.984375 277.382812 39.164062 276.519531 38.664062 L 275.425781 38.027344 L 240.941406 97.753906 C 239.753906 99.808594 237.652344 101.007812 235.445312 101.128906 C 235.308594 101.886719 235.035156 102.640625 234.625 103.347656 L 224.328125 121.1875 L 334.347656 176.691406 C 335.265625 177.15625 335.84375 178.070312 335.902344 179.066406 C 335.898438 179.074219 336.671875 193.136719 336.671875 193.136719 Z M 200.871094 115.707031 L 170.285156 100.273438 L 31.246094 170.421875 C 31.246094 170.421875 40.5 175.089844 55.046875 182.429688 C 55.078125 182.445312 55.109375 182.460938 55.140625 182.476562 C 108.515625 209.40625 232.796875 272.109375 232.796875 272.109375 L 331.503906 222.308594 C 319.09375 215.113281 308.269531 218.71875 308.269531 218.71875 L 315.996094 209.96875 C 313.761719 209.253906 311.382812 208.796875 308.863281 208.597656 C 307.789062 208.507812 306.855469 207.816406 306.457031 206.816406 C 306.0625 205.808594 306.269531 204.667969 306.984375 203.867188 L 328.472656 180.082031 L 221.488281 126.105469 L 199.328125 164.480469 L 228.300781 149.867188 C 229.695312 149.160156 231.40625 149.722656 232.109375 151.121094 C 232.816406 152.519531 232.253906 154.222656 230.855469 154.929688 L 194.15625 173.445312 L 188.113281 183.914062 C 187.960938 184.175781 187.769531 184.410156 187.550781 184.609375 L 166.632812 203.453125 C 165.71875 204.277344 164.382812 204.417969 163.320312 203.800781 C 162.25 203.191406 161.703125 201.960938 161.964844 200.753906 L 164.605469 188.355469 L 135.851562 202.859375 C 134.457031 203.566406 132.746094 203.003906 132.042969 201.605469 C 131.339844 200.210938 131.898438 198.503906 133.300781 197.792969 L 166.121094 181.238281 L 167.824219 173.21875 C 167.890625 172.925781 167.996094 172.648438 168.148438 172.390625 L 177.378906 156.394531 L 110.566406 190.105469 C 109.171875 190.808594 107.460938 190.246094 106.757812 188.847656 C 106.054688 187.453125 106.613281 185.746094 108.015625 185.039062 L 182.554688 147.433594 Z M 221.257812 94.207031 C 220.667969 93.863281 219.910156 94.070312 219.574219 94.65625 C 219.574219 94.65625 207.277344 115.953125 207.273438 115.960938 L 174.472656 172.769531 L 179.511719 175.679688 L 220.480469 104.378906 C 221.011719 103.445312 221.898438 102.765625 222.941406 102.484375 C 223.988281 102.203125 225.09375 102.347656 226.027344 102.886719 L 226.695312 103.277344 C 227.285156 103.617188 227.492188 104.367188 227.148438 104.957031 L 229.714844 100.511719 C 230.054688 99.921875 229.851562 99.171875 229.261719 98.832031 Z M 256.222656 26.945312 L 221.738281 86.667969 C 221.441406 87.191406 221.621094 87.863281 222.140625 88.171875 L 227.894531 91.492188 L 262.808594 30.746094 Z M 269.515625 19.078125 L 263.90625 15.835938 C 263.378906 15.535156 262.707031 15.714844 262.40625 16.238281 L 259.054688 22.035156 L 265.632812 25.832031 Z M 331.117188 195.398438 L 330.613281 186.175781 C 330.613281 186.175781 314.742188 203.746094 314.742188 203.746094 C 321.546875 205.253906 327.355469 208.589844 332.128906 213.816406 L 331.121094 195.503906 C 331.121094 195.46875 331.117188 195.433594 331.117188 195.398438 Z M 176.6875 180.59375 C 174.617188 179.402344 172.566406 178.214844 172.566406 178.214844 L 169.332031 193.390625 Z M 211.707031 241.132812 C 210.3125 241.835938 208.601562 241.273438 207.898438 239.878906 C 207.191406 238.480469 207.753906 236.773438 209.15625 236.066406 L 304.15625 188.136719 C 305.550781 187.433594 307.261719 187.992188 307.964844 189.390625 C 308.671875 190.789062 308.109375 192.496094 306.714844 193.199219 Z M 161.136719 215.617188 C 159.742188 216.320312 158.03125 215.761719 157.328125 214.363281 C 156.625 212.964844 157.183594 211.257812 158.585938 210.550781 L 253.585938 162.625 C 254.980469 161.917969 256.691406 162.480469 257.394531 163.878906 C 258.101562 165.273438 257.539062 166.980469 256.140625 167.6875 Z M 100.808594 169.511719 C 99.414062 170.21875 97.707031 169.65625 97 168.257812 C 96.296875 166.859375 96.855469 165.15625 98.253906 164.449219 L 177.730469 124.351562 C 179.125 123.648438 180.835938 124.210938 181.539062 125.605469 C 182.242188 127.003906 181.683594 128.710938 180.285156 129.414062 Z M 186.421875 228.375 C 185.027344 229.078125 183.316406 228.519531 182.613281 227.121094 C 181.90625 225.722656 182.46875 224.015625 183.871094 223.308594 L 278.871094 175.378906 C 280.265625 174.675781 281.976562 175.238281 282.679688 176.632812 C 283.386719 178.03125 282.824219 179.738281 281.429688 180.441406 Z M 186.421875 228.375 "/></g></g></svg>