<svg xmlns="http://www.w3.org/2000/svg" xmlns:xlink="http://www.w3.org/1999/xlink" width="500" zoomAndPan="magnify" viewBox="0 0 375 374.999991" height="500" preserveAspectRatio="xMidYMid meet" version="1.2"><defs><clipPath id="6dc652a166"><path d="M 112.5 122 L 262.5 122 L 262.5 242 L 112.5 242 Z M 112.5 122 "/></clipPath></defs><g id="c0f35f669e"><g clip-rule="nonzero" clip-path="url(#6dc652a166)"><path style=" stroke:none;fill-rule:evenodd;fill:#e8e8e8;fill-opacity:1;" d="M 247.738281 198.1875 L 261.65625 202.242188 C 262.066406 202.359375 262.378906 202.695312 262.472656 203.113281 C 262.5625 203.53125 262.421875 203.96875 262.101562 204.25 L 219.632812 241.355469 C 219.332031 241.621094 218.917969 241.710938 218.535156 241.601562 L 113.34375 210.960938 C 112.933594 210.839844 112.621094 210.507812 112.527344 210.089844 C 112.433594 209.671875 112.578125 209.234375 112.902344 208.953125 L 128.773438 195.082031 L 118.398438 189.847656 C 118.003906 189.648438 117.753906 189.246094 117.753906 188.800781 C 117.753906 188.359375 118.003906 187.953125 118.398438 187.757812 L 178.457031 157.457031 C 178.785156 157.289062 179.179688 157.289062 179.511719 157.457031 L 192.796875 164.160156 L 197.324219 156.320312 C 197.515625 155.988281 197.765625 155.707031 198.054688 155.484375 C 197.734375 154.710938 197.765625 153.804688 198.21875 153.019531 L 215.019531 123.917969 C 215.792969 122.582031 217.503906 122.121094 218.839844 122.894531 L 223.957031 125.847656 C 225.296875 126.621094 225.753906 128.332031 224.980469 129.671875 L 223.601562 132.066406 L 224.054688 132.328125 C 224.953125 132.84375 225.601562 133.695312 225.871094 134.695312 C 226.140625 135.695312 226 136.757812 225.480469 137.65625 L 213.707031 158.050781 C 213.386719 158.609375 212.667969 158.800781 212.109375 158.476562 C 211.546875 158.15625 211.355469 157.4375 211.679688 156.878906 L 223.453125 136.484375 C 223.65625 136.125 223.714844 135.699219 223.609375 135.300781 C 223.503906 134.902344 223.238281 134.5625 222.882812 134.355469 L 222.429688 134.09375 L 208.179688 158.773438 C 207.691406 159.625 206.820312 160.117188 205.910156 160.167969 C 205.851562 160.484375 205.742188 160.792969 205.570312 161.085938 L 201.316406 168.457031 L 246.777344 191.394531 C 247.15625 191.585938 247.394531 191.960938 247.421875 192.375 C 247.417969 192.378906 247.738281 198.1875 247.738281 198.1875 Z M 191.621094 166.191406 L 178.984375 159.816406 L 121.53125 188.800781 C 121.53125 188.800781 125.355469 190.730469 131.367188 193.765625 C 131.378906 193.769531 131.390625 193.777344 131.402344 193.78125 C 153.460938 204.910156 204.816406 230.820312 204.816406 230.820312 L 245.601562 210.242188 C 240.476562 207.269531 236.003906 208.757812 236.003906 208.757812 L 239.195312 205.144531 C 238.269531 204.847656 237.289062 204.660156 236.25 204.578125 C 235.804688 204.539062 235.417969 204.253906 235.253906 203.839844 C 235.089844 203.425781 235.175781 202.953125 235.472656 202.621094 L 244.351562 192.792969 L 200.140625 170.488281 L 190.984375 186.347656 L 202.957031 180.308594 C 203.535156 180.015625 204.242188 180.25 204.53125 180.828125 C 204.824219 181.402344 204.589844 182.109375 204.015625 182.398438 L 188.847656 190.050781 L 186.351562 194.378906 C 186.289062 194.484375 186.207031 194.582031 186.117188 194.664062 L 177.472656 202.453125 C 177.097656 202.792969 176.542969 202.851562 176.105469 202.59375 C 175.664062 202.34375 175.4375 201.835938 175.546875 201.335938 L 176.636719 196.210938 L 164.753906 202.207031 C 164.179688 202.496094 163.472656 202.265625 163.179688 201.6875 C 162.890625 201.109375 163.121094 200.40625 163.703125 200.113281 L 177.261719 193.269531 L 177.96875 189.957031 C 177.996094 189.835938 178.039062 189.722656 178.101562 189.613281 L 181.914062 183.003906 L 154.308594 196.933594 C 153.730469 197.226562 153.023438 196.996094 152.734375 196.417969 C 152.441406 195.839844 152.671875 195.132812 153.253906 194.839844 L 184.054688 179.300781 Z M 200.046875 157.308594 C 199.804688 157.167969 199.492188 157.25 199.351562 157.492188 C 199.351562 157.492188 194.269531 166.292969 194.269531 166.296875 L 180.714844 189.773438 L 182.796875 190.972656 L 199.726562 161.511719 C 199.945312 161.125 200.3125 160.84375 200.742188 160.726562 C 201.175781 160.613281 201.632812 160.671875 202.019531 160.894531 L 202.292969 161.054688 C 202.535156 161.195312 202.621094 161.507812 202.480469 161.75 L 203.542969 159.914062 C 203.683594 159.667969 203.597656 159.359375 203.355469 159.21875 Z M 214.496094 129.515625 L 200.246094 154.195312 C 200.121094 154.410156 200.199219 154.6875 200.414062 154.8125 L 202.789062 156.1875 L 217.21875 131.085938 Z M 219.988281 126.261719 L 217.671875 124.925781 C 217.453125 124.796875 217.175781 124.875 217.050781 125.089844 L 215.664062 127.484375 L 218.382812 129.054688 Z M 245.441406 199.121094 L 245.234375 195.3125 C 245.234375 195.3125 238.675781 202.570312 238.675781 202.570312 C 241.488281 203.195312 243.886719 204.574219 245.863281 206.734375 L 245.445312 199.167969 C 245.445312 199.152344 245.441406 199.136719 245.441406 199.121094 Z M 181.628906 193.003906 C 180.773438 192.511719 179.925781 192.023438 179.925781 192.023438 L 178.589844 198.292969 Z M 196.101562 218.019531 C 195.523438 218.3125 194.816406 218.082031 194.527344 217.503906 C 194.234375 216.925781 194.46875 216.21875 195.046875 215.925781 L 234.300781 196.121094 C 234.878906 195.832031 235.585938 196.0625 235.875 196.640625 C 236.167969 197.21875 235.9375 197.921875 235.359375 198.214844 Z M 175.203125 207.476562 C 174.625 207.769531 173.921875 207.539062 173.628906 206.960938 C 173.339844 206.382812 173.570312 205.675781 174.148438 205.382812 L 213.40625 185.578125 C 213.984375 185.289062 214.6875 185.519531 214.980469 186.097656 C 215.269531 186.675781 215.039062 187.378906 214.460938 187.671875 Z M 150.273438 188.425781 C 149.699219 188.71875 148.992188 188.484375 148.699219 187.90625 C 148.410156 187.332031 148.640625 186.625 149.21875 186.335938 L 182.058594 169.765625 C 182.636719 169.472656 183.34375 169.707031 183.632812 170.285156 C 183.925781 170.859375 183.695312 171.566406 183.117188 171.855469 Z M 185.652344 212.75 C 185.074219 213.039062 184.371094 212.808594 184.078125 212.230469 C 183.785156 211.652344 184.019531 210.949219 184.597656 210.65625 L 223.855469 190.851562 C 224.429688 190.558594 225.136719 190.792969 225.429688 191.367188 C 225.71875 191.945312 225.488281 192.652344 224.910156 192.941406 Z M 185.652344 212.75 "/></g></g></svg>