<svg xmlns="http://www.w3.org/2000/svg" xmlns:xlink="http://www.w3.org/1999/xlink" width="500" zoomAndPan="magnify" viewBox="0 0 375 374.999991" height="500" preserveAspectRatio="xMidYMid meet" version="1.2"><defs><clipPath id="eb0d699754"><path d="M 163 286 L 349.453125 286 L 349.453125 361 L 163 361 Z M 163 286 "/></clipPath><clipPath id="a1aecf7db0"><path d="M 163 224 L 349.453125 224 L 349.453125 299 L 163 299 Z M 163 224 "/></clipPath></defs><g id="47410abd09"><path style=" stroke:none;fill-rule:evenodd;fill:#e8e8e8;fill-opacity:1;" d="M 324.671875 91.429688 C 314.414062 91.429688 306.089844 99.753906 306.089844 110.011719 C 306.089844 120.273438 314.414062 128.597656 324.671875 128.597656 C 334.933594 128.597656 343.257812 120.273438 343.257812 110.011719 C 343.257812 99.753906 334.933594 91.429688 324.671875 91.429688 Z M 324.671875 103.816406 C 328.09375 103.816406 330.867188 106.59375 330.867188 110.011719 C 330.867188 113.433594 328.09375 116.207031 324.671875 116.207031 C 321.253906 116.207031 318.476562 113.433594 318.476562 110.011719 C 318.476562 106.59375 321.253906 103.816406 324.671875 103.816406 Z M 324.671875 103.816406 "/><path style=" stroke:none;fill-rule:evenodd;fill:#e8e8e8;fill-opacity:1;" d="M 39.777344 286.644531 L 47.105469 276.703125 C 48.269531 275.117188 50.121094 274.179688 52.09375 274.179688 C 54.0625 274.179688 55.914062 275.117188 57.078125 276.703125 L 64.40625 286.644531 L 74.351562 293.976562 C 75.9375 295.140625 76.871094 296.992188 76.871094 298.960938 C 76.871094 300.933594 75.9375 302.785156 74.351562 303.949219 L 64.40625 311.277344 L 57.078125 321.21875 C 55.914062 322.804688 54.0625 323.742188 52.09375 323.742188 C 50.121094 323.742188 48.269531 322.804688 47.105469 321.21875 L 39.777344 311.277344 L 29.832031 303.949219 C 28.246094 302.785156 27.3125 300.933594 27.3125 298.960938 C 27.3125 296.992188 28.246094 295.140625 29.832031 293.976562 Z M 52.09375 290.820312 L 49.191406 294.75 C 48.828125 295.25 48.382812 295.695312 47.878906 296.0625 L 43.953125 298.960938 L 47.878906 301.859375 C 48.382812 302.226562 48.828125 302.671875 49.191406 303.175781 L 52.09375 307.101562 L 54.992188 303.175781 C 55.355469 302.671875 55.800781 302.226562 56.304688 301.859375 L 60.230469 298.960938 L 56.304688 296.0625 C 55.800781 295.695312 55.355469 295.25 54.992188 294.75 Z M 52.09375 290.820312 "/><path style=" stroke:none;fill-rule:evenodd;fill:#e8e8e8;fill-opacity:1;" d="M 256.601562 66.722656 L 263.929688 56.78125 C 265.09375 55.195312 266.949219 54.257812 268.917969 54.257812 C 270.886719 54.257812 272.738281 55.195312 273.90625 56.78125 L 281.234375 66.722656 L 291.175781 74.050781 C 292.761719 75.214844 293.699219 77.066406 293.699219 79.039062 C 293.699219 81.007812 292.761719 82.859375 291.175781 84.023438 L 281.234375 91.355469 L 273.90625 101.296875 C 272.738281 102.882812 270.886719 103.816406 268.917969 103.816406 C 266.949219 103.816406 265.09375 102.882812 263.929688 101.296875 L 256.601562 91.355469 L 246.660156 84.023438 C 245.074219 82.859375 244.136719 81.007812 244.136719 79.039062 C 244.136719 77.066406 245.074219 75.214844 246.660156 74.050781 Z M 268.917969 70.898438 L 266.019531 74.824219 C 265.652344 75.328125 265.207031 75.773438 264.707031 76.140625 L 260.777344 79.039062 L 264.707031 81.9375 C 265.207031 82.304688 265.652344 82.75 266.019531 83.25 L 268.917969 87.179688 L 271.816406 83.25 C 272.183594 82.75 272.628906 82.304688 273.128906 81.9375 L 277.058594 79.039062 L 273.128906 76.140625 C 272.628906 75.773438 272.183594 75.328125 271.816406 74.824219 Z M 268.917969 70.898438 "/><g clip-rule="nonzero" clip-path="url(#eb0d699754)"><path style=" stroke:none;fill-rule:evenodd;fill:#e8e8e8;fill-opacity:1;" d="M 342.9375 323.742188 C 346.957031 327.675781 349.453125 333.164062 349.453125 339.230469 C 349.453125 351.199219 339.738281 360.910156 327.769531 360.910156 L 200.773438 360.910156 C 180.261719 360.910156 163.601562 344.253906 163.601562 323.742188 C 163.601562 303.230469 180.261719 286.570312 200.773438 286.570312 C 200.773438 286.570312 327.769531 286.570312 327.769531 286.570312 C 339.738281 286.570312 349.453125 296.285156 349.453125 308.253906 C 349.453125 314.320312 346.957031 319.808594 342.9375 323.742188 Z M 200.773438 348.523438 C 187.09375 348.523438 175.992188 337.421875 175.992188 323.742188 C 175.992188 310.0625 187.09375 298.960938 200.773438 298.960938 L 327.769531 298.960938 C 332.898438 298.960938 337.0625 303.125 337.0625 308.253906 C 337.0625 313.363281 332.929688 317.515625 327.832031 317.546875 C 327.851562 317.546875 327.753906 317.546875 327.753906 317.546875 C 324.332031 317.558594 321.570312 320.335938 321.574219 323.753906 C 321.582031 327.167969 324.351562 329.9375 327.769531 329.9375 C 332.898438 329.9375 337.0625 334.101562 337.0625 339.230469 C 337.0625 344.359375 332.898438 348.523438 327.769531 348.523438 C 327.769531 348.523438 200.773438 348.523438 200.773438 348.523438 Z M 200.773438 348.523438 "/></g><g clip-rule="nonzero" clip-path="url(#a1aecf7db0)"><path style=" stroke:none;fill-rule:evenodd;fill:#e8e8e8;fill-opacity:1;" d="M 170.121094 261.792969 C 166.097656 257.859375 163.601562 252.367188 163.601562 246.304688 C 163.601562 234.335938 173.316406 224.621094 185.285156 224.621094 C 185.285156 224.621094 312.28125 224.621094 312.28125 224.621094 C 332.792969 224.621094 349.453125 241.28125 349.453125 261.792969 C 349.453125 282.304688 332.792969 298.960938 312.28125 298.960938 L 185.285156 298.960938 C 173.316406 298.960938 163.601562 289.246094 163.601562 277.277344 C 163.601562 271.214844 166.097656 265.726562 170.121094 261.792969 Z M 312.28125 286.570312 L 185.285156 286.570312 C 180.15625 286.570312 175.992188 282.410156 175.992188 277.277344 C 175.992188 272.148438 180.15625 267.988281 185.285156 267.988281 C 188.703125 267.988281 191.472656 265.21875 191.480469 261.804688 C 191.484375 258.382812 188.722656 255.609375 185.304688 255.597656 L 185.203125 255.597656 C 180.125 255.566406 175.992188 251.414062 175.992188 246.304688 C 175.992188 241.175781 180.15625 237.011719 185.285156 237.011719 L 312.28125 237.011719 C 325.960938 237.011719 337.0625 248.113281 337.0625 261.792969 C 337.0625 275.46875 325.960938 286.570312 312.28125 286.570312 Z M 312.28125 286.570312 "/></g><path style=" stroke:none;fill-rule:evenodd;fill:#e8e8e8;fill-opacity:1;" d="M 330.867188 317.546875 L 206.96875 317.546875 C 203.546875 317.546875 200.773438 320.320312 200.773438 323.742188 C 200.773438 327.160156 203.546875 329.9375 206.96875 329.9375 L 330.867188 329.9375 C 334.289062 329.9375 337.0625 327.160156 337.0625 323.742188 C 337.0625 320.320312 334.289062 317.546875 330.867188 317.546875 Z M 330.867188 317.546875 "/><path style=" stroke:none;fill-rule:evenodd;fill:#e8e8e8;fill-opacity:1;" d="M 306.089844 255.597656 L 182.1875 255.597656 C 178.769531 255.597656 175.992188 258.371094 175.992188 261.792969 C 175.992188 265.210938 178.769531 267.988281 182.1875 267.988281 L 306.089844 267.988281 C 309.507812 267.988281 312.28125 265.210938 312.28125 261.792969 C 312.28125 258.371094 309.507812 255.597656 306.089844 255.597656 Z M 306.089844 255.597656 "/><path style=" stroke:none;fill-rule:evenodd;fill:#e8e8e8;fill-opacity:1;" d="M 147.054688 41.421875 C 153.902344 30.953125 161.941406 26.378906 169.433594 26.378906 C 179.785156 26.378906 188.382812 35.140625 188.382812 45.992188 C 188.382812 51.171875 184.617188 56.878906 179.890625 61.46875 C 175.113281 66.109375 169.183594 69.746094 163.941406 69.746094 C 160.523438 69.746094 157.746094 72.519531 157.746094 75.941406 C 157.746094 79.359375 160.523438 82.136719 163.941406 82.136719 C 171.890625 82.136719 181.277344 77.398438 188.519531 70.351562 C 195.824219 63.265625 200.773438 53.996094 200.773438 45.992188 C 200.773438 28.171875 186.429688 13.992188 169.433594 13.992188 C 158.675781 13.992188 146.515625 19.609375 136.683594 34.632812 C 134.8125 37.496094 135.621094 41.339844 138.480469 43.210938 C 141.335938 45.082031 145.183594 44.277344 147.054688 41.421875 Z M 147.054688 41.421875 "/><path style=" stroke:none;fill-rule:evenodd;fill:#e8e8e8;fill-opacity:1;" d="M 157.746094 75.941406 L 157.746094 106.914062 C 157.746094 110.335938 160.523438 113.109375 163.941406 113.109375 C 167.363281 113.109375 170.136719 110.335938 170.136719 106.914062 L 170.136719 75.941406 C 170.136719 72.519531 167.363281 69.746094 163.941406 69.746094 C 160.523438 69.746094 157.746094 72.519531 157.746094 75.941406 Z M 157.746094 75.941406 "/><path style=" stroke:none;fill-rule:evenodd;fill:#e8e8e8;fill-opacity:1;" d="M 117.140625 113.109375 L 210.066406 113.109375 C 213.484375 113.109375 216.261719 110.335938 216.261719 106.914062 C 216.261719 103.496094 213.484375 100.722656 210.066406 100.722656 L 117.140625 100.722656 C 113.71875 100.722656 110.945312 103.496094 110.945312 106.914062 C 110.945312 110.335938 113.71875 113.109375 117.140625 113.109375 Z M 117.140625 113.109375 "/><path style=" stroke:none;fill-rule:evenodd;fill:#e8e8e8;fill-opacity:1;" d="M 89.261719 193.777344 C 85.074219 196.160156 80.0625 198.628906 75.261719 200.015625 C 68.917969 201.847656 62.871094 201.699219 58.472656 199.015625 C 51.714844 194.898438 39.386719 182.230469 32.558594 169.269531 C 27.28125 159.246094 25.625 149.015625 29.652344 141.695312 C 32.386719 136.726562 40.835938 130.457031 51.738281 124.664062 C 74.339844 112.671875 107.371094 101.066406 107.371094 101.066406 C 108.027344 100.839844 108.71875 100.722656 109.421875 100.722656 L 121.8125 100.722656 C 125.230469 100.722656 128.003906 103.496094 128.003906 106.914062 C 128.003906 120.160156 140.675781 138.480469 164.859375 138.480469 C 189.039062 138.480469 202.347656 120.179688 202.347656 106.914062 C 202.347656 103.496094 205.121094 100.722656 208.542969 100.722656 L 220.929688 100.722656 C 221.632812 100.722656 222.324219 100.839844 222.980469 101.066406 C 222.980469 101.066406 256.019531 112.671875 278.613281 124.664062 C 289.523438 130.457031 297.972656 136.726562 300.699219 141.695312 C 304.730469 149.015625 303.070312 159.246094 297.792969 169.269531 C 290.964844 182.230469 278.636719 194.898438 271.878906 199.015625 C 267.585938 201.636719 261.285156 201.84375 254.539062 200.050781 C 248.871094 198.546875 242.804688 195.753906 237.941406 193.1875 L 237.941406 206.035156 C 237.941406 209.457031 235.167969 212.230469 231.746094 212.230469 C 228.328125 212.230469 225.550781 209.457031 225.550781 206.035156 L 225.550781 182.433594 C 225.550781 180.152344 226.804688 178.058594 228.816406 176.980469 C 230.824219 175.898438 233.265625 176.007812 235.167969 177.265625 C 235.167969 177.265625 244.117188 183.203125 253.375 186.671875 C 256.15625 187.710938 258.957031 188.542969 261.503906 188.808594 C 263.015625 188.96875 264.402344 189.066406 265.429688 188.4375 C 271.0625 185.003906 281.148438 174.285156 286.832031 163.496094 C 288.585938 160.160156 289.917969 156.835938 290.4375 153.714844 C 290.8125 151.484375 290.796875 149.394531 289.84375 147.660156 C 289.195312 146.476562 287.878906 145.300781 286.234375 143.980469 C 282.84375 141.273438 278.136719 138.441406 272.800781 135.609375 C 253.171875 125.191406 225.402344 115.085938 219.867188 113.109375 L 214.117188 113.109375 C 210.785156 130.320312 194.042969 150.871094 164.859375 150.871094 C 135.589844 150.871094 119.417969 130.332031 116.210938 113.109375 L 110.492188 113.109375 C 104.953125 115.085938 77.183594 125.191406 57.550781 135.609375 C 52.214844 138.441406 47.507812 141.273438 44.117188 143.980469 C 42.472656 145.300781 41.15625 146.476562 40.507812 147.660156 C 39.554688 149.394531 39.546875 151.484375 39.914062 153.714844 C 40.433594 156.835938 41.769531 160.160156 43.523438 163.496094 C 49.210938 174.285156 59.289062 185.003906 64.921875 188.4375 C 65.902344 189.03125 67.144531 188.960938 68.476562 188.8125 C 70.769531 188.554688 73.246094 187.75 75.683594 186.746094 C 83.960938 183.324219 91.738281 177.484375 91.738281 177.484375 C 93.617188 176.070312 96.125 175.847656 98.226562 176.894531 C 100.328125 177.941406 101.652344 180.089844 101.652344 182.433594 L 101.652344 280.375 C 101.652344 283.796875 104.425781 286.570312 107.847656 286.570312 L 145.015625 286.570312 C 148.4375 286.570312 151.210938 289.347656 151.210938 292.765625 C 151.210938 296.1875 148.4375 298.960938 145.015625 298.960938 C 145.015625 298.960938 107.847656 298.960938 107.847656 298.960938 C 97.589844 298.960938 89.261719 290.636719 89.261719 280.375 Z M 89.261719 193.777344 "/><path style=" stroke:none;fill-rule:evenodd;fill:#e8e8e8;fill-opacity:1;" d="M 95.457031 261.792969 L 145.015625 261.792969 C 148.4375 261.792969 151.210938 259.015625 151.210938 255.597656 C 151.210938 252.175781 148.4375 249.402344 145.015625 249.402344 L 95.457031 249.402344 C 92.039062 249.402344 89.261719 252.175781 89.261719 255.597656 C 89.261719 259.015625 92.039062 261.792969 95.457031 261.792969 Z M 95.457031 261.792969 "/></g></svg>