<svg xmlns="http://www.w3.org/2000/svg" xmlns:xlink="http://www.w3.org/1999/xlink" width="500" zoomAndPan="magnify" viewBox="0 0 375 374.999991" height="500" preserveAspectRatio="xMidYMid meet" version="1.2"><defs><clipPath id="f96906861c"><path d="M 177 230 L 257.4375 230 L 257.4375 262 L 177 262 Z M 177 230 "/></clipPath><clipPath id="cc73c5a648"><path d="M 177 203 L 257.4375 203 L 257.4375 236 L 177 236 Z M 177 203 "/></clipPath></defs><g id="679e80387f"><path style=" stroke:none;fill-rule:evenodd;fill:#e8e8e8;fill-opacity:1;" d="M 246.421875 146.269531 C 242.015625 146.269531 238.441406 149.84375 238.441406 154.25 C 238.441406 158.652344 242.015625 162.230469 246.421875 162.230469 C 250.828125 162.230469 254.402344 158.652344 254.402344 154.25 C 254.402344 149.84375 250.828125 146.269531 246.421875 146.269531 Z M 246.421875 151.589844 C 247.890625 151.589844 249.082031 152.78125 249.082031 154.25 C 249.082031 155.714844 247.890625 156.910156 246.421875 156.910156 C 244.953125 156.910156 243.761719 155.714844 243.761719 154.25 C 243.761719 152.78125 244.953125 151.589844 246.421875 151.589844 Z M 246.421875 151.589844 "/><path style=" stroke:none;fill-rule:evenodd;fill:#e8e8e8;fill-opacity:1;" d="M 124.085938 230.09375 L 127.234375 225.824219 C 127.734375 225.144531 128.53125 224.742188 129.375 224.742188 C 130.222656 224.742188 131.015625 225.144531 131.515625 225.824219 L 134.664062 230.09375 L 138.933594 233.242188 C 139.613281 233.742188 140.015625 234.535156 140.015625 235.382812 C 140.015625 236.226562 139.613281 237.023438 138.933594 237.523438 L 134.664062 240.671875 L 131.515625 244.941406 C 131.015625 245.621094 130.222656 246.023438 129.375 246.023438 C 128.53125 246.023438 127.734375 245.621094 127.234375 244.941406 L 124.085938 240.671875 L 119.816406 237.523438 C 119.136719 237.023438 118.734375 236.226562 118.734375 235.382812 C 118.734375 234.535156 119.136719 233.742188 119.816406 233.242188 Z M 129.375 231.886719 L 128.132812 233.574219 C 127.972656 233.789062 127.78125 233.980469 127.566406 234.136719 L 125.878906 235.382812 L 127.566406 236.628906 C 127.78125 236.785156 127.972656 236.976562 128.132812 237.191406 L 129.375 238.878906 L 130.621094 237.191406 C 130.777344 236.976562 130.96875 236.785156 131.183594 236.628906 L 132.871094 235.382812 L 131.183594 234.136719 C 130.96875 233.980469 130.777344 233.789062 130.621094 233.574219 Z M 129.375 231.886719 "/><path style=" stroke:none;fill-rule:evenodd;fill:#e8e8e8;fill-opacity:1;" d="M 217.191406 135.660156 L 220.339844 131.390625 C 220.839844 130.707031 221.636719 130.308594 222.480469 130.308594 C 223.328125 130.308594 224.121094 130.707031 224.621094 131.390625 L 227.769531 135.660156 L 232.039062 138.804688 C 232.71875 139.304688 233.121094 140.101562 233.121094 140.949219 C 233.121094 141.792969 232.71875 142.589844 232.039062 143.089844 L 227.769531 146.234375 L 224.621094 150.503906 C 224.121094 151.1875 223.328125 151.589844 222.480469 151.589844 C 221.636719 151.589844 220.839844 151.1875 220.339844 150.503906 L 217.191406 146.234375 L 212.921875 143.089844 C 212.242188 142.589844 211.839844 141.792969 211.839844 140.949219 C 211.839844 140.101562 212.242188 139.304688 212.921875 138.804688 Z M 222.480469 137.453125 L 221.234375 139.140625 C 221.078125 139.355469 220.886719 139.546875 220.671875 139.703125 L 218.984375 140.949219 L 220.671875 142.191406 C 220.886719 142.347656 221.078125 142.542969 221.234375 142.757812 L 222.480469 144.441406 L 223.726562 142.757812 C 223.882812 142.542969 224.074219 142.347656 224.289062 142.191406 L 225.976562 140.949219 L 224.289062 139.703125 C 224.074219 139.546875 223.882812 139.355469 223.726562 139.140625 Z M 222.480469 137.453125 "/><g clip-rule="nonzero" clip-path="url(#f96906861c)"><path style=" stroke:none;fill-rule:evenodd;fill:#e8e8e8;fill-opacity:1;" d="M 254.265625 246.023438 C 255.992188 247.710938 257.0625 250.070312 257.0625 252.671875 C 257.0625 257.8125 252.890625 261.984375 247.753906 261.984375 L 193.21875 261.984375 C 184.410156 261.984375 177.257812 254.832031 177.257812 246.023438 C 177.257812 237.214844 184.410156 230.0625 193.21875 230.0625 C 193.21875 230.0625 247.753906 230.0625 247.753906 230.0625 C 252.890625 230.0625 257.0625 234.234375 257.0625 239.371094 C 257.0625 241.976562 255.992188 244.332031 254.265625 246.023438 Z M 193.21875 256.664062 C 187.347656 256.664062 182.578125 251.898438 182.578125 246.023438 C 182.578125 240.148438 187.347656 235.382812 193.21875 235.382812 L 247.753906 235.382812 C 249.953125 235.382812 251.742188 237.171875 251.742188 239.371094 C 251.742188 241.566406 249.96875 243.347656 247.777344 243.363281 C 247.785156 243.363281 247.742188 243.363281 247.742188 243.363281 C 246.277344 243.367188 245.089844 244.558594 245.09375 246.027344 C 245.09375 247.492188 246.285156 248.683594 247.753906 248.683594 C 249.953125 248.683594 251.742188 250.46875 251.742188 252.671875 C 251.742188 254.875 249.953125 256.664062 247.753906 256.664062 C 247.753906 256.664062 193.21875 256.664062 193.21875 256.664062 Z M 193.21875 256.664062 "/></g><g clip-rule="nonzero" clip-path="url(#cc73c5a648)"><path style=" stroke:none;fill-rule:evenodd;fill:#e8e8e8;fill-opacity:1;" d="M 180.058594 219.421875 C 178.332031 217.730469 177.257812 215.375 177.257812 212.769531 C 177.257812 207.632812 181.429688 203.460938 186.570312 203.460938 C 186.570312 203.460938 241.101562 203.460938 241.101562 203.460938 C 249.910156 203.460938 257.0625 210.613281 257.0625 219.421875 C 257.0625 228.230469 249.910156 235.382812 241.101562 235.382812 L 186.570312 235.382812 C 181.429688 235.382812 177.257812 231.210938 177.257812 226.070312 C 177.257812 223.46875 178.332031 221.109375 180.058594 219.421875 Z M 241.101562 230.0625 L 186.570312 230.0625 C 184.367188 230.0625 182.578125 228.273438 182.578125 226.070312 C 182.578125 223.871094 184.367188 222.082031 186.570312 222.082031 C 188.039062 222.082031 189.226562 220.894531 189.230469 219.425781 C 189.230469 217.957031 188.046875 216.765625 186.578125 216.761719 L 186.535156 216.761719 C 184.351562 216.75 182.578125 214.964844 182.578125 212.769531 C 182.578125 210.570312 184.367188 208.78125 186.570312 208.78125 L 241.101562 208.78125 C 246.976562 208.78125 251.742188 213.546875 251.742188 219.421875 C 251.742188 225.296875 246.976562 230.0625 241.101562 230.0625 Z M 241.101562 230.0625 "/></g><path style=" stroke:none;fill-rule:evenodd;fill:#e8e8e8;fill-opacity:1;" d="M 249.082031 243.363281 L 195.878906 243.363281 C 194.410156 243.363281 193.21875 244.554688 193.21875 246.023438 C 193.21875 247.492188 194.410156 248.683594 195.878906 248.683594 L 249.082031 248.683594 C 250.550781 248.683594 251.742188 247.492188 251.742188 246.023438 C 251.742188 244.554688 250.550781 243.363281 249.082031 243.363281 Z M 249.082031 243.363281 "/><path style=" stroke:none;fill-rule:evenodd;fill:#e8e8e8;fill-opacity:1;" d="M 238.441406 216.761719 L 185.238281 216.761719 C 183.769531 216.761719 182.578125 217.953125 182.578125 219.421875 C 182.578125 220.890625 183.769531 222.082031 185.238281 222.082031 L 238.441406 222.082031 C 239.910156 222.082031 241.101562 220.890625 241.101562 219.421875 C 241.101562 217.953125 239.910156 216.761719 238.441406 216.761719 Z M 238.441406 216.761719 "/><path style=" stroke:none;fill-rule:evenodd;fill:#e8e8e8;fill-opacity:1;" d="M 170.152344 124.796875 C 173.09375 120.300781 176.546875 118.335938 179.761719 118.335938 C 184.207031 118.335938 187.898438 122.097656 187.898438 126.757812 C 187.898438 128.980469 186.28125 131.433594 184.253906 133.402344 C 182.199219 135.394531 179.65625 136.957031 177.40625 136.957031 C 175.9375 136.957031 174.746094 138.148438 174.746094 139.617188 C 174.746094 141.085938 175.9375 142.277344 177.40625 142.277344 C 180.816406 142.277344 184.847656 140.242188 187.957031 137.21875 C 191.09375 134.175781 193.21875 130.195312 193.21875 126.757812 C 193.21875 119.105469 187.0625 113.015625 179.761719 113.015625 C 175.144531 113.015625 169.921875 115.429688 165.699219 121.878906 C 164.898438 123.109375 165.242188 124.761719 166.472656 125.5625 C 167.699219 126.367188 169.351562 126.023438 170.152344 124.796875 Z M 170.152344 124.796875 "/><path style=" stroke:none;fill-rule:evenodd;fill:#e8e8e8;fill-opacity:1;" d="M 174.746094 139.617188 L 174.746094 152.917969 C 174.746094 154.386719 175.9375 155.578125 177.40625 155.578125 C 178.875 155.578125 180.066406 154.386719 180.066406 152.917969 L 180.066406 139.617188 C 180.066406 138.148438 178.875 136.957031 177.40625 136.957031 C 175.9375 136.957031 174.746094 138.148438 174.746094 139.617188 Z M 174.746094 139.617188 "/><path style=" stroke:none;fill-rule:evenodd;fill:#e8e8e8;fill-opacity:1;" d="M 157.308594 155.578125 L 197.210938 155.578125 C 198.679688 155.578125 199.871094 154.386719 199.871094 152.917969 C 199.871094 151.449219 198.679688 150.257812 197.210938 150.257812 L 157.308594 150.257812 C 155.839844 150.257812 154.648438 151.449219 154.648438 152.917969 C 154.648438 154.386719 155.839844 155.578125 157.308594 155.578125 Z M 157.308594 155.578125 "/><path style=" stroke:none;fill-rule:evenodd;fill:#e8e8e8;fill-opacity:1;" d="M 145.335938 190.214844 C 143.539062 191.238281 141.386719 192.300781 139.324219 192.894531 C 136.601562 193.683594 134.003906 193.617188 132.117188 192.464844 C 129.214844 190.699219 123.921875 185.257812 120.988281 179.691406 C 118.722656 175.386719 118.011719 170.996094 119.742188 167.851562 C 120.914062 165.71875 124.542969 163.027344 129.222656 160.539062 C 138.929688 155.390625 153.113281 150.40625 153.113281 150.40625 C 153.394531 150.308594 153.691406 150.257812 153.992188 150.257812 L 159.3125 150.257812 C 160.78125 150.257812 161.972656 151.449219 161.972656 152.917969 C 161.972656 158.605469 167.414062 166.472656 177.796875 166.472656 C 188.179688 166.472656 193.894531 158.613281 193.894531 152.917969 C 193.894531 151.449219 195.085938 150.257812 196.554688 150.257812 L 201.875 150.257812 C 202.175781 150.257812 202.472656 150.308594 202.757812 150.40625 C 202.757812 150.40625 216.941406 155.390625 226.644531 160.539062 C 231.328125 163.027344 234.957031 165.71875 236.128906 167.851562 C 237.859375 170.996094 237.144531 175.386719 234.878906 179.691406 C 231.949219 185.257812 226.65625 190.699219 223.753906 192.464844 C 221.910156 193.589844 219.203125 193.679688 216.304688 192.910156 C 213.871094 192.265625 211.269531 191.066406 209.179688 189.964844 L 209.179688 195.480469 C 209.179688 196.949219 207.988281 198.140625 206.519531 198.140625 C 205.050781 198.140625 203.859375 196.949219 203.859375 195.480469 L 203.859375 185.34375 C 203.859375 184.367188 204.398438 183.46875 205.261719 183.003906 C 206.125 182.539062 207.171875 182.585938 207.988281 183.125 C 207.988281 183.125 211.832031 185.675781 215.804688 187.164062 C 217 187.613281 218.203125 187.96875 219.296875 188.082031 C 219.945312 188.152344 220.542969 188.195312 220.984375 187.921875 C 223.402344 186.449219 227.730469 181.847656 230.175781 177.214844 C 230.925781 175.78125 231.5 174.355469 231.722656 173.011719 C 231.882812 172.054688 231.875 171.160156 231.464844 170.414062 C 231.1875 169.90625 230.625 169.402344 229.914062 168.832031 C 228.460938 167.671875 226.4375 166.457031 224.148438 165.238281 C 215.71875 160.765625 203.796875 156.425781 201.417969 155.578125 L 198.949219 155.578125 C 197.519531 162.96875 190.332031 171.792969 177.796875 171.792969 C 165.230469 171.792969 158.285156 162.972656 156.910156 155.578125 L 154.453125 155.578125 C 152.074219 156.425781 140.148438 160.765625 131.71875 165.238281 C 129.429688 166.457031 127.40625 167.671875 125.953125 168.832031 C 125.246094 169.402344 124.679688 169.90625 124.402344 170.414062 C 123.992188 171.160156 123.988281 172.054688 124.144531 173.011719 C 124.371094 174.355469 124.945312 175.78125 125.695312 177.214844 C 128.140625 181.847656 132.46875 186.449219 134.886719 187.921875 C 135.304688 188.179688 135.839844 188.148438 136.414062 188.085938 C 137.394531 187.972656 138.460938 187.628906 139.507812 187.195312 C 143.058594 185.726562 146.402344 183.21875 146.402344 183.21875 C 147.207031 182.613281 148.285156 182.515625 149.1875 182.96875 C 150.085938 183.417969 150.65625 184.339844 150.65625 185.34375 L 150.65625 227.402344 C 150.65625 228.871094 151.847656 230.0625 153.316406 230.0625 L 169.277344 230.0625 C 170.746094 230.0625 171.9375 231.253906 171.9375 232.722656 C 171.9375 234.191406 170.746094 235.382812 169.277344 235.382812 C 169.277344 235.382812 153.316406 235.382812 153.316406 235.382812 C 148.910156 235.382812 145.335938 231.808594 145.335938 227.402344 Z M 145.335938 190.214844 "/><path style=" stroke:none;fill-rule:evenodd;fill:#e8e8e8;fill-opacity:1;" d="M 147.996094 219.421875 L 169.277344 219.421875 C 170.746094 219.421875 171.9375 218.230469 171.9375 216.761719 C 171.9375 215.292969 170.746094 214.101562 169.277344 214.101562 L 147.996094 214.101562 C 146.527344 214.101562 145.335938 215.292969 145.335938 216.761719 C 145.335938 218.230469 146.527344 219.421875 147.996094 219.421875 Z M 147.996094 219.421875 "/></g></svg>