<svg xmlns="http://www.w3.org/2000/svg" xmlns:xlink="http://www.w3.org/1999/xlink" width="500" zoomAndPan="magnify" viewBox="0 0 375 374.999991" height="500" preserveAspectRatio="xMidYMid meet" version="1.2"><defs><clipPath id="3a2a946340"><path d="M 43 18 L 333.949219 18 L 333.949219 356.878906 L 43 356.878906 Z M 43 18 "/></clipPath></defs><g id="ace4328ad6"><g clip-rule="nonzero" clip-path="url(#3a2a946340)"><path style=" stroke:none;fill-rule:nonzero;fill:#e8e8e8;fill-opacity:1;" d="M 333.351562 238.394531 L 286.59375 38.136719 C 286.425781 37.417969 285.96875 36.796875 285.328125 36.425781 C 284.6875 36.050781 283.921875 35.960938 283.21875 36.167969 L 278.726562 37.496094 L 273.515625 20.066406 C 273.09375 18.660156 271.628906 17.84375 270.207031 18.25 L 153.054688 51.355469 C 145.722656 53.453125 140.039062 59.355469 138.222656 66.761719 L 137.734375 68.738281 C 135.890625 65.839844 133.136719 63.546875 129.753906 62.363281 L 72.617188 42.402344 C 71.398438 41.976562 70.0625 42.472656 69.414062 43.578125 L 60.585938 58.578125 L 46.652344 55.148438 C 45.703125 54.917969 44.707031 55.210938 44.042969 55.925781 C 43.375 56.640625 43.148438 57.65625 43.449219 58.582031 L 64.601562 124.117188 C 63.40625 123.953125 62.191406 123.914062 60.972656 124.003906 C 56.003906 124.367188 51.371094 126.839844 48.269531 130.789062 L 47.179688 132.183594 C 41.1875 139.824219 42.234375 150.738281 49.570312 157.035156 L 57.914062 164.191406 L 56.328125 169.398438 C 53.78125 177.769531 56.726562 186.710938 63.503906 191.972656 L 64.347656 210.082031 C 64.675781 217.128906 68.832031 223.234375 75.082031 226.210938 L 74.695312 231.203125 C 73.945312 240.886719 80.265625 249.515625 89.726562 251.71875 L 91.507812 252.132812 C 100.722656 267.453125 107.761719 288.183594 113.433594 304.933594 C 116.242188 313.234375 118.667969 320.398438 120.941406 325.734375 C 128.347656 343.125 143.925781 355.617188 144.585938 356.140625 C 145.0625 356.519531 145.652344 356.722656 146.257812 356.722656 L 291.933594 356.722656 C 292.789062 356.722656 293.589844 356.316406 294.097656 355.632812 C 294.601562 354.945312 294.753906 354.058594 294.5 353.242188 L 279.304688 304.183594 C 276.992188 296.71875 276.867188 288.785156 278.945312 281.246094 L 284.835938 259.902344 L 331.714844 241.507812 C 332.960938 241.015625 333.65625 239.691406 333.351562 238.394531 Z M 154.523438 56.527344 L 269.125 24.140625 L 273.574219 39.019531 L 152 74.945312 L 152.371094 73.828125 C 153.445312 70.605469 156.035156 68.101562 159.292969 67.136719 L 249.851562 40.226562 C 251.277344 39.800781 252.085938 38.304688 251.664062 36.882812 C 251.242188 35.464844 249.742188 34.664062 248.324219 35.074219 L 157.761719 61.980469 C 152.824219 63.449219 148.902344 67.242188 147.273438 72.128906 L 145.75 76.699219 C 144.234375 77.054688 142.699219 77.292969 141.152344 77.359375 L 143.441406 68.042969 C 144.800781 62.507812 149.046875 58.09375 154.523438 56.527344 Z M 136.875 112.992188 C 136.664062 112.863281 136.484375 112.695312 136.261719 112.578125 C 135.597656 112.222656 134.898438 111.964844 134.191406 111.738281 L 124.75 79.914062 L 132.898438 81.921875 C 134.367188 82.28125 135.851562 82.5 137.34375 82.636719 C 137.476562 82.65625 137.601562 82.683594 137.726562 82.683594 C 137.730469 82.683594 137.734375 82.6875 137.734375 82.6875 C 137.734375 82.6875 137.738281 82.6875 137.738281 82.6875 C 137.796875 82.6875 137.855469 82.683594 137.914062 82.679688 C 137.9375 82.679688 137.953125 82.667969 137.972656 82.664062 C 141.539062 82.914062 145.128906 82.582031 148.578125 81.5625 L 148.804688 81.496094 L 154.4375 99.976562 C 152.652344 99.84375 150.84375 99.984375 149.058594 100.433594 C 142.785156 102.023438 138.234375 107.042969 136.875 112.992188 Z M 72.925781 48.203125 L 127.976562 67.441406 C 131.703125 68.742188 134.300781 72.054688 134.738281 75.945312 L 79.289062 54.40625 C 77.90625 53.875 76.347656 54.558594 75.8125 55.9375 C 75.273438 57.320312 75.960938 58.882812 77.34375 59.417969 L 100.433594 68.386719 L 66.03125 59.917969 Z M 50.046875 61.515625 L 118.707031 78.425781 L 128.460938 111.316406 C 127.703125 111.441406 126.945312 111.613281 126.214844 111.882812 C 120.367188 114.035156 117.050781 120.222656 118.496094 126.285156 L 119.507812 130.519531 C 117.800781 130.277344 116.050781 130.519531 114.46875 131.335938 C 107.605469 134.871094 103.992188 142.601562 105.679688 150.132812 L 107.804688 159.597656 L 107.003906 160.007812 C 106.242188 160.398438 105.542969 160.863281 104.863281 161.335938 C 104.007812 158.1875 102.316406 155.304688 99.902344 153.011719 L 74.429688 128.820312 C 73.375 127.816406 72.195312 126.972656 70.949219 126.269531 Z M 111.292969 251.292969 L 89.574219 183.992188 C 92.445312 183.675781 95.121094 182.683594 97.453125 181.128906 C 101.082031 200.363281 107.550781 230.332031 116.132812 252.648438 Z M 51.410156 135.503906 L 52.503906 134.105469 C 54.703125 131.304688 57.851562 129.621094 61.367188 129.363281 C 64.847656 129.125 68.179688 130.300781 70.726562 132.722656 L 96.199219 156.910156 C 98.722656 159.308594 100.109375 162.636719 100.097656 166.121094 C 98.445312 168.550781 97.398438 171.347656 97.054688 174.300781 C 94.96875 176.761719 92.128906 178.324219 88.925781 178.65625 C 85.535156 179.027344 82.242188 177.984375 79.644531 175.757812 L 62.722656 161.234375 C 62.71875 161.230469 62.71875 161.230469 62.710938 161.226562 L 53.074219 152.957031 C 47.925781 148.539062 47.195312 140.875 51.410156 135.503906 Z M 61.46875 170.960938 L 62.367188 168.011719 L 76.148438 179.835938 C 78.394531 181.765625 81.023438 183.023438 83.816406 183.640625 L 89.640625 201.683594 L 68.289062 188.773438 C 62.203125 185.089844 59.398438 177.765625 61.46875 170.960938 Z M 69.714844 209.828125 L 69.046875 195.511719 L 92.15625 209.488281 L 98.382812 228.78125 L 78.789062 221.980469 C 73.535156 220.15625 69.972656 215.386719 69.714844 209.828125 Z M 80.054688 231.613281 L 80.320312 228.195312 L 100.453125 235.183594 L 105.167969 249.796875 L 90.949219 246.484375 C 84.089844 244.890625 79.507812 238.636719 80.054688 231.613281 Z M 125.882812 323.628906 C 123.691406 318.476562 121.292969 311.398438 118.519531 303.207031 C 113.289062 287.757812 106.910156 268.972656 98.648438 253.792969 L 108.503906 256.089844 L 118.722656 258.949219 C 120.757812 263.625 122.890625 267.855469 125.125 271.335938 C 132.792969 283.273438 143.710938 293.996094 155.273438 305.34375 C 169.523438 319.332031 184.222656 333.765625 193.4375 351.34375 L 147.226562 351.34375 C 144.167969 348.75 131.890625 337.734375 125.882812 323.628906 Z M 273.765625 279.820312 C 271.414062 288.347656 271.550781 297.324219 274.171875 305.777344 L 288.289062 351.347656 L 199.441406 351.347656 C 189.9375 331.875 174.246094 316.441406 159.039062 301.511719 C 147.699219 290.378906 136.988281 279.863281 129.648438 268.4375 C 116.394531 247.800781 106.25 198.96875 102.507812 178.933594 C 101.460938 173.328125 104.070312 167.800781 109.019531 165.023438 L 114.632812 190.039062 C 115.941406 195.859375 118.1875 201.382812 121.320312 206.453125 L 139.429688 235.800781 C 139.9375 236.625 140.816406 237.078125 141.71875 237.078125 C 142.199219 237.078125 142.683594 236.949219 143.125 236.675781 C 144.386719 235.902344 144.78125 234.246094 144 232.980469 L 125.894531 203.632812 C 123.078125 199.070312 121.050781 194.101562 119.875 188.863281 L 110.921875 148.953125 C 109.765625 143.804688 112.234375 138.527344 116.921875 136.109375 C 117.765625 135.675781 118.75 135.65625 119.613281 136.050781 C 120.476562 136.445312 121.097656 137.207031 121.316406 138.128906 L 131.105469 179.171875 C 131.105469 179.175781 131.109375 179.175781 131.109375 179.175781 C 132.871094 186.570312 135.941406 193.5 140.226562 199.777344 L 158.386719 226.363281 C 158.90625 227.125 159.746094 227.535156 160.609375 227.535156 C 161.128906 227.535156 161.660156 227.382812 162.121094 227.070312 C 163.347656 226.230469 163.660156 224.554688 162.824219 223.332031 L 144.664062 196.746094 C 140.746094 191.011719 137.945312 184.679688 136.335938 177.921875 L 123.722656 125.035156 C 122.90625 121.621094 124.777344 118.140625 128.070312 116.925781 C 129.921875 116.238281 131.988281 116.382812 133.730469 117.316406 C 135.472656 118.25 136.738281 119.882812 137.203125 121.804688 L 149.53125 172.976562 C 151.085938 179.414062 154.078125 185.570312 158.191406 190.761719 L 182.648438 221.648438 C 183.570312 222.8125 185.261719 223.003906 186.425781 222.085938 C 187.589844 221.164062 187.785156 219.476562 186.867188 218.3125 L 162.40625 187.425781 C 158.773438 182.839844 156.128906 177.40625 154.753906 171.714844 L 142.132812 119.316406 C 140.679688 113.296875 144.382812 107.164062 150.386719 105.644531 C 153.34375 104.898438 156.402344 105.347656 159.015625 106.910156 C 161.625 108.472656 163.46875 110.964844 164.203125 113.921875 L 176.820312 164.761719 C 179.136719 174.09375 184.507812 182.59375 191.941406 188.695312 L 224.988281 215.824219 C 230.765625 220.570312 239.226562 220.28125 244.714844 215.117188 C 249.203125 210.902344 251.777344 204.949219 251.777344 198.792969 L 251.777344 167.4375 C 251.777344 161.167969 256.878906 156.066406 263.148438 156.066406 C 269.027344 156.066406 273.894531 160.480469 274.46875 166.324219 L 281.597656 238.75 C 282.207031 244.96875 281.675781 251.167969 280.015625 257.175781 Z M 263.148438 150.695312 C 253.910156 150.695312 246.402344 158.207031 246.402344 167.4375 L 246.402344 177.792969 C 243.535156 178.402344 240.609375 178.726562 237.664062 178.726562 C 213.621094 178.726562 194.0625 158.25 194.0625 133.078125 C 194.0625 107.910156 213.621094 87.429688 237.664062 87.429688 C 261.703125 87.429688 281.261719 107.910156 281.261719 133.078125 C 281.261719 141.226562 279.214844 149.082031 275.339844 156.03125 C 272.28125 152.757812 267.96875 150.695312 263.148438 150.695312 Z M 286.34375 253.539062 C 287.246094 248.496094 287.445312 243.367188 286.941406 238.226562 L 279.8125 165.800781 C 279.648438 164.125 279.179688 162.558594 278.570312 161.078125 C 283.832031 152.75 286.636719 143.113281 286.636719 133.078125 C 286.636719 104.945312 264.664062 82.058594 237.664062 82.058594 C 210.65625 82.058594 188.6875 104.949219 188.6875 133.078125 C 188.6875 161.210938 210.65625 184.101562 237.664062 184.101562 C 240.601562 184.101562 243.527344 183.816406 246.402344 183.28125 L 246.402344 198.792969 C 246.402344 203.472656 244.441406 208 240.984375 211.25 C 237.503906 214.523438 232.09375 214.707031 228.394531 211.671875 L 195.347656 184.546875 C 188.804688 179.167969 184.078125 171.683594 182.035156 163.464844 L 169.417969 112.625 C 168.335938 108.273438 165.621094 104.605469 161.773438 102.300781 C 161.382812 102.066406 160.980469 101.859375 160.574219 101.65625 L 153.964844 79.96875 L 282.007812 42.136719 L 327.589844 237.351562 Z M 286.34375 253.539062 "/></g></g></svg>