<svg xmlns="http://www.w3.org/2000/svg" xmlns:xlink="http://www.w3.org/1999/xlink" width="500" zoomAndPan="magnify" viewBox="0 0 375 374.999991" height="500" preserveAspectRatio="xMidYMid meet" version="1.2"><defs><clipPath id="0b26e34a44"><path d="M 123 112.5 L 252.339844 112.5 L 252.339844 262.5 L 123 262.5 Z M 123 112.5 "/></clipPath></defs><g id="98ce6009ca"><g clip-rule="nonzero" clip-path="url(#0b26e34a44)"><path style=" stroke:none;fill-rule:nonzero;fill:#e8e8e8;fill-opacity:1;" d="M 252.082031 210.074219 L 231.390625 121.464844 C 231.316406 121.144531 231.113281 120.871094 230.832031 120.707031 C 230.546875 120.539062 230.210938 120.5 229.894531 120.59375 L 227.910156 121.179688 L 225.601562 113.46875 C 225.417969 112.847656 224.769531 112.484375 224.140625 112.664062 L 172.300781 127.3125 C 169.058594 128.242188 166.542969 130.851562 165.738281 134.128906 L 165.523438 135.003906 C 164.707031 133.722656 163.488281 132.707031 161.992188 132.183594 L 136.707031 123.351562 C 136.171875 123.164062 135.578125 123.382812 135.292969 123.871094 L 131.386719 130.507812 L 125.21875 128.992188 C 124.800781 128.890625 124.359375 129.019531 124.066406 129.335938 C 123.769531 129.652344 123.671875 130.101562 123.804688 130.511719 L 133.164062 159.507812 C 132.632812 159.4375 132.097656 159.417969 131.558594 159.460938 C 129.355469 159.621094 127.308594 160.714844 125.9375 162.460938 L 125.453125 163.078125 C 122.800781 166.457031 123.265625 171.289062 126.511719 174.074219 L 130.203125 177.242188 L 129.503906 179.546875 C 128.375 183.25 129.679688 187.207031 132.675781 189.535156 L 133.050781 197.546875 C 133.195312 200.664062 135.035156 203.367188 137.800781 204.683594 L 137.628906 206.890625 C 137.296875 211.175781 140.09375 214.996094 144.28125 215.972656 L 145.066406 216.152344 C 149.144531 222.933594 152.261719 232.105469 154.769531 239.519531 C 156.011719 243.191406 157.085938 246.359375 158.089844 248.722656 C 161.367188 256.417969 168.261719 261.945312 168.554688 262.175781 C 168.765625 262.34375 169.027344 262.433594 169.292969 262.433594 L 233.753906 262.433594 C 234.132812 262.433594 234.488281 262.253906 234.710938 261.949219 C 234.933594 261.644531 235 261.253906 234.890625 260.890625 L 228.164062 239.1875 C 227.140625 235.882812 227.085938 232.371094 228.007812 229.035156 L 230.613281 219.589844 L 251.355469 211.453125 C 251.90625 211.234375 252.214844 210.648438 252.082031 210.074219 Z M 172.949219 129.601562 L 223.660156 115.273438 L 225.628906 121.855469 L 171.835938 137.75 L 172 137.257812 C 172.476562 135.832031 173.621094 134.722656 175.0625 134.296875 L 215.132812 122.390625 C 215.761719 122.199219 216.121094 121.539062 215.933594 120.910156 C 215.746094 120.28125 215.085938 119.925781 214.457031 120.109375 L 174.382812 132.015625 C 172.199219 132.664062 170.464844 134.34375 169.742188 136.503906 L 169.070312 138.527344 C 168.398438 138.683594 167.71875 138.789062 167.035156 138.820312 L 168.046875 134.699219 C 168.648438 132.246094 170.527344 130.292969 172.949219 129.601562 Z M 165.140625 154.585938 C 165.046875 154.527344 164.96875 154.453125 164.871094 154.402344 C 164.578125 154.246094 164.265625 154.132812 163.953125 154.03125 L 159.777344 139.949219 L 163.382812 140.835938 C 164.03125 140.996094 164.691406 141.09375 165.351562 141.15625 C 165.40625 141.164062 165.464844 141.175781 165.519531 141.175781 C 165.519531 141.175781 165.523438 141.175781 165.523438 141.175781 C 165.550781 141.175781 165.578125 141.175781 165.601562 141.171875 C 165.613281 141.171875 165.621094 141.167969 165.628906 141.167969 C 167.207031 141.277344 168.796875 141.132812 170.320312 140.679688 L 170.421875 140.648438 L 172.914062 148.828125 C 172.125 148.769531 171.324219 148.828125 170.535156 149.03125 C 167.757812 149.734375 165.742188 151.953125 165.140625 154.585938 Z M 136.84375 125.917969 L 161.207031 134.429688 C 162.855469 135.007812 164.003906 136.472656 164.195312 138.195312 L 139.660156 128.664062 C 139.050781 128.429688 138.359375 128.730469 138.121094 129.339844 C 137.886719 129.953125 138.1875 130.644531 138.800781 130.878906 L 149.015625 134.847656 L 133.796875 131.101562 Z M 126.722656 131.808594 L 157.105469 139.289062 L 161.417969 153.84375 C 161.082031 153.902344 160.75 153.976562 160.425781 154.097656 C 157.839844 155.046875 156.371094 157.785156 157.011719 160.46875 L 157.457031 162.339844 C 156.703125 162.234375 155.929688 162.34375 155.226562 162.703125 C 152.191406 164.265625 150.589844 167.6875 151.339844 171.019531 L 152.28125 175.207031 L 151.925781 175.390625 C 151.589844 175.5625 151.277344 175.769531 150.976562 175.976562 C 150.601562 174.585938 149.851562 173.308594 148.78125 172.292969 L 137.511719 161.589844 C 137.042969 161.148438 136.523438 160.773438 135.96875 160.460938 Z M 153.824219 215.78125 L 144.210938 186.003906 C 145.484375 185.863281 146.667969 185.421875 147.699219 184.734375 C 149.304688 193.246094 152.167969 206.507812 155.964844 216.382812 Z M 127.324219 164.546875 L 127.808594 163.929688 C 128.78125 162.691406 130.175781 161.945312 131.730469 161.832031 C 133.273438 161.726562 134.746094 162.246094 135.871094 163.316406 L 147.144531 174.019531 C 148.261719 175.082031 148.875 176.550781 148.867188 178.09375 C 148.136719 179.171875 147.675781 180.40625 147.523438 181.714844 C 146.601562 182.804688 145.34375 183.496094 143.925781 183.640625 C 142.425781 183.804688 140.96875 183.34375 139.820312 182.359375 L 132.332031 175.933594 C 132.328125 175.933594 132.328125 175.929688 132.328125 175.929688 L 128.0625 172.269531 C 125.785156 170.316406 125.460938 166.925781 127.324219 164.546875 Z M 131.777344 180.238281 L 132.175781 178.929688 L 138.269531 184.164062 C 139.265625 185.015625 140.429688 185.574219 141.664062 185.847656 L 144.242188 193.832031 L 134.792969 188.117188 C 132.101562 186.488281 130.859375 183.246094 131.777344 180.238281 Z M 135.425781 197.433594 L 135.128906 191.101562 L 145.355469 197.285156 L 148.109375 205.820312 L 139.441406 202.8125 C 137.117188 202.003906 135.539062 199.894531 135.425781 197.433594 Z M 140 207.074219 L 140.117188 205.5625 L 149.027344 208.652344 L 151.113281 215.121094 L 144.820312 213.65625 C 141.785156 212.949219 139.757812 210.183594 140 207.074219 Z M 160.277344 247.789062 C 159.308594 245.511719 158.246094 242.378906 157.019531 238.753906 C 154.707031 231.917969 151.882812 223.605469 148.226562 216.890625 L 152.589844 217.90625 L 157.109375 219.171875 C 158.011719 221.238281 158.953125 223.109375 159.941406 224.652344 C 163.335938 229.933594 168.167969 234.675781 173.285156 239.699219 C 179.589844 245.886719 186.09375 252.277344 190.167969 260.054688 L 169.722656 260.054688 C 168.371094 258.90625 162.9375 254.03125 160.277344 247.789062 Z M 225.714844 228.40625 C 224.671875 232.179688 224.734375 236.152344 225.894531 239.890625 L 232.140625 260.054688 L 192.828125 260.054688 C 188.621094 251.4375 181.679688 244.609375 174.949219 238.003906 C 169.933594 233.078125 165.191406 228.425781 161.945312 223.367188 C 156.078125 214.238281 151.589844 192.628906 149.933594 183.765625 C 149.472656 181.285156 150.625 178.835938 152.816406 177.609375 L 155.300781 188.675781 C 155.878906 191.253906 156.875 193.699219 158.257812 195.941406 L 166.273438 208.925781 C 166.496094 209.292969 166.886719 209.492188 167.285156 209.492188 C 167.496094 209.492188 167.714844 209.433594 167.90625 209.316406 C 168.46875 208.972656 168.640625 208.238281 168.296875 207.679688 L 160.28125 194.691406 C 159.035156 192.675781 158.140625 190.476562 157.621094 188.15625 L 153.65625 170.5 C 153.148438 168.222656 154.238281 165.882812 156.3125 164.816406 C 156.6875 164.625 157.121094 164.613281 157.503906 164.789062 C 157.886719 164.964844 158.160156 165.300781 158.257812 165.707031 L 162.589844 183.871094 C 163.371094 187.144531 164.730469 190.210938 166.625 192.988281 L 174.660156 204.75 C 174.890625 205.089844 175.261719 205.269531 175.644531 205.269531 C 175.875 205.269531 176.109375 205.203125 176.3125 205.0625 C 176.855469 204.691406 176.996094 203.953125 176.625 203.410156 L 168.589844 191.644531 C 166.855469 189.109375 165.617188 186.308594 164.902344 183.316406 L 159.324219 159.914062 C 158.960938 158.40625 159.789062 156.863281 161.246094 156.328125 C 162.066406 156.023438 162.980469 156.085938 163.75 156.5 C 164.523438 156.914062 165.082031 157.636719 165.289062 158.484375 L 170.742188 181.128906 C 171.429688 183.976562 172.753906 186.699219 174.574219 189 L 185.398438 202.664062 C 185.804688 203.179688 186.554688 203.265625 187.066406 202.859375 C 187.582031 202.449219 187.667969 201.703125 187.261719 201.1875 L 176.4375 187.523438 C 174.832031 185.492188 173.660156 183.089844 173.054688 180.570312 L 167.46875 157.382812 C 166.824219 154.722656 168.464844 152.007812 171.121094 151.335938 C 172.429688 151.003906 173.78125 151.203125 174.9375 151.894531 C 176.09375 152.585938 176.910156 153.6875 177.234375 154.996094 L 182.816406 177.492188 C 183.84375 181.621094 186.21875 185.382812 189.507812 188.082031 L 204.128906 200.085938 C 206.6875 202.1875 210.429688 202.058594 212.859375 199.777344 C 214.847656 197.910156 215.984375 195.277344 215.984375 192.550781 L 215.984375 178.679688 C 215.984375 175.902344 218.242188 173.644531 221.015625 173.644531 C 223.617188 173.644531 225.769531 175.597656 226.023438 178.183594 L 229.179688 210.234375 C 229.449219 212.984375 229.214844 215.726562 228.480469 218.386719 Z M 221.015625 171.269531 C 216.929688 171.269531 213.605469 174.59375 213.605469 178.679688 L 213.605469 183.257812 C 212.335938 183.53125 211.042969 183.671875 209.738281 183.671875 C 199.101562 183.671875 190.445312 174.613281 190.445312 163.472656 C 190.445312 152.335938 199.101562 143.277344 209.738281 143.277344 C 220.378906 143.277344 229.03125 152.335938 229.03125 163.472656 C 229.03125 167.078125 228.125 170.554688 226.410156 173.632812 C 225.058594 172.179688 223.148438 171.269531 221.015625 171.269531 Z M 231.277344 216.777344 C 231.679688 214.542969 231.769531 212.273438 231.542969 210 L 228.390625 177.953125 C 228.316406 177.210938 228.109375 176.519531 227.839844 175.863281 C 230.167969 172.179688 231.410156 167.914062 231.410156 163.472656 C 231.410156 151.027344 221.6875 140.898438 209.738281 140.898438 C 197.789062 140.898438 188.070312 151.027344 188.070312 163.472656 C 188.070312 175.921875 197.789062 186.050781 209.738281 186.050781 C 211.039062 186.050781 212.332031 185.925781 213.605469 185.6875 L 213.605469 192.550781 C 213.605469 194.621094 212.738281 196.625 211.207031 198.0625 C 209.667969 199.511719 207.273438 199.59375 205.636719 198.25 L 191.015625 186.246094 C 188.121094 183.867188 186.027344 180.558594 185.125 176.917969 L 179.542969 154.425781 C 179.0625 152.496094 177.863281 150.875 176.160156 149.855469 C 175.984375 149.75 175.808594 149.660156 175.628906 149.570312 L 172.703125 139.972656 L 229.359375 123.234375 L 249.53125 209.613281 Z M 231.277344 216.777344 "/></g></g></svg>