<svg xmlns="http://www.w3.org/2000/svg" xmlns:xlink="http://www.w3.org/1999/xlink" width="500" zoomAndPan="magnify" viewBox="0 0 375 374.999991" height="500" preserveAspectRatio="xMidYMid meet" version="1.2"><defs><clipPath id="2fff2104af"><path d="M 119.34375 112.5 L 255.84375 112.5 L 255.84375 261 L 119.34375 261 Z M 119.34375 112.5 "/></clipPath></defs><g id="4234d8f864"><g clip-rule="nonzero" clip-path="url(#2fff2104af)"><path style=" stroke:none;fill-rule:nonzero;fill:#e8e8e8;fill-opacity:1;" d="M 254.792969 133.320312 C 253.941406 130.773438 252.1875 128.070312 248.539062 126.125 C 246.125 124.839844 238.6875 122.742188 233.714844 121.632812 C 233.085938 121.496094 232.484375 121.359375 231.917969 121.234375 C 231.402344 121.117188 230.917969 121.003906 230.476562 120.898438 C 229.773438 120.730469 229.179688 120.578125 228.746094 120.445312 C 227.957031 120.203125 225.914062 119.707031 223.1875 119.09375 C 221.742188 118.710938 220.292969 118.339844 218.84375 117.96875 C 215.125 117.019531 211.394531 116.097656 207.648438 115.25 C 207.417969 115.195312 207.183594 115.144531 206.949219 115.09375 C 205.089844 114.675781 203.226562 114.28125 201.355469 113.910156 C 199.402344 113.519531 197.433594 113.144531 195.449219 112.921875 C 191.726562 112.503906 188.066406 113.917969 185.199219 116.265625 C 183.902344 117.328125 182.675781 118.5 181.484375 119.703125 C 180.765625 120.421875 180.0625 121.148438 179.359375 121.871094 C 179.210938 122.027344 179.0625 122.179688 178.914062 122.332031 C 174.214844 127.125 169.691406 132.085938 165.261719 137.125 C 152.5 151.648438 140.363281 166.839844 130.074219 183.234375 C 127.894531 186.707031 125.699219 190.265625 123.792969 193.949219 C 122.949219 195.570312 122.167969 197.21875 121.464844 198.890625 C 121.175781 199.574219 120.902344 200.261719 120.644531 200.957031 C 119.695312 203.503906 119.359375 206.027344 120.230469 208.660156 C 121.183594 211.523438 123.1875 213.949219 125.386719 215.957031 C 129.125 219.371094 133.617188 221.972656 138.320312 224.03125 C 138.539062 224.128906 138.761719 224.222656 138.980469 224.316406 C 138.269531 226.777344 137.703125 228.925781 137.316406 230.679688 C 136.929688 232.421875 136.71875 233.773438 136.71875 234.644531 C 136.722656 239.460938 138.347656 242.808594 142.15625 245.835938 C 146.292969 249.125 153.332031 252.265625 164.972656 256.027344 C 167.058594 256.699219 169.121094 257.214844 171.074219 257.632812 C 172.609375 257.964844 174.074219 258.230469 175.425781 258.464844 C 186.429688 260.644531 206.15625 262.5 214.644531 250.425781 C 225.984375 234.296875 234.023438 210.222656 242.535156 184.730469 C 243.300781 182.4375 244.070312 180.128906 244.847656 177.8125 C 251.535156 157.890625 254.390625 147.535156 255.382812 139.609375 C 255.554688 138.246094 255.644531 135.871094 254.792969 133.320312 Z M 207.21875 116.484375 C 207.96875 116.660156 208.714844 116.835938 209.457031 117.007812 C 213.933594 118.054688 218.394531 119.171875 222.839844 120.34375 C 224.429688 120.765625 226.019531 121.195312 227.605469 121.628906 C 228.132812 121.773438 228.664062 121.917969 229.191406 122.0625 C 227.546875 123.582031 225.96875 125.175781 224.453125 126.816406 C 224.390625 126.886719 224.34375 126.957031 224.316406 127.03125 C 222.894531 126.578125 221.46875 126.148438 220.046875 125.726562 C 214.683594 124.136719 209.277344 122.648438 203.835938 121.320312 C 203.234375 121.171875 202.632812 121.027344 202.03125 120.886719 C 203.429688 119.523438 204.90625 118.222656 206.464844 117.042969 C 206.714844 116.855469 206.964844 116.667969 207.21875 116.484375 Z M 191.945312 114.371094 C 193.054688 114.136719 194.226562 114.074219 195.476562 114.226562 C 195.640625 114.246094 195.804688 114.269531 195.972656 114.289062 C 199.191406 114.710938 202.386719 115.378906 205.558594 116.101562 C 205.285156 116.3125 205.007812 116.527344 204.738281 116.746094 C 203.265625 117.929688 201.863281 119.214844 200.53125 120.539062 C 196.816406 119.703125 193.054688 119.019531 189.257812 118.808594 C 187.929688 118.734375 186.625 118.765625 185.347656 118.910156 C 184.898438 118.960938 184.449219 119.023438 184.007812 119.101562 C 186.292969 116.933594 188.875 115.011719 191.945312 114.371094 Z M 122.71875 199.292969 C 123.699219 197.035156 124.832031 194.839844 126.011719 192.683594 C 129.96875 185.429688 134.539062 178.5 139.300781 171.75 C 145.070312 163.574219 151.238281 155.699219 157.648438 148.019531 C 165.085938 139.109375 172.734375 130.265625 180.972656 122.066406 C 181.40625 121.636719 181.835938 121.207031 182.273438 120.78125 C 182.273438 120.78125 182.273438 120.78125 182.277344 120.78125 C 182.863281 120.597656 183.453125 120.445312 184.046875 120.332031 C 184.191406 120.304688 184.335938 120.28125 184.480469 120.257812 C 188.59375 119.632812 192.914062 120.363281 196.960938 121.136719 C 202.023438 122.101562 207.011719 123.433594 211.984375 124.792969 C 217.113281 126.199219 222.238281 127.640625 227.265625 129.382812 C 230.882812 130.636719 234.671875 132.003906 237.855469 134.179688 C 238.808594 134.832031 239.789062 135.613281 240.363281 136.632812 C 241.007812 137.773438 241.003906 139.167969 240.804688 140.421875 C 240.191406 144.300781 238.058594 147.945312 236.054688 151.25 C 233.492188 155.476562 230.59375 159.488281 227.667969 163.464844 C 223.890625 168.597656 220.136719 173.75 216.347656 178.871094 C 213.695312 182.460938 211.023438 186.039062 208.316406 189.589844 C 208.035156 189.957031 207.753906 190.328125 207.472656 190.695312 C 205.339844 193.484375 203.179688 196.257812 200.992188 199.007812 C 200.429688 199.714844 199.863281 200.421875 199.292969 201.125 C 198.996094 201.492188 198.703125 201.855469 198.40625 202.21875 C 196.722656 204.289062 195.015625 206.339844 193.265625 208.359375 C 191.988281 209.835938 190.703125 211.351562 189.339844 212.789062 C 189 213.144531 188.660156 213.496094 188.308594 213.839844 C 187.414062 214.726562 186.484375 215.566406 185.496094 216.328125 C 181.085938 219.730469 175.859375 221.394531 170.457031 221.835938 C 169.414062 221.917969 168.367188 221.960938 167.320312 221.957031 C 167 221.957031 166.085938 221.9375 165.949219 221.933594 C 164.851562 221.894531 163.753906 221.808594 162.65625 221.6875 C 155.863281 220.925781 149.171875 218.933594 142.792969 216.394531 C 142.386719 216.234375 141.980469 216.070312 141.578125 215.90625 C 140.574219 215.492188 139.578125 215.066406 138.589844 214.632812 C 134.730469 212.929688 130.855469 210.957031 127.644531 208.183594 C 125.105469 205.992188 122.929688 203.132812 122.730469 199.667969 C 122.726562 199.542969 122.71875 199.421875 122.71875 199.296875 Z M 135.992188 221.4375 C 132.652344 219.753906 129.40625 217.78125 126.59375 215.296875 C 124.378906 213.332031 122.316406 210.957031 121.414062 208.085938 C 120.714844 205.859375 121.035156 203.785156 121.757812 201.695312 C 121.949219 202.503906 122.238281 203.300781 122.628906 204.082031 C 124.324219 207.476562 127.46875 209.96875 130.613281 211.949219 C 133.9375 214.042969 137.539062 215.671875 141.183594 217.125 C 141.589844 217.285156 142.734375 217.730469 142.902344 217.792969 C 146.921875 219.335938 151.019531 220.699219 155.210938 221.6875 C 158.539062 222.472656 162 223.042969 165.46875 223.21875 C 165.925781 223.238281 166.375 223.253906 166.832031 223.261719 C 168.023438 223.285156 169.214844 223.257812 170.402344 223.171875 C 171.480469 223.097656 172.550781 222.972656 173.613281 222.792969 C 175.765625 222.433594 177.882812 221.859375 179.929688 221.019531 C 183.695312 219.480469 186.855469 217.050781 189.707031 214.246094 C 190.058594 213.902344 190.402344 213.550781 190.742188 213.195312 C 193.136719 210.707031 195.324219 207.992188 197.5 205.367188 C 198.261719 204.453125 199.011719 203.535156 199.761719 202.609375 C 200.058594 202.246094 200.355469 201.882812 200.648438 201.515625 C 203.421875 198.078125 206.132812 194.59375 208.808594 191.082031 C 209.09375 190.710938 209.375 190.34375 209.652344 189.972656 C 211.054688 188.132812 212.445312 186.28125 213.828125 184.429688 C 218.027344 178.816406 222.148438 173.144531 226.300781 167.496094 C 228.929688 163.917969 231.589844 160.359375 234.085938 156.6875 C 236.710938 152.824219 239.332031 148.796875 241.011719 144.414062 C 242.03125 141.757812 243.011719 138.289062 241.3125 135.6875 C 239.679688 133.195312 236.5 131.742188 233.882812 130.574219 C 231.203125 129.378906 228.433594 128.367188 225.640625 127.453125 C 227.242188 125.726562 228.917969 124.054688 230.664062 122.46875 C 234.378906 123.503906 242.503906 125.226562 246.3125 127.582031 C 248.871094 129.164062 250.367188 131.191406 250.679688 134.125 C 250.882812 136.019531 250.898438 137.726562 249.578125 140.097656 C 249.335938 140.53125 248.945312 141.40625 248.730469 141.847656 C 247.238281 144.921875 245.523438 147.890625 243.785156 150.828125 C 237.992188 160.625 231.554688 170.023438 225.128906 179.410156 C 224.746094 179.964844 224.367188 180.519531 223.984375 181.074219 C 223.726562 181.449219 223.464844 181.824219 223.207031 182.199219 C 222.515625 183.195312 221.820312 184.1875 221.113281 185.167969 C 219.5 187.402344 217.90625 189.648438 216.316406 191.898438 C 216.050781 192.273438 215.785156 192.644531 215.523438 193.019531 C 214.875 193.933594 214.226562 194.851562 213.578125 195.769531 C 213.394531 196.03125 213.207031 196.292969 213.023438 196.558594 C 212.214844 197.703125 211.40625 198.84375 210.589844 199.984375 C 210.425781 200.21875 210.257812 200.453125 210.089844 200.6875 C 209.585938 201.394531 209.078125 202.101562 208.570312 202.804688 C 208.371094 203.082031 208.171875 203.359375 207.96875 203.640625 C 207.703125 204.011719 207.429688 204.382812 207.160156 204.753906 C 204.472656 208.441406 201.707031 212.082031 198.6875 215.503906 C 198.453125 215.765625 197.8125 216.476562 197.722656 216.574219 C 196.679688 217.71875 195.597656 218.832031 194.472656 219.898438 L 192.40625 221.757812 C 190.789062 223.128906 189.078125 224.386719 187.253906 225.476562 C 186.699219 225.808594 186.132812 226.125 185.558594 226.421875 C 184.992188 226.714844 184.410156 226.992188 183.828125 227.25 C 182.03125 228.039062 180.167969 228.660156 178.261719 229.105469 C 177.671875 229.246094 177.074219 229.367188 176.472656 229.472656 C 175.996094 229.558594 175.515625 229.628906 175.035156 229.691406 C 174.933594 229.707031 174.300781 229.78125 174.089844 229.804688 C 170.871094 230.136719 167.628906 230.058594 164.410156 229.714844 C 163.964844 229.664062 163.519531 229.613281 163.074219 229.554688 C 161.414062 229.34375 159.757812 229.066406 158.121094 228.742188 C 155.148438 228.15625 152.1875 227.449219 149.265625 226.597656 C 148.957031 226.507812 148.644531 226.414062 148.335938 226.320312 C 145.703125 225.519531 143.109375 224.601562 140.574219 223.542969 C 140.167969 223.371094 139.761719 223.199219 139.363281 223.023438 C 138.222656 222.523438 137.101562 221.996094 135.992188 221.4375 Z M 163.941406 230.964844 C 164.847656 231.0625 165.753906 231.140625 166.660156 231.199219 C 168.984375 231.351562 171.320312 231.351562 173.640625 231.144531 C 173.332031 232.058594 173.027344 232.96875 172.71875 233.878906 C 172.679688 234 172.691406 234.101562 172.738281 234.179688 C 172.746094 234.191406 172.753906 234.207031 172.765625 234.222656 C 172.792969 234.257812 172.886719 234.332031 172.945312 234.355469 C 174.320312 234.898438 175.753906 235.316406 177.152344 235.8125 C 177.390625 235.894531 177.597656 235.675781 177.664062 235.480469 C 178.222656 233.820312 178.785156 232.164062 179.3125 230.496094 C 179.351562 230.375 179.382812 230.269531 179.40625 230.167969 C 180.101562 229.988281 180.796875 229.785156 181.480469 229.558594 C 182.925781 229.078125 184.328125 228.488281 185.679688 227.8125 C 185.871094 227.871094 186.066406 227.929688 186.257812 227.988281 C 187.40625 228.335938 188.554688 228.683594 189.707031 229.035156 C 189.078125 230.71875 188.453125 232.40625 187.828125 234.09375 C 186.925781 236.515625 185.949219 238.921875 185.109375 241.367188 C 183.164062 241 181.234375 240.558594 179.324219 240.082031 C 174.488281 238.875 169.710938 237.375 165.042969 235.632812 C 164.21875 235.324219 163.386719 235.011719 162.546875 234.683594 C 163.011719 233.445312 163.480469 232.203125 163.941406 230.964844 Z M 161.324219 234.203125 C 157.714844 232.738281 154.121094 231.003906 151.175781 228.546875 C 151.132812 228.515625 151.09375 228.480469 151.054688 228.445312 C 154.839844 229.480469 158.703125 230.304688 162.589844 230.804688 C 162.15625 231.933594 161.726562 233.0625 161.324219 234.203125 Z M 173.683594 233.71875 C 173.980469 232.828125 174.28125 231.9375 174.578125 231.050781 C 175.902344 230.902344 177.21875 230.679688 178.515625 230.382812 C 178.328125 231.121094 177.953125 231.886719 177.730469 232.558594 C 177.480469 233.320312 177.226562 234.078125 176.972656 234.839844 C 175.878906 234.460938 174.765625 234.125 173.683594 233.71875 Z M 187.292969 226.945312 C 188.765625 226.105469 190.175781 225.160156 191.527344 224.128906 C 191.070312 225.359375 190.613281 226.585938 190.15625 227.816406 C 189.691406 227.675781 189.226562 227.535156 188.761719 227.394531 C 188.273438 227.242188 187.78125 227.097656 187.292969 226.945312 Z M 188.40625 236.238281 C 189.25 233.960938 190.097656 231.6875 190.941406 229.410156 C 194.570312 230.511719 198.195312 231.613281 201.824219 232.710938 C 203.535156 233.234375 205.25 233.753906 206.960938 234.273438 C 207.289062 234.371094 207.621094 234.488281 207.957031 234.601562 C 207.257812 235.652344 206.535156 236.679688 205.769531 237.679688 C 205.109375 238.535156 204.441406 239.476562 203.605469 240.167969 C 200.851562 242.441406 196.609375 242.488281 193.230469 242.351562 C 190.949219 242.253906 188.675781 241.984375 186.417969 241.601562 C 187.078125 239.8125 187.742188 238.027344 188.40625 236.238281 Z M 203.621094 231.90625 C 199.542969 230.667969 195.46875 229.429688 191.394531 228.191406 C 192.09375 226.304688 192.792969 224.417969 193.496094 222.527344 C 195.496094 220.8125 197.355469 218.9375 199.117188 216.976562 C 202.183594 217.867188 205.246094 218.757812 208.3125 219.648438 C 210.074219 220.160156 211.832031 220.671875 213.59375 221.183594 C 214.132812 221.339844 214.679688 221.539062 215.234375 221.699219 C 214.609375 222.960938 213.96875 224.21875 213.308594 225.464844 C 211.878906 228.183594 210.363281 230.859375 208.707031 233.449219 C 207.011719 232.933594 205.3125 232.421875 203.621094 231.90625 Z M 210.113281 218.820312 C 206.765625 217.847656 203.414062 216.878906 200.066406 215.902344 C 201.386719 214.382812 202.65625 212.820312 203.894531 211.238281 C 205.460938 209.234375 206.988281 207.195312 208.484375 205.136719 C 210.246094 205.648438 212.007812 206.15625 213.765625 206.667969 C 215.5625 207.1875 217.355469 207.707031 219.152344 208.226562 C 219.765625 208.402344 220.390625 208.628906 221.019531 208.800781 C 219.40625 212.746094 217.6875 216.648438 215.828125 220.480469 C 213.921875 219.925781 212.015625 219.375 210.113281 218.820312 Z M 215.570312 205.839844 C 213.480469 205.234375 211.386719 204.628906 209.292969 204.023438 C 209.964844 203.09375 210.628906 202.164062 211.292969 201.234375 C 211.910156 201.464844 212.546875 201.644531 213.203125 201.75 C 213.792969 201.847656 214.621094 202.023438 215.121094 201.566406 C 216.054688 200.710938 214.957031 199.492188 213.960938 198.804688 C 214.945312 198.453125 216.160156 197.90625 215.882812 196.949219 C 215.753906 196.511719 215.292969 196.300781 214.886719 196.144531 C 215.097656 195.84375 215.308594 195.546875 215.523438 195.246094 C 215.957031 194.628906 216.390625 194.011719 216.828125 193.394531 C 217.425781 193.566406 218.019531 193.742188 218.617188 193.914062 C 220.414062 194.429688 222.207031 194.949219 224.003906 195.464844 C 224.625 195.644531 225.257812 195.875 225.890625 196.046875 C 224.503906 199.910156 223.058594 203.753906 221.523438 207.5625 C 219.539062 206.988281 217.554688 206.414062 215.570312 205.839844 Z M 213.863281 199.78125 C 214.019531 199.925781 214.355469 200.210938 214.394531 200.449219 C 214.484375 201.011719 214.105469 201 213.703125 200.949219 C 213.054688 200.871094 212.421875 200.71875 211.8125 200.5 C 212.136719 200.042969 212.460938 199.585938 212.78125 199.128906 C 213.1875 199.285156 213.539062 199.480469 213.863281 199.78125 Z M 213.558594 198.035156 C 213.835938 197.636719 214.117188 197.238281 214.398438 196.839844 C 214.648438 196.910156 214.875 197 214.898438 197.097656 C 214.976562 197.46875 214.207031 197.804688 213.558594 198.035156 Z M 220.421875 193.082031 C 219.488281 192.8125 218.554688 192.542969 217.621094 192.277344 C 219.097656 190.191406 220.578125 188.113281 222.074219 186.042969 C 222.902344 184.894531 223.722656 183.742188 224.539062 182.585938 C 225.761719 182.933594 226.988281 183.285156 228.214844 183.640625 C 228.800781 183.808594 229.402344 184.023438 230.003906 184.191406 C 228.816406 187.738281 227.59375 191.269531 226.339844 194.789062 C 224.367188 194.222656 222.394531 193.652344 220.421875 193.082031 Z M 225.328125 181.460938 C 228.875 176.394531 232.320312 171.242188 235.730469 166.078125 C 234.058594 171.722656 232.285156 177.339844 230.425781 182.925781 C 228.726562 182.4375 227.027344 181.949219 225.328125 181.460938 Z M 140.199219 224.820312 C 142.324219 225.683594 144.480469 226.441406 146.613281 227.125 C 147.238281 227.324219 147.859375 227.515625 148.488281 227.703125 C 151.308594 231.167969 155.894531 233.238281 159.871094 234.957031 C 160.222656 235.109375 161.703125 235.730469 162.09375 235.882812 C 166.390625 237.621094 170.816406 239.078125 175.269531 240.34375 C 178.457031 241.25 181.6875 242.054688 184.953125 242.652344 C 185.277344 242.710938 185.597656 242.769531 185.921875 242.824219 C 187.085938 243.019531 188.257812 243.191406 189.429688 243.332031 C 193.414062 243.800781 197.816406 244.089844 201.65625 242.695312 C 204.273438 241.746094 205.851562 239.785156 207.433594 237.613281 C 208.0625 236.753906 208.667969 235.875 209.253906 234.988281 C 209.5 234.613281 209.742188 234.238281 209.980469 233.863281 C 210.878906 232.453125 211.730469 231.015625 212.554688 229.5625 C 213.972656 227.0625 215.308594 224.519531 216.574219 221.945312 C 216.703125 221.6875 216.828125 221.433594 216.953125 221.175781 C 218.914062 217.140625 220.710938 213.027344 222.398438 208.871094 C 222.460938 208.71875 224.699219 203.035156 225.699219 200.335938 C 226.21875 198.9375 226.730469 197.53125 227.238281 196.125 C 227.304688 195.9375 227.375 195.75 227.441406 195.5625 C 228.777344 191.839844 230.070312 188.101562 231.320312 184.351562 C 231.410156 184.089844 231.496094 183.828125 231.582031 183.5625 C 233.535156 177.683594 235.390625 171.769531 237.148438 165.832031 C 237.488281 164.691406 237.820312 163.542969 238.148438 162.398438 L 238.152344 162.394531 C 240.761719 158.421875 243.238281 154.351562 245.632812 150.246094 C 246.777344 148.289062 247.917969 146.316406 248.960938 144.304688 C 248.394531 147.519531 247.378906 150.664062 246.398438 153.765625 C 245.285156 157.265625 244.179688 160.769531 243.105469 164.285156 C 241.402344 169.855469 239.59375 175.394531 237.734375 180.914062 C 235.046875 188.910156 232.238281 196.871094 229.273438 204.773438 C 226.160156 213.066406 222.886719 221.304688 219.253906 229.386719 C 215.761719 237.148438 211.960938 245.164062 204.859375 250.28125 C 202.105469 252.265625 199.074219 253.453125 195.71875 253.953125 C 191.796875 254.539062 187.773438 254.402344 183.839844 253.96875 C 176.652344 253.179688 169.609375 251.394531 162.730469 249.21875 C 157.324219 247.511719 151.890625 245.589844 147.089844 242.515625 C 142.84375 239.796875 139.136719 235.859375 138.625 230.796875 C 138.996094 229.167969 139.527344 227.15625 140.199219 224.820312 Z M 254.09375 139.445312 C 253.113281 147.277344 250.273438 157.566406 243.613281 177.402344 C 242.835938 179.714844 242.066406 182.027344 241.300781 184.320312 C 232.820312 209.714844 224.8125 233.707031 213.582031 249.679688 C 205.515625 261.148438 186.371094 259.308594 175.664062 257.1875 C 172.621094 256.660156 169.015625 255.964844 165.375 254.789062 C 153.886719 251.082031 146.976562 248.003906 142.964844 244.816406 C 139.453125 242.027344 138.019531 239.082031 138.019531 234.644531 C 138.019531 234.503906 138.027344 234.351562 138.039062 234.179688 C 138.863281 236.480469 140.328125 238.515625 142.066406 240.222656 C 146.425781 244.496094 152.320312 246.996094 157.988281 249.003906 C 164.203125 251.207031 170.585938 253.03125 177.0625 254.253906 C 181.210938 255.039062 185.425781 255.582031 189.648438 255.632812 C 193.402344 255.675781 197.292969 255.339844 200.828125 253.992188 C 208.5625 251.046875 213.96875 243.453125 217.453125 236.304688 C 221.375 228.261719 224.792969 219.972656 228.035156 211.632812 C 231.289062 203.265625 234.339844 194.816406 237.261719 186.320312 C 239.476562 179.875 241.621094 173.402344 243.652344 166.894531 C 244.523438 164.109375 245.347656 161.3125 246.230469 158.53125 C 247.539062 154.414062 248.976562 150.3125 249.917969 146.089844 C 250.304688 144.367188 250.632812 142.546875 250.671875 140.742188 C 250.933594 140.136719 251.449219 139.246094 251.8125 137.816406 C 252.171875 136.394531 252.074219 134.503906 251.875 133.0625 C 251.511719 130.441406 250.257812 129.007812 248.242188 127.460938 C 254.167969 131.042969 254.46875 136.441406 254.09375 139.445312 Z M 185.941406 250.464844 C 187.117188 250.492188 189.550781 250.554688 189.671875 248.878906 C 189.796875 247.160156 187.714844 246.621094 186.398438 246.488281 C 184.992188 246.347656 182.074219 246.265625 181.722656 248.089844 C 181.6875 248.175781 181.710938 248.621094 181.753906 248.703125 C 182.226562 250.28125 184.582031 250.4375 185.941406 250.464844 Z M 184.527344 247.753906 C 185.238281 247.6875 185.96875 247.714844 186.675781 247.828125 C 186.988281 247.878906 188.582031 248.144531 188.386719 248.800781 C 188.230469 249.320312 186.203125 249.175781 185.863281 249.167969 C 185.378906 249.15625 183.09375 249.136719 182.984375 248.328125 C 183 247.886719 184.253906 247.78125 184.527344 247.753906 Z M 210.726562 209.496094 C 209.648438 209.136719 208.042969 208.265625 206.960938 208.960938 C 206.535156 209.230469 206.320312 209.761719 206.109375 210.195312 C 205.769531 210.886719 205.460938 211.617188 205.28125 212.371094 C 205.152344 212.925781 205.074219 213.5625 205.417969 214.054688 C 205.835938 214.648438 206.660156 214.925781 207.332031 215.089844 C 207.921875 215.230469 208.789062 215.40625 209.355469 215.097656 C 209.914062 214.796875 210.175781 214.023438 210.238281 213.433594 C 210.433594 211.585938 208.105469 211.285156 206.722656 210.90625 C 206.875 210.53125 207.050781 210.070312 207.304688 209.800781 C 207.933594 209.140625 209.816406 210.101562 210.542969 210.34375 C 211.070312 210.519531 211.25 209.671875 210.726562 209.496094 Z M 208.46875 212.335938 C 208.738281 212.441406 209.203125 212.578125 209.347656 212.859375 C 209.5 213.152344 209.347656 213.652344 209.222656 213.929688 C 208.910156 214.628906 208.019531 214.378906 207.410156 214.214844 C 206.757812 214.039062 205.984375 213.789062 206.050781 213 C 206.085938 212.5625 206.222656 212.125 206.386719 211.703125 C 206.398438 211.707031 206.40625 211.714844 206.417969 211.71875 C 207.101562 211.917969 207.800781 212.078125 208.46875 212.335938 Z M 205.417969 222.160156 C 204.214844 221.261719 201.726562 220.671875 201.03125 222.4375 C 200.117188 224.761719 202.65625 225.242188 204.367188 225.738281 C 204.082031 226.507812 203.773438 227.320312 202.777344 227.109375 C 201.914062 226.925781 201.0625 226.480469 200.246094 226.148438 C 199.734375 225.941406 199.328125 226.707031 199.847656 226.917969 C 201.074219 227.417969 203.25 228.734375 204.425781 227.527344 C 204.792969 227.152344 204.9375 226.621094 205.125 226.144531 C 205.359375 225.554688 205.609375 224.96875 205.785156 224.359375 C 206.019531 223.554688 206.160156 222.71875 205.417969 222.160156 Z M 204.695312 224.933594 C 204.695312 224.933594 204.695312 224.933594 204.691406 224.933594 C 204.046875 224.738281 203.390625 224.566406 202.761719 224.320312 C 202.027344 224.035156 201.484375 223.796875 201.777344 222.902344 C 202.070312 222.023438 202.75 222.113281 203.480469 222.292969 C 203.972656 222.417969 204.976562 222.605469 205.113281 223.183594 C 205.234375 223.683594 204.941406 224.375 204.695312 224.933594 Z M 194.054688 237.0625 C 194.320312 237.148438 194.582031 237.238281 194.84375 237.328125 C 194.71875 237.65625 194.589844 237.980469 194.464844 238.308594 C 194.269531 238.824219 195.035156 239.230469 195.234375 238.707031 C 195.375 238.339844 195.519531 237.972656 195.660156 237.605469 C 196.054688 237.738281 196.445312 237.871094 196.839844 238.003906 C 196.71875 238.328125 196.597656 238.652344 196.476562 238.976562 C 196.28125 239.492188 197.050781 239.898438 197.246094 239.375 C 197.382812 239.011719 197.519531 238.644531 197.65625 238.277344 C 197.921875 238.367188 198.1875 238.457031 198.453125 238.546875 C 198.980469 238.726562 199.160156 237.875 198.636719 237.699219 C 198.410156 237.625 198.183594 237.546875 197.957031 237.472656 C 198.058594 237.207031 198.15625 236.941406 198.253906 236.679688 C 198.453125 236.746094 198.65625 236.8125 198.855469 236.878906 C 199.382812 237.054688 199.5625 236.207031 199.039062 236.03125 C 198.878906 235.980469 198.714844 235.925781 198.554688 235.871094 C 198.648438 235.628906 198.738281 235.382812 198.832031 235.140625 C 199.023438 234.621094 198.257812 234.21875 198.0625 234.738281 C 197.953125 235.023438 197.847656 235.3125 197.738281 235.597656 C 197.355469 235.46875 196.96875 235.339844 196.582031 235.210938 C 196.675781 234.96875 196.773438 234.722656 196.867188 234.480469 C 197.0625 233.964844 196.296875 233.558594 196.097656 234.078125 C 195.988281 234.367188 195.875 234.652344 195.765625 234.9375 C 195.503906 234.851562 195.246094 234.765625 194.984375 234.679688 C 194.457031 234.503906 194.28125 235.351562 194.804688 235.527344 C 195.019531 235.597656 195.238281 235.671875 195.453125 235.742188 C 195.355469 236.003906 195.253906 236.265625 195.152344 236.523438 C 194.847656 236.421875 194.542969 236.316406 194.238281 236.214844 C 193.710938 236.035156 193.53125 236.882812 194.054688 237.0625 Z M 196.273438 236.015625 C 196.660156 236.148438 197.050781 236.277344 197.4375 236.40625 C 197.339844 236.667969 197.242188 236.933594 197.140625 237.195312 C 196.75 237.0625 196.363281 236.929688 195.972656 236.800781 C 196.070312 236.539062 196.171875 236.277344 196.273438 236.015625 Z M 158.882812 172.171875 C 159.46875 173.554688 160.28125 174.859375 161.347656 176.035156 C 161.6875 176.410156 162.054688 176.773438 162.449219 177.121094 C 162.804688 177.441406 163.179688 177.738281 163.566406 178.023438 C 166.753906 180.375 170.828125 181.652344 174.605469 182.570312 C 176.488281 183.03125 178.40625 183.363281 180.339844 183.5625 C 180.78125 183.609375 181.230469 183.648438 181.675781 183.679688 C 182.265625 183.71875 182.855469 183.746094 183.445312 183.761719 C 184.851562 183.792969 186.253906 183.75 187.65625 183.625 C 187.84375 183.609375 188.03125 183.589844 188.222656 183.570312 C 192.652344 183.101562 196.976562 181.792969 200.878906 179.632812 C 205.058594 177.316406 208.429688 174.082031 211.410156 170.386719 C 217.089844 163.34375 222.386719 155.945312 227.304688 148.355469 C 228.90625 145.890625 230.589844 143.390625 231.820312 140.714844 C 232.066406 140.183594 232.5 139.386719 232.289062 138.777344 C 232.144531 138.359375 231.777344 138.242188 231.402344 138.105469 C 227.351562 136.613281 223.152344 135.46875 219.023438 134.226562 C 212.613281 132.304688 206.191406 130.425781 199.746094 128.632812 C 196.984375 127.867188 194.21875 127.113281 191.441406 126.410156 C 189.71875 125.972656 187.972656 125.503906 186.210938 125.242188 C 185.875 125.195312 185.507812 125.144531 185.15625 125.175781 C 185.09375 125.179688 184.796875 125.28125 184.789062 125.285156 C 184.273438 125.574219 183.796875 126.054688 183.386719 126.453125 C 182.480469 127.339844 181.621094 128.273438 180.769531 129.210938 C 178.523438 131.6875 176.351562 134.226562 174.210938 136.785156 C 173.921875 137.128906 173.636719 137.472656 173.351562 137.8125 C 172.503906 138.835938 171.660156 139.859375 170.820312 140.890625 C 169.027344 143.089844 167.261719 145.3125 165.535156 147.5625 C 163.378906 150.375 161.175781 153.199219 159.722656 156.449219 C 157.785156 160.773438 157.003906 165.832031 158.234375 170.300781 C 158.40625 170.9375 158.621094 171.5625 158.882812 172.171875 Z M 159.359375 161.613281 C 160.144531 158.058594 161.796875 154.835938 163.914062 151.898438 C 165.425781 149.800781 167 147.75 168.609375 145.722656 C 169.265625 144.890625 169.925781 144.0625 170.589844 143.242188 C 171.019531 142.707031 171.453125 142.171875 171.890625 141.636719 C 173.988281 139.058594 176.121094 136.503906 178.292969 133.988281 C 180.203125 131.769531 182.121094 129.53125 184.203125 127.472656 C 184.46875 127.207031 184.738281 126.941406 185.027344 126.699219 C 185.050781 126.683594 185.367188 126.417969 185.378906 126.410156 C 185.445312 126.417969 185.949219 126.515625 186.167969 126.550781 C 186.882812 126.667969 187.59375 126.828125 188.300781 126.988281 C 190.558594 127.5 192.800781 128.09375 195.039062 128.691406 C 201.152344 130.332031 207.238281 132.089844 213.316406 133.882812 C 218.386719 135.375 223.457031 136.882812 228.492188 138.496094 C 229.167969 138.710938 230.769531 139.28125 230.96875 139.367188 C 230.898438 139.589844 230.765625 139.90625 230.628906 140.199219 C 230.132812 141.253906 229.546875 142.265625 228.953125 143.265625 C 224.757812 150.363281 219.914062 157.117188 214.964844 163.699219 C 212.335938 167.191406 209.71875 170.855469 206.539062 173.875 C 203.265625 176.984375 199.328125 179.355469 195.042969 180.785156 C 191.347656 182.015625 187.480469 182.539062 183.617188 182.460938 C 183.128906 182.449219 182.640625 182.433594 182.152344 182.402344 C 181.703125 182.378906 181.257812 182.34375 180.8125 182.300781 C 178.914062 182.125 177.023438 181.8125 175.164062 181.371094 C 173.777344 181.042969 172.410156 180.648438 171.0625 180.1875 C 170.410156 179.964844 169.761719 179.726562 169.121094 179.472656 C 167.390625 178.792969 165.734375 177.953125 164.28125 176.878906 C 162.578125 175.625 161.152344 174.046875 160.199219 172.023438 C 159.953125 171.503906 159.746094 170.972656 159.578125 170.429688 C 159.34375 169.710938 159.179688 168.976562 159.066406 168.230469 C 158.738281 166.039062 158.886719 163.773438 159.359375 161.613281 Z M 166.355469 158.414062 C 165.710938 157.226562 183.789062 135.402344 184.832031 134.714844 C 186.558594 133.585938 220.015625 143.796875 220.5 144.890625 C 221.191406 146.449219 203.996094 169.195312 202.277344 170.042969 C 201.109375 170.621094 167.039062 159.667969 166.355469 158.414062 Z M 146.578125 211.222656 C 148.121094 211.875 150.253906 212.273438 151.25 210.554688 C 153.261719 207.082031 146.464844 203.808594 144.488281 206.847656 C 144.457031 206.886719 144.355469 207.089844 144.339844 207.136719 C 143.589844 209.011719 144.84375 210.484375 146.578125 211.222656 Z M 145.554688 207.589844 C 146.554688 205.820312 151.398438 207.945312 150.097656 209.953125 C 149.46875 210.921875 148.019531 210.417969 147.179688 210.066406 C 146.136719 209.628906 144.988281 208.84375 145.554688 207.589844 Z M 145.554688 207.589844 "/></g></g></svg>