<svg xmlns="http://www.w3.org/2000/svg" xmlns:xlink="http://www.w3.org/1999/xlink" width="500" zoomAndPan="magnify" viewBox="0 0 375 374.999991" height="500" preserveAspectRatio="xMidYMid meet" version="1.2"><g id="78711afed4"><path style=" stroke:none;fill-rule:nonzero;fill:#e8e8e8;fill-opacity:1;" d="M 348.847656 57.296875 C 346.804688 51.183594 342.59375 44.691406 333.832031 40.027344 C 328.042969 36.941406 310.195312 31.902344 298.257812 29.246094 C 296.746094 28.914062 295.300781 28.589844 293.945312 28.289062 C 292.707031 28.003906 291.546875 27.734375 290.488281 27.484375 C 288.796875 27.082031 287.375 26.710938 286.332031 26.390625 C 284.4375 25.808594 279.539062 24.621094 272.992188 23.148438 C 269.519531 22.238281 266.042969 21.339844 262.566406 20.453125 C 253.636719 18.175781 244.6875 15.960938 235.695312 13.929688 C 235.140625 13.796875 234.582031 13.671875 234.023438 13.554688 L 234.019531 13.550781 C 229.554688 12.546875 225.082031 11.597656 220.597656 10.707031 C 215.902344 9.777344 211.179688 8.871094 206.421875 8.335938 C 197.488281 7.332031 188.699219 10.726562 181.820312 16.363281 C 178.703125 18.914062 175.765625 21.730469 172.90625 24.609375 C 171.183594 26.335938 169.492188 28.085938 167.804688 29.820312 C 167.445312 30.1875 167.089844 30.554688 166.730469 30.921875 C 155.460938 42.425781 144.597656 54.328125 133.972656 66.425781 C 103.339844 101.285156 74.210938 137.738281 49.519531 177.085938 C 44.289062 185.425781 39.023438 193.960938 34.445312 202.800781 C 32.425781 206.695312 30.542969 210.648438 28.855469 214.667969 C 28.164062 216.308594 27.507812 217.957031 26.886719 219.621094 C 24.609375 225.738281 23.800781 231.792969 25.894531 238.109375 C 28.179688 244.980469 32.988281 250.800781 38.265625 255.625 C 47.238281 263.820312 58.019531 270.058594 69.308594 275 C 69.835938 275.234375 70.367188 275.460938 70.894531 275.6875 C 69.1875 281.59375 67.832031 286.75 66.898438 290.957031 C 65.972656 295.144531 65.46875 298.382812 65.46875 300.46875 C 65.472656 312.035156 69.375 320.070312 78.511719 327.332031 C 88.449219 335.226562 105.339844 342.769531 133.28125 351.789062 C 138.28125 353.402344 143.234375 354.640625 147.917969 355.648438 C 151.605469 356.4375 155.121094 357.082031 158.367188 357.644531 C 184.773438 362.875 232.121094 367.324219 252.488281 338.351562 C 279.707031 299.640625 299 241.859375 319.421875 180.683594 C 321.257812 175.175781 323.109375 169.636719 324.976562 164.082031 C 341.027344 116.261719 347.878906 91.410156 350.261719 72.386719 C 350.675781 69.117188 350.886719 63.414062 348.847656 57.296875 Z M 234.667969 16.890625 C 236.464844 17.308594 238.253906 17.730469 240.042969 18.148438 C 250.78125 20.65625 261.492188 23.335938 272.160156 26.152344 C 275.976562 27.160156 279.789062 28.191406 283.597656 29.234375 C 284.863281 29.582031 286.132812 29.929688 287.398438 30.277344 C 283.453125 33.925781 279.667969 37.75 276.027344 41.691406 C 275.875 41.859375 275.769531 42.027344 275.699219 42.199219 C 272.289062 41.117188 268.871094 40.085938 265.457031 39.074219 C 252.578125 35.257812 239.601562 31.679688 226.550781 28.492188 C 225.109375 28.140625 223.664062 27.792969 222.210938 27.457031 C 225.574219 24.1875 229.113281 21.066406 232.855469 18.234375 C 233.453125 17.777344 234.054688 17.328125 234.667969 16.890625 Z M 198.011719 11.8125 C 200.671875 11.257812 203.488281 11.105469 206.480469 11.472656 C 206.878906 11.519531 207.277344 11.570312 207.679688 11.621094 C 215.398438 12.632812 223.066406 14.238281 230.683594 15.972656 C 230.023438 16.476562 229.363281 16.996094 228.714844 17.519531 L 228.710938 17.519531 C 225.175781 20.363281 221.8125 23.4375 218.613281 26.621094 C 209.699219 24.617188 200.667969 22.976562 191.5625 22.464844 C 188.367188 22.285156 185.242188 22.363281 182.175781 22.710938 C 181.09375 22.832031 180.023438 22.984375 178.957031 23.171875 C 184.445312 17.964844 190.636719 13.351562 198.011719 11.8125 Z M 31.867188 215.628906 C 34.21875 210.210938 36.9375 204.945312 39.765625 199.761719 C 49.265625 182.355469 60.234375 165.722656 71.664062 149.527344 C 85.507812 129.90625 100.316406 111.007812 115.699219 92.574219 C 133.546875 71.191406 151.902344 49.96875 171.675781 30.285156 C 172.714844 29.253906 173.75 28.226562 174.800781 27.203125 C 174.800781 27.203125 174.800781 27.199219 174.804688 27.199219 C 176.214844 26.761719 177.632812 26.394531 179.054688 26.125 C 179.398438 26.058594 179.746094 26 180.089844 25.945312 C 189.96875 24.445312 200.332031 26.199219 210.042969 28.050781 C 222.195312 30.371094 234.171875 33.570312 246.101562 36.835938 C 258.410156 40.203125 270.714844 43.660156 282.777344 47.847656 C 291.464844 50.859375 300.550781 54.136719 308.195312 59.355469 C 310.484375 60.917969 312.835938 62.796875 314.21875 65.246094 C 315.761719 67.976562 315.75 71.328125 315.273438 74.339844 C 313.800781 83.644531 308.6875 92.394531 303.875 100.328125 C 297.726562 110.46875 290.765625 120.101562 283.742188 129.644531 C 274.675781 141.964844 265.671875 154.324219 256.578125 166.621094 C 250.207031 175.234375 243.796875 183.820312 237.300781 192.339844 C 236.628906 193.222656 235.953125 194.109375 235.273438 194.992188 C 230.152344 201.691406 224.972656 208.339844 219.722656 214.941406 C 218.367188 216.644531 217.007812 218.339844 215.644531 220.027344 C 214.9375 220.90625 214.230469 221.78125 213.515625 222.652344 C 209.480469 227.625 205.378906 232.542969 201.179688 237.386719 C 198.113281 240.929688 195.023438 244.570312 191.753906 248.015625 C 190.945312 248.871094 190.121094 249.71875 189.285156 250.542969 C 187.140625 252.667969 184.902344 254.683594 182.535156 256.511719 C 171.953125 264.683594 159.398438 268.671875 146.433594 269.730469 C 143.933594 269.933594 141.425781 270.03125 138.90625 270.027344 C 138.136719 270.027344 135.949219 269.972656 135.625 269.964844 C 132.984375 269.871094 130.347656 269.671875 127.71875 269.375 C 111.414062 267.546875 95.351562 262.769531 80.039062 256.675781 C 79.070312 256.289062 78.097656 255.898438 77.132812 255.5 C 74.71875 254.507812 72.328125 253.484375 69.957031 252.441406 C 60.695312 248.355469 51.394531 243.621094 43.6875 236.96875 C 37.59375 231.710938 32.375 224.847656 31.898438 216.535156 C 31.878906 216.230469 31.867188 215.9375 31.863281 215.636719 Z M 63.71875 268.773438 C 55.703125 264.730469 47.914062 260.007812 41.167969 254.035156 C 35.851562 249.328125 30.894531 243.621094 28.730469 236.730469 C 27.058594 231.390625 27.828125 226.410156 29.554688 221.398438 C 30.015625 223.332031 30.710938 225.246094 31.648438 227.125 C 35.722656 235.265625 43.261719 241.25 50.816406 246.003906 C 58.792969 251.03125 67.429688 254.941406 76.183594 258.421875 C 77.160156 258.816406 79.90625 259.878906 80.304688 260.035156 C 89.949219 263.734375 99.789062 267.003906 109.851562 269.378906 C 117.839844 271.265625 126.144531 272.632812 134.46875 273.046875 C 135.558594 273.101562 136.644531 273.140625 137.734375 273.15625 C 140.597656 273.210938 143.460938 273.144531 146.304688 272.9375 C 148.890625 272.757812 151.464844 272.460938 154.015625 272.03125 C 159.179688 271.167969 164.257812 269.785156 169.171875 267.777344 C 178.210938 264.078125 185.792969 258.25 192.636719 251.515625 C 193.480469 250.6875 194.304688 249.847656 195.125 248.996094 C 200.867188 243.027344 206.125 236.503906 211.347656 230.207031 C 213.164062 228.011719 214.972656 225.808594 216.773438 223.59375 C 217.484375 222.71875 218.191406 221.84375 218.898438 220.96875 C 225.550781 212.714844 232.058594 204.351562 238.484375 195.921875 C 239.164062 195.035156 239.835938 194.152344 240.507812 193.265625 C 243.867188 188.839844 247.207031 184.40625 250.53125 179.960938 C 260.605469 166.484375 270.5 152.875 280.464844 139.316406 C 286.773438 130.730469 293.152344 122.191406 299.144531 113.378906 C 305.445312 104.109375 311.738281 94.441406 315.765625 83.921875 C 318.214844 77.542969 320.570312 69.222656 316.488281 62.976562 C 312.570312 56.992188 304.941406 53.507812 298.660156 50.703125 C 292.226562 47.832031 285.585938 45.410156 278.875 43.214844 C 282.722656 39.070312 286.742188 35.0625 290.933594 31.253906 C 299.851562 33.734375 319.355469 37.875 328.496094 43.523438 C 334.636719 47.320312 338.226562 52.1875 338.976562 59.230469 C 339.460938 63.773438 339.5 67.875 336.332031 73.558594 C 335.75 74.597656 334.8125 76.695312 334.292969 77.761719 C 330.714844 85.136719 326.597656 92.261719 322.425781 99.316406 C 308.523438 122.824219 293.074219 145.382812 277.648438 167.910156 C 276.734375 169.242188 275.820312 170.578125 274.90625 171.90625 C 274.28125 172.808594 273.660156 173.707031 273.039062 174.609375 C 271.382812 176.996094 269.714844 179.371094 268.011719 181.726562 C 264.144531 187.089844 260.316406 192.484375 256.5 197.882812 C 255.863281 198.777344 255.230469 199.671875 254.59375 200.570312 C 253.042969 202.769531 251.488281 204.972656 249.933594 207.171875 C 249.488281 207.800781 249.039062 208.433594 248.59375 209.066406 C 246.652344 211.8125 244.710938 214.550781 242.761719 217.285156 C 242.363281 217.847656 241.960938 218.414062 241.558594 218.972656 C 240.347656 220.671875 239.128906 222.367188 237.914062 224.058594 C 237.433594 224.726562 236.949219 225.390625 236.472656 226.058594 C 235.824219 226.949219 235.175781 227.847656 234.527344 228.734375 C 228.078125 237.585938 221.4375 246.328125 214.1875 254.535156 C 213.632812 255.164062 212.089844 256.875 211.875 257.105469 C 209.367188 259.847656 206.777344 262.523438 204.074219 265.082031 L 199.117188 269.542969 L 199.113281 269.546875 C 195.230469 272.835938 191.132812 275.855469 186.75 278.472656 C 185.417969 279.273438 184.058594 280.027344 182.683594 280.734375 C 181.320312 281.441406 179.929688 282.105469 178.523438 282.726562 C 174.21875 284.621094 169.75 286.109375 165.164062 287.183594 C 163.75 287.515625 162.316406 287.808594 160.878906 288.0625 C 159.734375 288.265625 158.582031 288.4375 157.425781 288.585938 C 157.179688 288.625 155.667969 288.800781 155.15625 288.855469 C 147.433594 289.652344 139.652344 289.464844 131.929688 288.636719 C 130.859375 288.523438 129.789062 288.402344 128.722656 288.257812 C 124.734375 287.75 120.761719 287.082031 116.832031 286.308594 C 109.699219 284.902344 102.585938 283.207031 95.578125 281.160156 C 94.835938 280.941406 94.089844 280.71875 93.351562 280.496094 C 87.03125 278.578125 80.800781 276.367188 74.714844 273.824219 C 73.742188 273.421875 72.773438 273.003906 71.808594 272.582031 C 69.078125 271.382812 66.382812 270.113281 63.71875 268.773438 Z M 130.804688 291.640625 C 132.976562 291.875 135.152344 292.066406 137.328125 292.207031 C 142.902344 292.574219 148.515625 292.574219 154.074219 292.078125 C 153.339844 294.261719 152.605469 296.449219 151.867188 298.640625 C 151.773438 298.925781 151.800781 299.167969 151.910156 299.355469 C 151.929688 299.390625 151.949219 299.425781 151.976562 299.460938 C 152.046875 299.550781 152.269531 299.726562 152.40625 299.78125 C 155.707031 301.085938 159.152344 302.085938 162.503906 303.273438 C 163.074219 303.476562 163.578125 302.953125 163.738281 302.476562 C 165.070312 298.492188 166.425781 294.515625 167.691406 290.515625 C 167.785156 290.230469 167.863281 289.96875 167.917969 289.730469 C 169.589844 289.296875 171.25 288.8125 172.894531 288.265625 C 176.363281 287.113281 179.726562 285.699219 182.972656 284.074219 C 183.433594 284.214844 183.898438 284.355469 184.363281 284.496094 C 187.117188 285.332031 189.875 286.171875 192.632812 287.007812 C 191.132812 291.054688 189.628906 295.101562 188.125 299.148438 C 185.96875 304.960938 183.621094 310.742188 181.601562 316.609375 C 176.9375 315.730469 172.300781 314.667969 167.71875 313.523438 C 156.109375 310.625 144.648438 307.027344 133.445312 302.847656 C 131.464844 302.109375 129.464844 301.355469 127.457031 300.570312 C 128.570312 297.59375 129.691406 294.617188 130.804688 291.640625 Z M 124.523438 299.410156 C 115.855469 295.902344 107.234375 291.738281 100.167969 285.84375 C 100.066406 285.761719 99.96875 285.675781 99.871094 285.59375 C 108.957031 288.082031 118.226562 290.0625 127.558594 291.257812 C 126.515625 293.964844 125.480469 296.679688 124.523438 299.410156 Z M 154.179688 298.246094 C 154.898438 296.113281 155.617188 293.980469 156.332031 291.851562 C 159.507812 291.488281 162.664062 290.960938 165.78125 290.246094 C 165.324219 292.011719 164.429688 293.859375 163.898438 295.464844 C 163.292969 297.289062 162.683594 299.113281 162.070312 300.9375 C 159.449219 300.035156 156.777344 299.226562 154.179688 298.246094 Z M 186.84375 282 C 190.375 279.980469 193.765625 277.707031 197.007812 275.234375 C 195.910156 278.183594 194.816406 281.136719 193.71875 284.085938 C 192.601562 283.746094 191.488281 283.410156 190.371094 283.070312 C 189.199219 282.710938 188.019531 282.355469 186.84375 282 Z M 189.519531 304.300781 C 191.546875 298.835938 193.574219 293.371094 195.601562 287.910156 C 204.308594 290.550781 213.011719 293.195312 221.714844 295.835938 C 225.828125 297.085938 229.941406 298.335938 234.050781 299.585938 C 234.839844 299.820312 235.632812 300.101562 236.4375 300.371094 C 234.765625 302.890625 233.023438 305.359375 231.183594 307.761719 C 229.609375 309.8125 227.996094 312.066406 225.992188 313.726562 C 219.382812 319.1875 209.207031 319.300781 201.097656 318.964844 C 195.621094 318.738281 190.160156 318.089844 184.742188 317.167969 C 186.328125 312.878906 187.921875 308.59375 189.519531 304.300781 Z M 226.03125 293.898438 C 216.246094 290.929688 206.464844 287.957031 196.6875 284.988281 C 198.367188 280.457031 200.050781 275.925781 201.730469 271.394531 C 206.53125 267.273438 210.996094 262.78125 215.21875 258.074219 C 222.578125 260.207031 229.933594 262.347656 237.289062 264.488281 C 241.515625 265.710938 245.738281 266.941406 249.964844 268.164062 C 251.257812 268.542969 252.578125 269.015625 253.902344 269.40625 C 252.398438 272.4375 250.863281 275.453125 249.285156 278.445312 C 245.851562 284.964844 242.21875 291.390625 238.238281 297.605469 C 234.167969 296.367188 230.097656 295.136719 226.03125 293.898438 Z M 241.613281 262.5 C 233.574219 260.164062 225.539062 257.832031 217.5 255.496094 C 220.675781 251.847656 223.71875 248.09375 226.6875 244.296875 C 230.453125 239.488281 234.109375 234.59375 237.707031 229.65625 C 241.933594 230.882812 246.15625 232.101562 250.382812 233.328125 C 254.691406 234.574219 258.996094 235.820312 263.304688 237.066406 C 264.777344 237.496094 266.28125 238.039062 267.789062 238.453125 C 263.914062 247.917969 259.789062 257.277344 255.328125 266.484375 C 250.753906 265.152344 246.183594 263.828125 241.613281 262.5 Z M 254.710938 231.339844 C 249.691406 229.886719 244.667969 228.433594 239.648438 226.980469 C 241.257812 224.753906 242.855469 222.523438 244.445312 220.285156 C 245.925781 220.84375 247.449219 221.269531 249.023438 221.527344 C 250.445312 221.757812 252.433594 222.179688 253.632812 221.082031 C 255.871094 219.035156 253.238281 216.109375 250.851562 214.457031 C 253.214844 213.613281 256.125 212.304688 255.457031 210 C 255.152344 208.953125 254.042969 208.445312 253.070312 208.074219 C 253.578125 207.351562 254.085938 206.636719 254.59375 205.914062 C 255.636719 204.4375 256.683594 202.953125 257.730469 201.476562 C 259.164062 201.890625 260.59375 202.304688 262.023438 202.714844 C 266.332031 203.960938 270.636719 205.203125 274.949219 206.445312 C 276.441406 206.875 277.957031 207.425781 279.480469 207.839844 C 276.152344 217.105469 272.683594 226.332031 269 235.472656 C 264.238281 234.097656 259.472656 232.71875 254.710938 231.339844 Z M 250.617188 216.804688 C 250.988281 217.148438 251.796875 217.835938 251.890625 218.402344 C 252.105469 219.753906 251.199219 219.726562 250.230469 219.605469 C 248.671875 219.417969 247.15625 219.050781 245.695312 218.527344 C 246.46875 217.429688 247.246094 216.335938 248.019531 215.238281 C 248.992188 215.609375 249.839844 216.082031 250.617188 216.804688 Z M 249.878906 212.609375 C 250.550781 211.652344 251.222656 210.699219 251.894531 209.742188 C 252.492188 209.914062 253.042969 210.125 253.09375 210.363281 C 253.28125 211.253906 251.433594 212.058594 249.878906 212.609375 Z M 266.351562 200.726562 C 264.113281 200.078125 261.875 199.433594 259.636719 198.789062 C 263.175781 193.785156 266.730469 188.800781 270.320312 183.832031 C 272.304688 181.078125 274.277344 178.308594 276.234375 175.527344 C 279.171875 176.371094 282.113281 177.214844 285.054688 178.0625 C 286.46875 178.46875 287.90625 178.984375 289.351562 179.386719 C 286.496094 187.894531 283.570312 196.371094 280.5625 204.824219 C 275.824219 203.460938 271.089844 202.089844 266.351562 200.726562 Z M 278.128906 172.832031 C 286.640625 160.667969 294.910156 148.308594 303.089844 135.914062 C 299.078125 149.457031 294.824219 162.9375 290.363281 176.347656 C 286.285156 175.175781 282.207031 174.003906 278.128906 172.832031 Z M 73.820312 276.898438 C 78.921875 278.964844 84.089844 280.785156 89.210938 282.421875 C 90.707031 282.902344 92.203125 283.367188 93.710938 283.816406 L 93.714844 283.816406 C 100.480469 292.132812 111.488281 297.097656 121.035156 301.222656 C 121.878906 301.585938 125.429688 303.078125 126.363281 303.445312 C 136.675781 307.621094 147.300781 311.109375 157.988281 314.148438 C 165.640625 316.324219 173.394531 318.253906 181.230469 319.691406 C 182.003906 319.832031 182.78125 319.96875 183.554688 320.101562 C 186.351562 320.578125 189.160156 320.988281 191.972656 321.320312 C 201.535156 322.449219 212.097656 323.140625 221.316406 319.796875 C 227.597656 317.519531 231.382812 312.8125 235.183594 307.597656 C 236.691406 305.53125 238.144531 303.425781 239.554688 301.296875 C 240.140625 300.402344 240.722656 299.5 241.296875 298.597656 C 243.449219 295.210938 245.496094 291.761719 247.472656 288.273438 C 250.871094 282.277344 254.078125 276.175781 257.125 269.992188 C 257.425781 269.375 257.726562 268.761719 258.027344 268.144531 C 262.730469 258.46875 267.046875 248.59375 271.097656 238.621094 L 271.097656 238.617188 C 271.246094 238.246094 276.621094 224.613281 279.019531 218.136719 C 280.265625 214.773438 281.5 211.402344 282.710938 208.03125 C 282.875 207.578125 283.039062 207.125 283.199219 206.675781 C 286.40625 197.746094 289.507812 188.773438 292.511719 179.773438 C 292.726562 179.140625 292.933594 178.511719 293.140625 177.878906 C 297.828125 163.765625 302.277344 149.570312 306.5 135.320312 C 307.316406 132.582031 308.113281 129.832031 308.902344 127.085938 L 308.902344 127.074219 C 315.164062 117.539062 321.109375 107.773438 326.863281 97.917969 C 329.605469 93.222656 332.34375 88.488281 334.851562 83.652344 C 333.488281 91.367188 331.054688 98.917969 328.691406 106.359375 C 326.027344 114.765625 323.371094 123.175781 320.792969 131.609375 C 316.707031 144.976562 312.363281 158.269531 307.90625 171.515625 C 301.453125 190.714844 294.714844 209.820312 287.597656 228.78125 C 280.125 248.683594 272.273438 268.460938 263.546875 287.851562 C 255.164062 306.484375 246.050781 325.722656 229 338.003906 C 222.394531 342.761719 215.121094 345.613281 207.070312 346.816406 C 197.652344 348.222656 187.996094 347.894531 178.554688 346.851562 C 161.308594 344.953125 144.40625 340.671875 127.890625 335.453125 C 114.925781 331.351562 101.875 326.738281 90.359375 319.367188 C 80.160156 312.839844 71.269531 303.390625 70.042969 291.238281 C 70.929688 287.328125 72.207031 282.5 73.820312 276.898438 Z M 347.167969 72 C 344.8125 90.792969 338 115.484375 322.015625 163.089844 C 320.148438 168.644531 318.300781 174.1875 316.460938 179.695312 C 296.113281 240.644531 276.894531 298.21875 249.9375 336.558594 C 230.582031 364.085938 184.636719 359.664062 158.933594 354.574219 C 151.628906 353.3125 142.984375 351.640625 134.238281 348.820312 C 106.671875 339.921875 90.082031 332.539062 80.453125 324.890625 C 72.03125 318.195312 68.589844 311.121094 68.589844 300.46875 C 68.589844 300.136719 68.605469 299.765625 68.636719 299.359375 C 70.613281 304.878906 74.125 309.761719 78.300781 313.859375 C 88.761719 324.113281 102.914062 330.121094 116.515625 334.941406 C 131.425781 340.222656 146.746094 344.601562 162.292969 347.539062 C 172.242188 349.421875 182.363281 350.722656 192.5 350.84375 C 201.507812 350.945312 210.847656 350.140625 219.332031 346.90625 C 237.890625 339.835938 250.863281 321.613281 259.230469 304.460938 C 268.644531 285.15625 276.84375 265.257812 284.625 245.25 C 292.4375 225.160156 299.757812 204.882812 306.769531 184.496094 C 312.085938 169.027344 317.234375 153.488281 322.109375 137.875 C 324.199219 131.191406 326.175781 124.476562 328.292969 117.804688 C 331.4375 107.921875 334.886719 98.074219 337.148438 87.941406 C 338.070312 83.808594 338.855469 79.441406 338.953125 75.105469 C 339.578125 73.652344 340.816406 71.515625 341.691406 68.082031 C 342.558594 64.667969 342.324219 60.132812 341.84375 56.675781 C 340.96875 50.382812 337.957031 46.941406 333.121094 43.238281 C 347.347656 51.832031 348.070312 64.789062 347.167969 72 Z M 183.597656 338.441406 C 186.417969 338.503906 192.265625 338.660156 192.558594 334.640625 C 192.859375 330.507812 187.855469 329.214844 184.695312 328.898438 C 181.324219 328.5625 174.320312 328.363281 173.476562 332.738281 C 173.390625 332.953125 173.445312 334.015625 173.546875 334.214844 C 174.683594 338 180.335938 338.375 183.597656 338.441406 Z M 180.207031 331.9375 C 181.914062 331.78125 183.667969 331.839844 185.359375 332.113281 C 186.113281 332.234375 189.933594 332.875 189.46875 334.445312 C 189.097656 335.691406 184.226562 335.347656 183.417969 335.328125 C 182.253906 335.300781 176.769531 335.257812 176.503906 333.308594 C 176.535156 332.25 179.550781 332 180.207031 331.9375 Z M 243.082031 240.117188 C 240.503906 239.257812 236.648438 237.164062 234.042969 238.832031 C 233.023438 239.480469 232.507812 240.75 232 241.792969 C 231.191406 243.453125 230.445312 245.210938 230.019531 247.015625 C 229.707031 248.347656 229.519531 249.878906 230.347656 251.0625 C 231.347656 252.488281 233.324219 253.148438 234.9375 253.539062 C 236.351562 253.882812 238.433594 254.296875 239.796875 253.5625 C 241.136719 252.84375 241.761719 250.980469 241.910156 249.570312 C 242.386719 245.136719 236.796875 244.414062 233.480469 243.5 C 233.84375 242.601562 234.261719 241.492188 234.875 240.847656 C 236.386719 239.261719 240.898438 241.566406 242.644531 242.148438 C 243.914062 242.574219 244.339844 240.535156 243.082031 240.117188 Z M 237.664062 246.933594 C 238.316406 247.191406 239.425781 247.511719 239.773438 248.1875 C 240.136719 248.890625 239.78125 250.089844 239.476562 250.761719 C 238.722656 252.4375 236.585938 251.835938 235.125 251.445312 C 233.558594 251.023438 231.707031 250.417969 231.859375 248.527344 C 231.945312 247.476562 232.277344 246.425781 232.671875 245.417969 C 232.699219 245.425781 232.722656 245.441406 232.75 245.449219 C 234.386719 245.929688 236.066406 246.3125 237.664062 246.933594 Z M 230.34375 270.515625 C 227.457031 268.355469 221.484375 266.9375 219.816406 271.175781 C 217.621094 276.75 223.714844 277.910156 227.820312 279.097656 C 227.136719 280.941406 226.398438 282.894531 224.003906 282.386719 C 221.933594 281.945312 219.890625 280.878906 217.933594 280.085938 C 216.703125 279.585938 215.734375 281.429688 216.972656 281.929688 C 219.917969 283.125 225.144531 286.285156 227.964844 283.394531 C 228.847656 282.488281 229.195312 281.214844 229.644531 280.074219 C 230.199219 278.660156 230.804688 277.253906 231.226562 275.792969 C 231.785156 273.855469 232.128906 271.847656 230.34375 270.515625 Z M 228.613281 277.167969 C 228.609375 277.167969 228.605469 277.167969 228.605469 277.167969 C 227.050781 276.699219 225.476562 276.289062 223.964844 275.699219 C 222.207031 275.011719 220.902344 274.4375 221.609375 272.289062 C 222.308594 270.179688 223.9375 270.394531 225.691406 270.832031 C 226.878906 271.125 229.28125 271.578125 229.613281 272.96875 C 229.898438 274.171875 229.203125 275.828125 228.613281 277.167969 Z M 203.074219 306.273438 C 203.707031 306.488281 204.335938 306.699219 204.96875 306.914062 C 204.664062 307.695312 204.359375 308.480469 204.058594 309.265625 C 203.585938 310.503906 205.425781 311.476562 205.90625 310.226562 C 206.242188 309.34375 206.585938 308.457031 206.925781 307.574219 C 207.871094 307.894531 208.816406 308.210938 209.757812 308.53125 C 209.464844 309.308594 209.175781 310.089844 208.882812 310.867188 C 208.417969 312.109375 210.261719 313.082031 210.730469 311.828125 C 211.058594 310.949219 211.386719 310.070312 211.714844 309.191406 C 212.355469 309.410156 212.992188 309.625 213.628906 309.839844 C 214.894531 310.265625 215.320312 308.230469 214.066406 307.804688 C 213.523438 307.621094 212.980469 307.441406 212.441406 307.257812 C 212.675781 306.625 212.914062 305.988281 213.152344 305.355469 C 213.632812 305.515625 214.113281 305.675781 214.59375 305.839844 C 215.863281 306.261719 216.289062 304.222656 215.03125 303.804688 C 214.644531 303.675781 214.261719 303.546875 213.875 303.417969 C 214.097656 302.832031 214.316406 302.246094 214.535156 301.660156 C 215 300.421875 213.160156 299.449219 212.691406 300.699219 C 212.433594 301.386719 212.175781 302.074219 211.917969 302.765625 C 210.992188 302.457031 210.066406 302.144531 209.140625 301.835938 C 209.367188 301.25 209.59375 300.664062 209.820312 300.074219 C 210.292969 298.839844 208.453125 297.867188 207.976562 299.113281 C 207.710938 299.804688 207.441406 300.492188 207.175781 301.179688 C 206.554688 300.972656 205.929688 300.765625 205.308594 300.558594 C 204.039062 300.132812 203.613281 302.171875 204.871094 302.589844 C 205.390625 302.765625 205.914062 302.9375 206.433594 303.113281 C 206.191406 303.734375 205.953125 304.359375 205.710938 304.984375 C 204.976562 304.734375 204.246094 304.488281 203.511719 304.238281 C 202.246094 303.8125 201.820312 305.847656 203.074219 306.273438 Z M 208.394531 303.769531 C 209.328125 304.078125 210.261719 304.390625 211.191406 304.703125 C 210.957031 305.332031 210.71875 305.964844 210.484375 306.59375 C 209.546875 306.277344 208.609375 305.960938 207.671875 305.644531 C 207.914062 305.019531 208.152344 304.394531 208.394531 303.769531 Z M 118.65625 150.539062 C 120.070312 153.859375 122.019531 156.984375 124.582031 159.808594 C 125.394531 160.710938 126.277344 161.582031 127.21875 162.417969 C 128.078125 163.183594 128.972656 163.902344 129.898438 164.582031 C 137.550781 170.230469 147.332031 173.289062 156.398438 175.496094 C 160.914062 176.597656 165.515625 177.402344 170.15625 177.878906 C 171.21875 177.992188 172.289062 178.078125 173.359375 178.15625 C 174.777344 178.25 176.191406 178.316406 177.609375 178.351562 C 180.984375 178.433594 184.355469 178.332031 187.710938 178.03125 C 188.167969 177.988281 188.621094 177.945312 189.074219 177.894531 C 199.710938 176.769531 210.082031 173.628906 219.449219 168.441406 C 229.484375 162.886719 237.574219 155.121094 244.726562 146.253906 C 258.359375 129.355469 271.066406 111.597656 282.875 93.382812 C 286.714844 87.464844 290.757812 81.460938 293.710938 75.039062 C 294.300781 73.761719 295.34375 71.859375 294.835938 70.394531 C 294.484375 69.386719 293.605469 69.113281 292.707031 68.785156 C 282.988281 65.203125 272.90625 62.449219 262.992188 59.472656 C 247.617188 54.855469 232.199219 50.347656 216.726562 46.050781 C 210.101562 44.207031 203.464844 42.398438 196.796875 40.710938 C 192.660156 39.664062 188.480469 38.53125 184.25 37.910156 C 183.4375 37.792969 182.558594 37.675781 181.722656 37.746094 C 181.566406 37.761719 180.855469 38.003906 180.839844 38.011719 C 179.59375 38.707031 178.457031 39.859375 177.472656 40.8125 C 175.292969 42.9375 173.234375 45.183594 171.1875 47.4375 C 165.796875 53.371094 160.585938 59.464844 155.445312 65.613281 C 154.757812 66.4375 154.070312 67.257812 153.390625 68.082031 C 151.351562 70.53125 149.324219 72.992188 147.3125 75.460938 C 143.007812 80.742188 138.769531 86.074219 134.625 91.480469 C 129.449219 98.222656 124.160156 105.007812 120.671875 112.808594 C 116.027344 123.183594 114.152344 135.328125 117.101562 146.050781 C 117.519531 147.578125 118.035156 149.078125 118.65625 150.539062 Z M 119.808594 125.195312 C 121.683594 116.664062 125.652344 108.933594 130.734375 101.882812 C 134.363281 96.847656 138.144531 91.925781 142 87.0625 C 143.578125 85.066406 145.164062 83.082031 146.757812 81.105469 C 147.792969 79.820312 148.832031 78.535156 149.875 77.257812 L 149.878906 77.253906 C 154.910156 71.066406 160.03125 64.9375 165.242188 58.894531 C 169.832031 53.574219 174.433594 48.203125 179.433594 43.257812 C 180.070312 42.625 180.714844 41.984375 181.410156 41.40625 C 181.457031 41.371094 182.21875 40.730469 182.25 40.710938 C 182.414062 40.726562 183.617188 40.964844 184.144531 41.050781 C 185.863281 41.332031 187.5625 41.710938 189.261719 42.09375 C 194.683594 43.332031 200.058594 44.746094 205.429688 46.1875 C 220.109375 50.125 234.71875 54.34375 249.296875 58.640625 C 261.464844 62.230469 273.632812 65.847656 285.71875 69.714844 C 287.34375 70.234375 291.183594 71.605469 291.667969 71.8125 C 291.496094 72.34375 291.175781 73.101562 290.851562 73.800781 C 289.664062 76.335938 288.253906 78.761719 286.832031 81.164062 C 276.761719 98.195312 265.136719 114.410156 253.253906 130.207031 C 246.949219 138.589844 240.660156 147.382812 233.035156 154.625 C 225.175781 162.085938 215.730469 167.773438 205.445312 171.207031 C 196.574219 174.167969 187.292969 175.417969 178.019531 175.230469 C 176.851562 175.207031 175.675781 175.164062 174.503906 175.089844 C 173.433594 175.03125 172.363281 174.949219 171.289062 174.847656 C 166.734375 174.429688 162.199219 173.671875 157.738281 172.613281 C 154.40625 171.832031 151.121094 170.882812 147.894531 169.777344 C 146.324219 169.238281 144.769531 168.667969 143.234375 168.0625 C 139.082031 166.425781 135.105469 164.414062 131.613281 161.835938 C 127.53125 158.828125 124.105469 155.042969 121.820312 150.183594 C 121.230469 148.933594 120.734375 147.65625 120.324219 146.355469 C 119.769531 144.632812 119.371094 142.867188 119.097656 141.082031 L 119.101562 141.078125 C 118.3125 135.824219 118.664062 130.378906 119.808594 125.195312 Z M 136.589844 117.515625 C 135.046875 114.671875 178.433594 62.292969 180.941406 60.644531 C 185.078125 57.929688 265.382812 82.441406 266.539062 85.058594 C 268.195312 88.800781 226.933594 143.398438 222.808594 145.433594 C 220 146.816406 138.230469 120.535156 136.589844 117.515625 Z M 89.132812 244.257812 C 92.832031 245.828125 97.949219 246.785156 100.34375 242.652344 C 105.171875 234.328125 88.855469 226.464844 84.113281 233.761719 C 84.035156 233.859375 83.789062 234.335938 83.757812 234.453125 C 81.957031 238.953125 84.96875 242.488281 89.132812 244.257812 Z M 86.671875 235.539062 C 89.078125 231.292969 100.695312 236.394531 97.578125 241.210938 C 96.070312 243.539062 92.585938 242.332031 90.574219 241.488281 C 88.070312 240.4375 85.3125 238.554688 86.671875 235.539062 Z M 86.671875 235.539062 "/></g></svg>