<svg xmlns="http://www.w3.org/2000/svg" xmlns:xlink="http://www.w3.org/1999/xlink" width="500" zoomAndPan="magnify" viewBox="0 0 375 374.999991" height="500" preserveAspectRatio="xMidYMid meet" version="1.2"><defs><clipPath id="5915669e2f"><path d="M 4.285156 77.570312 L 221 77.570312 L 221 235 L 4.285156 235 Z M 4.285156 77.570312 "/></clipPath><clipPath id="ee85179d99"><path d="M 155 117 L 371.785156 117 L 371.785156 275 L 155 275 Z M 155 117 "/></clipPath></defs><g id="a9ca278ed5"><g clip-rule="nonzero" clip-path="url(#5915669e2f)"><path style=" stroke:none;fill-rule:nonzero;fill:#e8e8e8;fill-opacity:1;" d="M 4.746094 155.984375 C 4.746094 199.324219 53.097656 234.449219 112.753906 234.449219 C 172.402344 234.449219 220.757812 199.324219 220.757812 155.984375 C 220.757812 112.648438 172.402344 77.523438 112.753906 77.523438 C 53.097656 77.523438 4.746094 112.648438 4.746094 155.984375 "/></g><path style=" stroke:none;fill-rule:nonzero;fill:#2d2d2d;fill-opacity:1;" d="M 132.992188 169.339844 C 132.992188 175.714844 138.167969 180.886719 144.542969 180.886719 C 150.925781 180.886719 156.089844 175.714844 156.089844 169.339844 C 156.089844 162.96875 150.925781 157.792969 144.542969 157.792969 C 138.167969 157.792969 132.992188 162.96875 132.992188 169.339844 "/><path style=" stroke:none;fill-rule:nonzero;fill:#2d2d2d;fill-opacity:1;" d="M 91 169.339844 C 91 175.714844 96.167969 180.886719 102.546875 180.886719 C 108.925781 180.886719 114.097656 175.714844 114.097656 169.339844 C 114.097656 162.96875 108.925781 157.792969 102.546875 157.792969 C 96.167969 157.792969 91 162.96875 91 169.339844 "/><path style=" stroke:none;fill-rule:nonzero;fill:#2d2d2d;fill-opacity:1;" d="M 49.003906 169.339844 C 49.003906 175.714844 54.175781 180.886719 60.558594 180.886719 C 66.933594 180.886719 72.097656 175.714844 72.097656 169.339844 C 72.097656 162.96875 66.933594 157.792969 60.558594 157.792969 C 54.175781 157.792969 49.003906 162.96875 49.003906 169.339844 "/><path style=" stroke:none;fill-rule:nonzero;fill:#e8e8e8;fill-opacity:1;" d="M 109.5 227.1875 L 45.792969 258.347656 L 50.675781 210.566406 Z M 109.5 227.1875 "/><g clip-rule="nonzero" clip-path="url(#ee85179d99)"><path style=" stroke:none;fill-rule:nonzero;fill:#f8f8f8;fill-opacity:1;" d="M 371.199219 195.628906 C 371.199219 238.96875 322.84375 274.101562 263.191406 274.101562 C 203.542969 274.101562 155.179688 238.96875 155.179688 195.628906 C 155.179688 152.304688 203.542969 117.171875 263.191406 117.171875 C 322.84375 117.171875 371.199219 152.304688 371.199219 195.628906 "/></g><path style=" stroke:none;fill-rule:nonzero;fill:#2d2d2d;fill-opacity:1;" d="M 242.953125 208.992188 C 242.953125 215.363281 237.78125 220.53125 231.398438 220.53125 C 225.023438 220.53125 219.855469 215.363281 219.855469 208.992188 C 219.855469 202.605469 225.023438 197.4375 231.398438 197.4375 C 237.78125 197.4375 242.953125 202.605469 242.953125 208.992188 "/><path style=" stroke:none;fill-rule:nonzero;fill:#2d2d2d;fill-opacity:1;" d="M 284.945312 208.992188 C 284.945312 215.363281 279.773438 220.53125 273.394531 220.53125 C 267.015625 220.53125 261.84375 215.363281 261.84375 208.992188 C 261.84375 202.605469 267.015625 197.4375 273.394531 197.4375 C 279.773438 197.4375 284.945312 202.605469 284.945312 208.992188 "/><path style=" stroke:none;fill-rule:nonzero;fill:#2d2d2d;fill-opacity:1;" d="M 326.933594 208.992188 C 326.933594 215.363281 321.769531 220.53125 315.390625 220.53125 C 309.007812 220.53125 303.835938 215.363281 303.835938 208.992188 C 303.835938 202.605469 309.007812 197.4375 315.390625 197.4375 C 321.769531 197.4375 326.933594 202.605469 326.933594 208.992188 "/><path style=" stroke:none;fill-rule:nonzero;fill:#f8f8f8;fill-opacity:1;" d="M 266.445312 266.828125 L 330.144531 297.988281 L 325.269531 250.210938 Z M 266.445312 266.828125 "/></g></svg>