<svg xmlns="http://www.w3.org/2000/svg" xmlns:xlink="http://www.w3.org/1999/xlink" width="500" zoomAndPan="magnify" viewBox="0 0 375 374.999991" height="500" preserveAspectRatio="xMidYMid meet" version="1.2"><defs><clipPath id="1d4bc4203c"><path d="M 112.5 142.5 L 201 142.5 L 201 207 L 112.5 207 Z M 112.5 142.5 "/></clipPath><clipPath id="40766fb41c"><path d="M 174 158 L 262.5 158 L 262.5 223 L 174 223 Z M 174 158 "/></clipPath><clipPath id="16ad3b8244"><path d="M 219 212 L 246 212 L 246 232.5 L 219 232.5 Z M 219 212 "/></clipPath></defs><g id="25e0c16a35"><g clip-rule="nonzero" clip-path="url(#1d4bc4203c)"><path style=" stroke:none;fill-rule:nonzero;fill:#e8e8e8;fill-opacity:1;" d="M 112.6875 174.507812 C 112.6875 192.195312 132.421875 206.535156 156.773438 206.535156 C 181.121094 206.535156 200.855469 192.195312 200.855469 174.507812 C 200.855469 156.820312 181.121094 142.480469 156.773438 142.480469 C 132.421875 142.480469 112.6875 156.820312 112.6875 174.507812 "/></g><path style=" stroke:none;fill-rule:nonzero;fill:#2d2d2d;fill-opacity:1;" d="M 165.035156 179.957031 C 165.035156 182.558594 167.144531 184.671875 169.75 184.671875 C 172.351562 184.671875 174.460938 182.558594 174.460938 179.957031 C 174.460938 177.355469 172.351562 175.246094 169.75 175.246094 C 167.144531 175.246094 165.035156 177.355469 165.035156 179.957031 "/><path style=" stroke:none;fill-rule:nonzero;fill:#2d2d2d;fill-opacity:1;" d="M 147.894531 179.957031 C 147.894531 182.558594 150.003906 184.671875 152.605469 184.671875 C 155.210938 184.671875 157.320312 182.558594 157.320312 179.957031 C 157.320312 177.355469 155.210938 175.246094 152.605469 175.246094 C 150.003906 175.246094 147.894531 177.355469 147.894531 179.957031 "/><path style=" stroke:none;fill-rule:nonzero;fill:#2d2d2d;fill-opacity:1;" d="M 130.753906 179.957031 C 130.753906 182.558594 132.863281 184.671875 135.46875 184.671875 C 138.070312 184.671875 140.179688 182.558594 140.179688 179.957031 C 140.179688 177.355469 138.070312 175.246094 135.46875 175.246094 C 132.863281 175.246094 130.753906 177.355469 130.753906 179.957031 "/><path style=" stroke:none;fill-rule:nonzero;fill:#e8e8e8;fill-opacity:1;" d="M 155.445312 203.570312 L 129.441406 216.289062 L 131.433594 196.785156 Z M 155.445312 203.570312 "/><g clip-rule="nonzero" clip-path="url(#40766fb41c)"><path style=" stroke:none;fill-rule:nonzero;fill:#f8f8f8;fill-opacity:1;" d="M 262.261719 190.6875 C 262.261719 208.378906 242.527344 222.71875 218.179688 222.71875 C 193.828125 222.71875 174.089844 208.378906 174.089844 190.6875 C 174.089844 173.003906 193.828125 158.664062 218.179688 158.664062 C 242.527344 158.664062 262.261719 173.003906 262.261719 190.6875 "/></g><path style=" stroke:none;fill-rule:nonzero;fill:#2d2d2d;fill-opacity:1;" d="M 209.914062 196.140625 C 209.914062 198.742188 207.804688 200.851562 205.199219 200.851562 C 202.597656 200.851562 200.488281 198.742188 200.488281 196.140625 C 200.488281 193.535156 202.597656 191.425781 205.199219 191.425781 C 207.804688 191.425781 209.914062 193.535156 209.914062 196.140625 "/><path style=" stroke:none;fill-rule:nonzero;fill:#2d2d2d;fill-opacity:1;" d="M 227.054688 196.140625 C 227.054688 198.742188 224.945312 200.851562 222.339844 200.851562 C 219.738281 200.851562 217.625 198.742188 217.625 196.140625 C 217.625 193.535156 219.738281 191.425781 222.339844 191.425781 C 224.945312 191.425781 227.054688 193.535156 227.054688 196.140625 "/><path style=" stroke:none;fill-rule:nonzero;fill:#2d2d2d;fill-opacity:1;" d="M 244.195312 196.140625 C 244.195312 198.742188 242.085938 200.851562 239.484375 200.851562 C 236.878906 200.851562 234.765625 198.742188 234.765625 196.140625 C 234.765625 193.535156 236.878906 191.425781 239.484375 191.425781 C 242.085938 191.425781 244.195312 193.535156 244.195312 196.140625 "/><g clip-rule="nonzero" clip-path="url(#16ad3b8244)"><path style=" stroke:none;fill-rule:nonzero;fill:#f8f8f8;fill-opacity:1;" d="M 219.503906 219.75 L 245.507812 232.46875 L 243.515625 212.964844 Z M 219.503906 219.75 "/></g></g></svg>