<svg xmlns="http://www.w3.org/2000/svg" xmlns:xlink="http://www.w3.org/1999/xlink" width="500" zoomAndPan="magnify" viewBox="0 0 375 374.999991" height="500" preserveAspectRatio="xMidYMid meet" version="1.2"><defs><clipPath id="cf86a79eae"><path d="M 3.578125 78 L 227 78 L 227 302 L 3.578125 302 Z M 3.578125 78 "/></clipPath></defs><g id="5f089cc015"><g clip-rule="nonzero" clip-path="url(#cf86a79eae)"><path style=" stroke:none;fill-rule:nonzero;fill:#e8e8e8;fill-opacity:1;" d="M 210.589844 182.972656 C 213.898438 182.730469 215.867188 182.484375 217.8125 182.460938 C 221.023438 182.414062 225.574219 180.25 226.617188 184.820312 C 227.6875 189.539062 223.285156 191.339844 219.492188 192.578125 C 211.101562 195.304688 202.710938 198.101562 194.222656 200.460938 C 177.222656 205.179688 160.097656 209.457031 143.097656 214.175781 C 121.355469 220.207031 112.40625 237.5 107.394531 257.128906 C 104.5 268.4375 100.585938 279.722656 100.679688 291.691406 C 100.730469 296.601562 98.953125 301.539062 93.847656 301.320312 C 86.914062 301.003906 89.46875 294.511719 90.078125 290.9375 C 93.53125 271.1875 91.5625 251.925781 86.722656 232.660156 C 83.925781 221.472656 77.890625 214.589844 65.972656 212.984375 C 47.515625 210.503906 29.128906 207.5625 10.714844 204.8125 C 7.96875 204.398438 4.125 205.128906 3.882812 201.117188 C 3.664062 197.46875 7.1875 196.933594 9.960938 195.984375 C 30.269531 188.859375 50.480469 181.367188 70.9375 174.65625 C 79.351562 171.882812 81.953125 165.632812 83.800781 158.308594 C 89.929688 134.109375 100.707031 111.199219 103.722656 86.148438 C 104.304688 81.332031 106.152344 77.171875 112.015625 78.367188 C 117.65625 79.53125 117.828125 84.105469 117.21875 88.847656 C 114.449219 110.882812 115.324219 132.894531 118.121094 154.855469 C 119.773438 167.796875 125.125 176.234375 140.105469 177.039062 C 164.089844 178.277344 187.972656 180.976562 210.589844 182.972656 Z M 195.195312 194.429688 C 195.121094 192.945312 195.050781 191.484375 194.976562 190 C 171.726562 183.75 147.792969 183.96875 123.957031 184.261719 C 112.234375 184.40625 107.636719 179.980469 109.511719 168.402344 C 112.160156 151.988281 106.496094 136.300781 105.863281 120.027344 C 97.398438 133.066406 92.824219 147.316406 92.070312 161.667969 C 91.195312 178.496094 83.949219 184.722656 67.921875 186.132812 C 55.492188 187.230469 42.554688 189.613281 31 200.070312 C 47.902344 205.203125 62.835938 207.757812 78.015625 207.949219 C 88.105469 208.097656 93.289062 211.015625 93.042969 222.398438 C 92.824219 231.957031 94.746094 241.660156 99.855469 253.164062 C 105.617188 241.683594 111.40625 232.5625 114.789062 222.617188 C 117.753906 213.886719 122.304688 210.746094 131.253906 209.09375 C 152.730469 205.105469 173.914062 199.414062 195.195312 194.429688 Z M 195.195312 194.429688 "/></g><path style=" stroke:none;fill-rule:nonzero;fill:#e8e8e8;fill-opacity:1;" d="M 199.476562 120.78125 C 215.113281 120.832031 229.050781 116.355469 242.867188 111.054688 C 249.3125 108.574219 251.109375 102.832031 253.03125 97.457031 C 259.816406 78.558594 266.191406 59.515625 272.683594 40.496094 C 274.09375 36.386719 274.777344 30.476562 280.34375 31.546875 C 286.207031 32.664062 284.675781 38.597656 283.703125 42.636719 C 279.933594 58.179688 281.78125 73.816406 282 89.480469 C 282.121094 98.769531 286.5 104.171875 295.085938 106.480469 C 306.441406 109.546875 317.847656 112.390625 329.207031 115.359375 C 332.320312 116.160156 337.257812 115.285156 337.210938 119.882812 C 337.160156 124.308594 333.171875 126.085938 328.867188 126.472656 C 318.140625 127.421875 307.414062 128.757812 296.664062 129.390625 C 281.34375 130.292969 275.117188 139 274.847656 153.398438 C 274.679688 163.199219 274.460938 172.976562 274.191406 182.777344 C 274.09375 186.425781 272.976562 189.929688 268.988281 190.65625 C 264 191.558594 264.027344 187.253906 263.148438 184.042969 C 260.328125 173.65625 257.824219 163.175781 254.5625 152.933594 C 250.164062 139.144531 241.917969 130.292969 225.839844 130.609375 C 215.601562 130.800781 205.3125 129.222656 195.074219 128.25 C 191.546875 127.910156 185.710938 129.660156 186.125 123.847656 C 186.535156 118.253906 192.082031 120.585938 195.730469 120.515625 C 197.191406 120.515625 198.648438 120.734375 199.476562 120.78125 Z M 272.976562 67.347656 C 271.710938 67.371094 270.445312 67.421875 269.15625 67.445312 C 265.023438 81.988281 255.511719 95.5625 263.929688 112.097656 C 266.992188 118.15625 260.253906 117.378906 256.996094 117.984375 C 250.476562 119.203125 242.890625 116.28125 234.863281 124.480469 C 263.757812 121.367188 256.023438 146.296875 265.875 158.796875 C 266.433594 153.007812 267.964844 148.023438 267.136719 143.449219 C 265.023438 131.726562 269.765625 127.714844 281.050781 126.984375 C 288.734375 126.496094 296.277344 123.359375 303.863281 121.414062 C 298.222656 116.355469 292.871094 113.730469 287.277344 112.949219 C 276.113281 111.417969 270.957031 106.796875 272.734375 94.636719 C 274.046875 85.710938 272.976562 76.445312 272.976562 67.347656 Z M 272.976562 67.347656 "/><path style=" stroke:none;fill-rule:nonzero;fill:#e8e8e8;fill-opacity:1;" d="M 235.058594 257.398438 C 247.242188 259.488281 258.941406 259.195312 270.738281 258.101562 C 281.414062 257.105469 287.570312 251.632812 290.488281 241.492188 C 294.695312 226.898438 299.242188 212.402344 303.863281 197.929688 C 305.007812 194.304688 306.199219 189.710938 311.453125 190.535156 C 316.609375 191.339844 316.242188 195.984375 316.585938 199.828125 C 317.339844 208.609375 319.066406 217.460938 318.507812 226.167969 C 317.582031 240.6875 325.511719 244.96875 337.867188 246.304688 C 345.625 247.15625 353.308594 249.003906 360.972656 250.707031 C 364.765625 251.558594 370.992188 249.664062 370.457031 256.789062 C 370.042969 262.335938 365.179688 263.183594 360.800781 264.183594 C 351.242188 266.347656 341.78125 269.09375 332.125 270.675781 C 317.996094 272.988281 310.625 280.257812 310.359375 295.046875 C 310.113281 307.765625 308.730469 320.460938 307.851562 333.183594 C 307.5625 337.535156 308.023438 343.105469 302.40625 343.691406 C 297.222656 344.226562 297.417969 338.632812 296.347656 335.078125 C 291.800781 320.097656 285.183594 305.699219 282.898438 290.035156 C 281.78125 282.421875 277.328125 277.898438 270.203125 275.347656 C 258.601562 271.1875 246.734375 268.269531 234.523438 266.664062 C 230.972656 266.199219 225.039062 267.660156 225.160156 262.210938 C 225.257812 255.546875 231.628906 258.417969 235.058594 257.398438 Z M 299.144531 310.636719 C 299.949219 309.664062 300.945312 309.007812 301.019531 308.253906 C 301.503906 303.875 301.84375 299.496094 302.089844 295.09375 C 303.792969 265.761719 299 270.675781 327.554688 264.5 C 333.753906 263.160156 340.761719 263.183594 346.425781 257.835938 C 340.007812 252.75 333.21875 252.117188 327.359375 252.3125 C 311.183594 252.871094 306.929688 245.769531 309.871094 230.863281 C 311.183594 224.246094 311.015625 216.949219 307.683594 207.855469 C 299.875 222.007812 294.523438 235.386719 297.03125 247.8125 C 300.484375 264.914062 293.527344 268.195312 278.109375 267.660156 C 304.082031 273.742188 284.113281 299.984375 299.144531 310.636719 Z M 299.144531 310.636719 "/></g></svg>