<svg xmlns="http://www.w3.org/2000/svg" xmlns:xlink="http://www.w3.org/1999/xlink" width="500" zoomAndPan="magnify" viewBox="0 0 375 374.999991" height="500" preserveAspectRatio="xMidYMid meet" version="1.2"><defs><clipPath id="6ebe3b0e38"><path d="M 112.5 142 L 204 142 L 204 235 L 112.5 235 Z M 112.5 142 "/></clipPath><clipPath id="ef7e2552f9"><path d="M 187 123.46875 L 249 123.46875 L 249 189 L 187 189 Z M 187 123.46875 "/></clipPath><clipPath id="ba6bb8f17b"><path d="M 202 188 L 262.5 188 L 262.5 251.71875 L 202 251.71875 Z M 202 188 "/></clipPath></defs><g id="7151ebf786"><g clip-rule="nonzero" clip-path="url(#6ebe3b0e38)"><path style=" stroke:none;fill-rule:nonzero;fill:#e8e8e8;fill-opacity:1;" d="M 196.996094 185.714844 C 198.34375 185.613281 199.148438 185.515625 199.945312 185.503906 C 201.253906 185.484375 203.109375 184.601562 203.539062 186.46875 C 203.972656 188.394531 202.175781 189.128906 200.628906 189.632812 C 197.203125 190.746094 193.777344 191.886719 190.3125 192.851562 C 183.375 194.777344 176.386719 196.523438 169.445312 198.449219 C 160.570312 200.910156 156.917969 207.96875 154.875 215.980469 C 153.691406 220.597656 152.09375 225.203125 152.132812 230.089844 C 152.152344 232.09375 151.429688 234.109375 149.34375 234.019531 C 146.515625 233.890625 147.558594 231.238281 147.804688 229.78125 C 149.214844 221.71875 148.410156 213.855469 146.4375 205.996094 C 145.292969 201.429688 142.832031 198.617188 137.96875 197.964844 C 130.433594 196.949219 122.925781 195.75 115.414062 194.628906 C 114.289062 194.460938 112.722656 194.757812 112.625 193.117188 C 112.535156 191.628906 113.972656 191.410156 115.105469 191.023438 C 123.394531 188.117188 131.644531 185.058594 139.992188 182.316406 C 143.425781 181.1875 144.488281 178.636719 145.246094 175.648438 C 147.746094 165.769531 152.144531 156.417969 153.375 146.191406 C 153.613281 144.226562 154.367188 142.527344 156.761719 143.015625 C 159.0625 143.492188 159.132812 145.359375 158.882812 147.292969 C 157.753906 156.289062 158.109375 165.273438 159.25 174.238281 C 159.925781 179.519531 162.109375 182.964844 168.226562 183.289062 C 178.015625 183.796875 187.761719 184.898438 196.996094 185.714844 Z M 190.710938 190.390625 C 190.683594 189.785156 190.652344 189.1875 190.621094 188.582031 C 181.132812 186.03125 171.363281 186.121094 161.632812 186.238281 C 156.847656 186.296875 154.972656 184.492188 155.738281 179.765625 C 156.820312 173.066406 154.507812 166.664062 154.25 160.019531 C 150.792969 165.34375 148.925781 171.160156 148.621094 177.015625 C 148.261719 183.886719 145.304688 186.429688 138.761719 187.003906 C 133.6875 187.449219 128.40625 188.421875 123.691406 192.691406 C 130.589844 194.785156 136.6875 195.828125 142.882812 195.910156 C 147 195.96875 149.117188 197.160156 149.015625 201.804688 C 148.925781 205.707031 149.710938 209.667969 151.796875 214.363281 C 154.148438 209.675781 156.511719 205.953125 157.890625 201.894531 C 159.101562 198.332031 160.960938 197.050781 164.613281 196.375 C 173.378906 194.746094 182.023438 192.425781 190.710938 190.390625 Z M 190.710938 190.390625 "/></g><g clip-rule="nonzero" clip-path="url(#ef7e2552f9)"><path style=" stroke:none;fill-rule:nonzero;fill:#e8e8e8;fill-opacity:1;" d="M 192.457031 160.328125 C 198.84375 160.347656 204.53125 158.523438 210.167969 156.359375 C 212.800781 155.34375 213.535156 153.003906 214.320312 150.808594 C 217.089844 143.09375 219.6875 135.320312 222.339844 127.558594 C 222.914062 125.882812 223.195312 123.46875 225.46875 123.90625 C 227.859375 124.363281 227.234375 126.785156 226.835938 128.433594 C 225.296875 134.777344 226.054688 141.160156 226.140625 147.550781 C 226.191406 151.34375 227.980469 153.546875 231.484375 154.492188 C 236.117188 155.742188 240.773438 156.902344 245.410156 158.113281 C 246.683594 158.441406 248.695312 158.085938 248.675781 159.960938 C 248.65625 161.769531 247.027344 162.492188 245.273438 162.652344 C 240.894531 163.039062 236.515625 163.585938 232.128906 163.84375 C 225.875 164.210938 223.332031 167.765625 223.222656 173.640625 C 223.152344 177.640625 223.066406 181.632812 222.957031 185.632812 C 222.914062 187.121094 222.460938 188.550781 220.832031 188.851562 C 218.796875 189.21875 218.804688 187.460938 218.449219 186.148438 C 217.296875 181.910156 216.273438 177.632812 214.945312 173.453125 C 213.148438 167.824219 209.78125 164.210938 203.21875 164.339844 C 199.039062 164.417969 194.839844 163.773438 190.660156 163.375 C 189.222656 163.238281 186.839844 163.953125 187.007812 161.578125 C 187.175781 159.296875 189.441406 160.25 190.929688 160.21875 C 191.527344 160.21875 192.121094 160.308594 192.457031 160.328125 Z M 222.460938 138.519531 C 221.941406 138.527344 221.425781 138.546875 220.902344 138.558594 C 219.210938 144.496094 215.332031 150.035156 218.765625 156.785156 C 220.015625 159.257812 217.265625 158.9375 215.9375 159.1875 C 213.277344 159.683594 210.179688 158.492188 206.902344 161.835938 C 218.695312 160.566406 215.539062 170.742188 219.558594 175.84375 C 219.789062 173.484375 220.414062 171.449219 220.078125 169.582031 C 219.210938 164.796875 221.148438 163.160156 225.753906 162.859375 C 228.890625 162.660156 231.96875 161.382812 235.066406 160.585938 C 232.761719 158.523438 230.578125 157.449219 228.296875 157.132812 C 223.738281 156.507812 221.636719 154.621094 222.359375 149.65625 C 222.894531 146.015625 222.460938 142.230469 222.460938 138.519531 Z M 222.460938 138.519531 "/></g><g clip-rule="nonzero" clip-path="url(#ba6bb8f17b)"><path style=" stroke:none;fill-rule:nonzero;fill:#e8e8e8;fill-opacity:1;" d="M 206.980469 216.089844 C 211.957031 216.945312 216.730469 216.824219 221.546875 216.378906 C 225.902344 215.972656 228.414062 213.738281 229.605469 209.597656 C 231.324219 203.640625 233.179688 197.726562 235.066406 191.820312 C 235.535156 190.339844 236.019531 188.464844 238.164062 188.800781 C 240.269531 189.128906 240.121094 191.023438 240.257812 192.59375 C 240.566406 196.175781 241.269531 199.789062 241.042969 203.34375 C 240.664062 209.269531 243.902344 211.019531 248.945312 211.5625 C 252.113281 211.910156 255.25 212.664062 258.375 213.359375 C 259.925781 213.707031 262.464844 212.933594 262.246094 215.84375 C 262.078125 218.105469 260.09375 218.453125 258.304688 218.859375 C 254.40625 219.742188 250.542969 220.867188 246.601562 221.511719 C 240.835938 222.453125 237.828125 225.421875 237.71875 231.457031 C 237.617188 236.648438 237.050781 241.832031 236.695312 247.023438 C 236.574219 248.800781 236.765625 251.074219 234.472656 251.3125 C 232.355469 251.53125 232.4375 249.246094 232 247.796875 C 230.144531 241.683594 227.441406 235.804688 226.507812 229.414062 C 226.054688 226.304688 224.234375 224.460938 221.328125 223.417969 C 216.59375 221.71875 211.746094 220.527344 206.765625 219.871094 C 205.316406 219.683594 202.890625 220.28125 202.941406 218.054688 C 202.980469 215.335938 205.582031 216.507812 206.980469 216.089844 Z M 233.140625 237.820312 C 233.46875 237.425781 233.875 237.15625 233.90625 236.847656 C 234.105469 235.0625 234.242188 233.273438 234.34375 231.476562 C 235.035156 219.503906 233.082031 221.511719 244.734375 218.988281 C 247.265625 218.445312 250.125 218.453125 252.441406 216.269531 C 249.820312 214.195312 247.050781 213.9375 244.65625 214.015625 C 238.054688 214.246094 236.316406 211.34375 237.519531 205.261719 C 238.054688 202.558594 237.984375 199.582031 236.625 195.867188 C 233.4375 201.644531 231.253906 207.105469 232.277344 212.179688 C 233.6875 219.160156 230.847656 220.5 224.554688 220.28125 C 235.15625 222.761719 227.003906 233.472656 233.140625 237.820312 Z M 233.140625 237.820312 "/></g></g></svg>