<svg xmlns="http://www.w3.org/2000/svg" xmlns:xlink="http://www.w3.org/1999/xlink" width="500" zoomAndPan="magnify" viewBox="0 0 375 374.999991" height="500" preserveAspectRatio="xMidYMid meet" version="1.2"><defs><clipPath id="caf40f2bbe"><path d="M 18.640625 19.699219 L 276 19.699219 L 276 354.949219 L 18.640625 354.949219 Z M 18.640625 19.699219 "/></clipPath></defs><g id="8d869071bf"><g clip-rule="nonzero" clip-path="url(#caf40f2bbe)"><path style=" stroke:none;fill-rule:nonzero;fill:#e8e8e8;fill-opacity:1;" d="M 61.074219 25.679688 C 68.753906 32.558594 70.582031 40.59375 70.574219 49.667969 C 70.449219 141.265625 70.449219 232.851562 70.574219 324.445312 C 70.589844 333.714844 69.023438 342.046875 61.277344 348.847656 C 62.863281 348.953125 63.789062 349.0625 64.722656 349.0625 C 125.914062 349.070312 187.113281 349.074219 248.308594 349.0625 C 261.410156 349.0625 269.90625 340.535156 269.914062 327.390625 C 269.933594 299.667969 269.914062 271.949219 269.925781 244.226562 C 269.925781 243.117188 269.640625 241.824219 270.101562 240.953125 C 270.644531 239.945312 271.867188 238.710938 272.8125 238.695312 C 273.761719 238.683594 274.988281 239.878906 275.609375 240.855469 C 276.074219 241.574219 275.792969 242.792969 275.792969 243.792969 C 275.792969 271.515625 275.808594 299.234375 275.792969 326.957031 C 275.78125 343.78125 264.699219 354.921875 247.898438 354.929688 C 180.269531 354.949219 112.644531 354.945312 45.019531 354.929688 C 30.683594 354.929688 19.246094 343.621094 19.015625 329.292969 C 18.957031 325.746094 18.972656 322.199219 19.007812 318.644531 C 19.082031 310.722656 24.105469 305.535156 32.101562 305.40625 C 40.085938 305.265625 48.066406 305.367188 56.050781 305.367188 C 58.808594 305.367188 61.5625 305.367188 64.554688 305.367188 L 64.554688 69.378906 C 61.210938 69.378906 58.023438 69.378906 54.835938 69.378906 C 47.523438 69.378906 40.203125 69.421875 32.886719 69.363281 C 24.070312 69.296875 19.007812 64.269531 19.015625 55.542969 C 19.015625 50.890625 18.671875 46.160156 19.375 41.597656 C 21.375 28.652344 32.015625 19.957031 45.601562 19.832031 C 56.351562 19.730469 67.109375 19.8125 77.859375 19.8125 C 134.507812 19.8125 191.160156 19.804688 247.808594 19.8125 C 261.296875 19.8125 271.519531 27.097656 274.742188 39.148438 C 275.449219 41.78125 275.75 44.609375 275.757812 47.347656 C 275.824219 78.726562 275.800781 110.113281 275.800781 141.492188 C 275.800781 142.378906 276.058594 143.460938 275.65625 144.105469 C 275.015625 145.121094 273.824219 146.589844 273.027344 146.5 C 271.9375 146.375 270.710938 145.132812 270.089844 144.054688 C 269.605469 143.21875 269.925781 141.894531 269.925781 140.785156 C 269.925781 109.847656 269.925781 78.910156 269.925781 47.980469 C 269.925781 33.925781 261.671875 25.6875 247.617188 25.6875 C 186.863281 25.6875 126.113281 25.6875 65.359375 25.6875 L 61.078125 25.6875 Z M 64.421875 63.527344 C 64.421875 56.257812 64.988281 49.359375 64.289062 42.589844 C 63.246094 32.449219 54.050781 25.28125 43.765625 25.707031 C 33.804688 26.121094 25.492188 34.195312 24.933594 44.207031 C 24.699219 48.40625 24.746094 52.628906 24.882812 56.835938 C 25.015625 60.742188 27.5 63.425781 31.359375 63.476562 C 42.324219 63.621094 53.289062 63.527344 64.414062 63.527344 Z M 64.199219 311.300781 C 53.125 311.300781 41.855469 311.15625 30.582031 311.390625 C 27.144531 311.464844 24.980469 314.339844 24.875 318.035156 C 24.757812 322.242188 24.707031 326.464844 24.949219 330.667969 C 25.515625 340.382812 33.527344 348.335938 43.21875 349.023438 C 52.988281 349.722656 62.6875 343.171875 64.003906 333.667969 C 65 326.429688 64.199219 318.9375 64.199219 311.300781 Z M 64.199219 311.300781 "/></g><path style=" stroke:none;fill-rule:nonzero;fill:#e8e8e8;fill-opacity:1;" d="M 217.296875 242.984375 C 219.148438 232.851562 221.0625 223.304688 222.5625 213.683594 C 223.273438 209.109375 225.023438 205.585938 228.386719 202.25 C 257.207031 173.679688 285.839844 144.921875 314.539062 116.222656 C 321.675781 109.085938 328.328125 109.113281 335.488281 116.273438 C 340.351562 121.136719 345.234375 125.976562 350.066406 130.867188 C 355.953125 136.828125 356.007812 144.027344 350.085938 149.957031 C 320.242188 179.863281 290.371094 209.742188 260.445312 239.554688 C 259.285156 240.714844 257.53125 241.613281 255.90625 241.929688 C 244.386719 244.167969 232.835938 246.230469 221.285156 248.324219 C 220.308594 248.5 219.300781 248.558594 218.308594 248.566406 C 197.46875 248.660156 176.621094 248.734375 155.78125 248.824219 C 155.449219 248.824219 155.113281 248.816406 154.78125 248.824219 C 152.679688 248.859375 150.824219 248.332031 150.890625 245.84375 C 150.949219 243.582031 152.703125 243.109375 154.679688 243.101562 C 160.222656 243.101562 165.769531 243 171.304688 242.992188 C 186.484375 242.976562 201.664062 242.992188 217.273438 242.992188 Z M 256.824219 234.121094 C 283.101562 207.839844 309.308594 181.632812 335.320312 155.605469 C 326.890625 147.167969 318.222656 138.496094 309.933594 130.191406 C 283.851562 156.265625 257.589844 182.527344 231.410156 208.699219 C 239.753906 217.042969 248.367188 225.65625 256.824219 234.113281 Z M 314.121094 124.566406 C 323.195312 133.65625 331.859375 142.328125 340.628906 151.113281 C 340.910156 150.863281 341.40625 150.445312 341.871094 149.980469 C 343.515625 148.335938 345.226562 146.742188 346.753906 144.996094 C 349.183594 142.210938 349.351562 138.585938 346.828125 135.953125 C 341.152344 130.035156 335.355469 124.226562 329.429688 118.558594 C 326.707031 115.953125 323.234375 116.121094 320.40625 118.617188 C 318.164062 120.59375 316.066406 122.722656 314.121094 124.574219 Z M 250.355469 237.140625 C 242.902344 229.695312 235.675781 222.476562 228.289062 215.085938 C 226.703125 223.847656 225.09375 232.757812 223.414062 242.023438 C 232.761719 240.328125 241.542969 238.734375 250.355469 237.140625 Z M 250.355469 237.140625 "/><path style=" stroke:none;fill-rule:nonzero;fill:#e8e8e8;fill-opacity:1;" d="M 193.929688 75.402344 C 197.285156 71.992188 199.09375 68.34375 198.738281 63.46875 C 198.320312 57.734375 198.667969 51.953125 198.628906 46.1875 C 198.613281 44.066406 198.71875 41.835938 201.421875 41.796875 C 204.3125 41.761719 204.476562 44.109375 204.476562 46.335938 C 204.46875 52.101562 204.804688 57.886719 204.371094 63.613281 C 204.003906 68.503906 205.914062 72.097656 209.152344 75.488281 C 212.125 72.082031 214.382812 68.675781 213.984375 63.6875 C 213.507812 57.738281 213.894531 51.726562 213.859375 45.75 C 213.84375 43.65625 214.261719 41.761719 216.738281 41.78125 C 219.214844 41.804688 219.609375 43.765625 219.609375 45.8125 C 219.609375 53.457031 219.683594 61.109375 219.542969 68.753906 C 219.515625 70.195312 218.890625 71.773438 218.117188 73.023438 C 216.378906 75.839844 214.394531 78.523438 212.464844 81.222656 C 209.96875 84.734375 208.257812 84.675781 205.6875 81.054688 C 204.410156 79.257812 203.132812 77.449219 201.574219 75.238281 C 200.03125 77.382812 198.660156 79.300781 197.269531 81.21875 C 194.804688 84.625 193.078125 84.652344 190.667969 81.328125 C 190.601562 81.238281 190.550781 81.136719 190.476562 81.054688 C 184.664062 74.792969 182.21875 67.542969 183.304688 58.9375 C 183.824219 54.796875 183.421875 50.527344 183.382812 46.3125 C 183.363281 44.066406 183.515625 41.730469 186.410156 41.789062 C 189.03125 41.839844 189.289062 44.039062 189.28125 46.179688 C 189.25 51.726562 189.582031 57.285156 189.1875 62.800781 C 188.824219 67.824219 190.191406 71.898438 193.929688 75.394531 Z M 193.929688 75.402344 "/><path style=" stroke:none;fill-rule:nonzero;fill:#e8e8e8;fill-opacity:1;" d="M 131.679688 192.785156 C 131.597656 199.4375 125.6875 203.75 120.789062 200.761719 C 114.765625 197.082031 109.882812 197.183594 103.847656 200.761719 C 98.558594 203.894531 91.636719 198.734375 93.148438 192.757812 C 94.890625 185.890625 92.957031 181.515625 87.949219 176.953125 C 83.242188 172.671875 86.078125 164.726562 92.464844 164.183594 C 99.089844 163.625 102.863281 160.972656 105.433594 154.761719 C 107.945312 148.695312 116 148.878906 119.3125 154.585938 C 120.421875 156.496094 121.289062 158.542969 122.273438 160.527344 C 123.175781 162.339844 123.753906 164.242188 121.507812 165.394531 C 119.285156 166.539062 118.019531 165.09375 117.125 163.199219 C 116.316406 161.503906 115.539062 159.785156 114.628906 158.140625 C 113.160156 155.496094 111.550781 155.464844 110.074219 158.082031 C 109.097656 159.8125 108.253906 161.628906 107.417969 163.433594 C 105.925781 166.628906 103.464844 168.382812 99.957031 168.742188 C 98.742188 168.867188 97.503906 168.972656 96.359375 169.339844 C 94.769531 169.84375 93.257812 170.585938 91.714844 171.226562 C 92.628906 172.644531 93.230469 174.449219 94.492188 175.410156 C 99.785156 179.433594 101.25 184.449219 99.164062 190.65625 C 98.957031 191.273438 98.90625 191.964844 98.867188 192.625 C 98.699219 195.464844 99.910156 196.375 102.46875 195.214844 C 104.179688 194.4375 105.835938 193.542969 107.460938 192.59375 C 110.734375 190.679688 113.9375 190.691406 117.207031 192.617188 C 118.828125 193.570312 120.496094 194.453125 122.207031 195.222656 C 124.71875 196.355469 126.082031 195.355469 125.761719 192.625 C 125.503906 190.429688 124.777344 188.238281 124.855469 186.066406 C 124.902344 184.855469 125.898438 183.070312 126.929688 182.644531 C 128.765625 181.878906 130.019531 183.203125 130.363281 185.140625 C 130.863281 187.976562 131.339844 190.808594 131.671875 192.769531 Z M 131.679688 192.785156 "/><path style=" stroke:none;fill-rule:nonzero;fill:#e8e8e8;fill-opacity:1;" d="M 131.628906 311.199219 C 131.863281 318.335938 125.722656 322.816406 120.378906 319.527344 C 114.695312 316.03125 109.921875 315.566406 104.433594 319.527344 C 101.828125 321.414062 98.664062 320.824219 96.042969 318.835938 C 93.53125 316.933594 92.113281 314.152344 93.074219 311.242188 C 95.144531 304.941406 93.367188 300.585938 88.375 296.296875 C 83.207031 291.855469 85.710938 283.710938 92.503906 283.074219 C 99.164062 282.449219 102.855469 279.789062 105.449219 273.636719 C 108.003906 267.5625 115.988281 267.753906 119.3125 273.488281 C 120.472656 275.496094 121.398438 277.648438 122.425781 279.726562 C 123.300781 281.5 123.519531 283.316406 121.5 284.3125 C 119.546875 285.277344 118.144531 284.21875 117.265625 282.347656 C 116.367188 280.445312 115.488281 278.527344 114.421875 276.714844 C 113.128906 274.503906 111.050781 274.402344 110.265625 276.773438 C 107.613281 284.738281 102.328125 288.53125 93.957031 288.601562 C 91.460938 288.625 90.667969 291.003906 92.664062 292.480469 C 99.390625 297.453125 101.476562 303.597656 98.964844 311.625 C 98.199219 314.0625 99.875 315.089844 102.285156 314.203125 C 102.488281 314.128906 102.695312 314.019531 102.871094 313.894531 C 109.140625 309.1875 115.382812 309.128906 121.757812 313.785156 C 122.542969 314.355469 124.183594 314.429688 125.046875 313.996094 C 125.613281 313.71875 125.730469 312.066406 125.652344 311.066406 C 125.488281 308.972656 124.734375 306.878906 124.863281 304.832031 C 124.945312 303.613281 126.253906 302.480469 127.007812 301.308594 C 128.117188 302.152344 129.84375 302.78125 130.203125 303.871094 C 131.070312 306.460938 131.296875 309.273438 131.636719 311.183594 Z M 131.628906 311.199219 "/><path style=" stroke:none;fill-rule:nonzero;fill:#e8e8e8;fill-opacity:1;" d="M 131.621094 251.761719 C 131.863281 258.855469 125.773438 263.320312 120.40625 260.074219 C 114.714844 256.628906 109.882812 256.136719 104.421875 260.089844 C 101.886719 261.917969 98.855469 261.375 96.296875 259.574219 C 93.617188 257.6875 92.070312 254.816406 93.082031 251.777344 C 95.191406 245.4375 93.550781 240.832031 88.292969 236.898438 C 85.71875 234.964844 85.171875 231.875 86.253906 228.722656 C 87.324219 225.589844 89.636719 223.90625 92.832031 223.34375 C 92.941406 223.320312 93.054688 223.304688 93.164062 223.3125 C 99.207031 223.546875 103.03125 220.902344 104.914062 215 C 105.960938 211.6875 108.671875 209.886719 112.320312 209.894531 C 115.972656 209.894531 118.308594 211.820312 119.8125 214.984375 C 120.765625 216.980469 122.082031 218.878906 122.609375 220.976562 C 122.898438 222.136719 121.882812 223.613281 121.457031 224.949219 C 120.15625 224.464844 118.386719 224.339844 117.652344 223.40625 C 116.316406 221.703125 115.65625 219.480469 114.582031 217.546875 C 113.234375 215.117188 111.074219 214.910156 110.238281 217.378906 C 107.585938 225.132812 102.539062 229.027344 94.242188 229.164062 C 91.261719 229.214844 90.835938 231.15625 92.847656 233.402344 C 93.140625 233.734375 93.441406 234.078125 93.792969 234.335938 C 99.589844 238.441406 101.34375 243.777344 99.140625 250.59375 C 98.742188 251.828125 99.515625 253.433594 99.75 254.867188 C 101.070312 254.589844 102.453125 254.457031 103.707031 253.984375 C 105.148438 253.441406 106.507812 252.65625 107.851562 251.878906 C 110.792969 250.167969 113.710938 250.136719 116.683594 251.804688 C 118.226562 252.671875 119.761719 253.605469 121.40625 254.226562 C 122.53125 254.652344 124.277344 255.144531 124.9375 254.609375 C 125.652344 254.03125 125.613281 252.28125 125.554688 251.054688 C 125.46875 249.292969 124.695312 247.507812 124.894531 245.8125 C 125.054688 244.460938 126.230469 243.226562 126.957031 241.941406 C 128.101562 242.859375 129.867188 243.558594 130.277344 244.734375 C 131.144531 247.199219 131.3125 249.925781 131.628906 251.761719 Z M 131.621094 251.761719 "/><path style=" stroke:none;fill-rule:nonzero;fill:#e8e8e8;fill-opacity:1;" d="M 192.0625 117.464844 C 186.621094 117.464844 181.652344 117.464844 176.679688 117.464844 C 176.152344 117.464844 175.621094 117.558594 174.757812 117.640625 C 174.757812 122.28125 174.734375 126.789062 174.761719 131.300781 C 174.777344 133.324219 174.566406 135.308594 172.046875 135.425781 C 169.316406 135.550781 168.917969 133.488281 168.917969 131.328125 C 168.917969 122.140625 168.828125 112.949219 168.949219 103.761719 C 169.035156 97.1875 172.824219 93.570312 179.375 93.480469 C 182.363281 93.445312 185.351562 93.414062 188.339844 93.503906 C 193.597656 93.664062 197.628906 97.078125 197.785156 102.300781 C 198.078125 112.257812 197.996094 122.230469 197.785156 132.1875 C 197.761719 133.304688 195.925781 134.390625 194.9375 135.484375 C 193.972656 134.363281 192.261719 133.289062 192.183594 132.105469 C 191.859375 127.386719 192.050781 122.632812 192.050781 117.457031 Z M 192.042969 111.441406 C 192.042969 108.460938 192.078125 105.824219 192.035156 103.195312 C 191.992188 100.640625 190.535156 99.347656 188.070312 99.296875 C 184.984375 99.222656 181.894531 99.246094 178.800781 99.296875 C 176.496094 99.332031 174.953125 100.5 174.820312 102.851562 C 174.660156 105.671875 174.785156 108.503906 174.785156 111.449219 L 192.042969 111.449219 Z M 192.042969 111.441406 "/><path style=" stroke:none;fill-rule:nonzero;fill:#e8e8e8;fill-opacity:1;" d="M 207.84375 117.457031 C 207.84375 122.390625 207.84375 126.820312 207.84375 131.246094 C 207.84375 133.398438 207.507812 135.484375 204.785156 135.433594 C 202.273438 135.382812 201.976562 133.4375 201.976562 131.378906 C 202 120.070312 202.023438 108.761719 201.964844 97.460938 C 201.949219 94.65625 203.101562 93.40625 205.9375 93.453125 C 211.03125 93.53125 216.136719 93.398438 221.234375 93.511719 C 226.859375 93.628906 230.535156 97.226562 230.792969 102.878906 C 230.984375 107.074219 231.46875 111.398438 227.820312 114.863281 C 232.417969 120.277344 230.609375 126.6875 230.675781 132.769531 C 230.683594 133.664062 228.941406 134.582031 228.011719 135.484375 C 227.0625 134.480469 225.476562 133.570312 225.308594 132.445312 C 224.902344 129.734375 225.191406 126.921875 225.148438 124.152344 C 225.074219 119.320312 223.265625 117.5 218.507812 117.472656 C 215.09375 117.449219 211.679688 117.472656 207.84375 117.472656 Z M 208.035156 111.566406 C 212.273438 111.566406 216.339844 111.523438 220.402344 111.582031 C 222.636719 111.613281 224.648438 110.980469 224.890625 108.628906 C 225.207031 105.679688 226.242188 102.410156 223.398438 99.941406 C 223.082031 99.671875 222.605469 99.457031 222.203125 99.457031 C 217.503906 99.421875 212.808594 99.4375 208.042969 99.4375 L 208.042969 111.566406 Z M 208.035156 111.566406 "/><path style=" stroke:none;fill-rule:nonzero;fill:#e8e8e8;fill-opacity:1;" d="M 123.386719 56.082031 C 123.386719 63.367188 123.386719 70.648438 123.386719 77.925781 C 123.386719 78.925781 123.71875 80.152344 123.257812 80.863281 C 122.53125 81.988281 121.347656 83.316406 120.203125 83.492188 C 119.46875 83.605469 118.367188 81.855469 117.578125 80.820312 C 117.308594 80.460938 117.519531 79.742188 117.519531 79.191406 C 117.519531 68.21875 117.441406 57.242188 117.617188 46.269531 C 117.640625 44.792969 118.925781 43.332031 119.628906 41.871094 C 121.003906 42.722656 122.859375 43.257812 123.675781 44.476562 C 128.59375 51.84375 133.273438 59.371094 138.039062 66.839844 C 138.671875 67.828125 139.351562 68.800781 140.691406 69.652344 C 140.691406 68.058594 140.691406 66.472656 140.691406 64.878906 C 140.691406 58.445312 140.710938 52.019531 140.675781 45.59375 C 140.660156 43.613281 141.128906 41.886719 143.386719 41.777344 C 145.640625 41.664062 146.410156 43.289062 146.410156 45.300781 C 146.425781 56.941406 146.476562 68.578125 146.320312 80.21875 C 146.308594 81.355469 145.089844 83.339844 144.304688 83.398438 C 143.105469 83.5 141.3125 82.589844 140.617188 81.546875 C 135.652344 74.078125 130.910156 66.464844 126.082031 58.902344 C 125.4375 57.886719 124.753906 56.894531 124.085938 55.898438 C 123.851562 55.957031 123.617188 56.023438 123.382812 56.082031 Z M 123.386719 56.082031 "/><path style=" stroke:none;fill-rule:nonzero;fill:#e8e8e8;fill-opacity:1;" d="M 143.722656 111.574219 C 146.902344 111.574219 149.882812 111.605469 152.859375 111.566406 C 154.914062 111.546875 156.523438 112.332031 156.535156 114.484375 C 156.550781 116.628906 154.9375 117.464844 152.894531 117.457031 C 149.914062 117.457031 146.925781 117.457031 143.6875 117.457031 L 143.6875 129.714844 C 149.496094 129.714844 155.230469 129.707031 160.957031 129.71875 C 162.058594 129.71875 163.375 129.492188 164.210938 130 C 165.179688 130.585938 166.363281 131.910156 166.296875 132.835938 C 166.238281 133.765625 164.785156 135.34375 163.910156 135.367188 C 156.042969 135.566406 148.171875 135.59375 140.316406 135.34375 C 139.367188 135.316406 137.707031 133.363281 137.695312 132.277344 C 137.503906 120.417969 137.554688 108.558594 137.597656 96.695312 C 137.605469 94.589844 138.808594 93.472656 140.992188 93.480469 C 148.304688 93.496094 155.625 93.363281 162.933594 93.605469 C 164.144531 93.640625 166.082031 95.109375 166.3125 96.203125 C 166.757812 98.335938 164.96875 99.238281 162.941406 99.246094 C 156.625 99.261719 150.316406 99.246094 143.722656 99.246094 L 143.722656 111.582031 Z M 143.722656 111.574219 "/><path style=" stroke:none;fill-rule:nonzero;fill:#e8e8e8;fill-opacity:1;" d="M 200.449219 298.480469 C 215.179688 298.480469 229.914062 298.480469 244.636719 298.480469 C 245.523438 298.480469 246.582031 298.199219 247.25 298.589844 C 248.269531 299.175781 249.777344 300.277344 249.71875 301.070312 C 249.644531 302.160156 248.445312 303.347656 247.449219 304.121094 C 246.875 304.558594 245.738281 304.316406 244.855469 304.316406 C 215.175781 304.316406 185.5 304.316406 155.816406 304.316406 C 155.488281 304.316406 155.15625 304.316406 154.820312 304.316406 C 152.734375 304.316406 150.859375 303.738281 150.898438 301.300781 C 150.941406 298.839844 152.835938 298.457031 154.921875 298.457031 C 170.09375 298.488281 185.265625 298.472656 200.4375 298.472656 Z M 200.449219 298.480469 "/><path style=" stroke:none;fill-rule:nonzero;fill:#e8e8e8;fill-opacity:1;" d="M 198.621094 174.566406 C 184.007812 174.566406 169.394531 174.566406 154.78125 174.566406 C 153.679688 174.566406 152.367188 174.816406 151.527344 174.316406 C 150.558594 173.746094 149.40625 172.4375 149.449219 171.503906 C 149.496094 170.566406 150.785156 169.492188 151.777344 168.867188 C 152.417969 168.464844 153.503906 168.734375 154.386719 168.734375 C 183.941406 168.734375 213.5 168.734375 243.058594 168.734375 C 243.835938 168.734375 244.78125 168.472656 245.339844 168.824219 C 246.433594 169.507812 248.203125 170.71875 248.074219 171.402344 C 247.84375 172.578125 246.507812 173.6875 245.390625 174.472656 C 244.789062 174.890625 243.675781 174.589844 242.785156 174.589844 C 228.0625 174.589844 213.339844 174.589844 198.613281 174.589844 Z M 198.621094 174.566406 "/><path style=" stroke:none;fill-rule:nonzero;fill:#e8e8e8;fill-opacity:1;" d="M 156.859375 47.546875 L 156.859375 59.78125 C 159.894531 59.78125 162.75 59.78125 165.597656 59.78125 C 167.648438 59.78125 169.628906 60.191406 169.695312 62.632812 C 169.769531 65.3125 167.742188 65.699219 165.523438 65.648438 C 162.765625 65.582031 159.996094 65.632812 156.949219 65.632812 L 156.949219 78.089844 C 158.035156 78.089844 159.203125 78.089844 160.363281 78.089844 C 165.6875 78.089844 171.011719 77.949219 176.320312 78.222656 C 177.449219 78.28125 178.507812 79.816406 179.601562 80.671875 C 178.683594 81.703125 177.789062 83.582031 176.839844 83.609375 C 169.085938 83.847656 161.324219 83.847656 153.570312 83.597656 C 152.617188 83.566406 150.941406 81.648438 150.925781 80.585938 C 150.734375 68.726562 150.785156 56.859375 150.816406 44.992188 C 150.816406 42.640625 152.253906 41.679688 154.496094 41.6875 C 161.699219 41.703125 168.910156 41.570312 176.105469 41.8125 C 177.304688 41.855469 179.183594 43.355469 179.441406 44.476562 C 179.933594 46.628906 178.132812 47.539062 176.105469 47.546875 C 169.800781 47.578125 163.492188 47.554688 156.84375 47.554688 Z M 156.859375 47.546875 "/><path style=" stroke:none;fill-rule:nonzero;fill:#e8e8e8;fill-opacity:1;" d="M 200.339844 283.742188 C 214.976562 283.742188 229.613281 283.742188 244.246094 283.742188 C 245.136719 283.742188 246.214844 283.441406 246.867188 283.835938 C 248.019531 284.542969 248.910156 285.664062 249.914062 286.621094 C 248.894531 287.558594 247.960938 288.640625 246.808594 289.382812 C 246.257812 289.742188 245.296875 289.476562 244.519531 289.476562 C 215.136719 289.476562 185.757812 289.484375 156.375 289.460938 C 154.136719 289.460938 151.050781 290.070312 150.964844 286.714844 C 150.867188 283.015625 154.121094 283.761719 156.441406 283.757812 C 171.078125 283.71875 185.710938 283.734375 200.347656 283.734375 Z M 200.339844 283.742188 "/><path style=" stroke:none;fill-rule:nonzero;fill:#e8e8e8;fill-opacity:1;" d="M 191.390625 189.320312 C 179.308594 189.320312 167.222656 189.320312 155.140625 189.320312 C 154.472656 189.320312 153.8125 189.3125 153.144531 189.320312 C 151.023438 189.347656 149.257812 188.777344 149.324219 186.265625 C 149.382812 183.964844 151.089844 183.429688 153.046875 183.429688 C 158.8125 183.429688 164.578125 183.429688 170.34375 183.429688 C 189.40625 183.429688 208.476562 183.429688 227.539062 183.429688 C 228.429688 183.429688 229.316406 183.429688 230.199219 183.4375 C 232.246094 183.460938 234.011719 184.390625 233.628906 186.464844 C 233.421875 187.578125 231.535156 188.496094 230.257812 189.246094 C 229.675781 189.585938 228.738281 189.3125 227.964844 189.3125 C 215.777344 189.3125 203.578125 189.3125 191.390625 189.3125 Z M 191.390625 189.320312 "/><path style=" stroke:none;fill-rule:nonzero;fill:#e8e8e8;fill-opacity:1;" d="M 120.695312 111.605469 C 123.265625 106.859375 125.628906 102.519531 127.984375 98.171875 C 128.515625 97.195312 128.800781 95.910156 129.609375 95.316406 C 130.695312 94.515625 132.179688 94.25 133.492188 93.753906 C 133.867188 95.191406 134.726562 96.710938 134.507812 98.054688 C 134.25 99.605469 133.046875 100.992188 132.257812 102.460938 C 131.472656 103.921875 130.828125 105.488281 129.886719 106.839844 C 124.769531 114.195312 122.410156 122.230469 123.542969 131.21875 C 123.816406 133.355469 123.375 135.46875 120.621094 135.425781 C 118.101562 135.390625 117.527344 133.347656 117.816406 131.371094 C 119.253906 121.570312 115.796875 113.167969 110.664062 105.179688 C 109.347656 103.136719 108.355469 100.882812 107.160156 98.769531 C 106.125 96.945312 105.609375 95.089844 107.785156 93.882812 C 109.929688 92.703125 111.257812 94.046875 112.257812 95.925781 C 114.949219 101 117.703125 106.039062 120.699219 111.597656 Z M 120.695312 111.605469 "/><path style=" stroke:none;fill-rule:nonzero;fill:#e8e8e8;fill-opacity:1;" d="M 181.300781 234.042969 C 172.546875 234.042969 163.785156 234.019531 155.03125 234.054688 C 152.984375 234.0625 150.992188 233.804688 150.910156 231.332031 C 150.824219 228.621094 152.929688 228.269531 155.089844 228.269531 C 172.496094 228.269531 189.898438 228.269531 207.292969 228.269531 C 209.277344 228.269531 211.320312 228.46875 211.390625 231.046875 C 211.464844 233.835938 209.402344 234.054688 207.234375 234.046875 C 198.59375 234.027344 189.941406 234.042969 181.300781 234.042969 Z M 181.300781 234.042969 "/><path style=" stroke:none;fill-rule:nonzero;fill:#e8e8e8;fill-opacity:1;" d="M 113.386719 179.574219 C 120.738281 172.945312 127.617188 166.722656 134.507812 160.511719 C 135 160.070312 135.4375 159.335938 135.996094 159.242188 C 137.4375 158.992188 139.382812 158.390625 140.300781 159.066406 C 142.078125 160.363281 141.292969 162.179688 139.792969 163.542969 C 139.472656 163.84375 139.148438 164.148438 138.824219 164.449219 C 131.453125 171.121094 124.035156 177.753906 116.722656 184.496094 C 114.371094 186.660156 112.410156 186.773438 110.242188 184.339844 C 108.628906 182.527344 106.835938 180.875 105.101562 179.164062 C 103.613281 177.6875 102.710938 176.058594 104.507812 174.308594 C 106.167969 172.703125 107.753906 173.515625 109.105469 174.941406 C 110.472656 176.378906 111.800781 177.855469 113.394531 179.582031 Z M 113.386719 179.574219 "/><path style=" stroke:none;fill-rule:nonzero;fill:#e8e8e8;fill-opacity:1;" d="M 113.394531 239.019531 C 120.695312 232.425781 127.574219 226.214844 134.457031 220.007812 C 135.191406 219.339844 135.871094 218.347656 136.722656 218.144531 C 137.847656 217.878906 139.714844 217.804688 140.191406 218.449219 C 140.835938 219.316406 140.902344 221.144531 140.417969 222.1875 C 139.859375 223.394531 138.441406 224.214844 137.378906 225.175781 C 130.578125 231.332031 123.769531 237.484375 116.957031 243.632812 C 113.726562 246.546875 113.042969 246.511719 109.871094 243.351562 C 108.070312 241.5625 106.035156 239.921875 104.589844 237.882812 C 103.929688 236.949219 104.429688 235.195312 104.398438 233.804688 C 105.785156 233.835938 107.527344 233.34375 108.488281 233.996094 C 110.265625 235.214844 111.585938 237.101562 113.386719 239.019531 Z M 113.394531 239.019531 "/><path style=" stroke:none;fill-rule:nonzero;fill:#e8e8e8;fill-opacity:1;" d="M 113.128906 298.722656 C 120.628906 291.9375 127.273438 285.921875 133.925781 279.910156 C 134.828125 279.09375 135.667969 277.910156 136.722656 277.632812 C 137.898438 277.324219 139.65625 277.457031 140.476562 278.175781 C 141.070312 278.695312 140.683594 280.511719 140.453125 281.699219 C 140.351562 282.234375 139.582031 282.65625 139.089844 283.101562 C 131.703125 289.792969 124.3125 296.488281 116.90625 303.148438 C 113.746094 305.992188 113.054688 305.949219 110.03125 302.945312 C 108.222656 301.152344 106.203125 299.5 104.738281 297.460938 C 104.039062 296.496094 104.40625 294.765625 104.296875 293.375 C 105.773438 293.382812 107.652344 292.832031 108.628906 293.53125 C 110.363281 294.777344 111.535156 296.789062 113.144531 298.707031 Z M 113.128906 298.722656 "/><path style=" stroke:none;fill-rule:nonzero;fill:#e8e8e8;fill-opacity:1;" d="M 245.90625 212.78125 C 243.011719 212.773438 241.707031 210.550781 242.828125 208.523438 C 243.25 207.765625 243.953125 207.164062 244.578125 206.539062 C 265.71875 185.382812 286.867188 164.226562 308.023438 143.078125 C 308.648438 142.453125 309.289062 141.558594 310.035156 141.417969 C 311.085938 141.21875 312.613281 141.242188 313.269531 141.867188 C 313.921875 142.492188 313.996094 144.019531 313.839844 145.074219 C 313.730469 145.816406 312.847656 146.492188 312.226562 147.117188 C 291.003906 168.355469 269.773438 189.589844 248.519531 210.800781 C 247.625 211.6875 246.492188 212.339844 245.90625 212.78125 Z M 245.90625 212.78125 "/><path style=" stroke:none;fill-rule:nonzero;fill:#e8e8e8;fill-opacity:1;" d="M 324.871094 153.917969 C 324.078125 155.0625 323.59375 156.0625 322.851562 156.804688 C 301.328125 178.371094 279.765625 199.902344 258.230469 221.453125 C 256.738281 222.945312 255.113281 223.894531 253.382812 222.101562 C 251.625 220.273438 252.789062 218.707031 254.242188 217.253906 C 275.714844 195.789062 297.15625 174.300781 318.695312 152.902344 C 319.621094 151.984375 321.339844 151.566406 322.703125 151.546875 C 323.363281 151.53125 324.046875 152.96875 324.871094 153.925781 Z M 324.871094 153.917969 "/></g></svg>