<svg xmlns="http://www.w3.org/2000/svg" xmlns:xlink="http://www.w3.org/1999/xlink" width="500" zoomAndPan="magnify" viewBox="0 0 375 374.999991" height="500" preserveAspectRatio="xMidYMid meet" version="1.2"><defs><clipPath id="55f04caa11"><path d="M 112.5 113 L 227 113 L 227 262.21875 L 112.5 262.21875 Z M 112.5 113 "/></clipPath></defs><g id="172698227e"><g clip-rule="nonzero" clip-path="url(#55f04caa11)"><path style=" stroke:none;fill-rule:nonzero;fill:#e8e8e8;fill-opacity:1;" d="M 131.367188 115.628906 C 134.78125 118.6875 135.59375 122.257812 135.589844 126.296875 C 135.535156 167.019531 135.535156 207.742188 135.589844 248.46875 C 135.597656 252.589844 134.902344 256.296875 131.457031 259.320312 C 132.164062 259.367188 132.574219 259.414062 132.988281 259.414062 C 160.195312 259.417969 187.410156 259.421875 214.617188 259.414062 C 220.441406 259.414062 224.21875 255.625 224.222656 249.777344 C 224.234375 237.453125 224.222656 225.128906 224.230469 212.800781 C 224.230469 212.308594 224.101562 211.734375 224.308594 211.34375 C 224.550781 210.898438 225.089844 210.347656 225.511719 210.34375 C 225.933594 210.335938 226.480469 210.867188 226.757812 211.304688 C 226.960938 211.621094 226.839844 212.164062 226.839844 212.609375 C 226.839844 224.933594 226.84375 237.261719 226.839844 249.585938 C 226.832031 257.066406 221.90625 262.019531 214.433594 262.023438 C 184.367188 262.03125 154.296875 262.03125 124.226562 262.023438 C 117.855469 262.023438 112.769531 256.996094 112.667969 250.625 C 112.640625 249.046875 112.648438 247.46875 112.664062 245.890625 C 112.695312 242.367188 114.929688 240.0625 118.484375 240.003906 C 122.035156 239.941406 125.582031 239.988281 129.132812 239.988281 C 130.359375 239.988281 131.585938 239.988281 132.914062 239.988281 L 132.914062 135.058594 C 131.429688 135.058594 130.011719 135.058594 128.59375 135.058594 C 125.339844 135.058594 122.085938 135.078125 118.835938 135.050781 C 114.914062 135.023438 112.664062 132.785156 112.667969 128.90625 C 112.667969 126.835938 112.511719 124.734375 112.828125 122.707031 C 113.714844 116.949219 118.445312 113.085938 124.484375 113.027344 C 129.265625 112.984375 134.050781 113.019531 138.828125 113.019531 C 164.015625 113.019531 189.207031 113.015625 214.394531 113.019531 C 220.394531 113.019531 224.9375 116.257812 226.371094 121.617188 C 226.683594 122.789062 226.820312 124.046875 226.820312 125.261719 C 226.851562 139.214844 226.839844 153.171875 226.839844 167.121094 C 226.839844 167.515625 226.957031 167.996094 226.777344 168.285156 C 226.492188 168.734375 225.964844 169.386719 225.605469 169.347656 C 225.125 169.292969 224.578125 168.742188 224.300781 168.261719 C 224.085938 167.890625 224.230469 167.300781 224.230469 166.808594 C 224.230469 153.054688 224.230469 139.296875 224.230469 125.542969 C 224.230469 119.292969 220.558594 115.632812 214.308594 115.632812 C 187.296875 115.632812 160.285156 115.632812 133.273438 115.632812 L 131.371094 115.632812 Z M 132.855469 132.457031 C 132.855469 129.222656 133.105469 126.15625 132.796875 123.148438 C 132.332031 118.636719 128.246094 115.453125 123.671875 115.640625 C 119.242188 115.824219 115.546875 119.414062 115.296875 123.867188 C 115.195312 125.734375 115.214844 127.609375 115.273438 129.480469 C 115.335938 131.21875 116.4375 132.410156 118.15625 132.433594 C 123.03125 132.5 127.90625 132.457031 132.851562 132.457031 Z M 132.757812 242.625 C 127.832031 242.625 122.820312 242.558594 117.808594 242.664062 C 116.28125 242.695312 115.316406 243.976562 115.273438 245.621094 C 115.21875 247.488281 115.195312 249.367188 115.304688 251.234375 C 115.554688 255.554688 119.117188 259.089844 123.429688 259.398438 C 127.769531 259.707031 132.085938 256.796875 132.667969 252.570312 C 133.113281 249.351562 132.757812 246.019531 132.757812 242.625 Z M 132.757812 242.625 "/></g><path style=" stroke:none;fill-rule:nonzero;fill:#e8e8e8;fill-opacity:1;" d="M 200.828125 212.25 C 201.652344 207.742188 202.503906 203.5 203.167969 199.222656 C 203.484375 197.1875 204.261719 195.621094 205.757812 194.136719 C 218.574219 181.433594 231.304688 168.648438 244.066406 155.886719 C 247.238281 152.714844 250.195312 152.726562 253.378906 155.910156 C 255.542969 158.070312 257.714844 160.222656 259.863281 162.398438 C 262.480469 165.050781 262.503906 168.25 259.871094 170.886719 C 246.601562 184.183594 233.320312 197.46875 220.015625 210.726562 C 219.5 211.242188 218.71875 211.640625 217.996094 211.78125 C 212.875 212.773438 207.738281 213.691406 202.601562 214.625 C 202.167969 214.703125 201.71875 214.726562 201.277344 214.730469 C 192.011719 214.773438 182.742188 214.804688 173.476562 214.84375 C 173.328125 214.84375 173.179688 214.84375 173.03125 214.84375 C 172.097656 214.863281 171.273438 214.625 171.300781 213.519531 C 171.328125 212.515625 172.109375 212.304688 172.988281 212.300781 C 175.453125 212.300781 177.917969 212.257812 180.378906 212.253906 C 187.128906 212.246094 193.875 212.253906 200.820312 212.253906 Z M 218.40625 208.308594 C 230.085938 196.621094 241.742188 184.96875 253.304688 173.398438 C 249.558594 169.644531 245.703125 165.789062 242.019531 162.097656 C 230.421875 173.691406 218.742188 185.367188 207.105469 197.003906 C 210.8125 200.714844 214.644531 204.542969 218.40625 208.304688 Z M 243.878906 159.597656 C 247.914062 163.636719 251.765625 167.496094 255.667969 171.398438 C 255.789062 171.289062 256.011719 171.101562 256.21875 170.898438 C 256.949219 170.164062 257.710938 169.457031 258.390625 168.679688 C 259.46875 167.441406 259.546875 165.828125 258.421875 164.660156 C 255.898438 162.027344 253.320312 159.445312 250.6875 156.925781 C 249.476562 155.765625 247.929688 155.839844 246.675781 156.953125 C 245.679688 157.828125 244.746094 158.777344 243.878906 159.597656 Z M 215.527344 209.652344 C 212.214844 206.339844 209 203.128906 205.714844 199.84375 C 205.011719 203.742188 204.296875 207.703125 203.546875 211.820312 C 207.703125 211.066406 211.609375 210.359375 215.527344 209.652344 Z M 215.527344 209.652344 "/><path style=" stroke:none;fill-rule:nonzero;fill:#e8e8e8;fill-opacity:1;" d="M 190.4375 137.734375 C 191.929688 136.222656 192.734375 134.597656 192.578125 132.429688 C 192.390625 129.878906 192.542969 127.3125 192.527344 124.746094 C 192.523438 123.804688 192.566406 122.8125 193.769531 122.796875 C 195.054688 122.777344 195.128906 123.824219 195.128906 124.8125 C 195.125 127.375 195.273438 129.949219 195.082031 132.496094 C 194.917969 134.671875 195.765625 136.265625 197.207031 137.773438 C 198.53125 136.261719 199.53125 134.746094 199.355469 132.527344 C 199.144531 129.882812 199.316406 127.210938 199.300781 124.550781 C 199.292969 123.621094 199.480469 122.777344 200.582031 122.789062 C 201.679688 122.796875 201.855469 123.671875 201.855469 124.582031 C 201.855469 127.980469 201.890625 131.382812 201.828125 134.78125 C 201.8125 135.421875 201.535156 136.125 201.195312 136.679688 C 200.421875 137.933594 199.539062 139.125 198.679688 140.324219 C 197.570312 141.886719 196.808594 141.859375 195.667969 140.25 C 195.097656 139.449219 194.53125 138.648438 193.835938 137.664062 C 193.152344 138.617188 192.542969 139.46875 191.925781 140.320312 C 190.828125 141.835938 190.058594 141.851562 188.988281 140.371094 C 188.960938 140.332031 188.9375 140.285156 188.902344 140.25 C 186.316406 137.464844 185.230469 134.242188 185.714844 130.414062 C 185.945312 128.574219 185.765625 126.675781 185.75 124.804688 C 185.738281 123.804688 185.808594 122.765625 187.09375 122.792969 C 188.261719 122.816406 188.375 123.789062 188.371094 124.746094 C 188.359375 127.210938 188.503906 129.679688 188.328125 132.132812 C 188.167969 134.367188 188.777344 136.179688 190.4375 137.734375 Z M 190.4375 137.734375 "/><path style=" stroke:none;fill-rule:nonzero;fill:#e8e8e8;fill-opacity:1;" d="M 162.761719 189.929688 C 162.722656 192.886719 160.097656 194.804688 157.917969 193.476562 C 155.242188 191.839844 153.070312 191.886719 150.386719 193.476562 C 148.035156 194.871094 144.957031 192.574219 145.628906 189.917969 C 146.402344 186.863281 145.542969 184.917969 143.316406 182.890625 C 141.222656 180.984375 142.484375 177.453125 145.324219 177.210938 C 148.269531 176.964844 149.949219 175.785156 151.089844 173.023438 C 152.207031 170.324219 155.789062 170.40625 157.261719 172.945312 C 157.753906 173.792969 158.140625 174.703125 158.578125 175.585938 C 158.980469 176.390625 159.238281 177.238281 158.238281 177.75 C 157.25 178.257812 156.6875 177.617188 156.289062 176.773438 C 155.929688 176.019531 155.582031 175.253906 155.179688 174.523438 C 154.527344 173.347656 153.808594 173.335938 153.152344 174.5 C 152.71875 175.269531 152.34375 176.074219 151.972656 176.878906 C 151.308594 178.300781 150.214844 179.078125 148.65625 179.238281 C 148.117188 179.292969 147.5625 179.339844 147.054688 179.503906 C 146.347656 179.730469 145.675781 180.058594 144.992188 180.34375 C 145.394531 180.972656 145.664062 181.777344 146.226562 182.203125 C 148.578125 183.992188 149.230469 186.222656 148.300781 188.980469 C 148.210938 189.257812 148.1875 189.5625 148.171875 189.855469 C 148.097656 191.121094 148.636719 191.527344 149.769531 191.011719 C 150.53125 190.664062 151.269531 190.265625 151.992188 189.84375 C 153.449219 188.992188 154.871094 189 156.324219 189.855469 C 157.046875 190.277344 157.789062 190.671875 158.546875 191.011719 C 159.664062 191.515625 160.273438 191.070312 160.128906 189.855469 C 160.015625 188.882812 159.691406 187.90625 159.726562 186.941406 C 159.746094 186.402344 160.191406 185.609375 160.648438 185.421875 C 161.464844 185.082031 162.023438 185.667969 162.175781 186.53125 C 162.398438 187.789062 162.609375 189.050781 162.757812 189.921875 Z M 162.761719 189.929688 "/><path style=" stroke:none;fill-rule:nonzero;fill:#e8e8e8;fill-opacity:1;" d="M 162.738281 242.578125 C 162.839844 245.753906 160.113281 247.746094 157.734375 246.28125 C 155.207031 244.726562 153.085938 244.523438 150.648438 246.28125 C 149.488281 247.121094 148.082031 246.859375 146.914062 245.976562 C 145.796875 245.128906 145.167969 243.890625 145.59375 242.597656 C 146.515625 239.796875 145.726562 237.863281 143.503906 235.953125 C 141.207031 233.980469 142.320312 230.359375 145.339844 230.074219 C 148.300781 229.796875 149.945312 228.613281 151.097656 225.878906 C 152.234375 223.179688 155.78125 223.261719 157.261719 225.8125 C 157.777344 226.703125 158.1875 227.660156 158.644531 228.585938 C 159.035156 229.375 159.132812 230.183594 158.234375 230.625 C 157.367188 231.054688 156.742188 230.582031 156.351562 229.75 C 155.953125 228.90625 155.558594 228.054688 155.085938 227.246094 C 154.511719 226.261719 153.589844 226.21875 153.238281 227.273438 C 152.058594 230.816406 149.710938 232.5 145.988281 232.53125 C 144.878906 232.542969 144.523438 233.601562 145.414062 234.257812 C 148.402344 236.46875 149.332031 239.199219 148.214844 242.769531 C 147.875 243.851562 148.617188 244.308594 149.691406 243.914062 C 149.78125 243.882812 149.871094 243.832031 149.949219 243.777344 C 152.738281 241.683594 155.515625 241.660156 158.347656 243.730469 C 158.699219 243.984375 159.425781 244.015625 159.8125 243.824219 C 160.0625 243.699219 160.117188 242.964844 160.078125 242.519531 C 160.007812 241.589844 159.671875 240.660156 159.730469 239.75 C 159.765625 239.207031 160.347656 238.703125 160.683594 238.179688 C 161.175781 238.558594 161.945312 238.835938 162.105469 239.320312 C 162.488281 240.472656 162.589844 241.722656 162.742188 242.574219 Z M 162.738281 242.578125 "/><path style=" stroke:none;fill-rule:nonzero;fill:#e8e8e8;fill-opacity:1;" d="M 162.734375 216.152344 C 162.839844 219.304688 160.136719 221.289062 157.75 219.847656 C 155.21875 218.316406 153.070312 218.097656 150.640625 219.855469 C 149.511719 220.667969 148.164062 220.425781 147.027344 219.625 C 145.835938 218.785156 145.148438 217.511719 145.597656 216.15625 C 146.535156 213.339844 145.808594 211.292969 143.46875 209.542969 C 142.324219 208.683594 142.082031 207.308594 142.5625 205.910156 C 143.039062 204.515625 144.066406 203.765625 145.488281 203.515625 C 145.535156 203.503906 145.585938 203.5 145.632812 203.503906 C 148.320312 203.605469 150.023438 202.429688 150.859375 199.804688 C 151.324219 198.332031 152.53125 197.535156 154.152344 197.535156 C 155.777344 197.535156 156.8125 198.390625 157.484375 199.800781 C 157.90625 200.6875 158.492188 201.53125 158.726562 202.464844 C 158.855469 202.980469 158.40625 203.636719 158.214844 204.230469 C 157.636719 204.015625 156.851562 203.960938 156.523438 203.542969 C 155.929688 202.789062 155.636719 201.796875 155.160156 200.9375 C 154.558594 199.859375 153.597656 199.765625 153.226562 200.863281 C 152.046875 204.3125 149.804688 206.042969 146.113281 206.105469 C 144.789062 206.128906 144.597656 206.988281 145.492188 207.988281 C 145.625 208.136719 145.757812 208.289062 145.914062 208.402344 C 148.492188 210.230469 149.273438 212.601562 148.292969 215.632812 C 148.117188 216.179688 148.457031 216.894531 148.5625 217.53125 C 149.152344 217.410156 149.765625 217.351562 150.324219 217.140625 C 150.964844 216.898438 151.566406 216.550781 152.164062 216.203125 C 153.472656 215.441406 154.769531 215.429688 156.09375 216.171875 C 156.777344 216.554688 157.460938 216.972656 158.191406 217.25 C 158.691406 217.4375 159.46875 217.65625 159.761719 217.417969 C 160.078125 217.160156 160.0625 216.382812 160.035156 215.839844 C 159.996094 215.054688 159.65625 214.261719 159.742188 213.507812 C 159.816406 212.90625 160.335938 212.355469 160.660156 211.785156 C 161.171875 212.195312 161.953125 212.503906 162.136719 213.027344 C 162.523438 214.125 162.597656 215.335938 162.738281 216.152344 Z M 162.734375 216.152344 "/><path style=" stroke:none;fill-rule:nonzero;fill:#e8e8e8;fill-opacity:1;" d="M 189.609375 156.4375 C 187.191406 156.4375 184.980469 156.4375 182.769531 156.4375 C 182.535156 156.4375 182.296875 156.480469 181.914062 156.515625 C 181.914062 158.582031 181.902344 160.585938 181.917969 162.589844 C 181.921875 163.492188 181.828125 164.375 180.707031 164.425781 C 179.492188 164.480469 179.316406 163.5625 179.316406 162.601562 C 179.316406 158.519531 179.277344 154.429688 179.332031 150.347656 C 179.371094 147.421875 181.054688 145.8125 183.96875 145.773438 C 185.296875 145.757812 186.625 145.746094 187.953125 145.785156 C 190.292969 145.855469 192.085938 147.375 192.152344 149.695312 C 192.285156 154.125 192.246094 158.558594 192.152344 162.984375 C 192.144531 163.480469 191.328125 163.964844 190.886719 164.453125 C 190.457031 163.953125 189.699219 163.476562 189.660156 162.949219 C 189.519531 160.851562 189.601562 158.738281 189.601562 156.4375 Z M 189.597656 153.761719 C 189.597656 152.4375 189.617188 151.261719 189.597656 150.09375 C 189.578125 148.957031 188.929688 148.382812 187.832031 148.359375 C 186.460938 148.328125 185.085938 148.339844 183.710938 148.359375 C 182.6875 148.378906 182 148.894531 181.941406 149.941406 C 181.871094 151.195312 181.925781 152.457031 181.925781 153.765625 L 189.597656 153.765625 Z M 189.597656 153.761719 "/><path style=" stroke:none;fill-rule:nonzero;fill:#e8e8e8;fill-opacity:1;" d="M 196.625 156.4375 C 196.625 158.628906 196.625 160.597656 196.625 162.566406 C 196.625 163.523438 196.476562 164.453125 195.265625 164.429688 C 194.148438 164.40625 194.015625 163.539062 194.015625 162.625 C 194.027344 157.597656 194.035156 152.570312 194.011719 147.542969 C 194.003906 146.296875 194.515625 145.742188 195.777344 145.761719 C 198.042969 145.796875 200.3125 145.738281 202.578125 145.789062 C 205.078125 145.839844 206.714844 147.441406 206.828125 149.953125 C 206.914062 151.820312 207.128906 153.742188 205.507812 155.28125 C 207.550781 157.6875 206.746094 160.539062 206.777344 163.242188 C 206.78125 163.640625 206.007812 164.050781 205.59375 164.453125 C 205.171875 164.003906 204.464844 163.597656 204.390625 163.101562 C 204.210938 161.894531 204.339844 160.644531 204.320312 159.414062 C 204.285156 157.265625 203.484375 156.457031 201.367188 156.441406 C 199.847656 156.433594 198.332031 156.441406 196.625 156.441406 Z M 196.710938 153.816406 C 198.59375 153.816406 200.402344 153.796875 202.210938 153.824219 C 203.203125 153.835938 204.097656 153.554688 204.203125 152.511719 C 204.34375 151.199219 204.804688 149.746094 203.542969 148.648438 C 203.402344 148.527344 203.1875 148.433594 203.007812 148.433594 C 200.917969 148.417969 198.832031 148.421875 196.714844 148.421875 L 196.714844 153.816406 Z M 196.710938 153.816406 "/><path style=" stroke:none;fill-rule:nonzero;fill:#e8e8e8;fill-opacity:1;" d="M 159.074219 129.144531 C 159.074219 132.382812 159.074219 135.625 159.074219 138.859375 C 159.074219 139.304688 159.222656 139.847656 159.015625 140.164062 C 158.691406 140.664062 158.167969 141.257812 157.65625 141.335938 C 157.332031 141.382812 156.839844 140.605469 156.492188 140.144531 C 156.371094 139.984375 156.464844 139.664062 156.464844 139.421875 C 156.464844 134.542969 156.429688 129.660156 156.507812 124.785156 C 156.515625 124.128906 157.089844 123.476562 157.402344 122.828125 C 158.011719 123.207031 158.839844 123.445312 159.199219 123.988281 C 161.390625 127.261719 163.46875 130.609375 165.585938 133.929688 C 165.867188 134.371094 166.171875 134.800781 166.765625 135.179688 C 166.765625 134.472656 166.765625 133.765625 166.765625 133.058594 C 166.765625 130.195312 166.777344 127.339844 166.761719 124.484375 C 166.753906 123.601562 166.960938 122.835938 167.964844 122.785156 C 168.96875 122.734375 169.308594 123.457031 169.308594 124.351562 C 169.316406 129.527344 169.339844 134.703125 169.269531 139.878906 C 169.265625 140.382812 168.722656 141.265625 168.371094 141.292969 C 167.839844 141.335938 167.042969 140.933594 166.734375 140.46875 C 164.527344 137.148438 162.417969 133.761719 160.273438 130.398438 C 159.984375 129.949219 159.679688 129.507812 159.382812 129.0625 C 159.28125 129.089844 159.175781 129.121094 159.070312 129.144531 Z M 159.074219 129.144531 "/><path style=" stroke:none;fill-rule:nonzero;fill:#e8e8e8;fill-opacity:1;" d="M 168.113281 153.820312 C 169.527344 153.820312 170.855469 153.832031 172.175781 153.816406 C 173.089844 153.808594 173.804688 154.15625 173.8125 155.113281 C 173.820312 156.066406 173.101562 156.4375 172.191406 156.4375 C 170.867188 156.4375 169.539062 156.4375 168.097656 156.4375 L 168.097656 161.886719 C 170.679688 161.886719 173.230469 161.882812 175.777344 161.886719 C 176.269531 161.886719 176.851562 161.785156 177.226562 162.011719 C 177.65625 162.273438 178.179688 162.863281 178.152344 163.273438 C 178.125 163.6875 177.480469 164.390625 177.089844 164.398438 C 173.59375 164.488281 170.09375 164.5 166.601562 164.390625 C 166.179688 164.375 165.441406 163.507812 165.433594 163.023438 C 165.347656 157.75 165.371094 152.476562 165.390625 147.203125 C 165.394531 146.269531 165.929688 145.773438 166.898438 145.773438 C 170.152344 145.78125 173.40625 145.722656 176.65625 145.832031 C 177.195312 145.847656 178.058594 146.5 178.160156 146.984375 C 178.359375 147.933594 177.5625 148.335938 176.660156 148.339844 C 173.851562 148.34375 171.046875 148.339844 168.113281 148.339844 L 168.113281 153.824219 Z M 168.113281 153.820312 "/><path style=" stroke:none;fill-rule:nonzero;fill:#e8e8e8;fill-opacity:1;" d="M 193.339844 236.925781 C 199.886719 236.925781 206.4375 236.925781 212.984375 236.925781 C 213.378906 236.925781 213.847656 236.800781 214.148438 236.972656 C 214.601562 237.234375 215.269531 237.722656 215.242188 238.078125 C 215.210938 238.558594 214.679688 239.089844 214.234375 239.433594 C 213.980469 239.628906 213.472656 239.519531 213.082031 239.519531 C 199.882812 239.519531 186.691406 239.519531 173.492188 239.519531 C 173.34375 239.519531 173.199219 239.519531 173.046875 239.519531 C 172.121094 239.519531 171.289062 239.261719 171.304688 238.179688 C 171.324219 237.085938 172.167969 236.914062 173.09375 236.914062 C 179.839844 236.925781 186.585938 236.921875 193.332031 236.921875 Z M 193.339844 236.925781 "/><path style=" stroke:none;fill-rule:nonzero;fill:#e8e8e8;fill-opacity:1;" d="M 192.523438 181.828125 C 186.027344 181.828125 179.53125 181.828125 173.03125 181.828125 C 172.542969 181.828125 171.957031 181.941406 171.585938 181.71875 C 171.15625 181.460938 170.640625 180.882812 170.660156 180.46875 C 170.679688 180.050781 171.257812 179.570312 171.695312 179.292969 C 171.980469 179.113281 172.464844 179.234375 172.855469 179.234375 C 185.996094 179.234375 199.140625 179.234375 212.28125 179.234375 C 212.628906 179.234375 213.050781 179.117188 213.296875 179.273438 C 213.785156 179.578125 214.570312 180.117188 214.511719 180.421875 C 214.410156 180.945312 213.816406 181.4375 213.320312 181.785156 C 213.054688 181.972656 212.554688 181.839844 212.160156 181.839844 C 205.613281 181.839844 199.066406 181.839844 192.523438 181.839844 Z M 192.523438 181.828125 "/><path style=" stroke:none;fill-rule:nonzero;fill:#e8e8e8;fill-opacity:1;" d="M 173.957031 125.351562 L 173.957031 130.792969 C 175.304688 130.792969 176.574219 130.792969 177.839844 130.792969 C 178.753906 130.792969 179.632812 130.972656 179.664062 132.058594 C 179.695312 133.25 178.796875 133.421875 177.808594 133.398438 C 176.582031 133.371094 175.351562 133.394531 173.996094 133.394531 L 173.996094 138.929688 C 174.480469 138.929688 174.996094 138.929688 175.515625 138.929688 C 177.882812 138.929688 180.25 138.871094 182.609375 138.988281 C 183.113281 139.015625 183.582031 139.699219 184.066406 140.082031 C 183.660156 140.539062 183.261719 141.375 182.839844 141.386719 C 179.394531 141.492188 175.941406 141.492188 172.492188 141.378906 C 172.070312 141.367188 171.324219 140.515625 171.316406 140.042969 C 171.234375 134.769531 171.257812 129.492188 171.269531 124.214844 C 171.269531 123.171875 171.910156 122.742188 172.90625 122.746094 C 176.109375 122.753906 179.3125 122.695312 182.515625 122.800781 C 183.046875 122.820312 183.882812 123.488281 183.996094 123.988281 C 184.214844 124.945312 183.414062 125.347656 182.515625 125.351562 C 179.710938 125.363281 176.90625 125.355469 173.949219 125.355469 Z M 173.957031 125.351562 "/><path style=" stroke:none;fill-rule:nonzero;fill:#e8e8e8;fill-opacity:1;" d="M 193.289062 230.371094 C 199.796875 230.371094 206.304688 230.371094 212.8125 230.371094 C 213.207031 230.371094 213.6875 230.238281 213.976562 230.414062 C 214.488281 230.726562 214.882812 231.226562 215.332031 231.652344 C 214.878906 232.070312 214.464844 232.550781 213.949219 232.878906 C 213.707031 233.039062 213.277344 232.921875 212.933594 232.921875 C 199.867188 232.921875 186.804688 232.925781 173.742188 232.914062 C 172.746094 232.914062 171.375 233.1875 171.335938 231.695312 C 171.292969 230.046875 172.738281 230.382812 173.769531 230.378906 C 180.277344 230.363281 186.785156 230.367188 193.292969 230.367188 Z M 193.289062 230.371094 "/><path style=" stroke:none;fill-rule:nonzero;fill:#e8e8e8;fill-opacity:1;" d="M 189.308594 188.386719 C 183.9375 188.386719 178.5625 188.386719 173.191406 188.386719 C 172.894531 188.386719 172.601562 188.386719 172.304688 188.386719 C 171.359375 188.402344 170.578125 188.148438 170.605469 187.03125 C 170.632812 186.007812 171.390625 185.769531 172.261719 185.769531 C 174.824219 185.769531 177.386719 185.769531 179.949219 185.769531 C 188.425781 185.769531 196.90625 185.769531 205.382812 185.769531 C 205.777344 185.769531 206.171875 185.769531 206.566406 185.773438 C 207.476562 185.78125 208.257812 186.195312 208.089844 187.117188 C 208 187.613281 207.160156 188.023438 206.589844 188.355469 C 206.332031 188.503906 205.914062 188.386719 205.574219 188.386719 C 200.152344 188.386719 194.730469 188.386719 189.308594 188.386719 Z M 189.308594 188.386719 "/><path style=" stroke:none;fill-rule:nonzero;fill:#e8e8e8;fill-opacity:1;" d="M 157.875 153.832031 C 159.019531 151.722656 160.070312 149.792969 161.117188 147.863281 C 161.351562 147.425781 161.480469 146.855469 161.839844 146.589844 C 162.324219 146.234375 162.980469 146.117188 163.566406 145.894531 C 163.734375 146.535156 164.113281 147.210938 164.015625 147.808594 C 163.902344 148.496094 163.367188 149.113281 163.019531 149.769531 C 162.667969 150.417969 162.382812 151.113281 161.964844 151.714844 C 159.6875 154.984375 158.640625 158.558594 159.140625 162.554688 C 159.261719 163.503906 159.066406 164.445312 157.84375 164.425781 C 156.722656 164.410156 156.46875 163.5 156.59375 162.621094 C 157.234375 158.265625 155.699219 154.527344 153.414062 150.976562 C 152.832031 150.070312 152.390625 149.066406 151.859375 148.125 C 151.398438 147.316406 151.167969 146.488281 152.136719 145.953125 C 153.089844 145.429688 153.679688 146.027344 154.125 146.863281 C 155.320312 149.117188 156.546875 151.359375 157.878906 153.828125 Z M 157.875 153.832031 "/><path style=" stroke:none;fill-rule:nonzero;fill:#e8e8e8;fill-opacity:1;" d="M 184.824219 208.273438 C 180.929688 208.273438 177.035156 208.261719 173.144531 208.277344 C 172.230469 208.28125 171.347656 208.167969 171.3125 207.066406 C 171.273438 205.863281 172.210938 205.707031 173.167969 205.707031 C 180.90625 205.707031 188.644531 205.707031 196.382812 205.707031 C 197.261719 205.707031 198.171875 205.792969 198.203125 206.941406 C 198.234375 208.179688 197.316406 208.277344 196.355469 208.277344 C 192.511719 208.265625 188.664062 208.273438 184.824219 208.273438 Z M 184.824219 208.273438 "/><path style=" stroke:none;fill-rule:nonzero;fill:#e8e8e8;fill-opacity:1;" d="M 154.625 184.054688 C 157.894531 181.105469 160.953125 178.339844 164.015625 175.578125 C 164.234375 175.382812 164.433594 175.054688 164.679688 175.015625 C 165.320312 174.902344 166.183594 174.636719 166.59375 174.9375 C 167.382812 175.515625 167.035156 176.320312 166.367188 176.925781 C 166.222656 177.0625 166.082031 177.195312 165.9375 177.328125 C 162.660156 180.296875 159.359375 183.246094 156.109375 186.242188 C 155.0625 187.207031 154.191406 187.253906 153.230469 186.175781 C 152.511719 185.367188 151.714844 184.632812 150.945312 183.871094 C 150.28125 183.214844 149.878906 182.492188 150.679688 181.714844 C 151.417969 181 152.121094 181.363281 152.722656 181.996094 C 153.332031 182.636719 153.921875 183.292969 154.628906 184.058594 Z M 154.625 184.054688 "/><path style=" stroke:none;fill-rule:nonzero;fill:#e8e8e8;fill-opacity:1;" d="M 154.628906 210.488281 C 157.875 207.554688 160.933594 204.792969 163.996094 202.03125 C 164.320312 201.734375 164.625 201.296875 165.003906 201.203125 C 165.503906 201.085938 166.332031 201.054688 166.542969 201.339844 C 166.832031 201.726562 166.859375 202.539062 166.644531 203.003906 C 166.398438 203.539062 165.765625 203.902344 165.292969 204.332031 C 162.269531 207.066406 159.242188 209.804688 156.214844 212.535156 C 154.777344 213.832031 154.472656 213.816406 153.0625 212.414062 C 152.261719 211.617188 151.359375 210.886719 150.714844 209.980469 C 150.421875 209.566406 150.644531 208.785156 150.628906 208.167969 C 151.246094 208.179688 152.019531 207.960938 152.449219 208.253906 C 153.238281 208.796875 153.828125 209.632812 154.625 210.488281 Z M 154.628906 210.488281 "/><path style=" stroke:none;fill-rule:nonzero;fill:#e8e8e8;fill-opacity:1;" d="M 154.511719 237.03125 C 157.847656 234.015625 160.800781 231.339844 163.757812 228.667969 C 164.160156 228.304688 164.53125 227.777344 165.003906 227.65625 C 165.527344 227.515625 166.304688 227.578125 166.671875 227.894531 C 166.9375 228.128906 166.761719 228.933594 166.660156 229.464844 C 166.617188 229.703125 166.273438 229.886719 166.054688 230.085938 C 162.769531 233.0625 159.484375 236.039062 156.191406 239 C 154.785156 240.265625 154.480469 240.246094 153.132812 238.910156 C 152.332031 238.113281 151.433594 237.378906 150.78125 236.46875 C 150.46875 236.042969 150.632812 235.273438 150.585938 234.65625 C 151.242188 234.660156 152.078125 234.414062 152.511719 234.722656 C 153.28125 235.277344 153.804688 236.171875 154.519531 237.027344 Z M 154.511719 237.03125 "/><path style=" stroke:none;fill-rule:nonzero;fill:#e8e8e8;fill-opacity:1;" d="M 213.550781 198.820312 C 212.261719 198.816406 211.679688 197.828125 212.179688 196.925781 C 212.367188 196.589844 212.679688 196.324219 212.957031 196.042969 C 222.359375 186.636719 231.761719 177.230469 241.167969 167.828125 C 241.445312 167.550781 241.730469 167.152344 242.0625 167.089844 C 242.53125 167 243.210938 167.011719 243.5 167.289062 C 243.789062 167.566406 243.824219 168.246094 243.753906 168.714844 C 243.707031 169.046875 243.3125 169.347656 243.035156 169.625 C 233.601562 179.066406 224.160156 188.507812 214.710938 197.9375 C 214.3125 198.332031 213.808594 198.625 213.550781 198.820312 Z M 213.550781 198.820312 "/><path style=" stroke:none;fill-rule:nonzero;fill:#e8e8e8;fill-opacity:1;" d="M 248.660156 172.648438 C 248.304688 173.15625 248.089844 173.601562 247.761719 173.929688 C 238.191406 183.519531 228.605469 193.09375 219.027344 202.675781 C 218.367188 203.339844 217.644531 203.761719 216.875 202.964844 C 216.09375 202.152344 216.609375 201.457031 217.253906 200.808594 C 226.800781 191.265625 236.335938 181.710938 245.914062 172.195312 C 246.324219 171.789062 247.089844 171.601562 247.695312 171.59375 C 247.988281 171.585938 248.292969 172.226562 248.660156 172.648438 Z M 248.660156 172.648438 "/></g></svg>