<svg xmlns="http://www.w3.org/2000/svg" xmlns:xlink="http://www.w3.org/1999/xlink" width="500" zoomAndPan="magnify" viewBox="0 0 375 374.999991" height="500" preserveAspectRatio="xMidYMid meet" version="1.2"><defs><clipPath id="88644057d0"><path d="M 130.03125 112.5 L 244.78125 112.5 L 244.78125 262.5 L 130.03125 262.5 Z M 130.03125 112.5 "/></clipPath></defs><g id="d53361e13d"><g clip-rule="nonzero" clip-path="url(#88644057d0)"><path style=" stroke:none;fill-rule:nonzero;fill:#e8e8e8;fill-opacity:1;" d="M 237.273438 112.539062 L 137.539062 112.539062 C 133.414062 112.539062 130.054688 115.898438 130.054688 120.023438 L 130.054688 254.730469 C 130.054688 258.855469 133.414062 262.214844 137.539062 262.214844 L 237.273438 262.214844 C 241.398438 262.214844 244.757812 258.855469 244.757812 254.730469 L 244.757812 120.023438 C 244.757812 115.898438 241.398438 112.539062 237.273438 112.539062 Z M 239.765625 254.730469 C 239.765625 256.109375 238.648438 257.226562 237.273438 257.226562 L 137.539062 257.226562 C 136.164062 257.226562 135.046875 256.109375 135.046875 254.730469 L 135.046875 120.023438 C 135.046875 118.648438 136.164062 117.53125 137.539062 117.53125 L 237.273438 117.53125 C 238.648438 117.53125 239.765625 118.648438 239.765625 120.023438 Z M 239.765625 254.730469 "/></g><path style=" stroke:none;fill-rule:nonzero;fill:#e8e8e8;fill-opacity:1;" d="M 187.40625 126.007812 C 167 126.007812 150.398438 142.609375 150.398438 163.019531 C 150.398438 183.425781 167 200.027344 187.40625 200.027344 C 207.8125 200.027344 224.414062 183.425781 224.414062 163.019531 C 224.414062 142.609375 207.8125 126.007812 187.40625 126.007812 Z M 165.480469 186.289062 C 167.710938 176.023438 176.835938 168.625 187.40625 168.625 C 197.976562 168.625 207.101562 176.015625 209.332031 186.292969 C 203.597656 191.699219 195.894531 195.039062 187.40625 195.039062 C 178.917969 195.039062 171.214844 191.699219 165.480469 186.289062 Z M 177.429688 153.65625 C 177.429688 148.152344 181.902344 143.679688 187.40625 143.679688 C 192.910156 143.679688 197.382812 148.152344 197.382812 153.65625 C 197.382812 159.160156 192.910156 163.632812 187.40625 163.632812 C 181.902344 163.632812 177.429688 159.160156 177.429688 153.65625 Z M 213.246094 181.851562 C 210.484375 174.085938 204.398438 168.050781 196.804688 165.289062 C 200.199219 162.542969 202.375 158.351562 202.375 153.652344 C 202.375 145.398438 195.664062 138.6875 187.410156 138.6875 C 179.152344 138.6875 172.441406 145.398438 172.441406 153.652344 C 172.441406 158.351562 174.617188 162.542969 178.015625 165.289062 C 170.429688 168.058594 164.335938 174.101562 161.574219 181.855469 C 157.699219 176.5625 155.386719 170.058594 155.386719 163.015625 C 155.386719 145.359375 169.75 130.992188 187.40625 130.992188 C 205.0625 130.992188 219.425781 145.359375 219.425781 163.015625 C 219.425781 170.058594 217.113281 176.554688 213.246094 181.847656 Z M 213.246094 181.851562 "/><path style=" stroke:none;fill-rule:nonzero;fill:#e8e8e8;fill-opacity:1;" d="M 221.921875 211.277344 L 152.890625 211.277344 C 151.515625 211.277344 150.398438 212.394531 150.398438 213.773438 C 150.398438 215.152344 151.515625 216.265625 152.890625 216.265625 L 221.921875 216.265625 C 223.300781 216.265625 224.417969 215.152344 224.417969 213.773438 C 224.417969 212.394531 223.300781 211.277344 221.921875 211.277344 Z M 221.921875 211.277344 "/><path style=" stroke:none;fill-rule:nonzero;fill:#e8e8e8;fill-opacity:1;" d="M 221.921875 227.519531 L 152.890625 227.519531 C 151.515625 227.519531 150.398438 228.636719 150.398438 230.015625 C 150.398438 231.394531 151.515625 232.507812 152.890625 232.507812 L 221.921875 232.507812 C 223.300781 232.507812 224.417969 231.394531 224.417969 230.015625 C 224.417969 228.636719 223.300781 227.519531 221.921875 227.519531 Z M 221.921875 227.519531 "/><path style=" stroke:none;fill-rule:nonzero;fill:#e8e8e8;fill-opacity:1;" d="M 221.921875 243.761719 L 152.890625 243.761719 C 151.515625 243.761719 150.398438 244.875 150.398438 246.253906 C 150.398438 247.632812 151.515625 248.75 152.890625 248.75 L 221.921875 248.75 C 223.300781 248.75 224.417969 247.632812 224.417969 246.253906 C 224.417969 244.875 223.300781 243.761719 221.921875 243.761719 Z M 221.921875 243.761719 "/></g></svg>