<svg xmlns="http://www.w3.org/2000/svg" xmlns:xlink="http://www.w3.org/1999/xlink" width="500" zoomAndPan="magnify" viewBox="0 0 375 374.999991" height="500" preserveAspectRatio="xMidYMid meet" version="1.2"><defs><clipPath id="dd6d71ab50"><path d="M 48.011719 5.457031 L 326 5.457031 L 326 368 L 48.011719 368 Z M 48.011719 5.457031 "/></clipPath></defs><g id="352a1a8a3e"><g clip-rule="nonzero" clip-path="url(#dd6d71ab50)"><path style=" stroke:none;fill-rule:nonzero;fill:#e8e8e8;fill-opacity:1;" d="M 307.703125 5.554688 L 66.191406 5.554688 C 56.203125 5.554688 48.070312 13.683594 48.070312 23.675781 L 48.070312 349.875 C 48.070312 359.867188 56.203125 368 66.191406 368 L 307.703125 368 C 317.695312 368 325.824219 359.867188 325.824219 349.875 L 325.824219 23.675781 C 325.824219 13.683594 317.695312 5.554688 307.703125 5.554688 Z M 313.742188 349.875 C 313.742188 353.210938 311.03125 355.917969 307.703125 355.917969 L 66.191406 355.917969 C 62.863281 355.917969 60.152344 353.210938 60.152344 349.875 L 60.152344 23.675781 C 60.152344 20.339844 62.863281 17.636719 66.191406 17.636719 L 307.703125 17.636719 C 311.03125 17.636719 313.742188 20.339844 313.742188 23.675781 Z M 313.742188 349.875 "/></g><path style=" stroke:none;fill-rule:nonzero;fill:#e8e8e8;fill-opacity:1;" d="M 186.949219 38.160156 C 137.527344 38.160156 97.328125 78.367188 97.328125 127.789062 C 97.328125 177.207031 137.535156 217.410156 186.949219 217.410156 C 236.359375 217.410156 276.570312 177.207031 276.570312 127.789062 C 276.570312 78.367188 236.359375 38.160156 186.949219 38.160156 Z M 133.847656 184.140625 C 139.25 159.285156 161.347656 141.363281 186.949219 141.363281 C 212.546875 141.363281 234.640625 159.261719 240.039062 184.148438 C 226.152344 197.238281 207.5 205.328125 186.949219 205.328125 C 166.398438 205.328125 147.742188 197.238281 133.847656 184.140625 Z M 162.785156 105.117188 C 162.785156 91.792969 173.621094 80.953125 186.949219 80.953125 C 200.273438 80.953125 211.109375 91.792969 211.109375 105.117188 C 211.109375 118.441406 200.273438 129.28125 186.949219 129.28125 C 173.621094 129.28125 162.785156 118.441406 162.785156 105.117188 Z M 249.523438 173.390625 C 242.835938 154.589844 228.097656 139.976562 209.710938 133.285156 C 217.925781 126.632812 223.199219 116.484375 223.199219 105.109375 C 223.199219 85.121094 206.941406 68.867188 186.953125 68.867188 C 166.964844 68.867188 150.710938 85.121094 150.710938 105.109375 C 150.710938 116.484375 155.984375 126.640625 164.203125 133.292969 C 145.835938 139.996094 131.082031 154.628906 124.390625 173.402344 C 115.015625 160.582031 109.410156 144.839844 109.410156 127.78125 C 109.410156 85.027344 144.191406 50.238281 186.949219 50.238281 C 229.703125 50.238281 264.488281 85.027344 264.488281 127.78125 C 264.488281 144.835938 258.886719 160.570312 249.519531 173.382812 Z M 249.523438 173.390625 "/><path style=" stroke:none;fill-rule:nonzero;fill:#e8e8e8;fill-opacity:1;" d="M 270.527344 244.652344 L 103.367188 244.652344 C 100.035156 244.652344 97.328125 247.351562 97.328125 250.695312 C 97.328125 254.035156 100.035156 256.734375 103.367188 256.734375 L 270.535156 256.734375 C 273.867188 256.734375 276.574219 254.035156 276.574219 250.695312 C 276.574219 247.351562 273.867188 244.652344 270.535156 244.652344 Z M 270.527344 244.652344 "/><path style=" stroke:none;fill-rule:nonzero;fill:#e8e8e8;fill-opacity:1;" d="M 270.527344 283.984375 L 103.367188 283.984375 C 100.035156 283.984375 97.328125 286.683594 97.328125 290.023438 C 97.328125 293.367188 100.035156 296.066406 103.367188 296.066406 L 270.535156 296.066406 C 273.867188 296.066406 276.574219 293.367188 276.574219 290.023438 C 276.574219 286.683594 273.867188 283.984375 270.535156 283.984375 Z M 270.527344 283.984375 "/><path style=" stroke:none;fill-rule:nonzero;fill:#e8e8e8;fill-opacity:1;" d="M 270.527344 323.308594 L 103.367188 323.308594 C 100.035156 323.308594 97.328125 326.007812 97.328125 329.351562 C 97.328125 332.691406 100.035156 335.390625 103.367188 335.390625 L 270.535156 335.390625 C 273.867188 335.390625 276.574219 332.691406 276.574219 329.351562 C 276.574219 326.007812 273.867188 323.308594 270.535156 323.308594 Z M 270.527344 323.308594 "/></g></svg>