<svg xmlns="http://www.w3.org/2000/svg" xmlns:xlink="http://www.w3.org/1999/xlink" width="500" zoomAndPan="magnify" viewBox="0 0 375 374.999991" height="500" preserveAspectRatio="xMidYMid meet" version="1.2"><defs><clipPath id="32b707863f"><path d="M 152.25 112.5 L 222.75 112.5 L 222.75 262.5 L 152.25 262.5 Z M 152.25 112.5 "/></clipPath></defs><g id="4d60702da3"><g clip-rule="nonzero" clip-path="url(#32b707863f)"><path style=" stroke:none;fill-rule:nonzero;fill:#e8e8e8;fill-opacity:1;" d="M 176.511719 247.191406 L 178.292969 247.191406 C 178.949219 247.191406 179.496094 247.691406 179.5625 248.34375 L 180.324219 256.136719 C 180.496094 257.859375 179.660156 259.429688 178.324219 260.304688 C 177.839844 260.621094 177.195312 260.308594 177.140625 259.734375 L 175.980469 247.757812 C 175.953125 247.445312 176.199219 247.191406 176.511719 247.191406 Z M 222.613281 138.972656 C 222.476562 137.824219 222.246094 136.71875 221.910156 135.664062 C 221.753906 135.164062 221.582031 134.652344 221.347656 134.203125 C 221.238281 135.132812 221.015625 135.996094 220.742188 136.769531 C 220.46875 137.542969 220.152344 138.230469 219.832031 138.785156 C 219.199219 139.902344 218.632812 140.554688 218.632812 140.554688 C 218.960938 139.761719 219.25 138.96875 219.5 138.179688 C 219.753906 137.386719 219.949219 136.589844 220.125 135.808594 C 220.296875 135.023438 220.4375 134.246094 220.542969 133.476562 C 220.644531 132.703125 220.707031 131.9375 220.746094 131.183594 C 220.785156 130.429688 220.796875 129.691406 220.785156 128.964844 C 220.777344 128.238281 220.714844 127.519531 220.648438 126.820312 C 220.582031 126.125 220.488281 125.441406 220.382812 124.78125 C 220.277344 124.117188 220.15625 123.476562 220 122.847656 C 219.386719 120.339844 218.585938 118.183594 217.699219 116.445312 C 216.828125 114.710938 215.964844 113.417969 215.316406 112.628906 C 215.289062 112.59375 215.222656 112.617188 215.226562 112.667969 C 215.632812 117.542969 214.488281 122.507812 212.496094 127.210938 C 210.503906 131.925781 207.671875 136.386719 204.734375 140.507812 C 198.601562 149.085938 191.976562 157.214844 185.8125 166.292969 C 185.054688 167.410156 184.320312 168.5 183.605469 169.59375 C 182.886719 170.6875 182.1875 171.773438 181.507812 172.84375 C 180.828125 173.925781 180.167969 175 179.523438 176.070312 C 178.878906 177.132812 178.257812 178.21875 177.648438 179.285156 C 175.242188 183.558594 173.148438 187.757812 171.445312 191.871094 C 171.238281 192.382812 171.03125 192.890625 170.824219 193.394531 C 170.625 193.90625 170.429688 194.414062 170.242188 194.921875 C 169.863281 195.929688 169.503906 196.925781 169.175781 197.898438 C 168.84375 198.898438 168.542969 199.871094 168.257812 200.824219 C 168.117188 201.300781 167.980469 201.773438 167.851562 202.242188 C 167.722656 202.714844 167.601562 203.1875 167.484375 203.652344 C 167.253906 204.582031 167.042969 205.492188 166.851562 206.378906 C 166.800781 206.601562 166.753906 206.820312 166.710938 207.039062 C 166.667969 207.261719 166.628906 207.480469 166.585938 207.699219 C 166.507812 208.136719 166.433594 208.566406 166.363281 208.992188 C 166.222656 209.84375 166.101562 210.667969 166 211.46875 C 165.902344 212.269531 165.835938 213.054688 165.777344 213.808594 C 165.535156 216.808594 165.65625 219.421875 165.9375 221.46875 C 166.742188 216.761719 168.527344 210.386719 171.296875 203.515625 C 174.046875 196.648438 177.730469 189.285156 181.769531 182.203125 C 182.28125 181.3125 182.792969 180.429688 183.304688 179.542969 C 183.820312 178.65625 184.34375 177.785156 184.875 176.90625 C 185.394531 176.046875 185.917969 175.183594 186.449219 174.304688 C 186.988281 173.441406 187.523438 172.582031 188.050781 171.722656 C 190.21875 168.304688 192.371094 164.925781 194.601562 161.640625 C 199.019531 155.050781 203.539062 148.78125 208.234375 142.742188 C 208.234375 142.742188 207.796875 143.433594 207.042969 144.625 C 206.269531 145.855469 205.175781 147.65625 203.742188 149.933594 C 203.027344 151.074219 202.238281 152.328125 201.382812 153.691406 C 200.515625 155.054688 199.582031 156.527344 198.585938 158.101562 C 196.570312 161.269531 194.292969 164.851562 191.78125 168.804688 C 189.273438 172.796875 186.550781 177.183594 183.683594 182.183594 C 180.832031 187.171875 177.855469 192.746094 175.054688 199.078125 C 174.882812 199.472656 174.707031 199.867188 174.53125 200.269531 C 174.355469 200.667969 174.1875 201.078125 174.019531 201.484375 C 173.679688 202.304688 173.34375 203.128906 173.007812 203.96875 C 172.664062 204.800781 172.351562 205.664062 172.03125 206.527344 C 171.710938 207.394531 171.390625 208.265625 171.082031 209.152344 C 170.785156 210.046875 170.488281 210.953125 170.195312 211.863281 C 170.050781 212.320312 169.910156 212.78125 169.761719 213.242188 C 169.621094 213.703125 169.492188 214.175781 169.359375 214.644531 C 169.09375 215.585938 168.835938 216.535156 168.582031 217.492188 L 168.484375 217.851562 L 168.398438 218.214844 C 168.34375 218.460938 168.285156 218.703125 168.226562 218.949219 C 168.117188 219.4375 168.003906 219.929688 167.890625 220.421875 C 167.429688 222.378906 167.085938 224.410156 166.753906 226.457031 C 166.664062 226.964844 166.605469 227.484375 166.539062 228.003906 C 166.476562 228.523438 166.414062 229.042969 166.351562 229.566406 C 166.296875 230.089844 166.242188 230.609375 166.183594 231.136719 L 166.144531 231.527344 L 166.113281 231.925781 C 166.097656 232.191406 166.078125 232.453125 166.0625 232.722656 C 165.996094 233.78125 165.9375 234.84375 165.898438 235.910156 C 165.882812 236.175781 165.882812 236.445312 165.882812 236.714844 C 165.882812 236.980469 165.882812 237.25 165.878906 237.519531 C 165.882812 237.925781 165.886719 238.335938 165.890625 238.742188 L 159.183594 238.742188 C 157.996094 238.742188 156.972656 239.65625 156.917969 240.84375 C 156.855469 242.109375 157.867188 243.15625 159.121094 243.15625 L 159.183594 243.15625 C 159.585938 243.15625 159.886719 243.539062 159.777344 243.925781 C 159.441406 245.097656 158.363281 245.957031 157.082031 245.957031 L 154.980469 245.957031 C 154.199219 245.957031 153.546875 246.546875 153.472656 247.324219 L 152.5625 256.574219 C 152.257812 259.6875 154.703125 262.386719 157.832031 262.386719 L 176.699219 262.386719 C 179.828125 262.386719 182.273438 259.6875 181.96875 256.574219 L 181.058594 247.324219 C 180.984375 246.546875 180.332031 245.957031 179.554688 245.957031 L 177.449219 245.957031 C 176.167969 245.957031 175.089844 245.097656 174.753906 243.925781 C 174.644531 243.539062 174.945312 243.15625 175.347656 243.15625 C 176.535156 243.15625 177.558594 242.242188 177.613281 241.054688 C 177.675781 239.789062 176.664062 238.742188 175.410156 238.742188 L 168.769531 238.742188 C 168.246094 233.628906 169.007812 227.847656 169.5625 224.625 C 169.660156 224.050781 169.964844 223.527344 170.429688 223.179688 L 170.4375 223.175781 C 171.085938 222.699219 171.84375 222.332031 172.6875 222.007812 C 173.53125 221.6875 174.460938 221.410156 175.460938 221.113281 C 175.960938 220.964844 176.476562 220.8125 177.019531 220.65625 C 177.554688 220.492188 178.109375 220.316406 178.671875 220.125 C 179.800781 219.734375 180.972656 219.265625 182.1875 218.660156 C 183.417969 218.054688 184.679688 217.3125 185.960938 216.363281 C 186.277344 216.125 186.605469 215.875 186.933594 215.609375 C 187.265625 215.347656 187.59375 215.070312 187.925781 214.777344 C 188.589844 214.195312 189.25 213.546875 189.925781 212.832031 C 191.296875 211.40625 192.660156 209.695312 194.097656 207.621094 C 193.347656 208.097656 192.566406 208.488281 191.769531 208.808594 C 190.972656 209.128906 190.183594 209.382812 189.382812 209.582031 C 187.796875 209.980469 186.230469 210.160156 184.851562 210.230469 C 183.46875 210.296875 182.289062 210.253906 181.4375 210.1875 C 180.589844 210.125 180.085938 210.042969 180.085938 210.042969 C 181.089844 209.972656 182.140625 209.867188 183.222656 209.714844 C 184.3125 209.5625 185.4375 209.363281 186.570312 209.101562 C 187.707031 208.835938 188.847656 208.503906 189.992188 208.09375 C 191.148438 207.679688 192.296875 207.183594 193.425781 206.585938 C 194.542969 205.988281 195.675781 205.289062 196.761719 204.464844 C 197.308594 204.050781 197.84375 203.609375 198.367188 203.128906 C 198.894531 202.652344 199.417969 202.140625 199.925781 201.59375 C 200.433594 201.042969 200.925781 200.457031 201.40625 199.828125 C 201.890625 199.203125 202.363281 198.535156 202.816406 197.824219 C 203.273438 197.113281 203.699219 196.363281 204.125 195.5625 C 204.550781 194.761719 204.957031 193.914062 205.339844 193.015625 C 204.136719 194.222656 202.589844 194.734375 201.347656 194.925781 C 200.109375 195.125 199.167969 195.027344 199.167969 195.027344 C 199.878906 195.023438 200.832031 194.761719 201.933594 194.207031 C 203.023438 193.644531 204.238281 192.785156 205.460938 191.597656 C 206.074219 191 206.683594 190.3125 207.273438 189.539062 C 207.570312 189.152344 207.859375 188.742188 208.144531 188.3125 C 208.4375 187.878906 208.71875 187.421875 208.992188 186.945312 C 209.535156 185.96875 210.039062 184.914062 210.5 183.75 C 210.957031 182.589844 211.355469 181.339844 211.671875 179.984375 C 211.054688 180.710938 210.398438 181.351562 209.714844 181.921875 C 209.03125 182.488281 208.304688 182.972656 207.59375 183.394531 C 206.164062 184.230469 204.742188 184.820312 203.457031 185.199219 C 200.898438 185.964844 198.96875 186.03125 198.96875 186.03125 C 200.148438 185.738281 201.269531 185.386719 202.332031 184.976562 C 203.398438 184.5625 204.410156 184.09375 205.367188 183.578125 C 207.273438 182.550781 208.984375 181.308594 210.492188 179.9375 C 213.511719 177.183594 215.761719 173.871094 217.363281 170.472656 C 217.773438 169.628906 218.132812 168.78125 218.453125 167.925781 C 218.773438 167.070312 219.066406 166.230469 219.332031 165.402344 C 219.863281 163.753906 220.214844 162.101562 220.527344 160.613281 C 220.597656 160.242188 220.667969 159.871094 220.738281 159.507812 C 220.792969 159.148438 220.847656 158.789062 220.902344 158.4375 C 220.992188 157.75 221.082031 157.082031 221.167969 156.453125 C 221.324219 155.210938 221.449219 154.140625 221.539062 153.238281 C 221.539062 153.238281 221.519531 153.359375 221.464844 153.589844 C 221.410156 153.820312 221.320312 154.160156 221.171875 154.582031 C 220.859375 155.429688 220.335938 156.644531 219.480469 158.09375 C 219.265625 158.453125 219.027344 158.824219 218.765625 159.210938 C 218.496094 159.585938 218.207031 159.976562 217.890625 160.375 C 217.257812 161.171875 216.53125 162.007812 215.691406 162.839844 C 214.855469 163.679688 213.867188 164.503906 212.785156 165.324219 C 211.6875 166.132812 210.492188 166.945312 209.125 167.679688 C 204.664062 170.125 201.695312 171.996094 199.851562 173.367188 C 198.140625 174.59375 197.375 175.382812 197.257812 175.507812 C 198.820312 173.789062 200.5625 172.292969 202.367188 170.9375 C 203.484375 170.101562 204.660156 169.300781 205.832031 168.484375 C 206.417969 168.074219 207 167.664062 207.578125 167.238281 C 208.15625 166.8125 208.722656 166.371094 209.277344 165.910156 C 211.242188 164.28125 213.105469 162.378906 214.808594 160.382812 C 216.140625 158.804688 217.398438 157.125 218.480469 155.320312 C 218.753906 154.871094 219.015625 154.417969 219.269531 153.957031 C 219.523438 153.496094 219.765625 153.03125 219.992188 152.554688 C 220.449219 151.605469 220.859375 150.636719 221.21875 149.648438 C 221.433594 149.070312 221.617188 148.476562 221.785156 147.878906 C 221.949219 147.28125 222.097656 146.679688 222.222656 146.082031 C 222.351562 145.484375 222.457031 144.882812 222.539062 144.285156 C 222.613281 143.679688 222.667969 143.078125 222.699219 142.480469 C 222.761719 141.285156 222.742188 140.117188 222.613281 138.972656 "/></g></g></svg>