<svg xmlns="http://www.w3.org/2000/svg" xmlns:xlink="http://www.w3.org/1999/xlink" width="500" zoomAndPan="magnify" viewBox="0 0 375 374.999991" height="500" preserveAspectRatio="xMidYMid meet" version="1.2"><defs><clipPath id="f0df12d353"><path d="M 106 13.179688 L 269.070312 13.179688 L 269.070312 361.929688 L 106 361.929688 Z M 106 13.179688 "/></clipPath></defs><g id="561a0ee96f"><g clip-rule="nonzero" clip-path="url(#f0df12d353)"><path style=" stroke:none;fill-rule:nonzero;fill:#e8e8e8;fill-opacity:1;" d="M 161.835938 326.328125 L 165.964844 326.328125 C 167.484375 326.328125 168.761719 327.488281 168.910156 329.007812 L 170.679688 347.125 C 171.074219 351.132812 169.140625 354.785156 166.035156 356.820312 C 164.917969 357.554688 163.417969 356.828125 163.289062 355.492188 L 160.605469 327.644531 C 160.539062 326.925781 161.113281 326.328125 161.835938 326.328125 Z M 268.75 74.726562 C 268.429688 72.0625 267.894531 69.488281 267.125 67.042969 C 266.757812 65.875 266.359375 64.691406 265.816406 63.644531 C 265.5625 65.804688 265.046875 67.8125 264.414062 69.613281 C 263.78125 71.410156 263.046875 73 262.300781 74.296875 C 260.835938 76.894531 259.519531 78.410156 259.519531 78.410156 C 260.28125 76.566406 260.949219 74.71875 261.535156 72.886719 C 262.117188 71.046875 262.574219 69.191406 262.976562 67.371094 C 263.375 65.546875 263.703125 63.738281 263.953125 61.949219 C 264.183594 60.152344 264.332031 58.371094 264.421875 56.621094 C 264.511719 54.871094 264.542969 53.152344 264.511719 51.460938 C 264.492188 49.777344 264.351562 48.101562 264.199219 46.480469 C 264.039062 44.859375 263.828125 43.273438 263.578125 41.734375 C 263.332031 40.195312 263.050781 38.699219 262.6875 37.238281 C 261.273438 31.414062 259.410156 26.402344 257.351562 22.363281 C 255.339844 18.328125 253.328125 15.3125 251.832031 13.484375 C 251.765625 13.402344 251.609375 13.453125 251.617188 13.570312 C 252.558594 24.910156 249.90625 36.449219 245.285156 47.390625 C 240.667969 58.351562 234.101562 68.71875 227.285156 78.296875 C 213.0625 98.242188 197.699219 117.140625 183.40625 138.25 C 181.648438 140.84375 179.949219 143.382812 178.285156 145.925781 C 176.617188 148.46875 175 150.984375 173.425781 153.476562 C 171.84375 155.992188 170.3125 158.496094 168.816406 160.976562 C 167.324219 163.453125 165.882812 165.972656 164.476562 168.453125 C 158.890625 178.386719 154.035156 188.148438 150.085938 197.71875 C 149.601562 198.902344 149.121094 200.085938 148.644531 201.257812 C 148.183594 202.445312 147.730469 203.628906 147.289062 204.804688 C 146.414062 207.152344 145.578125 209.464844 144.824219 211.730469 C 144.054688 214.050781 143.351562 216.3125 142.695312 218.53125 C 142.367188 219.640625 142.050781 220.738281 141.746094 221.828125 C 141.453125 222.925781 141.175781 224.023438 140.902344 225.109375 C 140.363281 227.269531 139.871094 229.382812 139.425781 231.441406 C 139.316406 231.957031 139.207031 232.46875 139.105469 232.984375 C 139.011719 233.496094 138.914062 234.007812 138.820312 234.515625 C 138.636719 235.535156 138.460938 236.53125 138.300781 237.519531 C 137.976562 239.5 137.695312 241.417969 137.457031 243.273438 C 137.226562 245.140625 137.074219 246.96875 136.941406 248.71875 C 136.378906 255.695312 136.664062 261.765625 137.3125 266.523438 C 139.175781 255.582031 143.3125 240.757812 149.738281 224.789062 C 156.117188 208.824219 164.65625 191.707031 174.03125 175.234375 C 175.21875 173.167969 176.402344 171.109375 177.59375 169.050781 C 178.789062 166.996094 179.996094 164.960938 181.230469 162.925781 C 182.4375 160.929688 183.652344 158.914062 184.882812 156.871094 C 186.128906 154.871094 187.375 152.871094 188.597656 150.871094 C 193.621094 142.925781 198.617188 135.070312 203.789062 127.429688 C 214.03125 112.109375 224.515625 97.535156 235.40625 83.492188 C 235.40625 83.492188 234.394531 85.097656 232.640625 87.871094 C 230.847656 90.738281 228.308594 94.925781 224.988281 100.214844 C 223.328125 102.863281 221.5 105.785156 219.515625 108.949219 C 217.507812 112.121094 215.34375 115.542969 213.023438 119.203125 C 208.355469 126.574219 203.074219 134.902344 197.25 144.085938 C 191.429688 153.363281 185.117188 163.566406 178.472656 175.191406 C 171.855469 186.792969 164.953125 199.746094 158.457031 214.472656 C 158.054688 215.386719 157.648438 216.308594 157.242188 217.238281 C 156.835938 218.171875 156.449219 219.121094 156.054688 220.066406 C 155.265625 221.96875 154.484375 223.894531 153.707031 225.835938 C 152.914062 227.773438 152.191406 229.785156 151.441406 231.789062 C 150.703125 233.804688 149.960938 235.832031 149.246094 237.898438 C 148.550781 239.976562 147.863281 242.074219 147.191406 244.199219 C 146.855469 245.261719 146.519531 246.328125 146.183594 247.398438 C 145.855469 248.472656 145.558594 249.566406 145.246094 250.65625 C 144.632812 252.847656 144.03125 255.054688 143.441406 257.285156 L 143.222656 258.121094 L 143.019531 258.964844 C 142.890625 259.535156 142.757812 260.101562 142.621094 260.667969 C 142.363281 261.804688 142.101562 262.945312 141.84375 264.09375 C 140.769531 268.640625 139.976562 273.371094 139.203125 278.121094 C 139 279.304688 138.863281 280.515625 138.707031 281.722656 C 138.566406 282.929688 138.417969 284.140625 138.277344 285.355469 C 138.144531 286.566406 138.015625 287.78125 137.882812 289 L 137.789062 289.914062 L 137.722656 290.839844 C 137.683594 291.453125 137.640625 292.070312 137.601562 292.691406 C 137.445312 295.15625 137.316406 297.628906 137.21875 300.105469 C 137.183594 300.71875 137.183594 301.347656 137.183594 301.972656 C 137.183594 302.59375 137.179688 303.21875 137.179688 303.84375 C 137.179688 304.792969 137.191406 305.738281 137.203125 306.683594 L 121.644531 306.683594 C 118.890625 306.683594 116.519531 308.808594 116.390625 311.570312 C 116.253906 314.511719 118.59375 316.945312 121.5 316.945312 L 121.644531 316.945312 C 122.582031 316.945312 123.28125 317.835938 123.023438 318.738281 C 122.246094 321.460938 119.746094 323.457031 116.777344 323.457031 L 111.898438 323.457031 C 110.089844 323.457031 108.578125 324.828125 108.402344 326.636719 L 106.296875 348.148438 C 105.585938 355.386719 111.257812 361.65625 118.511719 361.65625 L 162.273438 361.65625 C 169.523438 361.65625 175.199219 355.386719 174.492188 348.148438 L 172.382812 326.636719 C 172.207031 324.828125 170.695312 323.457031 168.886719 323.457031 L 164.007812 323.457031 C 161.039062 323.457031 158.539062 321.460938 157.761719 318.738281 C 157.503906 317.835938 158.203125 316.945312 159.140625 316.945312 C 161.894531 316.945312 164.265625 314.820312 164.390625 312.0625 C 164.53125 309.117188 162.191406 306.683594 159.28125 306.683594 L 143.878906 306.683594 C 142.664062 294.800781 144.433594 281.363281 145.71875 273.863281 C 145.945312 272.53125 146.648438 271.3125 147.730469 270.503906 L 147.75 270.492188 C 149.253906 269.386719 151.007812 268.535156 152.964844 267.785156 C 154.917969 267.035156 157.082031 266.390625 159.394531 265.703125 C 160.558594 265.359375 161.757812 265.003906 163.011719 264.632812 C 164.257812 264.257812 165.539062 263.851562 166.84375 263.402344 C 169.46875 262.5 172.183594 261.410156 175 260 C 177.851562 258.59375 180.78125 256.863281 183.746094 254.65625 C 184.480469 254.101562 185.242188 253.519531 186.007812 252.910156 C 186.773438 252.296875 187.535156 251.652344 188.304688 250.972656 C 189.84375 249.617188 191.375 248.109375 192.941406 246.449219 C 196.128906 243.132812 199.28125 239.152344 202.621094 234.335938 C 200.882812 235.441406 199.066406 236.34375 197.222656 237.09375 C 195.375 237.835938 193.539062 238.429688 191.691406 238.890625 C 188.011719 239.816406 184.378906 240.234375 181.171875 240.398438 C 177.972656 240.550781 175.230469 240.453125 173.257812 240.304688 C 171.289062 240.160156 170.121094 239.964844 170.121094 239.964844 C 172.449219 239.796875 174.886719 239.554688 177.398438 239.199219 C 179.929688 238.847656 182.535156 238.386719 185.160156 237.773438 C 187.796875 237.15625 190.441406 236.386719 193.101562 235.429688 C 195.78125 234.472656 198.445312 233.320312 201.066406 231.929688 C 203.65625 230.539062 206.28125 228.914062 208.800781 226.992188 C 210.066406 226.035156 211.304688 225.007812 212.519531 223.894531 C 213.75 222.785156 214.960938 221.59375 216.136719 220.316406 C 217.3125 219.035156 218.457031 217.671875 219.566406 216.21875 C 220.691406 214.761719 221.789062 213.207031 222.839844 211.558594 C 223.894531 209.90625 224.886719 208.160156 225.878906 206.296875 C 226.863281 204.433594 227.804688 202.464844 228.691406 200.378906 C 225.902344 203.183594 222.316406 204.371094 219.433594 204.816406 C 216.558594 205.277344 214.378906 205.054688 214.378906 205.054688 C 216.03125 205.039062 218.238281 204.433594 220.789062 203.148438 C 223.320312 201.839844 226.132812 199.835938 228.96875 197.078125 C 230.390625 195.695312 231.804688 194.09375 233.179688 192.296875 C 233.863281 191.394531 234.539062 190.441406 235.199219 189.4375 C 235.871094 188.429688 236.523438 187.375 237.160156 186.261719 C 238.417969 183.996094 239.589844 181.535156 240.65625 178.835938 C 241.71875 176.140625 242.648438 173.226562 243.375 170.078125 C 241.949219 171.765625 240.417969 173.257812 238.835938 174.585938 C 237.25 175.902344 235.570312 177.03125 233.921875 178.003906 C 230.605469 179.949219 227.300781 181.320312 224.324219 182.207031 C 218.386719 183.980469 213.917969 184.144531 213.917969 184.144531 C 216.652344 183.460938 219.25 182.636719 221.714844 181.683594 C 224.191406 180.726562 226.535156 179.636719 228.753906 178.4375 C 233.179688 176.042969 237.144531 173.15625 240.636719 169.96875 C 247.644531 163.570312 252.863281 155.867188 256.574219 147.964844 C 257.527344 146.007812 258.359375 144.027344 259.101562 142.046875 C 259.851562 140.058594 260.527344 138.101562 261.140625 136.175781 C 262.371094 132.339844 263.1875 128.507812 263.910156 125.039062 C 264.074219 124.175781 264.242188 123.324219 264.40625 122.476562 C 264.535156 121.632812 264.660156 120.800781 264.785156 119.984375 C 264.996094 118.386719 265.203125 116.835938 265.398438 115.371094 C 265.765625 112.484375 266.054688 109.992188 266.257812 107.894531 C 266.257812 107.894531 266.214844 108.179688 266.085938 108.714844 C 265.960938 109.25 265.75 110.035156 265.40625 111.023438 C 264.6875 112.992188 263.46875 115.816406 261.484375 119.183594 C 260.984375 120.023438 260.4375 120.886719 259.828125 121.777344 C 259.207031 122.65625 258.527344 123.566406 257.796875 124.492188 C 256.335938 126.34375 254.648438 128.289062 252.695312 130.222656 C 250.765625 132.175781 248.46875 134.089844 245.957031 135.996094 C 243.410156 137.878906 240.644531 139.761719 237.46875 141.476562 C 227.121094 147.160156 220.238281 151.507812 215.964844 154.695312 C 211.996094 157.550781 210.21875 159.386719 209.945312 159.675781 C 213.570312 155.675781 217.609375 152.199219 221.800781 149.050781 C 224.394531 147.101562 227.113281 145.242188 229.832031 143.347656 C 231.1875 142.394531 232.546875 141.4375 233.886719 140.445312 C 235.21875 139.453125 236.535156 138.433594 237.820312 137.363281 C 242.382812 133.574219 246.699219 129.152344 250.65625 124.511719 C 253.742188 120.835938 256.65625 116.929688 259.171875 112.738281 C 259.800781 111.695312 260.410156 110.640625 261 109.570312 C 261.585938 108.5 262.148438 107.417969 262.671875 106.308594 C 263.730469 104.101562 264.683594 101.847656 265.519531 99.550781 C 266.015625 98.203125 266.445312 96.824219 266.832031 95.4375 C 267.214844 94.050781 267.554688 92.652344 267.847656 91.261719 C 268.140625 89.867188 268.386719 88.472656 268.574219 87.082031 C 268.75 85.675781 268.875 84.277344 268.953125 82.890625 C 269.097656 80.113281 269.050781 77.386719 268.75 74.726562 "/></g></g></svg>