<svg xmlns="http://www.w3.org/2000/svg" xmlns:xlink="http://www.w3.org/1999/xlink" width="500" zoomAndPan="magnify" viewBox="0 0 375 374.999991" height="500" preserveAspectRatio="xMidYMid meet" version="1.2"><defs><clipPath id="1e7f0b632c"><path d="M 33.390625 16.300781 L 341 16.300781 L 341 359 L 33.390625 359 Z M 33.390625 16.300781 "/></clipPath></defs><g id="7337ed589d"><g clip-rule="nonzero" clip-path="url(#1e7f0b632c)"><path style=" stroke:none;fill-rule:nonzero;fill:#e8e8e8;fill-opacity:1;" d="M 340.6875 85.140625 C 340.4375 82.8125 340.089844 81.65625 338.960938 81.367188 C 337.476562 80.996094 336.96875 81.578125 327.9375 93.699219 C 313.953125 112.472656 287.929688 147.410156 269.992188 155.25 C 269.667969 155.394531 269.328125 155.558594 268.996094 155.714844 C 280.292969 137.242188 286.199219 111.839844 289.214844 92.992188 C 291.375 79.492188 292.699219 65.910156 293.179688 52.246094 C 293.1875 51.902344 293.085938 51.59375 292.875 51.316406 C 292.667969 51.042969 292.394531 50.859375 292.0625 50.773438 C 291.726562 50.683594 291.402344 50.710938 291.085938 50.847656 C 290.769531 50.984375 290.527344 51.207031 290.363281 51.511719 C 290.148438 51.914062 268.828125 91.054688 238.796875 110.015625 C 253.777344 79.03125 255.671875 20.613281 255.75 18 C 255.757812 17.730469 255.699219 17.476562 255.570312 17.238281 C 255.441406 17 255.261719 16.8125 255.03125 16.671875 C 254.800781 16.53125 254.546875 16.460938 254.277344 16.453125 C 254.007812 16.449219 253.757812 16.511719 253.519531 16.644531 C 237.941406 25.316406 221.320312 46.304688 204.070312 79.03125 C 194.261719 97.683594 187.054688 114.957031 184.203125 122.105469 C 181.804688 116.640625 179.15625 112.238281 176.316406 108.984375 L 171.609375 103.589844 C 153.375 82.757812 145.050781 73.25 141 62.769531 C 140.882812 62.464844 140.6875 62.222656 140.414062 62.046875 C 140.140625 61.867188 139.839844 61.789062 139.511719 61.808594 C 139.1875 61.832031 138.898438 61.945312 138.644531 62.152344 C 138.394531 62.363281 138.230469 62.625 138.148438 62.941406 C 137.316406 66.59375 136.671875 70.277344 136.214844 73.992188 C 125.5625 62.8125 109.777344 26.214844 109.609375 25.816406 C 109.472656 25.5 109.25 25.257812 108.941406 25.09375 C 108.632812 24.929688 108.308594 24.878906 107.964844 24.941406 C 107.625 25.003906 107.339844 25.167969 107.109375 25.429688 C 106.878906 25.691406 106.757812 25.996094 106.742188 26.34375 C 105.445312 55.707031 113.929688 91.199219 117.050781 103.125 C 116.34375 102.625 115.625 102.125 114.882812 101.613281 C 92.1875 86.125 68.0625 51.734375 67.820312 51.386719 C 67.621094 51.097656 67.355469 50.90625 67.023438 50.804688 C 66.691406 50.703125 66.363281 50.714844 66.039062 50.84375 C 65.714844 50.96875 65.464844 51.183594 65.292969 51.484375 C 65.117188 51.785156 65.054688 52.109375 65.105469 52.453125 C 65.164062 52.984375 72.753906 105.417969 102.117188 155.203125 C 93.390625 154.425781 65.160156 150.117188 35.914062 126.445312 C 35.664062 126.246094 35.382812 126.136719 35.066406 126.121094 C 34.75 126.101562 34.457031 126.175781 34.1875 126.34375 C 33.917969 126.511719 33.722656 126.742188 33.597656 127.03125 C 33.476562 127.324219 33.449219 127.625 33.515625 127.933594 C 33.660156 128.582031 37.195312 144.070312 49.824219 162.964844 C 61.121094 179.867188 82.078125 202.585938 118.210938 216.242188 C 116.015625 217.453125 113.96875 218.871094 112.066406 220.496094 C 110.160156 222.121094 108.441406 223.921875 106.902344 225.898438 C 105.363281 227.875 104.042969 229.984375 102.933594 232.230469 C 101.824219 234.476562 100.953125 236.808594 100.316406 239.230469 C 99.785156 241.261719 99.324219 243.3125 98.9375 245.375 C 98.546875 247.4375 98.226562 249.511719 97.980469 251.597656 C 97.734375 253.683594 97.558594 255.773438 97.457031 257.871094 C 97.355469 259.96875 97.324219 262.066406 97.367188 264.167969 C 97.410156 266.265625 97.527344 268.363281 97.714844 270.453125 C 97.902344 272.542969 98.160156 274.628906 98.492188 276.699219 C 98.824219 278.773438 99.226562 280.835938 99.699219 282.878906 C 100.171875 284.925781 100.714844 286.953125 101.332031 288.960938 C 101.945312 290.96875 102.625 292.953125 103.375 294.914062 C 104.128906 296.875 104.945312 298.808594 105.828125 300.714844 C 106.714844 302.617188 107.664062 304.488281 108.675781 306.328125 C 109.691406 308.167969 110.765625 309.96875 111.902344 311.734375 C 113.042969 313.5 114.238281 315.222656 115.496094 316.90625 C 116.753906 318.585938 118.066406 320.222656 119.4375 321.816406 C 120.808594 323.40625 122.230469 324.949219 123.707031 326.441406 C 125.183594 327.933594 126.710938 329.375 128.289062 330.761719 C 127.546875 331.585938 126.976562 332.511719 126.582031 333.542969 C 126.183594 334.578125 125.984375 335.648438 125.980469 336.753906 L 125.980469 349.636719 C 125.980469 350.226562 126.042969 350.808594 126.15625 351.386719 C 126.273438 351.964844 126.445312 352.527344 126.671875 353.070312 C 126.898438 353.613281 127.175781 354.132812 127.503906 354.621094 C 127.832031 355.113281 128.203125 355.566406 128.621094 355.980469 C 129.039062 356.398438 129.492188 356.769531 129.980469 357.097656 C 130.472656 357.425781 130.988281 357.703125 131.535156 357.929688 C 132.078125 358.15625 132.640625 358.328125 133.214844 358.445312 C 133.792969 358.5625 134.378906 358.621094 134.96875 358.625 L 242.320312 358.625 C 242.910156 358.621094 243.496094 358.5625 244.074219 358.445312 C 244.652344 358.328125 245.210938 358.15625 245.757812 357.929688 C 246.300781 357.703125 246.816406 357.425781 247.308594 357.097656 C 247.796875 356.769531 248.25 356.398438 248.667969 355.980469 C 249.085938 355.566406 249.457031 355.113281 249.785156 354.621094 C 250.113281 354.132812 250.390625 353.613281 250.617188 353.070312 C 250.84375 352.527344 251.015625 351.964844 251.132812 351.386719 C 251.25 350.808594 251.308594 350.226562 251.308594 349.636719 L 251.308594 336.753906 C 251.308594 335.664062 251.113281 334.605469 250.726562 333.585938 C 250.34375 332.566406 249.789062 331.644531 249.070312 330.828125 C 250.644531 329.4375 252.167969 327.992188 253.640625 326.496094 C 255.117188 325 256.539062 323.453125 257.90625 321.859375 C 259.273438 320.265625 260.585938 318.625 261.839844 316.9375 C 263.097656 315.253906 264.292969 313.527344 265.429688 311.761719 C 266.5625 309.992188 267.636719 308.1875 268.648438 306.347656 C 269.660156 304.507812 270.609375 302.632812 271.492188 300.726562 C 272.375 298.820312 273.191406 296.882812 273.941406 294.921875 C 274.6875 292.957031 275.371094 290.972656 275.984375 288.960938 C 276.59375 286.953125 277.136719 284.921875 277.609375 282.875 C 278.082031 280.828125 278.484375 278.769531 278.816406 276.691406 C 279.144531 274.617188 279.40625 272.535156 279.589844 270.441406 C 279.777344 268.347656 279.894531 266.253906 279.9375 264.152344 C 279.980469 262.050781 279.949219 259.953125 279.847656 257.851562 C 279.746094 255.753906 279.570312 253.660156 279.324219 251.574219 C 279.078125 249.488281 278.757812 247.414062 278.371094 245.347656 C 277.980469 243.285156 277.519531 241.234375 276.988281 239.203125 C 276.355469 236.789062 275.484375 234.460938 274.375 232.226562 C 273.269531 229.988281 271.949219 227.882812 270.417969 225.914062 C 268.882812 223.945312 267.167969 222.148438 265.269531 220.527344 C 263.371094 218.90625 261.332031 217.492188 259.148438 216.285156 C 276.90625 207.140625 292.148438 195.601562 304.480469 181.933594 C 315.253906 170 323.746094 156.617188 329.957031 141.789062 C 340.585938 116.605469 341.617188 93.722656 340.6875 85.140625 Z M 289.921875 58.234375 C 288.90625 76.207031 284.179688 129.953125 263.292969 158.894531 C 245.234375 170.40625 223.011719 196.546875 211.046875 211.527344 L 199.847656 211.527344 C 199.503906 204.59375 198.921875 195.671875 197.929688 185.84375 C 198.867188 185.503906 199.773438 185.089844 200.644531 184.597656 C 202.441406 183.640625 204.976562 182.105469 208.601562 179.648438 C 212.226562 177.195312 216.921875 173.808594 222.871094 169.019531 C 229.449219 163.734375 235.714844 158.097656 241.667969 152.117188 C 244.789062 148.960938 247.839844 145.699219 250.65625 142.363281 C 252.09375 140.726562 253.414062 139.015625 254.742188 137.378906 C 256.074219 135.742188 257.296875 134.066406 258.421875 132.394531 L 260.113281 129.953125 L 261.65625 127.558594 L 262.40625 126.359375 L 263.089844 125.160156 L 264.402344 122.882812 C 265.214844 121.378906 265.933594 119.929688 266.613281 118.589844 L 268.289062 114.757812 L 269.445312 111.535156 L 269.679688 110.847656 L 269.855469 110.195312 L 270.148438 109.054688 C 270.488281 107.683594 270.609375 106.910156 270.476562 106.84375 C 270.34375 106.777344 269.96875 107.445312 269.390625 108.640625 C 269.09375 109.242188 268.792969 110.027344 268.355469 110.890625 L 266.886719 113.914062 C 266.289062 115 265.648438 116.179688 264.957031 117.457031 C 264.269531 118.730469 263.402344 120.042969 262.5625 121.457031 C 260.765625 124.21875 258.703125 127.265625 256.289062 130.332031 C 251.085938 136.96875 245.429688 143.195312 239.324219 149.015625 C 233.082031 155.054688 226.535156 160.679688 220.679688 165.417969 C 214.824219 170.160156 210.253906 173.605469 206.777344 176.203125 C 203.304688 178.804688 200.925781 180.621094 199.332031 181.910156 C 198.617188 182.507812 198.074219 182.953125 197.640625 183.347656 C 197.085938 178.144531 196.441406 172.722656 195.597656 167.234375 C 196.921875 163.640625 209.4375 131.140625 238.644531 113.613281 C 263.519531 98.726562 282.722656 70.039062 289.921875 58.234375 Z M 252.640625 20.6875 C 252.039062 33.535156 248.632812 87.964844 233.695312 113.25 C 211.316406 128.179688 199.21875 151.363281 194.746094 161.539062 C 193.828125 155.984375 192.816406 150.792969 191.710938 145.957031 C 192.355469 145.4375 192.957031 144.867188 193.507812 144.246094 C 194.707031 142.96875 196.300781 140.996094 198.539062 137.988281 C 200.78125 134.980469 203.644531 130.9375 207.203125 125.449219 C 210.761719 119.960938 214.671875 113.542969 218.308594 106.875 C 220.132812 103.542969 221.867188 100.132812 223.496094 96.777344 C 225.125 93.421875 226.582031 90.078125 227.875 86.890625 C 230.097656 81.535156 231.800781 76.023438 232.992188 70.347656 C 233.808594 66.046875 233.785156 63.367188 233.539062 63.308594 C 233.398438 63.273438 233.160156 63.90625 232.847656 65 C 232.539062 66.089844 232.074219 67.75 231.472656 69.792969 C 229.753906 75.132812 227.703125 80.339844 225.316406 85.417969 C 222.472656 91.492188 218.949219 98.152344 215.183594 104.589844 C 211.421875 111.03125 207.496094 117.335938 203.980469 122.769531 C 200.464844 128.207031 197.683594 132.296875 195.628906 135.429688 C 193.574219 138.566406 192.1875 140.714844 191.308594 142.242188 C 191.175781 142.472656 191.0625 142.675781 190.949219 142.871094 C 189.589844 137.175781 187.878906 131.582031 185.824219 126.097656 C 188.570312 119.039062 219.007812 42.140625 252.640625 20.6875 Z M 140.121094 68.203125 C 144.855469 77.605469 153.300781 87.28125 169.335938 105.582031 L 174.046875 110.972656 C 177.238281 114.621094 180.195312 119.90625 182.828125 126.671875 C 186.828125 136.910156 190.117188 150.597656 192.613281 167.34375 C 195.234375 184.894531 196.378906 202.023438 196.84375 211.554688 L 191.273438 211.554688 C 191.078125 210.550781 190.808594 209.566406 190.46875 208.601562 C 189.199219 204.671875 186.191406 197.21875 180.410156 182.753906 C 174.628906 168.289062 167.378906 149.433594 161.9375 134.046875 C 160.617188 130.1875 159.300781 126.582031 158.203125 123.296875 L 155.257812 114.644531 C 153.632812 109.746094 152.523438 106.789062 152.261719 106.828125 C 151.996094 106.863281 152.523438 109.875 153.65625 114.867188 C 154.789062 119.859375 156.683594 126.761719 159.046875 134.554688 C 163.742188 150.136719 170.535156 169.207031 176.359375 183.730469 C 179.246094 191.003906 181.578125 196.476562 183.421875 200.601562 C 185.269531 204.730469 186.628906 207.511719 187.617188 209.382812 C 188.125 210.316406 188.546875 211.023438 188.898438 211.554688 L 176.460938 211.554688 C 171.660156 205.507812 167.273438 199.171875 163.300781 192.550781 C 159.324219 185.929688 155.792969 179.078125 152.707031 172 C 149.625 164.921875 147.011719 157.671875 144.867188 150.253906 C 142.726562 142.832031 141.074219 135.304688 139.910156 127.671875 C 139.914062 127.640625 139.914062 127.613281 139.910156 127.582031 C 135.578125 99.894531 138.472656 77.425781 140.121094 68.203125 Z M 135.746094 77.695312 C 134.226562 91.816406 134.265625 105.933594 135.859375 120.042969 C 133.121094 116.480469 128.542969 111.746094 120.882812 105.957031 C 119.609375 101.433594 109.683594 65.046875 109.570312 33.183594 C 114.972656 45.035156 127.101562 70.28125 135.746094 77.695312 Z M 113.171875 104.09375 C 115.128906 105.4375 116.976562 106.753906 118.652344 108.011719 L 118.695312 108.050781 C 135.386719 120.578125 136.878906 127.78125 136.933594 128.078125 C 138.5625 138.558594 141.070312 148.824219 144.453125 158.875 L 143.855469 158.34375 C 143.058594 157.589844 142.097656 156.707031 140.949219 155.6875 C 140.378906 155.167969 139.75 154.652344 139.085938 154.03125 L 136.992188 152.023438 C 136.25 151.304688 135.429688 150.558594 134.597656 149.726562 L 131.949219 147.023438 L 130.511719 145.570312 C 130.03125 145.070312 129.558594 144.539062 129.070312 144.015625 L 126.082031 140.824219 L 123.085938 137.402344 L 121.558594 135.660156 L 120.058594 133.859375 C 116.023438 129.109375 112.132812 124.148438 108.710938 119.679688 C 101.84375 110.746094 96.980469 103.691406 96.519531 104.039062 C 96.058594 104.386719 100.113281 112.125 106.484375 121.632812 C 112.851562 131.140625 121.460938 142.441406 129.25 150.261719 L 131.988281 153.015625 L 134.523438 155.324219 L 136.746094 157.3125 L 138.777344 158.90625 C 140.042969 159.871094 141.089844 160.703125 142.019531 161.304688 C 142.949219 161.902344 143.765625 162.359375 144.417969 162.707031 C 144.960938 163.007812 145.527344 163.269531 146.113281 163.492188 C 152.5 180.863281 161.347656 196.875 172.65625 211.527344 L 154.609375 211.527344 C 136.15625 197.464844 119.855469 178.824219 106.105469 156.089844 C 81.984375 116.171875 72.15625 73.945312 69.160156 58.316406 C 76.949219 68.703125 95.429688 91.984375 113.171875 104.09375 Z M 52.355469 161.433594 C 46.097656 152.183594 41.199219 142.261719 37.664062 131.667969 C 69.070312 155.484375 98.671875 158.078125 103.972656 158.347656 C 117.046875 179.828125 132.421875 197.703125 149.738281 211.542969 L 135.820312 211.542969 C 135.238281 211.023438 134.621094 210.546875 133.972656 210.113281 C 131.167969 208.128906 125.40625 204.773438 114.332031 198.09375 C 108.800781 194.742188 102.5 190.824219 96.242188 186.707031 C 89.988281 182.59375 83.796875 178.25 78.472656 174.125 C 73.976562 170.707031 69.710938 167.027344 65.667969 163.082031 C 62.671875 160.085938 61.011719 158.074219 60.722656 158.230469 C 60.4375 158.386719 61.652344 160.65625 64.320312 164.023438 C 67.96875 168.433594 71.976562 172.484375 76.351562 176.175781 C 86.613281 185.164062 100.613281 194.640625 111.761719 201.398438 C 121.546875 207.320312 127.425781 210.359375 130.9375 211.945312 C 127.835938 212.402344 124.839844 213.234375 121.949219 214.445312 C 84.929688 201.21875 63.679688 178.34375 52.355469 161.433594 Z M 248.3125 349.625 C 248.3125 350.015625 248.273438 350.40625 248.199219 350.792969 C 248.121094 351.179688 248.007812 351.554688 247.859375 351.917969 C 247.707031 352.28125 247.523438 352.625 247.304688 352.953125 C 247.085938 353.28125 246.835938 353.582031 246.558594 353.859375 C 246.28125 354.136719 245.976562 354.386719 245.652344 354.605469 C 245.324219 354.824219 244.976562 355.007812 244.613281 355.160156 C 244.25 355.308594 243.875 355.421875 243.492188 355.5 C 243.105469 355.578125 242.714844 355.617188 242.320312 355.617188 L 134.992188 355.617188 C 134.597656 355.617188 134.207031 355.578125 133.824219 355.5 C 133.4375 355.421875 133.0625 355.308594 132.699219 355.160156 C 132.335938 355.007812 131.988281 354.824219 131.664062 354.605469 C 131.335938 354.386719 131.035156 354.136719 130.753906 353.859375 C 130.476562 353.582031 130.230469 353.28125 130.011719 352.953125 C 129.792969 352.625 129.605469 352.28125 129.457031 351.917969 C 129.304688 351.554688 129.191406 351.179688 129.117188 350.792969 C 129.039062 350.40625 129 350.015625 129 349.625 L 129 336.753906 C 129 335.796875 129.21875 334.894531 129.648438 334.042969 C 130.082031 333.191406 130.683594 332.480469 131.457031 331.917969 C 132.511719 331.144531 133.691406 330.757812 134.996094 330.753906 L 242.320312 330.753906 C 243.652344 330.753906 244.851562 331.15625 245.917969 331.953125 L 246.007812 332.019531 C 246.734375 332.589844 247.304688 333.289062 247.707031 334.121094 C 248.113281 334.949219 248.316406 335.828125 248.3125 336.753906 Z M 274.078125 239.976562 C 274.59375 241.949219 275.039062 243.941406 275.417969 245.949219 C 275.796875 247.957031 276.105469 249.976562 276.34375 252.003906 C 276.578125 254.03125 276.746094 256.066406 276.84375 258.105469 C 276.941406 260.144531 276.96875 262.1875 276.925781 264.230469 C 276.878906 266.269531 276.765625 268.308594 276.578125 270.34375 C 276.394531 272.375 276.136719 274.402344 275.8125 276.417969 C 275.488281 278.433594 275.09375 280.4375 274.628906 282.425781 C 274.164062 284.414062 273.632812 286.382812 273.03125 288.335938 C 272.429688 290.289062 271.761719 292.21875 271.027344 294.121094 C 270.292969 296.027344 269.492188 297.90625 268.628906 299.757812 C 267.765625 301.605469 266.835938 303.425781 265.847656 305.210938 C 264.855469 306.996094 263.804688 308.746094 262.695312 310.460938 C 261.582031 312.175781 260.414062 313.847656 259.183594 315.480469 C 257.957031 317.113281 256.675781 318.699219 255.335938 320.242188 C 254 321.785156 252.609375 323.28125 251.171875 324.730469 C 249.730469 326.175781 248.238281 327.570312 246.703125 328.917969 C 245.332031 328.136719 243.859375 327.75 242.285156 327.746094 L 134.992188 327.746094 C 133.453125 327.746094 132.011719 328.121094 130.664062 328.863281 C 129.125 327.523438 127.632812 326.132812 126.1875 324.6875 C 124.742188 323.246094 123.347656 321.753906 122.007812 320.214844 C 120.664062 318.671875 119.378906 317.089844 118.148438 315.457031 C 116.917969 313.828125 115.742188 312.160156 114.628906 310.449219 C 113.511719 308.738281 112.460938 306.988281 111.464844 305.207031 C 110.472656 303.421875 109.539062 301.605469 108.671875 299.757812 C 107.804688 297.90625 107.003906 296.03125 106.265625 294.125 C 105.527344 292.222656 104.859375 290.292969 104.253906 288.34375 C 103.652344 286.390625 103.117188 284.421875 102.652344 282.433594 C 102.183594 280.445312 101.789062 278.441406 101.460938 276.425781 C 101.132812 274.410156 100.875 272.386719 100.691406 270.351562 C 100.503906 268.320312 100.386719 266.28125 100.34375 264.238281 C 100.296875 262.199219 100.324219 260.15625 100.417969 258.117188 C 100.515625 256.078125 100.683594 254.042969 100.921875 252.015625 C 101.160156 249.984375 101.46875 247.96875 101.847656 245.960938 C 102.222656 243.953125 102.671875 241.960938 103.1875 239.988281 C 103.949219 237.074219 105.082031 234.3125 106.585938 231.699219 L 192.691406 231.699219 C 192.890625 231.699219 193.082031 231.664062 193.265625 231.585938 C 193.449219 231.511719 193.609375 231.402344 193.75 231.261719 C 193.890625 231.121094 194 230.960938 194.078125 230.777344 C 194.152344 230.59375 194.191406 230.402344 194.191406 230.203125 C 194.191406 230.003906 194.152344 229.8125 194.078125 229.628906 C 194 229.445312 193.890625 229.285156 193.75 229.144531 C 193.609375 229.003906 193.449219 228.894531 193.265625 228.820312 C 193.082031 228.742188 192.890625 228.703125 192.691406 228.703125 L 108.519531 228.703125 C 110.308594 226.242188 112.386719 224.058594 114.753906 222.148438 C 117.125 220.242188 119.703125 218.675781 122.488281 217.453125 L 122.636719 217.386719 C 127.03125 215.480469 131.625 214.53125 136.417969 214.535156 L 240.902344 214.535156 C 242.78125 214.527344 244.648438 214.671875 246.503906 214.972656 C 248.359375 215.273438 250.175781 215.722656 251.957031 216.320312 C 253.738281 216.921875 255.457031 217.660156 257.117188 218.542969 C 258.777344 219.425781 260.351562 220.4375 261.84375 221.582031 C 263.335938 222.722656 264.726562 223.976562 266.011719 225.347656 C 267.296875 226.71875 268.460938 228.1875 269.503906 229.746094 C 270.546875 231.308594 271.457031 232.949219 272.230469 234.660156 C 273.007812 236.371094 273.636719 238.136719 274.121094 239.949219 Z M 329.519531 134.832031 C 320.640625 158.90625 300.644531 192.238281 255.820312 214.625 C 252.226562 213.074219 248.484375 212.109375 244.585938 211.730469 L 245.238281 211.28125 C 248.785156 208.765625 255.46875 203.527344 267.679688 192.484375 C 279.890625 181.441406 295.144531 166.449219 306.027344 152.9375 C 311.460938 146.199219 315.746094 139.757812 318.09375 134.753906 C 319.066406 132.78125 319.796875 130.726562 320.285156 128.582031 C 320.414062 127.988281 320.492188 127.390625 320.515625 126.785156 C 320.515625 126.371094 320.515625 126.148438 320.429688 126.125 C 320.347656 126.101562 320.25 126.28125 320.105469 126.636719 C 320.035156 126.816406 319.957031 127.035156 319.859375 127.300781 L 319.507812 128.199219 C 318.730469 130.121094 317.816406 131.972656 316.761719 133.757812 C 314.101562 138.335938 309.640625 144.304688 304.042969 150.675781 C 292.886719 163.453125 277.46875 177.953125 265.359375 188.960938 L 251.152344 201.777344 C 247.648438 204.945312 245.277344 207.171875 243.699219 208.722656 C 242.78125 209.585938 241.941406 210.523438 241.1875 211.539062 L 214.886719 211.539062 C 227.085938 196.398438 248.140625 171.992188 265.15625 161.265625 C 267.089844 160.03125 269.101562 158.941406 271.195312 158.003906 C 289.855469 149.8125 316.1875 114.460938 330.339844 95.488281 C 333.257812 91.570312 336.0625 87.808594 337.753906 85.734375 C 338.371094 92.199219 338.023438 111.789062 329.519531 134.832031 Z M 329.519531 134.832031 "/></g><path style=" stroke:none;fill-rule:nonzero;fill:#e8e8e8;fill-opacity:1;" d="M 218.625 228.703125 L 204.574219 228.703125 C 204.375 228.703125 204.183594 228.742188 204 228.820312 C 203.816406 228.894531 203.65625 229.003906 203.515625 229.144531 C 203.375 229.285156 203.265625 229.445312 203.191406 229.628906 C 203.113281 229.8125 203.074219 230.003906 203.074219 230.203125 C 203.074219 230.402344 203.113281 230.59375 203.191406 230.777344 C 203.265625 230.960938 203.375 231.121094 203.515625 231.261719 C 203.65625 231.402344 203.816406 231.511719 204 231.585938 C 204.183594 231.664062 204.375 231.699219 204.574219 231.699219 L 218.65625 231.699219 C 218.851562 231.699219 219.042969 231.664062 219.226562 231.585938 C 219.410156 231.511719 219.574219 231.402344 219.714844 231.261719 C 219.855469 231.121094 219.960938 230.960938 220.039062 230.777344 C 220.113281 230.59375 220.152344 230.402344 220.152344 230.203125 C 220.152344 230.003906 220.113281 229.8125 220.039062 229.628906 C 219.960938 229.445312 219.855469 229.285156 219.714844 229.144531 C 219.574219 229.003906 219.410156 228.894531 219.226562 228.820312 C 219.042969 228.742188 218.851562 228.703125 218.65625 228.703125 Z M 218.625 228.703125 "/></g></svg>