<svg xmlns="http://www.w3.org/2000/svg" xmlns:xlink="http://www.w3.org/1999/xlink" width="500" zoomAndPan="magnify" viewBox="0 0 375 374.999991" height="500" preserveAspectRatio="xMidYMid meet" version="1.2"><defs><clipPath id="6a87c8a1cf"><path d="M 120 103.335938 L 254.988281 103.335938 L 254.988281 253.335938 L 120 253.335938 Z M 120 103.335938 "/></clipPath></defs><g id="55687586ee"><g clip-rule="nonzero" clip-path="url(#6a87c8a1cf)"><path style=" stroke:none;fill-rule:nonzero;fill:#e8e8e8;fill-opacity:1;" d="M 254.585938 133.488281 C 254.476562 132.46875 254.324219 131.960938 253.828125 131.835938 C 253.179688 131.671875 252.957031 131.925781 249 137.238281 C 242.875 145.460938 231.476562 160.761719 223.621094 164.199219 C 223.476562 164.261719 223.328125 164.332031 223.183594 164.398438 C 228.132812 156.308594 230.71875 145.183594 232.039062 136.925781 C 232.984375 131.015625 233.566406 125.066406 233.777344 119.082031 C 233.777344 118.929688 233.734375 118.792969 233.644531 118.671875 C 233.550781 118.550781 233.433594 118.472656 233.285156 118.433594 C 233.140625 118.398438 232.996094 118.40625 232.859375 118.46875 C 232.71875 118.527344 232.613281 118.625 232.542969 118.757812 C 232.449219 118.933594 223.109375 136.078125 209.957031 144.382812 C 216.519531 130.8125 217.347656 105.222656 217.382812 104.078125 C 217.390625 103.824219 217.285156 103.632812 217.066406 103.5 C 216.847656 103.367188 216.628906 103.363281 216.40625 103.488281 C 209.582031 107.285156 202.300781 116.476562 194.746094 130.8125 C 190.449219 138.980469 187.292969 146.546875 186.042969 149.679688 C 184.992188 147.285156 183.832031 145.355469 182.589844 143.933594 L 180.527344 141.570312 C 172.539062 132.445312 168.894531 128.28125 167.121094 123.691406 C 167.070312 123.554688 166.984375 123.449219 166.863281 123.371094 C 166.742188 123.296875 166.613281 123.261719 166.46875 123.269531 C 166.324219 123.277344 166.199219 123.328125 166.089844 123.417969 C 165.980469 123.511719 165.90625 123.625 165.871094 123.765625 C 165.507812 125.363281 165.226562 126.976562 165.023438 128.605469 C 160.359375 123.707031 153.445312 107.679688 153.371094 107.503906 C 153.3125 107.363281 153.214844 107.257812 153.078125 107.1875 C 152.945312 107.117188 152.800781 107.09375 152.652344 107.121094 C 152.5 107.148438 152.375 107.21875 152.277344 107.335938 C 152.175781 107.449219 152.121094 107.582031 152.113281 107.734375 C 151.546875 120.59375 155.265625 136.140625 156.632812 141.363281 C 156.320312 141.148438 156.007812 140.925781 155.679688 140.703125 C 145.742188 133.917969 135.175781 118.855469 135.066406 118.703125 C 134.980469 118.578125 134.863281 118.492188 134.71875 118.449219 C 134.574219 118.40625 134.429688 118.410156 134.289062 118.464844 C 134.144531 118.523438 134.035156 118.613281 133.960938 118.746094 C 133.882812 118.878906 133.855469 119.019531 133.878906 119.171875 C 133.902344 119.402344 137.230469 142.371094 150.089844 164.175781 C 146.269531 163.835938 133.902344 161.949219 121.089844 151.578125 C 120.851562 151.386719 120.597656 151.371094 120.335938 151.535156 C 120.074219 151.699219 119.976562 151.929688 120.042969 152.234375 C 120.105469 152.515625 121.652344 159.300781 127.1875 167.574219 C 132.132812 174.976562 141.3125 184.929688 157.136719 190.910156 C 155.199219 191.980469 153.546875 193.390625 152.1875 195.140625 C 150.824219 196.890625 149.863281 198.835938 149.300781 200.980469 C 148.835938 202.761719 148.496094 204.570312 148.277344 206.398438 C 148.0625 208.226562 147.972656 210.0625 148.007812 211.902344 C 148.046875 213.746094 148.210938 215.574219 148.5 217.394531 C 148.792969 219.210938 149.207031 221 149.746094 222.761719 C 150.285156 224.523438 150.941406 226.238281 151.714844 227.910156 C 152.492188 229.582031 153.378906 231.191406 154.375 232.738281 C 155.375 234.285156 156.472656 235.757812 157.675781 237.152344 C 158.878906 238.546875 160.171875 239.855469 161.550781 241.070312 C 160.882812 241.816406 160.542969 242.691406 160.542969 243.695312 L 160.542969 249.339844 C 160.542969 249.859375 160.644531 250.363281 160.84375 250.84375 C 161.046875 251.324219 161.328125 251.75 161.699219 252.117188 C 162.066406 252.488281 162.492188 252.773438 162.972656 252.972656 C 163.457031 253.171875 163.957031 253.273438 164.480469 253.273438 L 211.5 253.273438 C 212.023438 253.273438 212.523438 253.171875 213.003906 252.972656 C 213.484375 252.773438 213.910156 252.488281 214.28125 252.117188 C 214.648438 251.75 214.933594 251.324219 215.132812 250.84375 C 215.335938 250.363281 215.433594 249.859375 215.4375 249.339844 L 215.4375 243.695312 C 215.4375 242.707031 215.109375 241.84375 214.457031 241.101562 C 215.835938 239.878906 217.125 238.570312 218.328125 237.171875 C 219.527344 235.773438 220.625 234.300781 221.621094 232.75 C 222.617188 231.199219 223.503906 229.589844 224.277344 227.914062 C 225.050781 226.242188 225.707031 224.527344 226.242188 222.761719 C 226.78125 221 227.195312 219.210938 227.484375 217.390625 C 227.773438 215.570312 227.9375 213.738281 227.976562 211.894531 C 228.011719 210.054688 227.921875 208.21875 227.707031 206.386719 C 227.492188 204.558594 227.152344 202.75 226.683594 200.96875 C 226.121094 198.832031 225.164062 196.890625 223.804688 195.148438 C 222.449219 193.40625 220.804688 192 218.871094 190.929688 C 226.648438 186.925781 233.324219 181.871094 238.726562 175.882812 C 243.445312 170.65625 247.164062 164.796875 249.886719 158.300781 C 254.539062 147.269531 254.992188 137.246094 254.585938 133.488281 Z M 232.347656 121.703125 C 231.90625 129.574219 229.835938 153.117188 220.6875 165.792969 C 212.777344 170.835938 203.042969 182.285156 197.800781 188.847656 L 192.894531 188.847656 C 192.746094 185.808594 192.492188 181.902344 192.054688 177.597656 C 192.46875 177.449219 192.863281 177.265625 193.246094 177.050781 C 194.03125 176.632812 195.140625 175.960938 196.730469 174.882812 C 198.316406 173.808594 200.375 172.324219 202.980469 170.226562 C 205.863281 167.910156 208.605469 165.445312 211.214844 162.824219 C 212.582031 161.441406 213.917969 160.015625 215.152344 158.550781 C 215.78125 157.835938 216.359375 157.085938 216.941406 156.367188 C 217.523438 155.652344 218.058594 154.917969 218.550781 154.183594 L 219.292969 153.117188 L 219.96875 152.066406 L 220.296875 151.542969 L 220.597656 151.019531 L 221.171875 150.019531 C 221.527344 149.363281 221.84375 148.726562 222.140625 148.136719 L 222.875 146.460938 L 223.382812 145.050781 L 223.484375 144.746094 L 223.558594 144.460938 L 223.6875 143.964844 C 223.835938 143.363281 223.890625 143.023438 223.832031 142.996094 C 223.773438 142.964844 223.609375 143.257812 223.355469 143.78125 C 223.226562 144.042969 223.09375 144.386719 222.902344 144.765625 L 222.261719 146.089844 C 221.996094 146.566406 221.71875 147.082031 221.414062 147.640625 C 221.113281 148.203125 220.734375 148.777344 220.367188 149.394531 C 219.578125 150.605469 218.675781 151.9375 217.617188 153.28125 C 215.339844 156.1875 212.863281 158.917969 210.1875 161.464844 C 207.453125 164.109375 204.585938 166.574219 202.019531 168.652344 C 199.457031 170.726562 197.453125 172.234375 195.933594 173.375 C 194.410156 174.515625 193.367188 175.308594 192.671875 175.875 C 192.359375 176.136719 192.117188 176.328125 191.929688 176.503906 C 191.6875 174.226562 191.40625 171.851562 191.035156 169.445312 C 191.613281 167.871094 197.097656 153.636719 209.890625 145.960938 C 220.785156 139.4375 229.195312 126.871094 232.347656 121.703125 Z M 216.019531 105.257812 C 215.757812 110.886719 214.265625 134.726562 207.722656 145.800781 C 197.917969 152.339844 192.621094 162.496094 190.664062 166.949219 C 190.261719 164.519531 189.816406 162.242188 189.332031 160.125 C 189.617188 159.898438 189.878906 159.648438 190.121094 159.375 C 190.644531 158.816406 191.34375 157.953125 192.324219 156.636719 C 193.304688 155.320312 194.558594 153.546875 196.117188 151.144531 C 197.675781 148.738281 199.386719 145.929688 200.980469 143.007812 C 201.78125 141.546875 202.539062 140.054688 203.253906 138.585938 C 203.96875 137.117188 204.605469 135.652344 205.171875 134.253906 C 206.144531 131.910156 206.890625 129.496094 207.414062 127.007812 C 207.769531 125.125 207.761719 123.953125 207.652344 123.925781 C 207.59375 123.910156 207.488281 124.1875 207.351562 124.664062 C 207.214844 125.144531 207.011719 125.871094 206.746094 126.765625 C 205.996094 129.105469 205.097656 131.386719 204.050781 133.609375 C 202.804688 136.269531 201.261719 139.1875 199.613281 142.007812 C 197.964844 144.828125 196.246094 147.589844 194.707031 149.96875 C 193.167969 152.351562 191.949219 154.144531 191.046875 155.515625 C 190.148438 156.886719 189.542969 157.832031 189.15625 158.5 C 189.097656 158.597656 189.046875 158.6875 189 158.773438 C 188.402344 156.28125 187.65625 153.828125 186.753906 151.425781 C 187.957031 148.335938 201.289062 114.652344 216.019531 105.257812 Z M 166.734375 126.070312 C 168.808594 130.1875 172.507812 134.425781 179.53125 142.441406 L 181.59375 144.804688 C 182.992188 146.402344 184.289062 148.714844 185.441406 151.679688 C 187.191406 156.164062 188.632812 162.160156 189.726562 169.492188 C 190.875 177.179688 191.375 184.683594 191.582031 188.859375 L 189.140625 188.859375 C 189.054688 188.417969 188.9375 187.988281 188.789062 187.566406 C 188.230469 185.84375 186.914062 182.578125 184.382812 176.242188 C 181.847656 169.90625 178.675781 161.648438 176.292969 154.910156 C 175.714844 153.21875 175.136719 151.640625 174.65625 150.203125 L 173.363281 146.410156 C 172.652344 144.265625 172.167969 142.972656 172.050781 142.988281 C 171.9375 143.003906 172.167969 144.324219 172.664062 146.507812 C 173.160156 148.695312 173.988281 151.71875 175.027344 155.132812 C 177.082031 161.957031 180.058594 170.308594 182.609375 176.671875 C 183.871094 179.855469 184.894531 182.253906 185.703125 184.0625 C 186.511719 185.871094 187.105469 187.085938 187.539062 187.90625 C 187.761719 188.316406 187.945312 188.625 188.101562 188.859375 L 182.652344 188.859375 C 178.429688 183.535156 174.964844 177.761719 172.25 171.535156 C 169.535156 165.304688 167.667969 158.832031 166.644531 152.117188 C 166.644531 152.105469 166.644531 152.089844 166.644531 152.078125 C 164.746094 139.949219 166.015625 130.109375 166.734375 126.070312 Z M 164.820312 130.226562 C 164.152344 136.410156 164.171875 142.59375 164.871094 148.777344 C 163.671875 147.214844 161.664062 145.140625 158.308594 142.605469 C 157.753906 140.625 153.402344 124.6875 153.355469 110.730469 C 155.722656 115.921875 161.03125 126.980469 164.820312 130.226562 Z M 154.929688 141.789062 C 155.789062 142.378906 156.597656 142.957031 157.332031 143.507812 L 157.351562 143.523438 C 164.664062 149.011719 165.316406 152.164062 165.339844 152.296875 C 166.054688 156.886719 167.152344 161.382812 168.632812 165.785156 L 168.371094 165.550781 C 168.023438 165.222656 167.601562 164.835938 167.097656 164.390625 C 166.847656 164.160156 166.574219 163.933594 166.28125 163.660156 L 165.367188 162.78125 C 165.039062 162.46875 164.679688 162.140625 164.316406 161.777344 L 163.15625 160.59375 L 162.527344 159.957031 C 162.316406 159.738281 162.109375 159.503906 161.894531 159.277344 L 160.585938 157.878906 L 159.273438 156.378906 L 158.605469 155.617188 L 157.949219 154.828125 C 156.179688 152.746094 154.476562 150.574219 152.976562 148.617188 C 149.972656 144.703125 147.839844 141.613281 147.636719 141.765625 C 147.4375 141.917969 149.210938 145.308594 152.003906 149.472656 C 154.792969 153.636719 158.5625 158.585938 161.976562 162.011719 L 163.175781 163.21875 L 164.285156 164.230469 L 165.257812 165.101562 L 166.148438 165.796875 C 166.703125 166.222656 167.160156 166.585938 167.566406 166.847656 C 167.972656 167.109375 168.332031 167.308594 168.617188 167.460938 C 168.855469 167.59375 169.105469 167.710938 169.359375 167.804688 C 172.15625 175.414062 176.03125 182.429688 180.984375 188.847656 L 173.082031 188.847656 C 165 182.6875 157.859375 174.523438 151.835938 164.566406 C 141.269531 147.082031 136.96875 128.585938 135.65625 121.738281 C 139.066406 126.289062 147.160156 136.484375 154.929688 141.789062 Z M 128.292969 166.90625 C 125.554688 162.851562 123.40625 158.507812 121.859375 153.867188 C 135.617188 164.300781 148.578125 165.4375 150.902344 165.554688 C 156.628906 174.960938 163.363281 182.792969 170.949219 188.855469 L 164.851562 188.855469 C 164.597656 188.625 164.328125 188.417969 164.042969 188.226562 C 162.816406 187.359375 160.289062 185.886719 155.441406 182.960938 C 153.019531 181.496094 150.257812 179.777344 147.515625 177.976562 C 144.777344 176.171875 142.066406 174.269531 139.734375 172.464844 C 137.765625 170.96875 135.894531 169.355469 134.125 167.628906 C 132.8125 166.316406 132.085938 165.433594 131.960938 165.5 C 131.832031 165.570312 132.367188 166.566406 133.535156 168.039062 C 135.132812 169.972656 136.886719 171.746094 138.804688 173.363281 C 143.300781 177.296875 149.429688 181.449219 154.3125 184.410156 C 158.601562 187.003906 161.175781 188.335938 162.710938 189.03125 C 161.355469 189.230469 160.042969 189.59375 158.777344 190.125 C 142.5625 184.332031 133.253906 174.3125 128.292969 166.90625 Z M 214.125 249.332031 C 214.125 249.679688 214.058594 250.015625 213.925781 250.335938 C 213.792969 250.660156 213.601562 250.941406 213.355469 251.1875 C 213.109375 251.433594 212.824219 251.625 212.503906 251.757812 C 212.183594 251.890625 211.847656 251.957031 211.5 251.957031 L 164.488281 251.957031 C 164.140625 251.957031 163.804688 251.890625 163.484375 251.757812 C 163.164062 251.625 162.878906 251.433594 162.632812 251.1875 C 162.386719 250.941406 162.199219 250.660156 162.0625 250.335938 C 161.929688 250.015625 161.863281 249.679688 161.863281 249.332031 L 161.863281 243.695312 C 161.863281 243.277344 161.960938 242.882812 162.148438 242.507812 C 162.339844 242.136719 162.601562 241.824219 162.941406 241.578125 C 163.402344 241.238281 163.917969 241.070312 164.492188 241.070312 L 211.5 241.070312 C 212.082031 241.070312 212.609375 241.246094 213.074219 241.59375 L 213.113281 241.621094 C 213.433594 241.871094 213.683594 242.179688 213.859375 242.542969 C 214.035156 242.90625 214.125 243.292969 214.125 243.695312 Z M 225.410156 201.308594 C 225.863281 203.039062 226.191406 204.796875 226.402344 206.574219 C 226.609375 208.355469 226.695312 210.140625 226.65625 211.929688 C 226.617188 213.722656 226.457031 215.5 226.167969 217.269531 C 225.882812 219.035156 225.476562 220.777344 224.949219 222.488281 C 224.421875 224.203125 223.78125 225.867188 223.023438 227.492188 C 222.265625 229.113281 221.398438 230.675781 220.421875 232.179688 C 219.449219 233.683594 218.375 235.109375 217.203125 236.464844 C 216.027344 237.816406 214.765625 239.085938 213.417969 240.261719 C 212.820312 239.921875 212.175781 239.753906 211.484375 239.75 L 164.488281 239.75 C 163.816406 239.75 163.183594 239.914062 162.59375 240.238281 C 161.242188 239.066406 159.976562 237.800781 158.800781 236.453125 C 157.625 235.101562 156.546875 233.675781 155.570312 232.175781 C 154.59375 230.671875 153.722656 229.113281 152.960938 227.492188 C 152.199219 225.871094 151.554688 224.203125 151.027344 222.492188 C 150.496094 220.78125 150.089844 219.039062 149.800781 217.273438 C 149.515625 215.503906 149.351562 213.726562 149.3125 211.933594 C 149.273438 210.144531 149.355469 208.359375 149.566406 206.578125 C 149.773438 204.800781 150.105469 203.042969 150.558594 201.3125 C 150.890625 200.035156 151.386719 198.824219 152.046875 197.683594 L 189.761719 197.683594 C 189.945312 197.683594 190.097656 197.617188 190.226562 197.488281 C 190.355469 197.363281 190.417969 197.207031 190.417969 197.027344 C 190.417969 196.84375 190.355469 196.691406 190.226562 196.5625 C 190.097656 196.433594 189.945312 196.371094 189.761719 196.371094 L 152.894531 196.371094 C 154.488281 194.175781 156.527344 192.53125 159.011719 191.441406 L 159.078125 191.414062 C 161.003906 190.578125 163.015625 190.160156 165.113281 190.164062 L 210.878906 190.164062 C 211.703125 190.160156 212.519531 190.222656 213.332031 190.355469 C 214.144531 190.488281 214.941406 190.683594 215.71875 190.945312 C 216.5 191.207031 217.253906 191.53125 217.980469 191.917969 C 218.707031 192.304688 219.398438 192.75 220.050781 193.25 C 220.703125 193.75 221.3125 194.300781 221.875 194.898438 C 222.4375 195.5 222.949219 196.144531 223.40625 196.828125 C 223.863281 197.511719 224.261719 198.230469 224.601562 198.976562 C 224.941406 199.726562 225.214844 200.5 225.429688 201.296875 Z M 249.695312 155.253906 C 245.804688 165.796875 237.046875 180.398438 217.414062 190.203125 C 215.839844 189.523438 214.199219 189.101562 212.492188 188.933594 L 212.777344 188.738281 C 214.332031 187.636719 217.257812 185.34375 222.605469 180.503906 C 227.957031 175.667969 234.636719 169.101562 239.402344 163.183594 C 241.785156 160.230469 243.660156 157.410156 244.6875 155.21875 C 245.113281 154.355469 245.433594 153.453125 245.648438 152.515625 C 245.707031 152.257812 245.738281 151.996094 245.75 151.730469 C 245.75 151.546875 245.75 151.449219 245.710938 151.441406 C 245.675781 151.429688 245.632812 151.507812 245.570312 151.664062 C 245.539062 151.742188 245.503906 151.839844 245.460938 151.953125 L 245.308594 152.347656 C 244.96875 153.191406 244.566406 154 244.105469 154.785156 C 242.941406 156.789062 240.984375 159.402344 238.535156 162.191406 C 233.648438 167.789062 226.894531 174.140625 221.589844 178.960938 L 215.367188 184.574219 C 213.832031 185.964844 212.792969 186.9375 212.105469 187.617188 C 211.699219 187.996094 211.335938 188.40625 211.003906 188.851562 L 199.484375 188.851562 C 204.828125 182.21875 214.046875 171.53125 221.5 166.832031 C 222.347656 166.289062 223.230469 165.8125 224.148438 165.402344 C 232.320312 161.8125 243.855469 146.332031 250.054688 138.019531 C 251.332031 136.304688 252.558594 134.65625 253.300781 133.75 C 253.570312 136.582031 253.417969 145.160156 249.695312 155.253906 Z M 249.695312 155.253906 "/></g><path style=" stroke:none;fill-rule:nonzero;fill:#e8e8e8;fill-opacity:1;" d="M 201.121094 196.371094 L 194.964844 196.371094 C 194.785156 196.371094 194.628906 196.433594 194.503906 196.5625 C 194.375 196.691406 194.308594 196.84375 194.308594 197.027344 C 194.308594 197.207031 194.375 197.363281 194.503906 197.488281 C 194.628906 197.617188 194.785156 197.683594 194.964844 197.683594 L 201.132812 197.683594 C 201.316406 197.683594 201.46875 197.617188 201.597656 197.488281 C 201.726562 197.363281 201.789062 197.207031 201.789062 197.027344 C 201.789062 196.84375 201.726562 196.691406 201.597656 196.5625 C 201.46875 196.433594 201.316406 196.371094 201.132812 196.371094 Z M 201.121094 196.371094 "/></g></svg>