<svg xmlns="http://www.w3.org/2000/svg" xmlns:xlink="http://www.w3.org/1999/xlink" width="500" zoomAndPan="magnify" viewBox="0 0 375 374.999991" height="500" preserveAspectRatio="xMidYMid meet" version="1.2"><defs><clipPath id="349fe249f0"><path d="M 212 133.773438 L 219 133.773438 L 219 150 L 212 150 Z M 212 133.773438 "/></clipPath><clipPath id="e59a9c30be"><path d="M 246 177 L 262.5 177 L 262.5 184 L 246 184 Z M 246 177 "/></clipPath><clipPath id="62577ea726"><path d="M 112.5 171 L 234 171 L 234 241.023438 L 112.5 241.023438 Z M 112.5 171 "/></clipPath></defs><g id="3d730074ab"><path style=" stroke:none;fill-rule:nonzero;fill:#e8e8e8;fill-opacity:1;" d="M 239.359375 180.121094 C 239.359375 180.894531 239.320312 181.664062 239.246094 182.433594 C 239.171875 183.203125 239.058594 183.964844 238.90625 184.722656 C 238.753906 185.480469 238.566406 186.230469 238.34375 186.96875 C 238.117188 187.710938 237.859375 188.4375 237.5625 189.152344 C 237.265625 189.863281 236.9375 190.5625 236.574219 191.246094 C 236.207031 191.925781 235.8125 192.589844 235.382812 193.230469 C 234.953125 193.875 234.492188 194.492188 234.003906 195.089844 C 233.511719 195.6875 232.992188 196.261719 232.449219 196.808594 C 231.902344 197.355469 231.328125 197.871094 230.730469 198.363281 C 230.132812 198.851562 229.515625 199.3125 228.871094 199.742188 C 228.226562 200.171875 227.566406 200.570312 226.882812 200.933594 C 226.203125 201.296875 225.503906 201.628906 224.792969 201.921875 C 224.078125 202.21875 223.351562 202.480469 222.609375 202.703125 C 221.871094 202.925781 221.121094 203.113281 220.363281 203.265625 C 219.605469 203.417969 218.84375 203.53125 218.074219 203.605469 C 217.304688 203.679688 216.53125 203.71875 215.761719 203.71875 C 214.988281 203.71875 214.214844 203.679688 213.445312 203.605469 C 212.675781 203.53125 211.914062 203.417969 211.15625 203.265625 C 210.398438 203.113281 209.648438 202.925781 208.910156 202.703125 C 208.167969 202.480469 207.441406 202.21875 206.730469 201.921875 C 206.015625 201.628906 205.316406 201.296875 204.636719 200.933594 C 203.953125 200.570312 203.292969 200.171875 202.648438 199.742188 C 202.007812 199.3125 201.386719 198.851562 200.789062 198.363281 C 200.191406 197.871094 199.617188 197.355469 199.074219 196.808594 C 198.527344 196.261719 198.007812 195.6875 197.515625 195.089844 C 197.027344 194.492188 196.566406 193.875 196.136719 193.230469 C 195.707031 192.589844 195.3125 191.925781 194.945312 191.246094 C 194.582031 190.5625 194.253906 189.863281 193.957031 189.152344 C 193.660156 188.4375 193.402344 187.710938 193.175781 186.96875 C 192.953125 186.230469 192.765625 185.480469 192.613281 184.722656 C 192.460938 183.964844 192.347656 183.203125 192.273438 182.433594 C 192.199219 181.664062 192.160156 180.894531 192.160156 180.121094 C 192.160156 179.347656 192.199219 178.574219 192.273438 177.804688 C 192.347656 177.039062 192.460938 176.273438 192.613281 175.515625 C 192.765625 174.757812 192.953125 174.007812 193.175781 173.269531 C 193.402344 172.53125 193.660156 171.800781 193.957031 171.089844 C 194.253906 170.375 194.582031 169.675781 194.945312 168.996094 C 195.3125 168.3125 195.707031 167.652344 196.136719 167.007812 C 196.566406 166.367188 197.027344 165.746094 197.515625 165.148438 C 198.007812 164.550781 198.527344 163.980469 199.074219 163.433594 C 199.617188 162.886719 200.191406 162.367188 200.789062 161.878906 C 201.386719 161.386719 202.007812 160.925781 202.648438 160.496094 C 203.292969 160.066406 203.953125 159.671875 204.636719 159.308594 C 205.316406 158.941406 206.015625 158.613281 206.730469 158.316406 C 207.441406 158.019531 208.167969 157.761719 208.910156 157.535156 C 209.648438 157.3125 210.398438 157.125 211.15625 156.972656 C 211.914062 156.824219 212.675781 156.710938 213.445312 156.632812 C 214.214844 156.558594 214.988281 156.519531 215.761719 156.519531 C 216.53125 156.519531 217.304688 156.558594 218.074219 156.632812 C 218.84375 156.710938 219.605469 156.824219 220.363281 156.972656 C 221.121094 157.125 221.871094 157.3125 222.609375 157.535156 C 223.351562 157.761719 224.078125 158.019531 224.792969 158.316406 C 225.503906 158.613281 226.203125 158.941406 226.882812 159.308594 C 227.566406 159.671875 228.226562 160.066406 228.871094 160.496094 C 229.515625 160.925781 230.132812 161.386719 230.730469 161.878906 C 231.328125 162.367188 231.902344 162.886719 232.449219 163.433594 C 232.992188 163.980469 233.511719 164.550781 234.003906 165.148438 C 234.492188 165.746094 234.953125 166.367188 235.382812 167.007812 C 235.8125 167.652344 236.207031 168.3125 236.574219 168.996094 C 236.9375 169.675781 237.265625 170.375 237.5625 171.089844 C 237.859375 171.800781 238.117188 172.53125 238.34375 173.269531 C 238.566406 174.007812 238.753906 174.757812 238.90625 175.515625 C 239.058594 176.273438 239.171875 177.039062 239.246094 177.804688 C 239.320312 178.574219 239.359375 179.347656 239.359375 180.121094 Z M 239.359375 180.121094 "/><g clip-rule="nonzero" clip-path="url(#349fe249f0)"><path style=" stroke:none;fill-rule:nonzero;fill:#e8e8e8;fill-opacity:1;" d="M 215.757812 133.761719 C 214.046875 133.761719 212.667969 135.417969 212.667969 137.472656 L 212.667969 145.507812 C 212.667969 147.5625 214.046875 149.214844 215.757812 149.214844 C 217.472656 149.214844 218.851562 147.5625 218.851562 145.507812 L 218.851562 137.472656 C 218.851562 135.417969 217.472656 133.761719 215.757812 133.761719 Z M 215.757812 133.761719 "/></g><path style=" stroke:none;fill-rule:nonzero;fill:#e8e8e8;fill-opacity:1;" d="M 248.539062 147.339844 C 247.328125 146.128906 245.183594 146.324219 243.730469 147.777344 L 238.050781 153.460938 C 236.597656 154.914062 236.402344 157.054688 237.613281 158.265625 C 238.824219 159.476562 240.96875 159.28125 242.421875 157.828125 L 248.101562 152.148438 C 249.554688 150.695312 249.75 148.550781 248.539062 147.339844 Z M 248.539062 147.339844 "/><g clip-rule="nonzero" clip-path="url(#e59a9c30be)"><path style=" stroke:none;fill-rule:nonzero;fill:#e8e8e8;fill-opacity:1;" d="M 262.117188 180.121094 C 262.117188 178.40625 260.464844 177.03125 258.410156 177.03125 L 250.375 177.03125 C 248.320312 177.03125 246.664062 178.40625 246.664062 180.121094 C 246.664062 181.832031 248.320312 183.210938 250.375 183.210938 L 258.410156 183.210938 C 260.464844 183.210938 262.117188 181.832031 262.117188 180.121094 Z M 262.117188 180.121094 "/></g><path style=" stroke:none;fill-rule:nonzero;fill:#e8e8e8;fill-opacity:1;" d="M 248.539062 212.898438 C 249.75 211.691406 249.554688 209.546875 248.101562 208.09375 L 242.421875 202.410156 C 240.96875 200.957031 238.824219 200.761719 237.613281 201.972656 C 236.402344 203.183594 236.597656 205.328125 238.050781 206.78125 L 243.730469 212.464844 C 245.183594 213.914062 247.328125 214.109375 248.539062 212.898438 Z M 248.539062 212.898438 "/><path style=" stroke:none;fill-rule:nonzero;fill:#e8e8e8;fill-opacity:1;" d="M 215.757812 226.476562 C 217.472656 226.476562 218.851562 224.824219 218.851562 222.769531 L 218.851562 214.734375 C 218.851562 212.679688 217.472656 211.027344 215.757812 211.027344 C 214.046875 211.027344 212.667969 212.679688 212.667969 214.734375 L 212.667969 222.769531 C 212.667969 224.824219 214.046875 226.476562 215.757812 226.476562 Z M 215.757812 226.476562 "/><path style=" stroke:none;fill-rule:nonzero;fill:#e8e8e8;fill-opacity:1;" d="M 182.980469 212.898438 C 184.191406 214.109375 186.335938 213.914062 187.789062 212.464844 L 193.46875 206.78125 C 194.921875 205.328125 195.117188 203.183594 193.90625 201.972656 C 192.695312 200.761719 190.550781 200.957031 189.097656 202.410156 L 183.417969 208.09375 C 181.964844 209.546875 181.769531 211.691406 182.980469 212.898438 Z M 182.980469 212.898438 "/><path style=" stroke:none;fill-rule:nonzero;fill:#e8e8e8;fill-opacity:1;" d="M 169.402344 180.121094 C 169.402344 181.832031 171.054688 183.210938 173.109375 183.210938 L 181.144531 183.210938 C 183.199219 183.210938 184.855469 181.832031 184.855469 180.121094 C 184.855469 178.40625 183.199219 177.03125 181.144531 177.03125 L 173.109375 177.03125 C 171.054688 177.03125 169.402344 178.40625 169.402344 180.121094 Z M 169.402344 180.121094 "/><path style=" stroke:none;fill-rule:nonzero;fill:#e8e8e8;fill-opacity:1;" d="M 182.980469 147.339844 C 181.769531 148.550781 181.964844 150.695312 183.417969 152.148438 L 189.097656 157.828125 C 190.550781 159.28125 192.695312 159.476562 193.90625 158.265625 C 195.117188 157.054688 194.921875 154.914062 193.46875 153.460938 L 187.789062 147.777344 C 186.335938 146.324219 184.191406 146.128906 182.980469 147.339844 Z M 182.980469 147.339844 "/><g clip-rule="nonzero" clip-path="url(#62577ea726)"><path style=" stroke:none;fill-rule:nonzero;fill:#e8e8e8;fill-opacity:1;" d="M 157.105469 171.011719 C 156.222656 171.011719 155.347656 171.054688 154.46875 171.140625 C 153.59375 171.226562 152.722656 171.355469 151.859375 171.527344 C 150.996094 171.699219 150.144531 171.914062 149.300781 172.171875 C 148.460938 172.425781 147.632812 172.722656 146.820312 173.058594 C 146.003906 173.394531 145.210938 173.769531 144.433594 174.1875 C 143.660156 174.601562 142.902344 175.054688 142.171875 175.542969 C 141.441406 176.03125 140.734375 176.554688 140.054688 177.113281 C 139.375 177.671875 138.722656 178.261719 138.097656 178.886719 C 137.476562 179.507812 136.886719 180.160156 136.328125 180.839844 C 135.769531 181.519531 135.246094 182.226562 134.757812 182.957031 C 134.269531 183.691406 133.816406 184.445312 133.402344 185.21875 C 132.984375 185.996094 132.609375 186.792969 132.273438 187.605469 C 131.9375 188.417969 131.640625 189.246094 131.382812 190.085938 C 131.128906 190.929688 130.914062 191.78125 130.742188 192.644531 C 130.570312 193.507812 130.441406 194.378906 130.355469 195.253906 C 130.269531 196.132812 130.226562 197.007812 130.226562 197.890625 C 130.234375 198.886719 130.292969 199.875 130.410156 200.863281 C 120.273438 202.683594 112.667969 210.871094 112.667969 220.757812 C 112.667969 231.988281 122.484375 241.027344 134.675781 241.027344 L 213.207031 241.027344 C 224.4375 241.027344 233.480469 232.625 233.480469 222.1875 C 233.480469 211.8125 224.550781 203.453125 213.417969 203.347656 C 213.328125 202.652344 213.210938 201.964844 213.058594 201.277344 C 212.910156 200.59375 212.726562 199.917969 212.515625 199.25 C 212.304688 198.582031 212.0625 197.921875 211.792969 197.277344 C 211.523438 196.628906 211.222656 195.996094 210.894531 195.378906 C 210.566406 194.757812 210.210938 194.15625 209.828125 193.566406 C 209.445312 192.980469 209.035156 192.410156 208.601562 191.859375 C 208.167969 191.3125 207.710938 190.78125 207.226562 190.273438 C 206.746094 189.761719 206.242188 189.277344 205.714844 188.8125 C 205.191406 188.351562 204.644531 187.910156 204.078125 187.496094 C 203.511719 187.082031 202.929688 186.695312 202.328125 186.332031 C 201.730469 185.972656 201.113281 185.636719 200.484375 185.332031 C 199.851562 185.027344 199.207031 184.75 198.554688 184.5 C 197.898438 184.253906 197.230469 184.035156 196.554688 183.847656 C 195.878906 183.660156 195.199219 183.503906 194.507812 183.378906 C 193.820312 183.253906 193.125 183.15625 192.425781 183.09375 C 191.730469 183.03125 191.027344 183 190.328125 183 C 186.980469 183.003906 183.78125 183.699219 180.734375 185.085938 C 180.160156 184.023438 179.519531 183.007812 178.808594 182.035156 C 178.097656 181.0625 177.324219 180.144531 176.488281 179.273438 C 175.65625 178.40625 174.765625 177.59375 173.824219 176.847656 C 172.878906 176.097656 171.890625 175.414062 170.855469 174.796875 C 169.820312 174.179688 168.75 173.636719 167.640625 173.164062 C 166.53125 172.691406 165.398438 172.296875 164.234375 171.976562 C 163.074219 171.65625 161.894531 171.414062 160.703125 171.253906 C 159.507812 171.09375 158.308594 171.011719 157.105469 171.011719 Z M 157.105469 171.011719 "/></g></g></svg>