<svg xmlns="http://www.w3.org/2000/svg" xmlns:xlink="http://www.w3.org/1999/xlink" width="500" zoomAndPan="magnify" viewBox="0 0 375 374.999991" height="500" preserveAspectRatio="xMidYMid meet" version="1.2"><defs><clipPath id="dd29ba6e7b"><path d="M 248 58.566406 L 264 58.566406 L 264 96 L 248 96 Z M 248 58.566406 "/></clipPath><clipPath id="8447a98305"><path d="M 330 162 L 367.519531 162 L 367.519531 178 L 330 178 Z M 330 162 "/></clipPath><clipPath id="31e640133f"><path d="M 7.519531 148 L 299 148 L 299 316.566406 L 7.519531 316.566406 Z M 7.519531 148 "/></clipPath></defs><g id="b3abb2ba69"><path style=" stroke:none;fill-rule:nonzero;fill:#e8e8e8;fill-opacity:1;" d="M 312.515625 170 C 312.515625 171.855469 312.421875 173.710938 312.242188 175.558594 C 312.058594 177.410156 311.785156 179.246094 311.421875 181.066406 C 311.0625 182.890625 310.609375 184.691406 310.070312 186.46875 C 309.53125 188.246094 308.90625 189.996094 308.195312 191.710938 C 307.484375 193.429688 306.691406 195.105469 305.8125 196.746094 C 304.9375 198.386719 303.984375 199.976562 302.953125 201.523438 C 301.917969 203.066406 300.8125 204.558594 299.632812 205.996094 C 298.457031 207.429688 297.207031 208.804688 295.894531 210.121094 C 294.582031 211.433594 293.207031 212.679688 291.769531 213.859375 C 290.332031 215.039062 288.839844 216.144531 287.296875 217.175781 C 285.75 218.210938 284.160156 219.164062 282.519531 220.039062 C 280.882812 220.914062 279.203125 221.707031 277.488281 222.421875 C 275.769531 223.132812 274.023438 223.757812 272.246094 224.296875 C 270.464844 224.835938 268.664062 225.285156 266.84375 225.648438 C 265.019531 226.011719 263.183594 226.285156 261.335938 226.464844 C 259.484375 226.648438 257.632812 226.738281 255.773438 226.738281 C 253.914062 226.738281 252.0625 226.648438 250.210938 226.464844 C 248.363281 226.285156 246.527344 226.011719 244.703125 225.648438 C 242.882812 225.285156 241.082031 224.835938 239.300781 224.296875 C 237.523438 223.757812 235.777344 223.132812 234.058594 222.421875 C 232.34375 221.707031 230.664062 220.914062 229.027344 220.039062 C 227.386719 219.164062 225.796875 218.210938 224.25 217.175781 C 222.707031 216.144531 221.214844 215.039062 219.777344 213.859375 C 218.339844 212.679688 216.964844 211.433594 215.652344 210.121094 C 214.339844 208.804688 213.089844 207.429688 211.914062 205.996094 C 210.734375 204.558594 209.628906 203.066406 208.59375 201.523438 C 207.5625 199.976562 206.609375 198.386719 205.734375 196.746094 C 204.855469 195.105469 204.0625 193.429688 203.351562 191.710938 C 202.640625 189.996094 202.015625 188.246094 201.476562 186.46875 C 200.9375 184.691406 200.484375 182.890625 200.125 181.066406 C 199.761719 179.246094 199.488281 177.410156 199.304688 175.558594 C 199.125 173.710938 199.03125 171.855469 199.03125 170 C 199.03125 168.140625 199.125 166.285156 199.304688 164.4375 C 199.488281 162.585938 199.761719 160.75 200.125 158.929688 C 200.484375 157.105469 200.9375 155.304688 201.476562 153.527344 C 202.015625 151.75 202.640625 150.003906 203.351562 148.285156 C 204.0625 146.570312 204.855469 144.890625 205.734375 143.25 C 206.609375 141.613281 207.5625 140.019531 208.59375 138.476562 C 209.628906 136.929688 210.734375 135.441406 211.914062 134.003906 C 213.089844 132.566406 214.339844 131.191406 215.652344 129.878906 C 216.964844 128.5625 218.339844 127.316406 219.777344 126.136719 C 221.214844 124.960938 222.707031 123.851562 224.25 122.820312 C 225.796875 121.789062 227.386719 120.835938 229.027344 119.957031 C 230.664062 119.082031 232.34375 118.289062 234.058594 117.578125 C 235.777344 116.867188 237.523438 116.242188 239.300781 115.703125 C 241.082031 115.164062 242.882812 114.710938 244.703125 114.347656 C 246.527344 113.984375 248.363281 113.714844 250.210938 113.53125 C 252.0625 113.347656 253.914062 113.257812 255.773438 113.257812 C 257.632812 113.257812 259.484375 113.347656 261.335938 113.53125 C 263.183594 113.714844 265.019531 113.984375 266.84375 114.347656 C 268.664062 114.710938 270.464844 115.164062 272.246094 115.703125 C 274.023438 116.242188 275.769531 116.867188 277.488281 117.578125 C 279.203125 118.289062 280.882812 119.082031 282.519531 119.957031 C 284.160156 120.835938 285.75 121.789062 287.296875 122.820312 C 288.839844 123.851562 290.332031 124.960938 291.769531 126.136719 C 293.207031 127.316406 294.582031 128.5625 295.894531 129.878906 C 297.207031 131.191406 298.457031 132.566406 299.632812 134.003906 C 300.8125 135.441406 301.917969 136.929688 302.953125 138.476562 C 303.984375 140.019531 304.9375 141.613281 305.8125 143.25 C 306.691406 144.890625 307.484375 146.570312 308.195312 148.285156 C 308.90625 150.003906 309.53125 151.75 310.070312 153.527344 C 310.609375 155.304688 311.0625 157.105469 311.421875 158.929688 C 311.785156 160.75 312.058594 162.585938 312.242188 164.4375 C 312.421875 166.285156 312.515625 168.140625 312.515625 170 Z M 312.515625 170 "/><g clip-rule="nonzero" clip-path="url(#dd29ba6e7b)"><path style=" stroke:none;fill-rule:nonzero;fill:#e8e8e8;fill-opacity:1;" d="M 255.773438 58.542969 C 251.65625 58.542969 248.34375 62.519531 248.34375 67.460938 L 248.34375 86.777344 C 248.34375 91.71875 251.65625 95.695312 255.773438 95.695312 C 259.890625 95.695312 263.203125 91.71875 263.203125 86.777344 L 263.203125 67.460938 C 263.203125 62.519531 259.890625 58.542969 255.773438 58.542969 Z M 255.773438 58.542969 "/></g><path style=" stroke:none;fill-rule:nonzero;fill:#e8e8e8;fill-opacity:1;" d="M 334.585938 91.1875 C 331.675781 88.277344 326.519531 88.746094 323.027344 92.238281 L 309.363281 105.898438 C 305.871094 109.390625 305.402344 114.546875 308.3125 117.457031 C 311.226562 120.371094 316.378906 119.902344 319.875 116.40625 L 333.535156 102.746094 C 337.027344 99.253906 337.496094 94.097656 334.585938 91.1875 Z M 334.585938 91.1875 "/><g clip-rule="nonzero" clip-path="url(#8447a98305)"><path style=" stroke:none;fill-rule:nonzero;fill:#e8e8e8;fill-opacity:1;" d="M 367.230469 170 C 367.230469 165.882812 363.253906 162.570312 358.3125 162.570312 L 338.996094 162.570312 C 334.054688 162.570312 330.078125 165.882812 330.078125 170 C 330.078125 174.117188 334.054688 177.429688 338.996094 177.429688 L 358.3125 177.429688 C 363.253906 177.429688 367.230469 174.117188 367.230469 170 Z M 367.230469 170 "/></g><path style=" stroke:none;fill-rule:nonzero;fill:#e8e8e8;fill-opacity:1;" d="M 334.585938 248.8125 C 337.496094 245.902344 337.027344 240.746094 333.535156 237.253906 L 319.875 223.59375 C 316.378906 220.097656 311.226562 219.628906 308.3125 222.542969 C 305.402344 225.453125 305.871094 230.609375 309.363281 234.101562 L 323.027344 247.761719 C 326.519531 251.253906 331.675781 251.722656 334.585938 248.8125 Z M 334.585938 248.8125 "/><path style=" stroke:none;fill-rule:nonzero;fill:#e8e8e8;fill-opacity:1;" d="M 255.773438 281.457031 C 259.890625 281.457031 263.203125 277.480469 263.203125 272.539062 L 263.203125 253.222656 C 263.203125 248.28125 259.890625 244.304688 255.773438 244.304688 C 251.65625 244.304688 248.34375 248.28125 248.34375 253.222656 L 248.34375 272.539062 C 248.34375 277.480469 251.65625 281.457031 255.773438 281.457031 Z M 255.773438 281.457031 "/><path style=" stroke:none;fill-rule:nonzero;fill:#e8e8e8;fill-opacity:1;" d="M 176.960938 248.8125 C 179.871094 251.722656 185.027344 251.253906 188.519531 247.761719 L 202.179688 234.101562 C 205.671875 230.609375 206.140625 225.453125 203.230469 222.542969 C 200.320312 219.628906 195.164062 220.097656 191.671875 223.59375 L 178.011719 237.253906 C 174.519531 240.746094 174.050781 245.902344 176.960938 248.8125 Z M 176.960938 248.8125 "/><path style=" stroke:none;fill-rule:nonzero;fill:#e8e8e8;fill-opacity:1;" d="M 144.316406 170 C 144.316406 174.117188 148.292969 177.429688 153.230469 177.429688 L 172.550781 177.429688 C 177.492188 177.429688 181.46875 174.117188 181.46875 170 C 181.46875 165.882812 177.492188 162.570312 172.550781 162.570312 L 153.230469 162.570312 C 148.292969 162.570312 144.316406 165.882812 144.316406 170 Z M 144.316406 170 "/><path style=" stroke:none;fill-rule:nonzero;fill:#e8e8e8;fill-opacity:1;" d="M 176.960938 91.1875 C 174.050781 94.097656 174.519531 99.253906 178.011719 102.746094 L 191.671875 116.40625 C 195.164062 119.902344 200.320312 120.371094 203.230469 117.457031 C 206.140625 114.546875 205.671875 109.390625 202.179688 105.898438 L 188.519531 92.238281 C 185.027344 88.746094 179.871094 88.277344 176.960938 91.1875 Z M 176.960938 91.1875 "/><g clip-rule="nonzero" clip-path="url(#31e640133f)"><path style=" stroke:none;fill-rule:nonzero;fill:#e8e8e8;fill-opacity:1;" d="M 114.75 148.101562 C 113.691406 148.101562 112.636719 148.128906 111.578125 148.179688 C 110.523438 148.230469 109.46875 148.308594 108.414062 148.414062 C 107.363281 148.515625 106.3125 148.648438 105.269531 148.800781 C 104.222656 148.957031 103.179688 149.136719 102.140625 149.34375 C 101.105469 149.550781 100.074219 149.78125 99.046875 150.039062 C 98.023438 150.296875 97.003906 150.578125 95.992188 150.886719 C 94.980469 151.191406 93.976562 151.523438 92.980469 151.878906 C 91.984375 152.238281 90.996094 152.617188 90.019531 153.023438 C 89.042969 153.425781 88.078125 153.855469 87.121094 154.308594 C 86.164062 154.757812 85.21875 155.234375 84.289062 155.734375 C 83.355469 156.230469 82.433594 156.753906 81.527344 157.296875 C 80.621094 157.839844 79.726562 158.40625 78.847656 158.992188 C 77.96875 159.582031 77.105469 160.191406 76.253906 160.820312 C 75.40625 161.449219 74.570312 162.101562 73.753906 162.769531 C 72.9375 163.441406 72.136719 164.132812 71.351562 164.84375 C 70.570312 165.554688 69.804688 166.28125 69.054688 167.03125 C 68.308594 167.777344 67.578125 168.542969 66.867188 169.328125 C 66.160156 170.109375 65.46875 170.910156 64.796875 171.730469 C 64.125 172.546875 63.476562 173.378906 62.84375 174.230469 C 62.214844 175.078125 61.605469 175.941406 61.019531 176.820312 C 60.433594 177.703125 59.867188 178.59375 59.324219 179.5 C 58.777344 180.410156 58.257812 181.328125 57.757812 182.261719 C 57.261719 183.195312 56.785156 184.136719 56.332031 185.09375 C 55.882812 186.050781 55.453125 187.015625 55.046875 187.992188 C 54.644531 188.972656 54.261719 189.957031 53.90625 190.953125 C 53.550781 191.949219 53.21875 192.953125 52.910156 193.964844 C 52.605469 194.976562 52.324219 195.996094 52.066406 197.023438 C 51.808594 198.046875 51.578125 199.078125 51.371094 200.117188 C 51.164062 201.152344 50.984375 202.195312 50.828125 203.242188 C 50.671875 204.289062 50.542969 205.335938 50.441406 206.390625 C 50.335938 207.441406 50.257812 208.496094 50.207031 209.550781 C 50.15625 210.609375 50.128906 211.664062 50.128906 212.722656 C 50.144531 215.113281 50.289062 217.5 50.570312 219.875 C 26.199219 224.253906 7.914062 243.9375 7.914062 267.703125 C 7.914062 294.703125 31.511719 316.441406 60.828125 316.441406 L 249.640625 316.441406 C 276.640625 316.441406 298.378906 296.234375 298.378906 271.136719 C 298.378906 246.195312 276.910156 226.097656 250.144531 225.847656 C 249.929688 224.175781 249.644531 222.515625 249.28125 220.871094 C 248.921875 219.226562 248.484375 217.597656 247.976562 215.992188 C 247.46875 214.382812 246.886719 212.804688 246.234375 211.25 C 245.585938 209.695312 244.863281 208.171875 244.074219 206.683594 C 243.285156 205.195312 242.429688 203.742188 241.511719 202.332031 C 240.589844 200.917969 239.609375 199.550781 238.566406 198.230469 C 237.519531 196.90625 236.417969 195.632812 235.261719 194.40625 C 234.101562 193.183594 232.890625 192.015625 231.625 190.902344 C 230.363281 189.785156 229.050781 188.730469 227.691406 187.734375 C 226.328125 186.738281 224.925781 185.808594 223.484375 184.9375 C 222.039062 184.070312 220.558594 183.265625 219.042969 182.53125 C 217.527344 181.796875 215.980469 181.128906 214.402344 180.535156 C 212.824219 179.9375 211.226562 179.414062 209.601562 178.964844 C 207.976562 178.511719 206.335938 178.136719 204.679688 177.832031 C 203.019531 177.53125 201.351562 177.304688 199.671875 177.152344 C 197.996094 177 196.3125 176.921875 194.628906 176.921875 C 186.578125 176.933594 178.890625 178.605469 171.5625 181.9375 C 170.183594 179.390625 168.636719 176.945312 166.929688 174.605469 C 165.21875 172.269531 163.363281 170.054688 161.355469 167.964844 C 159.351562 165.875 157.214844 163.929688 154.945312 162.128906 C 152.675781 160.324219 150.300781 158.683594 147.8125 157.203125 C 145.320312 155.71875 142.746094 154.410156 140.082031 153.277344 C 137.417969 152.140625 134.6875 151.1875 131.894531 150.417969 C 129.101562 149.652344 126.269531 149.070312 123.398438 148.683594 C 120.53125 148.296875 117.644531 148.101562 114.75 148.101562 Z M 114.75 148.101562 "/></g></g></svg>