<svg xmlns="http://www.w3.org/2000/svg" xmlns:xlink="http://www.w3.org/1999/xlink" width="500" zoomAndPan="magnify" viewBox="0 0 375 374.999991" height="500" preserveAspectRatio="xMidYMid meet" version="1.2"><defs><clipPath id="b8a1cfd064"><path d="M 112.5 112.5 L 262.5 112.5 L 262.5 262.5 L 112.5 262.5 Z M 112.5 112.5 "/></clipPath></defs><g id="4f3f857a20"><path style=" stroke:none;fill-rule:nonzero;fill:#e8e8e8;fill-opacity:1;" d="M 232.851562 184.101562 C 234.246094 189.167969 235 194.5 235 200 C 235 214.648438 229.726562 228.074219 221.003906 238.503906 L 212.5 230 L 212.5 217.5 L 202.5 207.5 L 202.5 197.5 L 207.5 192.5 L 207.5 180.300781 C 212.644531 183.300781 218.621094 185 225 185 C 227.703125 185 230.320312 184.695312 232.851562 184.101562 "/><path style=" stroke:none;fill-rule:nonzero;fill:#e8e8e8;fill-opacity:1;" d="M 242.675781 167.675781 C 239.128906 171.21875 234.519531 173.71875 229.34375 174.597656 C 227.949219 174.871094 226.472656 175 225 175 C 218.09375 175 211.84375 172.195312 207.324219 167.675781 C 202.800781 163.152344 200 156.902344 200 150 C 200 148.523438 200.125 147.050781 200.398438 145.652344 C 201.277344 140.476562 203.777344 135.867188 207.324219 132.324219 C 211.84375 127.800781 218.09375 125 225 125 C 231.902344 125 238.152344 127.800781 242.675781 132.324219 C 247.195312 136.84375 250 143.09375 250 150 C 250 156.902344 247.195312 163.152344 242.675781 167.675781 Z M 225 115 C 208.367188 115 194.453125 126.601562 190.898438 142.148438 C 190.300781 144.675781 190 147.292969 190 150 C 190 155.351562 191.199219 160.449219 193.367188 165 C 196.425781 171.425781 201.375 176.777344 207.5 180.300781 C 212.644531 183.300781 218.621094 185 225 185 C 227.703125 185 230.320312 184.695312 232.851562 184.101562 C 248.398438 180.546875 260 166.628906 260 150 C 260 130.671875 244.324219 115 225 115 "/><path style=" stroke:none;fill-rule:nonzero;fill:#e8e8e8;fill-opacity:1;" d="M 195 225 L 195 235 L 190 240 L 190 250 L 182.5 257.5 L 182.5 259.519531 C 180.046875 259.851562 177.546875 260 175 260 C 174.148438 260 173.328125 259.96875 172.5 259.949219 L 172.5 250 L 167.5 245 L 167.5 235 L 157.5 235 L 152.5 230 L 152.5 222.5 L 162.5 212.5 L 182.5 212.5 L 195 225 "/><path style=" stroke:none;fill-rule:nonzero;fill:#e8e8e8;fill-opacity:1;" d="M 193.367188 165 L 182.5 165 L 172.5 155 L 172.5 140.046875 C 173.328125 140.027344 174.148438 140 175 140 C 180.496094 140 185.828125 140.75 190.898438 142.148438 C 190.300781 144.675781 190 147.292969 190 150 C 190 155.351562 191.199219 160.449219 193.367188 165 "/><path style=" stroke:none;fill-rule:nonzero;fill:#e8e8e8;fill-opacity:1;" d="M 190 185 L 190 192.5 L 185 197.5 L 180 197.5 L 180 187.5 L 175 182.5 L 175 177.5 L 190 177.5 L 190 185 "/><path style=" stroke:none;fill-rule:nonzero;fill:#e8e8e8;fill-opacity:1;" d="M 160 152.5 L 160 162.5 L 150 172.5 L 150 182.5 L 140 192.5 L 132.5 192.5 L 132.5 200 L 145 212.5 L 145 220 L 137.5 227.5 L 137.5 235 L 131.347656 241.152344 C 121.21875 230.398438 115 215.925781 115 200 C 115 175.398438 129.824219 154.226562 151.042969 145 L 152.5 145 L 160 152.5 "/><path style=" stroke:none;fill-rule:nonzero;fill:#e8e8e8;fill-opacity:1;" d="M 187.5 191.464844 L 183.964844 195 L 182.5 195 L 182.5 187.5 C 182.5 186.835938 182.234375 186.199219 181.765625 185.730469 L 177.5 181.464844 L 177.5 180 L 187.5 180 Z M 190 175 L 175 175 C 173.621094 175 172.5 176.121094 172.5 177.5 L 172.5 182.5 C 172.5 183.164062 172.761719 183.796875 173.230469 184.265625 L 177.5 188.535156 L 177.5 197.5 C 177.5 198.875 178.621094 200 180 200 L 185 200 C 185.664062 200 186.296875 199.734375 186.765625 199.265625 L 191.765625 194.265625 C 192.234375 193.796875 192.5 193.164062 192.5 192.5 L 192.5 177.5 C 192.5 176.121094 191.375 175 190 175 "/><path style=" stroke:none;fill-rule:nonzero;fill:#e8e8e8;fill-opacity:1;" d="M 247.351562 152.5 C 246.863281 156.824219 245.15625 160.789062 242.566406 164.023438 L 239.140625 160.605469 L 235.605469 164.140625 L 239.023438 167.566406 C 235.789062 170.15625 231.824219 171.863281 227.5 172.351562 L 227.5 167.5 L 222.5 167.5 L 222.5 172.351562 C 218.171875 171.863281 214.207031 170.15625 210.976562 167.566406 L 214.394531 164.140625 L 210.859375 160.605469 L 207.429688 164.023438 C 204.84375 160.789062 203.132812 156.824219 202.644531 152.5 L 207.5 152.5 L 207.5 147.5 L 202.644531 147.5 C 203.132812 143.171875 204.84375 139.207031 207.429688 135.976562 L 210.859375 139.394531 L 214.394531 135.859375 L 210.976562 132.429688 C 214.207031 129.84375 218.171875 128.132812 222.5 127.644531 L 222.5 132.5 L 227.5 132.5 L 227.5 127.644531 C 231.824219 128.132812 235.789062 129.84375 239.023438 132.429688 L 235.605469 135.859375 L 239.140625 139.394531 L 242.566406 135.976562 C 245.15625 139.207031 246.863281 143.171875 247.351562 147.5 L 242.5 147.5 L 242.5 152.5 Z M 225 122.5 C 209.832031 122.5 197.5 134.832031 197.5 150 C 197.5 165.164062 209.832031 177.5 225 177.5 C 240.164062 177.5 252.5 165.164062 252.5 150 C 252.5 134.832031 240.164062 122.5 225 122.5 "/><path style=" stroke:none;fill-rule:nonzero;fill:#e8e8e8;fill-opacity:1;" d="M 222.5 148.964844 L 218.230469 153.230469 L 221.765625 156.765625 L 226.765625 151.765625 C 227.234375 151.296875 227.5 150.664062 227.5 150 L 227.5 137.5 L 222.5 137.5 L 222.5 148.964844 "/><g clip-rule="nonzero" clip-path="url(#b8a1cfd064)"><path style=" stroke:none;fill-rule:nonzero;fill:#e8e8e8;fill-opacity:1;" d="M 225 182.5 C 207.078125 182.5 192.5 167.917969 192.5 150 C 192.5 132.078125 207.078125 117.5 225 117.5 C 242.917969 117.5 257.5 132.078125 257.5 150 C 257.5 167.917969 242.917969 182.5 225 182.5 Z M 220.769531 234.753906 L 215 228.972656 L 215 217.5 C 215 216.824219 214.726562 216.199219 214.277344 215.722656 L 205 206.472656 L 205 198.523438 L 209.277344 194.277344 C 209.726562 193.796875 210 193.171875 210 192.5 L 210 184.34375 C 214.597656 186.375 219.675781 187.5 225 187.5 C 227.019531 187.5 229.023438 187.292969 230.976562 186.972656 C 231.972656 191.25 232.5 195.59375 232.5 200 C 232.5 213.046875 228.125 225.078125 220.769531 234.753906 Z M 187.402344 256.152344 L 191.777344 251.777344 C 192.226562 251.296875 192.5 250.671875 192.5 250 L 192.5 241.023438 L 196.777344 236.777344 C 197.226562 236.296875 197.5 235.671875 197.5 235 L 197.5 225 C 197.5 224.324219 197.226562 223.699219 196.777344 223.222656 L 184.277344 210.722656 C 183.796875 210.273438 183.171875 210 182.5 210 L 162.5 210 C 161.824219 210 161.199219 210.273438 160.722656 210.722656 L 150.722656 220.722656 C 150.273438 221.199219 150 221.824219 150 222.5 L 150 230 C 150 230.671875 150.273438 231.296875 150.722656 231.777344 L 155.722656 236.777344 C 156.199219 237.226562 156.824219 237.5 157.5 237.5 L 165 237.5 L 165 245 C 165 245.671875 165.273438 246.296875 165.722656 246.777344 L 170 251.023438 L 170 257.273438 C 156.394531 256.09375 144.121094 250.15625 134.902344 241.152344 L 139.277344 236.777344 C 139.726562 236.296875 140 235.671875 140 235 L 140 228.523438 L 146.777344 221.777344 C 147.226562 221.296875 147.5 220.671875 147.5 220 L 147.5 212.5 C 147.5 211.824219 147.226562 211.199219 146.777344 210.722656 L 135 198.972656 L 135 195 L 140 195 C 140.671875 195 141.296875 194.726562 141.777344 194.277344 L 151.777344 184.277344 C 152.226562 183.796875 152.5 183.171875 152.5 182.5 L 152.5 173.523438 L 161.777344 164.277344 C 162.226562 163.796875 162.5 163.171875 162.5 162.5 L 162.5 152.5 C 162.5 151.824219 162.226562 151.199219 161.777344 150.722656 L 156.570312 145.546875 C 160.847656 144.101562 165.351562 143.125 170 142.722656 L 170 155 C 170 155.671875 170.273438 156.296875 170.722656 156.777344 L 180.722656 166.777344 C 181.199219 167.226562 181.824219 167.5 182.5 167.5 L 191.84375 167.5 C 194.921875 173.300781 199.472656 178.171875 205 181.667969 L 205 191.472656 L 200.722656 195.722656 C 200.273438 196.199219 200 196.824219 200 197.5 L 200 207.5 C 200 208.171875 200.273438 208.796875 200.722656 209.277344 L 210 218.523438 L 210 230 C 210 230.671875 210.273438 231.296875 210.722656 231.777344 L 217.578125 238.601562 C 209.695312 247.273438 199.226562 253.523438 187.402344 256.152344 Z M 180.046875 257.273438 C 178.378906 257.402344 176.699219 257.5 175 257.5 L 175 250 C 175 249.324219 174.726562 248.699219 174.277344 248.222656 L 170 243.972656 L 170 235 C 170 233.621094 168.875 232.5 167.5 232.5 L 158.523438 232.5 L 155 228.972656 L 155 223.523438 L 163.523438 215 L 181.472656 215 L 192.5 226.023438 L 192.5 233.972656 L 188.222656 238.222656 C 187.773438 238.699219 187.5 239.324219 187.5 240 L 187.5 248.972656 L 180.722656 255.722656 C 180.320312 256.152344 180.097656 256.699219 180.046875 257.273438 Z M 117.5 200 C 117.5 176.648438 131.472656 156.550781 151.503906 147.546875 L 157.5 153.523438 L 157.5 161.472656 L 148.222656 170.722656 C 147.773438 171.199219 147.5 171.824219 147.5 172.5 L 147.5 181.472656 L 138.972656 190 L 132.5 190 C 131.121094 190 130 191.121094 130 192.5 L 130 200 C 130 200.671875 130.273438 201.296875 130.722656 201.777344 L 142.5 213.523438 L 142.5 218.972656 L 135.722656 225.722656 C 135.273438 226.199219 135 226.824219 135 227.5 L 135 233.972656 L 131.472656 237.5 C 122.773438 227.421875 117.5 214.324219 117.5 200 Z M 175 142.5 C 179.402344 142.5 183.75 143.027344 188.027344 144.023438 C 187.703125 145.976562 187.5 147.976562 187.5 150 C 187.5 154.402344 188.300781 158.574219 189.695312 162.5 L 183.523438 162.5 L 175 153.972656 Z M 262.5 150 C 262.5 129.324219 245.671875 112.5 225 112.5 C 208.09375 112.5 193.777344 123.75 189.121094 139.148438 C 184.5 138.074219 179.746094 137.5 175 137.5 C 140.527344 137.5 112.5 165.527344 112.5 200 C 112.5 234.472656 140.527344 262.5 175 262.5 C 209.472656 262.5 237.5 234.472656 237.5 200 C 237.5 195.242188 236.921875 190.496094 235.847656 185.867188 C 251.25 181.21875 262.5 166.902344 262.5 150 "/></g></g></svg>