<svg xmlns="http://www.w3.org/2000/svg" xmlns:xlink="http://www.w3.org/1999/xlink" width="500" zoomAndPan="magnify" viewBox="0 0 375 374.999991" height="500" preserveAspectRatio="xMidYMid meet" version="1.2"><defs><clipPath id="47aafe199b"><path d="M 28.679688 28.679688 L 346.679688 28.679688 L 346.679688 346.679688 L 28.679688 346.679688 Z M 28.679688 28.679688 "/></clipPath></defs><g id="c0789593ee"><path style=" stroke:none;fill-rule:nonzero;fill:#e8e8e8;fill-opacity:1;" d="M 283.53125 180.300781 C 286.488281 191.035156 288.082031 202.324219 288.082031 213.964844 C 288.082031 244.984375 276.914062 273.421875 258.449219 295.507812 L 240.4375 277.492188 L 240.4375 251.023438 L 219.261719 229.847656 L 219.261719 208.671875 L 229.847656 198.085938 L 229.847656 172.257812 C 240.746094 178.605469 253.402344 182.203125 266.90625 182.203125 C 272.632812 182.203125 278.175781 181.5625 283.53125 180.300781 "/><path style=" stroke:none;fill-rule:nonzero;fill:#e8e8e8;fill-opacity:1;" d="M 304.335938 145.519531 C 296.828125 153.023438 287.070312 158.316406 276.109375 160.179688 C 273.152344 160.757812 270.027344 161.027344 266.90625 161.027344 C 252.285156 161.027344 239.050781 155.09375 229.476562 145.519531 C 219.902344 135.941406 213.964844 122.707031 213.964844 108.085938 C 213.964844 104.964844 214.234375 101.84375 214.816406 98.886719 C 216.675781 87.925781 221.96875 78.164062 229.476562 70.65625 C 239.050781 61.082031 252.285156 55.148438 266.90625 55.148438 C 281.527344 55.148438 294.761719 61.082031 304.335938 70.65625 C 313.910156 80.234375 319.84375 93.46875 319.84375 108.085938 C 319.84375 122.707031 313.910156 135.941406 304.335938 145.519531 Z M 266.90625 33.972656 C 231.6875 33.972656 202.222656 58.539062 194.695312 91.460938 C 193.433594 96.816406 192.789062 102.359375 192.789062 108.085938 C 192.789062 119.421875 195.335938 130.214844 199.925781 139.851562 C 206.398438 153.457031 216.882812 164.789062 229.847656 172.257812 C 240.746094 178.605469 253.402344 182.203125 266.90625 182.203125 C 272.632812 182.203125 278.175781 181.5625 283.53125 180.300781 C 316.453125 172.773438 341.019531 143.304688 341.019531 108.085938 C 341.019531 67.164062 307.832031 33.972656 266.90625 33.972656 "/><path style=" stroke:none;fill-rule:nonzero;fill:#e8e8e8;fill-opacity:1;" d="M 203.378906 266.90625 L 203.378906 288.082031 L 192.789062 298.667969 L 192.789062 319.84375 L 176.910156 335.726562 L 176.910156 340.007812 C 171.71875 340.710938 166.425781 341.019531 161.027344 341.019531 C 159.226562 341.019531 157.492188 340.960938 155.734375 340.917969 L 155.734375 319.84375 L 145.144531 309.257812 L 145.144531 288.082031 L 123.96875 288.082031 L 113.382812 277.492188 L 113.382812 261.613281 L 134.558594 240.4375 L 176.910156 240.4375 L 203.378906 266.90625 "/><path style=" stroke:none;fill-rule:nonzero;fill:#e8e8e8;fill-opacity:1;" d="M 199.925781 139.851562 L 176.910156 139.851562 L 155.734375 118.675781 L 155.734375 87.015625 C 157.492188 86.972656 159.226562 86.910156 161.027344 86.910156 C 172.667969 86.910156 183.960938 88.503906 194.695312 91.460938 C 193.433594 96.816406 192.789062 102.359375 192.789062 108.085938 C 192.789062 119.421875 195.335938 130.214844 199.925781 139.851562 "/><path style=" stroke:none;fill-rule:nonzero;fill:#e8e8e8;fill-opacity:1;" d="M 192.789062 182.203125 L 192.789062 198.085938 L 182.203125 208.671875 L 171.613281 208.671875 L 171.613281 187.496094 L 161.027344 176.910156 L 161.027344 166.320312 L 192.789062 166.320312 L 192.789062 182.203125 "/><path style=" stroke:none;fill-rule:nonzero;fill:#e8e8e8;fill-opacity:1;" d="M 129.261719 113.382812 L 129.261719 134.558594 L 108.089844 155.734375 L 108.089844 176.910156 L 86.914062 198.085938 L 71.03125 198.085938 L 71.03125 213.964844 L 97.5 240.4375 L 97.5 256.316406 L 81.617188 272.199219 L 81.617188 288.082031 L 68.589844 301.109375 C 47.144531 278.34375 33.972656 247.695312 33.972656 213.964844 C 33.972656 161.875 65.363281 117.042969 110.300781 97.5 L 113.382812 97.5 L 129.261719 113.382812 "/><path style=" stroke:none;fill-rule:nonzero;fill:#e8e8e8;fill-opacity:1;" d="M 187.496094 195.894531 L 180.011719 203.378906 L 176.910156 203.378906 L 176.910156 187.496094 C 176.910156 186.089844 176.351562 184.746094 175.359375 183.753906 L 166.320312 174.71875 L 166.320312 171.613281 L 187.496094 171.613281 Z M 192.789062 161.027344 L 161.027344 161.027344 C 158.113281 161.027344 155.734375 163.40625 155.734375 166.320312 L 155.734375 176.910156 C 155.734375 178.316406 156.292969 179.660156 157.285156 180.652344 L 166.320312 189.6875 L 166.320312 208.671875 C 166.320312 211.589844 168.699219 213.964844 171.613281 213.964844 L 182.203125 213.964844 C 183.609375 213.964844 184.953125 213.410156 185.945312 212.414062 L 196.535156 201.828125 C 197.527344 200.835938 198.085938 199.492188 198.085938 198.085938 L 198.085938 166.320312 C 198.085938 163.40625 195.707031 161.027344 192.789062 161.027344 "/><path style=" stroke:none;fill-rule:nonzero;fill:#e8e8e8;fill-opacity:1;" d="M 314.242188 113.382812 C 313.207031 122.542969 309.589844 130.9375 304.109375 137.785156 L 296.851562 130.546875 L 289.363281 138.03125 L 296.601562 145.289062 C 289.757812 150.769531 281.359375 154.390625 272.199219 155.421875 L 272.199219 145.144531 L 261.613281 145.144531 L 261.613281 155.421875 C 252.453125 154.390625 244.054688 150.769531 237.210938 145.289062 L 244.449219 138.03125 L 236.960938 130.546875 L 229.703125 137.785156 C 224.222656 130.9375 220.605469 122.542969 219.570312 113.382812 L 229.847656 113.382812 L 229.847656 102.792969 L 219.570312 102.792969 C 220.605469 93.632812 224.222656 85.238281 229.703125 78.390625 L 236.960938 85.628906 L 244.449219 78.144531 L 237.210938 70.886719 C 244.054688 65.40625 252.453125 61.785156 261.613281 60.753906 L 261.613281 71.03125 L 272.199219 71.03125 L 272.199219 60.753906 C 281.359375 61.785156 289.757812 65.40625 296.601562 70.886719 L 289.363281 78.144531 L 296.851562 85.628906 L 304.109375 78.390625 C 309.589844 85.238281 313.207031 93.632812 314.242188 102.792969 L 303.964844 102.792969 L 303.964844 113.382812 Z M 266.90625 49.855469 C 234.792969 49.855469 208.671875 75.972656 208.671875 108.085938 C 208.671875 140.203125 234.792969 166.320312 266.90625 166.320312 C 299.019531 166.320312 325.140625 140.203125 325.140625 108.085938 C 325.140625 75.972656 299.019531 49.855469 266.90625 49.855469 "/><path style=" stroke:none;fill-rule:nonzero;fill:#e8e8e8;fill-opacity:1;" d="M 261.613281 105.894531 L 252.574219 114.933594 L 260.0625 122.417969 L 270.648438 111.832031 C 271.640625 110.839844 272.199219 109.492188 272.199219 108.085938 L 272.199219 81.617188 L 261.613281 81.617188 L 261.613281 105.894531 "/><g clip-rule="nonzero" clip-path="url(#47aafe199b)"><path style=" stroke:none;fill-rule:nonzero;fill:#e8e8e8;fill-opacity:1;" d="M 266.90625 176.910156 C 228.960938 176.910156 198.085938 146.035156 198.085938 108.085938 C 198.085938 70.140625 228.960938 39.265625 266.90625 39.265625 C 304.851562 39.265625 335.726562 70.140625 335.726562 108.085938 C 335.726562 146.035156 304.851562 176.910156 266.90625 176.910156 Z M 257.953125 287.566406 L 245.730469 275.324219 L 245.730469 251.023438 C 245.730469 249.597656 245.152344 248.273438 244.199219 247.261719 L 224.554688 227.675781 L 224.554688 210.84375 L 233.613281 201.847656 C 234.5625 200.835938 235.140625 199.511719 235.140625 198.085938 L 235.140625 180.816406 C 244.882812 185.117188 255.636719 187.496094 266.90625 187.496094 C 271.1875 187.496094 275.425781 187.0625 279.5625 186.378906 C 281.671875 195.4375 282.789062 204.640625 282.789062 213.964844 C 282.789062 241.59375 273.523438 267.070312 257.953125 287.566406 Z M 187.289062 332.875 L 196.554688 323.609375 C 197.507812 322.597656 198.085938 321.273438 198.085938 319.84375 L 198.085938 300.839844 L 207.140625 291.84375 C 208.09375 290.832031 208.671875 289.507812 208.671875 288.082031 L 208.671875 266.90625 C 208.671875 265.480469 208.09375 264.15625 207.140625 263.140625 L 180.671875 236.671875 C 179.660156 235.722656 178.335938 235.140625 176.910156 235.140625 L 134.558594 235.140625 C 133.128906 235.140625 131.808594 235.722656 130.792969 236.671875 L 109.617188 257.847656 C 108.667969 258.863281 108.089844 260.183594 108.089844 261.613281 L 108.089844 277.492188 C 108.089844 278.921875 108.667969 280.246094 109.617188 281.257812 L 120.207031 291.84375 C 121.21875 292.796875 122.542969 293.375 123.96875 293.375 L 139.851562 293.375 L 139.851562 309.257812 C 139.851562 310.683594 140.429688 312.007812 141.382812 313.019531 L 150.4375 322.015625 L 150.4375 335.25 C 121.632812 332.75 95.640625 320.175781 76.117188 301.109375 L 85.382812 291.84375 C 86.332031 290.832031 86.914062 289.507812 86.914062 288.082031 L 86.914062 274.371094 L 101.261719 260.082031 C 102.214844 259.070312 102.792969 257.746094 102.792969 256.316406 L 102.792969 240.4375 C 102.792969 239.007812 102.214844 237.6875 101.261719 236.671875 L 76.324219 211.796875 L 76.324219 203.378906 L 86.914062 203.378906 C 88.339844 203.378906 89.664062 202.800781 90.675781 201.847656 L 111.851562 180.671875 C 112.804688 179.660156 113.382812 178.335938 113.382812 176.910156 L 113.382812 157.90625 L 133.027344 138.320312 C 133.980469 137.308594 134.558594 135.984375 134.558594 134.558594 L 134.558594 113.382812 C 134.558594 111.953125 133.980469 110.632812 133.027344 109.617188 L 122.003906 98.65625 C 131.0625 95.597656 140.597656 93.53125 150.4375 92.683594 L 150.4375 118.675781 C 150.4375 120.101562 151.019531 121.425781 151.96875 122.4375 L 173.144531 143.613281 C 174.160156 144.566406 175.480469 145.144531 176.910156 145.144531 L 196.699219 145.144531 C 203.214844 157.429688 212.851562 167.75 224.554688 175.152344 L 224.554688 195.914062 L 215.496094 204.910156 C 214.546875 205.921875 213.964844 207.246094 213.964844 208.671875 L 213.964844 229.847656 C 213.964844 231.277344 214.546875 232.597656 215.496094 233.613281 L 235.140625 253.195312 L 235.140625 277.492188 C 235.140625 278.921875 235.722656 280.246094 236.671875 281.257812 L 251.191406 295.710938 C 234.5 314.074219 212.332031 327.3125 187.289062 332.875 Z M 171.71875 335.25 C 168.183594 335.519531 164.625 335.726562 161.027344 335.726562 L 161.027344 319.84375 C 161.027344 318.417969 160.449219 317.09375 159.496094 316.082031 L 150.4375 307.085938 L 150.4375 288.082031 C 150.4375 285.167969 148.0625 282.789062 145.144531 282.789062 L 126.140625 282.789062 L 118.675781 275.324219 L 118.675781 263.785156 L 136.730469 245.730469 L 174.738281 245.730469 L 198.085938 269.078125 L 198.085938 285.910156 L 189.027344 294.90625 C 188.074219 295.917969 187.496094 297.242188 187.496094 298.667969 L 187.496094 317.675781 L 173.144531 331.964844 C 172.296875 332.875 171.820312 334.03125 171.71875 335.25 Z M 39.265625 213.964844 C 39.265625 164.523438 68.859375 121.964844 111.273438 102.898438 L 123.96875 115.554688 L 123.96875 132.386719 L 104.324219 151.96875 C 103.371094 152.984375 102.792969 154.304688 102.792969 155.734375 L 102.792969 174.738281 L 84.742188 192.789062 L 71.03125 192.789062 C 68.113281 192.789062 65.738281 195.167969 65.738281 198.085938 L 65.738281 213.964844 C 65.738281 215.394531 66.316406 216.71875 67.265625 217.730469 L 92.207031 242.609375 L 92.207031 254.148438 L 77.855469 268.4375 C 76.902344 269.449219 76.324219 270.773438 76.324219 272.199219 L 76.324219 285.910156 L 68.859375 293.375 C 50.433594 272.035156 39.265625 244.304688 39.265625 213.964844 Z M 161.027344 92.207031 C 170.355469 92.207031 179.554688 93.324219 188.613281 95.433594 C 187.929688 99.566406 187.496094 103.808594 187.496094 108.085938 C 187.496094 117.414062 189.191406 126.246094 192.148438 134.558594 L 179.082031 134.558594 L 161.027344 116.503906 Z M 346.316406 108.085938 C 346.316406 64.308594 310.683594 28.679688 266.90625 28.679688 C 231.109375 28.679688 200.792969 52.5 190.929688 85.113281 C 181.148438 82.839844 171.078125 81.617188 161.027344 81.617188 C 88.027344 81.617188 28.679688 140.96875 28.679688 213.964844 C 28.679688 286.964844 88.027344 346.316406 161.027344 346.316406 C 234.027344 346.316406 293.375 286.964844 293.375 213.964844 C 293.375 203.894531 292.15625 193.84375 289.882812 184.042969 C 322.492188 174.199219 346.316406 143.882812 346.316406 108.085938 "/></g></g></svg>